%TF.GenerationSoftware,KiCad,Pcbnew,9.0.7*%
%TF.CreationDate,2026-02-14T18:41:00+05:30*%
%TF.ProjectId,Line_Follower,4c696e65-5f46-46f6-9c6c-6f7765722e6b,v1.0*%
%TF.SameCoordinates,Original*%
%TF.FileFunction,Copper,L2,Bot*%
%TF.FilePolarity,Positive*%
%FSLAX46Y46*%
G04 Gerber Fmt 4.6, Leading zero omitted, Abs format (unit mm)*
G04 Created by KiCad (PCBNEW 9.0.7) date 2026-02-14 18:41:00*
%MOMM*%
%LPD*%
G01*
G04 APERTURE LIST*
%TA.AperFunction,ComponentPad*%
%ADD10C,1.600000*%
%TD*%
%TA.AperFunction,ComponentPad*%
%ADD11R,1.500000X1.500000*%
%TD*%
%TA.AperFunction,ComponentPad*%
%ADD12R,2.400000X2.400000*%
%TD*%
%TA.AperFunction,ComponentPad*%
%ADD13C,2.400000*%
%TD*%
%TA.AperFunction,ComponentPad*%
%ADD14R,1.800000X1.800000*%
%TD*%
%TA.AperFunction,ComponentPad*%
%ADD15C,1.800000*%
%TD*%
%TA.AperFunction,ComponentPad*%
%ADD16R,2.000000X2.000000*%
%TD*%
%TA.AperFunction,ComponentPad*%
%ADD17C,2.000000*%
%TD*%
%TA.AperFunction,ComponentPad*%
%ADD18R,1.530000X1.530000*%
%TD*%
%TA.AperFunction,ComponentPad*%
%ADD19C,1.530000*%
%TD*%
%TA.AperFunction,ComponentPad*%
%ADD20C,1.210000*%
%TD*%
%TA.AperFunction,ComponentPad*%
%ADD21R,1.700000X1.700000*%
%TD*%
%TA.AperFunction,ComponentPad*%
%ADD22C,1.700000*%
%TD*%
%TA.AperFunction,ComponentPad*%
%ADD23C,1.980000*%
%TD*%
%TA.AperFunction,ViaPad*%
%ADD24C,0.800000*%
%TD*%
%TA.AperFunction,Conductor*%
%ADD25C,0.400000*%
%TD*%
%TA.AperFunction,Conductor*%
%ADD26C,0.500000*%
%TD*%
%TA.AperFunction,Conductor*%
%ADD27C,1.850000*%
%TD*%
G04 APERTURE END LIST*
D10*
%TO.P,R14,1*%
%TO.N,3V3*%
X118920000Y-44250000D03*
%TO.P,R14,2*%
%TO.N,MODE*%
X129080000Y-44250000D03*
%TD*%
D11*
%TO.P,SW1,1,A*%
%TO.N,VBAT+*%
X173710000Y-34000000D03*
D10*
%TO.P,SW1,2,B*%
%TO.N,Net-(J1-Pin_1)*%
X171170000Y-34000000D03*
%TO.P,SW1,3,C*%
%TO.N,unconnected-(SW1-C-Pad3)*%
X176250000Y-34000000D03*
%TD*%
D12*
%TO.P,J10,1,Pin_1*%
%TO.N,MB1*%
X186762500Y-48330000D03*
D13*
%TO.P,J10,2,Pin_2*%
%TO.N,MB2*%
X186762500Y-43250000D03*
%TD*%
D14*
%TO.P,D2,1,K*%
%TO.N,GND*%
X178000000Y-77250000D03*
D15*
%TO.P,D2,2,A*%
%TO.N,Net-(D2-A)*%
X175460000Y-77250000D03*
%TD*%
D12*
%TO.P,J9,1,Pin_1*%
%TO.N,MA1*%
X105750000Y-43250000D03*
D13*
%TO.P,J9,2,Pin_2*%
%TO.N,MA2*%
X105750000Y-48330000D03*
%TD*%
D16*
%TO.P,U2,1,IN+*%
%TO.N,VBAT+*%
X137411600Y-50840200D03*
D17*
%TO.P,U2,2,IN-*%
%TO.N,GND*%
X137411600Y-68840200D03*
%TO.P,U2,3,OUT-*%
X177411600Y-68840200D03*
D16*
%TO.P,U2,4,OUT+*%
%TO.N,3V3*%
X177411600Y-50840200D03*
%TD*%
D18*
%TO.P,U1,1,3V3*%
%TO.N,3V3*%
X122400000Y-100900000D03*
D19*
%TO.P,U1,2,EN*%
%TO.N,unconnected-(U1-EN-Pad2)*%
X124940000Y-100900000D03*
%TO.P,U1,3,SENSOR_VP*%
%TO.N,IR2*%
X127480000Y-100900000D03*
%TO.P,U1,4,SENSOR_VN*%
%TO.N,IR3*%
X130020000Y-100900000D03*
%TO.P,U1,5,IO34*%
%TO.N,IR4*%
X132560000Y-100900000D03*
%TO.P,U1,6,IO35*%
%TO.N,IR5*%
X135100000Y-100900000D03*
%TO.P,U1,7,IO32*%
%TO.N,IR6*%
X137640000Y-100900000D03*
%TO.P,U1,8,IO33*%
%TO.N,IR7*%
X140180000Y-100900000D03*
%TO.P,U1,9,IO25*%
%TO.N,PWMA*%
X142720000Y-100900000D03*
%TO.P,U1,10,IO26*%
%TO.N,PWMB*%
X145260000Y-100900000D03*
%TO.P,U1,11,IO27*%
%TO.N,BIN1*%
X147800000Y-100900000D03*
%TO.P,U1,12,IO14*%
%TO.N,unconnected-(U1-IO14-Pad12)*%
X150340000Y-100900000D03*
%TO.P,U1,13,IO12*%
%TO.N,unconnected-(U1-IO12-Pad13)*%
X152880000Y-100900000D03*
%TO.P,U1,14,GND1*%
%TO.N,GND*%
X155420000Y-100900000D03*
%TO.P,U1,15,IO13*%
%TO.N,BIN2*%
X157960000Y-100900000D03*
%TO.P,U1,16,SD2*%
%TO.N,unconnected-(U1-SD2-Pad16)*%
X160500000Y-100900000D03*
%TO.P,U1,17,SD3*%
%TO.N,unconnected-(U1-SD3-Pad17)*%
X163040000Y-100900000D03*
%TO.P,U1,18,CMD*%
%TO.N,unconnected-(U1-CMD-Pad18)*%
X165580000Y-100900000D03*
%TO.P,U1,19,EXT_5V*%
%TO.N,unconnected-(U1-EXT_5V-Pad19)*%
X168120000Y-100900000D03*
%TO.P,U1,20,CLK*%
%TO.N,unconnected-(U1-CLK-Pad20)*%
X168120000Y-75500000D03*
%TO.P,U1,21,SD0*%
%TO.N,unconnected-(U1-SD0-Pad21)*%
X165580000Y-75500000D03*
%TO.P,U1,22,SD1*%
%TO.N,unconnected-(U1-SD1-Pad22)*%
X163040000Y-75500000D03*
%TO.P,U1,23,IO15*%
%TO.N,unconnected-(U1-IO15-Pad23)*%
X160500000Y-75500000D03*
%TO.P,U1,24,IO2*%
%TO.N,unconnected-(U1-IO2-Pad24)*%
X157960000Y-75500000D03*
%TO.P,U1,25,IO0*%
%TO.N,unconnected-(U1-IO0-Pad25)*%
X155420000Y-75500000D03*
%TO.P,U1,26,IO4*%
%TO.N,unconnected-(U1-IO4-Pad26)*%
X152880000Y-75500000D03*
%TO.P,U1,27,IO16*%
%TO.N,AIN2*%
X150340000Y-75500000D03*
%TO.P,U1,28,IO17*%
%TO.N,AIN1*%
X147800000Y-75500000D03*
%TO.P,U1,29,IO5*%
%TO.N,unconnected-(U1-IO5-Pad29)*%
X145260000Y-75500000D03*
%TO.P,U1,30,IO18*%
%TO.N,CAL*%
X142720000Y-75500000D03*
%TO.P,U1,31,IO19*%
%TO.N,MODE*%
X140180000Y-75500000D03*
%TO.P,U1,32,GND2*%
%TO.N,GND*%
X137640000Y-75500000D03*
%TO.P,U1,33,IO21*%
%TO.N,STBY*%
X135100000Y-75500000D03*
%TO.P,U1,34,RXD0*%
%TO.N,unconnected-(U1-RXD0-Pad34)*%
X132560000Y-75500000D03*
%TO.P,U1,35,TXD0*%
%TO.N,unconnected-(U1-TXD0-Pad35)*%
X130020000Y-75500000D03*
%TO.P,U1,36,IO22*%
%TO.N,IR8*%
X127480000Y-75500000D03*
%TO.P,U1,37,IO23*%
%TO.N,IR1*%
X124940000Y-75500000D03*
%TO.P,U1,38,GND3*%
%TO.N,GND*%
X122400000Y-75500000D03*
%TD*%
D10*
%TO.P,R13,1*%
%TO.N,3V3*%
X133670000Y-44250000D03*
%TO.P,R13,2*%
%TO.N,CAL*%
X143830000Y-44250000D03*
%TD*%
D20*
%TO.P,C8,1*%
%TO.N,3V3*%
X109000000Y-67790000D03*
%TO.P,C8,2*%
%TO.N,GND*%
X109000000Y-65250000D03*
%TD*%
D21*
%TO.P,J11,1,Pin_1*%
%TO.N,IR1*%
X134760000Y-107250000D03*
D22*
%TO.P,J11,2,Pin_2*%
%TO.N,IR2*%
X137300000Y-107250000D03*
%TO.P,J11,3,Pin_3*%
%TO.N,IR3*%
X139840000Y-107250000D03*
%TO.P,J11,4,Pin_4*%
%TO.N,IR4*%
X142380000Y-107250000D03*
%TO.P,J11,5,Pin_5*%
%TO.N,IR5*%
X144920000Y-107250000D03*
%TO.P,J11,6,Pin_6*%
%TO.N,IR6*%
X147460000Y-107250000D03*
%TO.P,J11,7,Pin_7*%
%TO.N,IR7*%
X150000000Y-107250000D03*
%TO.P,J11,8,Pin_8*%
%TO.N,IR8*%
X152540000Y-107250000D03*
%TO.P,J11,9,Pin_9*%
%TO.N,3V3*%
X155080000Y-107250000D03*
%TO.P,J11,10,Pin_10*%
%TO.N,GND*%
X157620000Y-107250000D03*
%TD*%
D17*
%TO.P,SW3,1,1*%
%TO.N,GND*%
X128250000Y-34262500D03*
X134750000Y-34262500D03*
%TO.P,SW3,2,2*%
%TO.N,MODE*%
X128250000Y-38762500D03*
X134750000Y-38762500D03*
%TD*%
D23*
%TO.P,U3,1,VM*%
%TO.N,VBAT+*%
X115880000Y-50210000D03*
%TO.P,U3,2,VCC*%
%TO.N,3V3*%
X115880000Y-52750000D03*
%TO.P,U3,3,GND*%
%TO.N,GND*%
X115880000Y-55290000D03*
%TO.P,U3,4,A01*%
%TO.N,MA1*%
X115880000Y-57830000D03*
%TO.P,U3,5,A02*%
%TO.N,MA2*%
X115880000Y-60370000D03*
%TO.P,U3,6,B02*%
%TO.N,MB2*%
X115880000Y-62910000D03*
%TO.P,U3,7,B01*%
%TO.N,MB1*%
X115880000Y-65450000D03*
%TO.P,U3,8,GND*%
%TO.N,GND*%
X115880000Y-67990000D03*
%TO.P,U3,9,GND*%
X131120000Y-67990000D03*
%TO.P,U3,10,PWMB*%
%TO.N,PWMB*%
X131120000Y-65450000D03*
%TO.P,U3,11,BI2*%
%TO.N,BIN2*%
X131120000Y-62910000D03*
%TO.P,U3,12,BI1*%
%TO.N,BIN1*%
X131120000Y-60370000D03*
%TO.P,U3,13,STBY*%
%TO.N,STBY*%
X131120000Y-57830000D03*
%TO.P,U3,14,AI1*%
%TO.N,AIN1*%
X131120000Y-55290000D03*
%TO.P,U3,15,AI2*%
%TO.N,AIN2*%
X131120000Y-52750000D03*
%TO.P,U3,16,PWMA*%
%TO.N,PWMA*%
X131120000Y-50210000D03*
%TD*%
D10*
%TO.P,R2,1*%
%TO.N,3V3*%
X176750000Y-95830000D03*
%TO.P,R2,2*%
%TO.N,Net-(D2-A)*%
X176750000Y-85670000D03*
%TD*%
D12*
%TO.P,J1,1,Pin_1*%
%TO.N,Net-(J1-Pin_1)*%
X158790000Y-37987500D03*
D13*
%TO.P,J1,2,Pin_2*%
%TO.N,GND*%
X153710000Y-37987500D03*
%TD*%
D17*
%TO.P,SW6,1,1*%
%TO.N,GND*%
X139540000Y-34250000D03*
X146040000Y-34250000D03*
%TO.P,SW6,2,2*%
%TO.N,CAL*%
X139540000Y-38750000D03*
X146040000Y-38750000D03*
%TD*%
D20*
%TO.P,C5,1*%
%TO.N,VBAT+*%
X106000000Y-56710000D03*
%TO.P,C5,2*%
%TO.N,GND*%
X106000000Y-59250000D03*
%TD*%
D24*
%TO.N,MB1*%
X128000000Y-53330000D03*
%TO.N,CAL*%
X152875000Y-49125000D03*
X149250000Y-52750000D03*
%TD*%
D25*
%TO.N,MB1*%
X127829000Y-53159000D02*
X127829000Y-43731818D01*
X128000000Y-53330000D02*
X127829000Y-53159000D01*
X181431500Y-42999000D02*
X186762500Y-48330000D01*
X128561818Y-42999000D02*
X181431500Y-42999000D01*
X127829000Y-43731818D02*
X128561818Y-42999000D01*
%TO.N,IR1*%
X128696000Y-79256000D02*
X124940000Y-75500000D01*
X134760000Y-107250000D02*
X134542316Y-107250000D01*
X128696000Y-101403684D02*
X128696000Y-79256000D01*
X134542316Y-107250000D02*
X128696000Y-101403684D01*
%TO.N,IR8*%
X147406000Y-102116000D02*
X137136316Y-102116000D01*
X136424000Y-101403684D02*
X136424000Y-84444000D01*
X152540000Y-107250000D02*
X147406000Y-102116000D01*
X137136316Y-102116000D02*
X136424000Y-101403684D01*
X136424000Y-84444000D02*
X127480000Y-75500000D01*
D26*
%TO.N,3V3*%
X109000000Y-67790000D02*
X110106000Y-66684000D01*
X135250000Y-44250000D02*
X133670000Y-44250000D01*
X110106000Y-57894000D02*
X115250000Y-52750000D01*
X177411600Y-50840200D02*
X141840200Y-50840200D01*
X141840200Y-50840200D02*
X135250000Y-44250000D01*
X115250000Y-52750000D02*
X115880000Y-52750000D01*
X110106000Y-66684000D02*
X110106000Y-57894000D01*
D25*
%TO.N,CAL*%
X148000000Y-44250000D02*
X143830000Y-44250000D01*
X149250000Y-68970000D02*
X142720000Y-75500000D01*
X152875000Y-49125000D02*
X148000000Y-44250000D01*
X149250000Y-52750000D02*
X149250000Y-68970000D01*
%TO.N,MODE*%
X140180000Y-75500000D02*
X140180000Y-56680000D01*
X129080000Y-45580000D02*
X129080000Y-44250000D01*
X140180000Y-56680000D02*
X129080000Y-45580000D01*
D27*
%TO.N,VBAT+*%
X106000000Y-56710000D02*
X112500000Y-50210000D01*
X173710000Y-34000000D02*
X173710000Y-33356600D01*
X112500000Y-50210000D02*
X115880000Y-50210000D01*
D25*
%TO.N,STBY*%
X135100000Y-61810000D02*
X131120000Y-57830000D01*
X135100000Y-75500000D02*
X135100000Y-61810000D01*
%TO.N,PWMA*%
X131344000Y-73594000D02*
X129500000Y-71750000D01*
X131344000Y-76003684D02*
X131344000Y-73594000D01*
X129500000Y-51830000D02*
X131120000Y-50210000D01*
X129500000Y-71750000D02*
X129500000Y-51830000D01*
X142720000Y-100900000D02*
X142720000Y-87379684D01*
X142720000Y-87379684D02*
X131344000Y-76003684D01*
%TO.N,BIN2*%
X133884000Y-76824000D02*
X133884000Y-65674000D01*
X133884000Y-65674000D02*
X131120000Y-62910000D01*
X157960000Y-100900000D02*
X133884000Y-76824000D01*
%TD*%
%TA.AperFunction,Conductor*%
%TO.N,GND*%
G36*
X143625703Y-87556806D02*
G01*
X143632181Y-87562838D01*
X155492662Y-99423319D01*
X155526147Y-99484642D01*
X155521163Y-99554334D01*
X155479291Y-99610267D01*
X155413827Y-99634684D01*
X155404981Y-99635000D01*
X155320437Y-99635000D01*
X155123777Y-99666147D01*
X154934405Y-99727679D01*
X154756990Y-99818077D01*
X154719135Y-99845580D01*
X154719135Y-99845581D01*
X155282425Y-100408871D01*
X155223147Y-100424755D01*
X155106853Y-100491898D01*
X155011898Y-100586853D01*
X154944755Y-100703147D01*
X154928871Y-100762425D01*
X154365581Y-100199135D01*
X154365580Y-100199135D01*
X154338075Y-100236993D01*
X154260764Y-100388723D01*
X154212790Y-100439518D01*
X154144969Y-100456313D01*
X154078834Y-100433775D01*
X154039795Y-100388722D01*
X154008299Y-100326909D01*
X153962353Y-100236734D01*
X153845269Y-100075582D01*
X153704418Y-99934731D01*
X153543266Y-99817647D01*
X153464379Y-99777452D01*
X153365780Y-99727213D01*
X153176342Y-99665661D01*
X153028782Y-99642290D01*
X152979597Y-99634500D01*
X152780403Y-99634500D01*
X152714822Y-99644887D01*
X152583659Y-99665661D01*
X152583656Y-99665661D01*
X152394219Y-99727213D01*
X152216733Y-99817647D01*
X152178286Y-99845581D01*
X152055582Y-99934731D01*
X152055580Y-99934733D01*
X152055579Y-99934733D01*
X151914733Y-100075579D01*
X151914733Y-100075580D01*
X151914731Y-100075582D01*
X151882772Y-100119570D01*
X151797647Y-100236733D01*
X151720485Y-100388172D01*
X151672510Y-100438968D01*
X151604689Y-100455763D01*
X151538554Y-100433225D01*
X151499515Y-100388172D01*
X151457877Y-100306453D01*
X151422353Y-100236734D01*
X151305269Y-100075582D01*
X151164418Y-99934731D01*
X151003266Y-99817647D01*
X150924379Y-99777452D01*
X150825780Y-99727213D01*
X150636342Y-99665661D01*
X150488782Y-99642290D01*
X150439597Y-99634500D01*
X150240403Y-99634500D01*
X150174822Y-99644887D01*
X150043659Y-99665661D01*
X150043656Y-99665661D01*
X149854219Y-99727213D01*
X149676733Y-99817647D01*
X149638286Y-99845581D01*
X149515582Y-99934731D01*
X149515580Y-99934733D01*
X149515579Y-99934733D01*
X149374733Y-100075579D01*
X149374733Y-100075580D01*
X149374731Y-100075582D01*
X149342772Y-100119570D01*
X149257647Y-100236733D01*
X149180485Y-100388172D01*
X149132510Y-100438968D01*
X149064689Y-100455763D01*
X148998554Y-100433225D01*
X148959515Y-100388172D01*
X148917877Y-100306453D01*
X148882353Y-100236734D01*
X148765269Y-100075582D01*
X148624418Y-99934731D01*
X148463266Y-99817647D01*
X148384379Y-99777452D01*
X148285780Y-99727213D01*
X148096342Y-99665661D01*
X147948782Y-99642290D01*
X147899597Y-99634500D01*
X147700403Y-99634500D01*
X147634822Y-99644887D01*
X147503659Y-99665661D01*
X147503656Y-99665661D01*
X147314219Y-99727213D01*
X147136733Y-99817647D01*
X147098286Y-99845581D01*
X146975582Y-99934731D01*
X146975580Y-99934733D01*
X146975579Y-99934733D01*
X146834733Y-100075579D01*
X146834733Y-100075580D01*
X146834731Y-100075582D01*
X146802772Y-100119570D01*
X146717647Y-100236733D01*
X146640485Y-100388172D01*
X146592510Y-100438968D01*
X146524689Y-100455763D01*
X146458554Y-100433225D01*
X146419515Y-100388172D01*
X146377877Y-100306453D01*
X146342353Y-100236734D01*
X146225269Y-100075582D01*
X146084418Y-99934731D01*
X145923266Y-99817647D01*
X145844379Y-99777452D01*
X145745780Y-99727213D01*
X145556342Y-99665661D01*
X145408782Y-99642290D01*
X145359597Y-99634500D01*
X145160403Y-99634500D01*
X145094822Y-99644887D01*
X144963659Y-99665661D01*
X144963656Y-99665661D01*
X144774219Y-99727213D01*
X144596733Y-99817647D01*
X144558286Y-99845581D01*
X144435582Y-99934731D01*
X144435580Y-99934733D01*
X144435579Y-99934733D01*
X144294733Y-100075579D01*
X144294733Y-100075580D01*
X144294731Y-100075582D01*
X144262772Y-100119570D01*
X144177647Y-100236733D01*
X144100485Y-100388172D01*
X144052510Y-100438968D01*
X143984689Y-100455763D01*
X143918554Y-100433225D01*
X143879515Y-100388172D01*
X143837877Y-100306453D01*
X143802353Y-100236734D01*
X143685269Y-100075582D01*
X143544418Y-99934731D01*
X143544417Y-99934730D01*
X143471613Y-99881834D01*
X143428948Y-99826504D01*
X143420500Y-99781517D01*
X143420500Y-87650519D01*
X143440185Y-87583480D01*
X143492989Y-87537725D01*
X143562147Y-87527781D01*
X143625703Y-87556806D01*
G37*
%TD.AperFunction*%
%TA.AperFunction,Conductor*%
G36*
X132762453Y-50273376D02*
G01*
X132813504Y-50304161D01*
X139443181Y-56933838D01*
X139476666Y-56995161D01*
X139479500Y-57021519D01*
X139479500Y-74381517D01*
X139459815Y-74448556D01*
X139428387Y-74481834D01*
X139355582Y-74534730D01*
X139214733Y-74675579D01*
X139214733Y-74675580D01*
X139214731Y-74675582D01*
X139179555Y-74723997D01*
X139097645Y-74836735D01*
X139020203Y-74988723D01*
X138972229Y-75039518D01*
X138904408Y-75056313D01*
X138838273Y-75033775D01*
X138799234Y-74988722D01*
X138721924Y-74836994D01*
X138694417Y-74799135D01*
X138694417Y-74799134D01*
X138131128Y-75362424D01*
X138115245Y-75303147D01*
X138048102Y-75186853D01*
X137953147Y-75091898D01*
X137836853Y-75024755D01*
X137777574Y-75008871D01*
X138340864Y-74445581D01*
X138340863Y-74445580D01*
X138303008Y-74418077D01*
X138125594Y-74327679D01*
X137936222Y-74266147D01*
X137739563Y-74235000D01*
X137540437Y-74235000D01*
X137343777Y-74266147D01*
X137154405Y-74327679D01*
X136976990Y-74418077D01*
X136939135Y-74445580D01*
X136939135Y-74445581D01*
X137502425Y-75008871D01*
X137443147Y-75024755D01*
X137326853Y-75091898D01*
X137231898Y-75186853D01*
X137164755Y-75303147D01*
X137148871Y-75362425D01*
X136585581Y-74799135D01*
X136585580Y-74799135D01*
X136558075Y-74836993D01*
X136480764Y-74988723D01*
X136432790Y-75039518D01*
X136364969Y-75056313D01*
X136298834Y-75033775D01*
X136259795Y-74988722D01*
X136182485Y-74836994D01*
X136182353Y-74836734D01*
X136065269Y-74675582D01*
X135924418Y-74534731D01*
X135848253Y-74479394D01*
X135845047Y-74476718D01*
X135827844Y-74451009D01*
X135808948Y-74426504D01*
X135807973Y-74421313D01*
X135806191Y-74418650D01*
X135806050Y-74411074D01*
X135800500Y-74381517D01*
X135800500Y-69498768D01*
X135820185Y-69431729D01*
X135872989Y-69385974D01*
X135942147Y-69376030D01*
X136005703Y-69405055D01*
X136034985Y-69442473D01*
X136128687Y-69626375D01*
X136188938Y-69709304D01*
X136188940Y-69709305D01*
X136887812Y-69010433D01*
X136899082Y-69052492D01*
X136971490Y-69177908D01*
X137073892Y-69280310D01*
X137199308Y-69352718D01*
X137241365Y-69363987D01*
X136542493Y-70062858D01*
X136625428Y-70123114D01*
X136835797Y-70230302D01*
X137060352Y-70303265D01*
X137060351Y-70303265D01*
X137293548Y-70340200D01*
X137529652Y-70340200D01*
X137762847Y-70303265D01*
X137987402Y-70230302D01*
X138197763Y-70123118D01*
X138197769Y-70123114D01*
X138280704Y-70062858D01*
X138280705Y-70062858D01*
X137581833Y-69363987D01*
X137623892Y-69352718D01*
X137749308Y-69280310D01*
X137851710Y-69177908D01*
X137924118Y-69052492D01*
X137935387Y-69010434D01*
X138634258Y-69709305D01*
X138634258Y-69709304D01*
X138694514Y-69626369D01*
X138694518Y-69626363D01*
X138801702Y-69416002D01*
X138874665Y-69191447D01*
X138911600Y-68958252D01*
X138911600Y-68722147D01*
X138874665Y-68488952D01*
X138801702Y-68264397D01*
X138694514Y-68054028D01*
X138634258Y-67971094D01*
X138634258Y-67971093D01*
X137935387Y-68669965D01*
X137924118Y-68627908D01*
X137851710Y-68502492D01*
X137749308Y-68400090D01*
X137623892Y-68327682D01*
X137581834Y-68316412D01*
X138280705Y-67617540D01*
X138280704Y-67617538D01*
X138197774Y-67557287D01*
X137987402Y-67450097D01*
X137762847Y-67377134D01*
X137762848Y-67377134D01*
X137529652Y-67340200D01*
X137293548Y-67340200D01*
X137060352Y-67377134D01*
X136835797Y-67450097D01*
X136625430Y-67557284D01*
X136542494Y-67617540D01*
X137241366Y-68316412D01*
X137199308Y-68327682D01*
X137073892Y-68400090D01*
X136971490Y-68502492D01*
X136899082Y-68627908D01*
X136887812Y-68669966D01*
X136188940Y-67971094D01*
X136128684Y-68054030D01*
X136034985Y-68237926D01*
X135987010Y-68288722D01*
X135919189Y-68305517D01*
X135853054Y-68282980D01*
X135809603Y-68228264D01*
X135800500Y-68181631D01*
X135800500Y-61741004D01*
X135773581Y-61605677D01*
X135773580Y-61605676D01*
X135773580Y-61605672D01*
X135773578Y-61605667D01*
X135720778Y-61478195D01*
X135720773Y-61478186D01*
X135706084Y-61456203D01*
X135706083Y-61456201D01*
X135644112Y-61363454D01*
X135644109Y-61363451D01*
X132599544Y-58318887D01*
X132566059Y-58257564D01*
X132569294Y-58192888D01*
X132573799Y-58179026D01*
X132610500Y-57947305D01*
X132610500Y-57712695D01*
X132573799Y-57480974D01*
X132501301Y-57257847D01*
X132394790Y-57048808D01*
X132311260Y-56933838D01*
X132256895Y-56859010D01*
X132256891Y-56859005D01*
X132090992Y-56693106D01*
X132045863Y-56660319D01*
X132003196Y-56604989D01*
X131997216Y-56535376D01*
X132029822Y-56473581D01*
X132045863Y-56459681D01*
X132090992Y-56426893D01*
X132090992Y-56426892D01*
X132090996Y-56426890D01*
X132256890Y-56260996D01*
X132394790Y-56071192D01*
X132501301Y-55862153D01*
X132573799Y-55639026D01*
X132610500Y-55407305D01*
X132610500Y-55172695D01*
X132573799Y-54940974D01*
X132501301Y-54717847D01*
X132394790Y-54508808D01*
X132377171Y-54484558D01*
X132256895Y-54319010D01*
X132256891Y-54319005D01*
X132090992Y-54153106D01*
X132045863Y-54120319D01*
X132003196Y-54064989D01*
X131997216Y-53995376D01*
X132029822Y-53933581D01*
X132045863Y-53919681D01*
X132090992Y-53886893D01*
X132090992Y-53886892D01*
X132090996Y-53886890D01*
X132256890Y-53720996D01*
X132394790Y-53531192D01*
X132501301Y-53322153D01*
X132573799Y-53099026D01*
X132610500Y-52867305D01*
X132610500Y-52632695D01*
X132573799Y-52400974D01*
X132501301Y-52177847D01*
X132394790Y-51968808D01*
X132336132Y-51888072D01*
X132256895Y-51779010D01*
X132256891Y-51779005D01*
X132090992Y-51613106D01*
X132045863Y-51580319D01*
X132003196Y-51524989D01*
X131997216Y-51455376D01*
X132029822Y-51393581D01*
X132045863Y-51379681D01*
X132090992Y-51346893D01*
X132090992Y-51346892D01*
X132090996Y-51346890D01*
X132256890Y-51180996D01*
X132394790Y-50991192D01*
X132501301Y-50782153D01*
X132573799Y-50559026D01*
X132603350Y-50372443D01*
X132633279Y-50309310D01*
X132692590Y-50272378D01*
X132762453Y-50273376D01*
G37*
%TD.AperFunction*%
%TA.AperFunction,Conductor*%
G36*
X132755617Y-65556540D02*
G01*
X132806668Y-65587325D01*
X133147181Y-65927838D01*
X133180666Y-65989161D01*
X133183500Y-66015519D01*
X133183500Y-74201289D01*
X133163815Y-74268328D01*
X133111011Y-74314083D01*
X133041853Y-74324027D01*
X133021183Y-74319220D01*
X132856347Y-74265662D01*
X132856340Y-74265661D01*
X132740223Y-74247270D01*
X132659597Y-74234500D01*
X132460403Y-74234500D01*
X132394822Y-74244887D01*
X132263659Y-74265661D01*
X132263652Y-74265662D01*
X132206817Y-74284129D01*
X132136976Y-74286124D01*
X132077143Y-74250043D01*
X132046316Y-74187341D01*
X132044500Y-74166198D01*
X132044500Y-73525004D01*
X132017581Y-73389677D01*
X132017580Y-73389676D01*
X132017580Y-73389672D01*
X132017578Y-73389667D01*
X131964777Y-73262192D01*
X131888112Y-73147454D01*
X130236819Y-71496161D01*
X130203334Y-71434838D01*
X130200500Y-71408480D01*
X130200500Y-69396106D01*
X130220185Y-69329067D01*
X130272989Y-69283312D01*
X130342147Y-69273368D01*
X130380795Y-69285621D01*
X130548034Y-69370835D01*
X130771090Y-69443310D01*
X131002735Y-69480000D01*
X131237265Y-69480000D01*
X131468909Y-69443310D01*
X131691965Y-69370835D01*
X131900930Y-69264361D01*
X131981945Y-69205499D01*
X131981946Y-69205499D01*
X131375142Y-68598695D01*
X131432627Y-68574884D01*
X131540725Y-68502655D01*
X131632655Y-68410725D01*
X131704884Y-68302627D01*
X131728695Y-68245142D01*
X132335499Y-68851946D01*
X132335499Y-68851945D01*
X132394361Y-68770930D01*
X132500835Y-68561965D01*
X132573310Y-68338909D01*
X132610000Y-68107265D01*
X132610000Y-67872734D01*
X132573310Y-67641090D01*
X132500835Y-67418034D01*
X132394359Y-67209066D01*
X132335500Y-67128053D01*
X132335499Y-67128052D01*
X131728694Y-67734857D01*
X131704884Y-67677373D01*
X131632655Y-67569275D01*
X131540725Y-67477345D01*
X131432627Y-67405116D01*
X131375139Y-67381304D01*
X131981945Y-66774499D01*
X131979325Y-66741211D01*
X131993689Y-66672834D01*
X132030056Y-66631164D01*
X132090996Y-66586890D01*
X132256890Y-66420996D01*
X132394790Y-66231192D01*
X132501301Y-66022153D01*
X132573799Y-65799026D01*
X132596514Y-65655607D01*
X132626443Y-65592474D01*
X132685754Y-65555542D01*
X132755617Y-65556540D01*
G37*
%TD.AperFunction*%
%TA.AperFunction,Conductor*%
G36*
X189753019Y-30501551D02*
G01*
X190113383Y-30519255D01*
X190125483Y-30520447D01*
X190479344Y-30572937D01*
X190491254Y-30575306D01*
X190838290Y-30662235D01*
X190849903Y-30665759D01*
X191186739Y-30786282D01*
X191197958Y-30790929D01*
X191521345Y-30943882D01*
X191532064Y-30949610D01*
X191838909Y-31133528D01*
X191849015Y-31140281D01*
X192136347Y-31353383D01*
X192145741Y-31361093D01*
X192410808Y-31601339D01*
X192419398Y-31609929D01*
X192505761Y-31705217D01*
X192659635Y-31874994D01*
X192667354Y-31884400D01*
X192880443Y-32171722D01*
X192887204Y-32181840D01*
X193055894Y-32463289D01*
X193071110Y-32488675D01*
X193076846Y-32499407D01*
X193229786Y-32822781D01*
X193234443Y-32834024D01*
X193354953Y-33170840D01*
X193358485Y-33182485D01*
X193445399Y-33529483D01*
X193447773Y-33541418D01*
X193500257Y-33895265D01*
X193501450Y-33907375D01*
X193508465Y-34050208D01*
X193517106Y-34226148D01*
X193519201Y-34268792D01*
X193519350Y-34275018D01*
X193499622Y-51393091D01*
X193492587Y-51434120D01*
X182547107Y-82529234D01*
X182543293Y-82540070D01*
X182533539Y-82556980D01*
X182521493Y-82601999D01*
X182519906Y-82606509D01*
X182506016Y-82645969D01*
X182506015Y-82645977D01*
X182505400Y-82653979D01*
X182504521Y-82665433D01*
X182499477Y-82684286D01*
X182499492Y-82730880D01*
X182499127Y-82735644D01*
X182495923Y-82777367D01*
X182495923Y-82777373D01*
X182497402Y-82785268D01*
X182499521Y-82808050D01*
X182509342Y-110358345D01*
X182509342Y-110358355D01*
X182509344Y-110367170D01*
X182509116Y-110368038D01*
X182509361Y-110431032D01*
X182509362Y-110431314D01*
X182509350Y-110431351D01*
X182509235Y-110436963D01*
X182492717Y-110801364D01*
X182491566Y-110813508D01*
X182439762Y-111171487D01*
X182437423Y-111183460D01*
X182350695Y-111534614D01*
X182347191Y-111546299D01*
X182226375Y-111887240D01*
X182221739Y-111898524D01*
X182068015Y-112225925D01*
X182062294Y-112236699D01*
X181877134Y-112547428D01*
X181870381Y-112557588D01*
X181655591Y-112848611D01*
X181647873Y-112858058D01*
X181405523Y-113126569D01*
X181396914Y-113135212D01*
X181129351Y-113378614D01*
X181119934Y-113386369D01*
X180829752Y-113602299D01*
X180819619Y-113609091D01*
X180509625Y-113795463D01*
X180498873Y-113801227D01*
X180172065Y-113956237D01*
X180160806Y-113960914D01*
X179894336Y-114056517D01*
X179820342Y-114083065D01*
X179808670Y-114086614D01*
X179457861Y-114174716D01*
X179445898Y-114177102D01*
X179088127Y-114230308D01*
X179075987Y-114231507D01*
X178713732Y-114249350D01*
X178707632Y-114249500D01*
X113794436Y-114249500D01*
X113788351Y-114249351D01*
X113424934Y-114231495D01*
X113412824Y-114230302D01*
X113055937Y-114177362D01*
X113044002Y-114174988D01*
X112694010Y-114087319D01*
X112682366Y-114083786D01*
X112342676Y-113962243D01*
X112331433Y-113957587D01*
X112005263Y-113803320D01*
X111994536Y-113797585D01*
X111685075Y-113612102D01*
X111674957Y-113605342D01*
X111385154Y-113390409D01*
X111375748Y-113382689D01*
X111108418Y-113140397D01*
X111099820Y-113131800D01*
X110857500Y-112864442D01*
X110849801Y-112855059D01*
X110634867Y-112565257D01*
X110628110Y-112555145D01*
X110626628Y-112552673D01*
X110442615Y-112245668D01*
X110436883Y-112234942D01*
X110282619Y-111908782D01*
X110277971Y-111897562D01*
X110156414Y-111557838D01*
X110152887Y-111546213D01*
X110065214Y-111196211D01*
X110062841Y-111184281D01*
X110044265Y-111059062D01*
X110009898Y-110827389D01*
X110008705Y-110815278D01*
X109990873Y-110452358D01*
X109990724Y-110446229D01*
X109990730Y-110430846D01*
X109991192Y-109121288D01*
X109991278Y-108878711D01*
X113399500Y-108878711D01*
X113399500Y-109121288D01*
X113431161Y-109361785D01*
X113493947Y-109596104D01*
X113586773Y-109820205D01*
X113586776Y-109820212D01*
X113708064Y-110030289D01*
X113708066Y-110030292D01*
X113708067Y-110030293D01*
X113855733Y-110222736D01*
X113855739Y-110222743D01*
X114027256Y-110394260D01*
X114027263Y-110394266D01*
X114079034Y-110433991D01*
X114219711Y-110541936D01*
X114429788Y-110663224D01*
X114653900Y-110756054D01*
X114888211Y-110818838D01*
X115068586Y-110842584D01*
X115128711Y-110850500D01*
X115128712Y-110850500D01*
X115371289Y-110850500D01*
X115419388Y-110844167D01*
X115611789Y-110818838D01*
X115846100Y-110756054D01*
X116070212Y-110663224D01*
X116280289Y-110541936D01*
X116472738Y-110394265D01*
X116644265Y-110222738D01*
X116791936Y-110030289D01*
X116913224Y-109820212D01*
X117006054Y-109596100D01*
X117068838Y-109361789D01*
X117100500Y-109121288D01*
X117100500Y-108878712D01*
X117100500Y-108878711D01*
X175649500Y-108878711D01*
X175649500Y-109121288D01*
X175681161Y-109361785D01*
X175743947Y-109596104D01*
X175836773Y-109820205D01*
X175836776Y-109820212D01*
X175958064Y-110030289D01*
X175958066Y-110030292D01*
X175958067Y-110030293D01*
X176105733Y-110222736D01*
X176105739Y-110222743D01*
X176277256Y-110394260D01*
X176277263Y-110394266D01*
X176329034Y-110433991D01*
X176469711Y-110541936D01*
X176679788Y-110663224D01*
X176903900Y-110756054D01*
X177138211Y-110818838D01*
X177318586Y-110842584D01*
X177378711Y-110850500D01*
X177378712Y-110850500D01*
X177621289Y-110850500D01*
X177669388Y-110844167D01*
X177861789Y-110818838D01*
X178096100Y-110756054D01*
X178320212Y-110663224D01*
X178530289Y-110541936D01*
X178722738Y-110394265D01*
X178894265Y-110222738D01*
X179041936Y-110030289D01*
X179163224Y-109820212D01*
X179256054Y-109596100D01*
X179318838Y-109361789D01*
X179350500Y-109121288D01*
X179350500Y-108878712D01*
X179318838Y-108638211D01*
X179256054Y-108403900D01*
X179163224Y-108179788D01*
X179041936Y-107969711D01*
X178894265Y-107777262D01*
X178894260Y-107777256D01*
X178722743Y-107605739D01*
X178722736Y-107605733D01*
X178530293Y-107458067D01*
X178530292Y-107458066D01*
X178530289Y-107458064D01*
X178320212Y-107336776D01*
X178320205Y-107336773D01*
X178096104Y-107243947D01*
X177861785Y-107181161D01*
X177621289Y-107149500D01*
X177621288Y-107149500D01*
X177378712Y-107149500D01*
X177378711Y-107149500D01*
X177138214Y-107181161D01*
X176903895Y-107243947D01*
X176679794Y-107336773D01*
X176679785Y-107336777D01*
X176469706Y-107458067D01*
X176277263Y-107605733D01*
X176277256Y-107605739D01*
X176105739Y-107777256D01*
X176105733Y-107777263D01*
X175958067Y-107969706D01*
X175836777Y-108179785D01*
X175836773Y-108179794D01*
X175743947Y-108403895D01*
X175681161Y-108638214D01*
X175649500Y-108878711D01*
X117100500Y-108878711D01*
X117068838Y-108638211D01*
X117006054Y-108403900D01*
X116913224Y-108179788D01*
X116791936Y-107969711D01*
X116644265Y-107777262D01*
X116644260Y-107777256D01*
X116472743Y-107605739D01*
X116472736Y-107605733D01*
X116280293Y-107458067D01*
X116280292Y-107458066D01*
X116280289Y-107458064D01*
X116070212Y-107336776D01*
X116070205Y-107336773D01*
X115846104Y-107243947D01*
X115611785Y-107181161D01*
X115371289Y-107149500D01*
X115371288Y-107149500D01*
X115128712Y-107149500D01*
X115128711Y-107149500D01*
X114888214Y-107181161D01*
X114653895Y-107243947D01*
X114429794Y-107336773D01*
X114429785Y-107336777D01*
X114219706Y-107458067D01*
X114027263Y-107605733D01*
X114027256Y-107605739D01*
X113855739Y-107777256D01*
X113855733Y-107777263D01*
X113708067Y-107969706D01*
X113586777Y-108179785D01*
X113586773Y-108179794D01*
X113493947Y-108403895D01*
X113431161Y-108638214D01*
X113399500Y-108878711D01*
X109991278Y-108878711D01*
X109991279Y-108874609D01*
X109993619Y-102244107D01*
X109994380Y-100087135D01*
X121134500Y-100087135D01*
X121134500Y-101712870D01*
X121134501Y-101712876D01*
X121140908Y-101772483D01*
X121191202Y-101907328D01*
X121191206Y-101907335D01*
X121277452Y-102022544D01*
X121277455Y-102022547D01*
X121392664Y-102108793D01*
X121392671Y-102108797D01*
X121527517Y-102159091D01*
X121527516Y-102159091D01*
X121534444Y-102159835D01*
X121587127Y-102165500D01*
X123212872Y-102165499D01*
X123272483Y-102159091D01*
X123407331Y-102108796D01*
X123522546Y-102022546D01*
X123608796Y-101907331D01*
X123659091Y-101772483D01*
X123665500Y-101712873D01*
X123665499Y-101680430D01*
X123685182Y-101613394D01*
X123737984Y-101567638D01*
X123807143Y-101557693D01*
X123870699Y-101586716D01*
X123889817Y-101607545D01*
X123894067Y-101613394D01*
X123974731Y-101724418D01*
X124115582Y-101865269D01*
X124276734Y-101982353D01*
X124401533Y-102045941D01*
X124454219Y-102072786D01*
X124643657Y-102134338D01*
X124643658Y-102134338D01*
X124643661Y-102134339D01*
X124840403Y-102165500D01*
X124840404Y-102165500D01*
X125039596Y-102165500D01*
X125039597Y-102165500D01*
X125236339Y-102134339D01*
X125236342Y-102134338D01*
X125236343Y-102134338D01*
X125425780Y-102072786D01*
X125425780Y-102072785D01*
X125425783Y-102072785D01*
X125603266Y-101982353D01*
X125764418Y-101865269D01*
X125905269Y-101724418D01*
X126022353Y-101563266D01*
X126099515Y-101411827D01*
X126147490Y-101361031D01*
X126215311Y-101344236D01*
X126281446Y-101366773D01*
X126320485Y-101411827D01*
X126394807Y-101557693D01*
X126397647Y-101563266D01*
X126514731Y-101724418D01*
X126655582Y-101865269D01*
X126816734Y-101982353D01*
X126941533Y-102045941D01*
X126994219Y-102072786D01*
X127183657Y-102134338D01*
X127183658Y-102134338D01*
X127183661Y-102134339D01*
X127380403Y-102165500D01*
X127380404Y-102165500D01*
X127579596Y-102165500D01*
X127579597Y-102165500D01*
X127776339Y-102134339D01*
X127776342Y-102134338D01*
X127776343Y-102134338D01*
X127965780Y-102072786D01*
X127965780Y-102072785D01*
X127965783Y-102072785D01*
X128143266Y-101982353D01*
X128143272Y-101982348D01*
X128147177Y-101979956D01*
X128214621Y-101961706D01*
X128281225Y-101982817D01*
X128299656Y-101997997D01*
X133373181Y-107071521D01*
X133406666Y-107132844D01*
X133409500Y-107159202D01*
X133409500Y-108147870D01*
X133409501Y-108147876D01*
X133415908Y-108207483D01*
X133466202Y-108342328D01*
X133466206Y-108342335D01*
X133552452Y-108457544D01*
X133552455Y-108457547D01*
X133667664Y-108543793D01*
X133667671Y-108543797D01*
X133802517Y-108594091D01*
X133802516Y-108594091D01*
X133809444Y-108594835D01*
X133862127Y-108600500D01*
X135657872Y-108600499D01*
X135717483Y-108594091D01*
X135852331Y-108543796D01*
X135967546Y-108457546D01*
X136053796Y-108342331D01*
X136102810Y-108210916D01*
X136144681Y-108154984D01*
X136210145Y-108130566D01*
X136278418Y-108145417D01*
X136306673Y-108166569D01*
X136420213Y-108280109D01*
X136592179Y-108405048D01*
X136592181Y-108405049D01*
X136592184Y-108405051D01*
X136781588Y-108501557D01*
X136983757Y-108567246D01*
X137193713Y-108600500D01*
X137193714Y-108600500D01*
X137406286Y-108600500D01*
X137406287Y-108600500D01*
X137616243Y-108567246D01*
X137818412Y-108501557D01*
X138007816Y-108405051D01*
X138094138Y-108342335D01*
X138179786Y-108280109D01*
X138179788Y-108280106D01*
X138179792Y-108280104D01*
X138330104Y-108129792D01*
X138330106Y-108129788D01*
X138330109Y-108129786D01*
X138455048Y-107957820D01*
X138455047Y-107957820D01*
X138455051Y-107957816D01*
X138459514Y-107949054D01*
X138507488Y-107898259D01*
X138575308Y-107881463D01*
X138641444Y-107903999D01*
X138680486Y-107949056D01*
X138684951Y-107957820D01*
X138809890Y-108129786D01*
X138960213Y-108280109D01*
X139132179Y-108405048D01*
X139132181Y-108405049D01*
X139132184Y-108405051D01*
X139321588Y-108501557D01*
X139523757Y-108567246D01*
X139733713Y-108600500D01*
X139733714Y-108600500D01*
X139946286Y-108600500D01*
X139946287Y-108600500D01*
X140156243Y-108567246D01*
X140358412Y-108501557D01*
X140547816Y-108405051D01*
X140634138Y-108342335D01*
X140719786Y-108280109D01*
X140719788Y-108280106D01*
X140719792Y-108280104D01*
X140870104Y-108129792D01*
X140870106Y-108129788D01*
X140870109Y-108129786D01*
X140995048Y-107957820D01*
X140995047Y-107957820D01*
X140995051Y-107957816D01*
X140999514Y-107949054D01*
X141047488Y-107898259D01*
X141115308Y-107881463D01*
X141181444Y-107903999D01*
X141220486Y-107949056D01*
X141224951Y-107957820D01*
X141349890Y-108129786D01*
X141500213Y-108280109D01*
X141672179Y-108405048D01*
X141672181Y-108405049D01*
X141672184Y-108405051D01*
X141861588Y-108501557D01*
X142063757Y-108567246D01*
X142273713Y-108600500D01*
X142273714Y-108600500D01*
X142486286Y-108600500D01*
X142486287Y-108600500D01*
X142696243Y-108567246D01*
X142898412Y-108501557D01*
X143087816Y-108405051D01*
X143174138Y-108342335D01*
X143259786Y-108280109D01*
X143259788Y-108280106D01*
X143259792Y-108280104D01*
X143410104Y-108129792D01*
X143410106Y-108129788D01*
X143410109Y-108129786D01*
X143535048Y-107957820D01*
X143535047Y-107957820D01*
X143535051Y-107957816D01*
X143539514Y-107949054D01*
X143587488Y-107898259D01*
X143655308Y-107881463D01*
X143721444Y-107903999D01*
X143760486Y-107949056D01*
X143764951Y-107957820D01*
X143889890Y-108129786D01*
X144040213Y-108280109D01*
X144212179Y-108405048D01*
X144212181Y-108405049D01*
X144212184Y-108405051D01*
X144401588Y-108501557D01*
X144603757Y-108567246D01*
X144813713Y-108600500D01*
X144813714Y-108600500D01*
X145026286Y-108600500D01*
X145026287Y-108600500D01*
X145236243Y-108567246D01*
X145438412Y-108501557D01*
X145627816Y-108405051D01*
X145714138Y-108342335D01*
X145799786Y-108280109D01*
X145799788Y-108280106D01*
X145799792Y-108280104D01*
X145950104Y-108129792D01*
X145950106Y-108129788D01*
X145950109Y-108129786D01*
X146075048Y-107957820D01*
X146075047Y-107957820D01*
X146075051Y-107957816D01*
X146079514Y-107949054D01*
X146127488Y-107898259D01*
X146195308Y-107881463D01*
X146261444Y-107903999D01*
X146300486Y-107949056D01*
X146304951Y-107957820D01*
X146429890Y-108129786D01*
X146580213Y-108280109D01*
X146752179Y-108405048D01*
X146752181Y-108405049D01*
X146752184Y-108405051D01*
X146941588Y-108501557D01*
X147143757Y-108567246D01*
X147353713Y-108600500D01*
X147353714Y-108600500D01*
X147566286Y-108600500D01*
X147566287Y-108600500D01*
X147776243Y-108567246D01*
X147978412Y-108501557D01*
X148167816Y-108405051D01*
X148254138Y-108342335D01*
X148339786Y-108280109D01*
X148339788Y-108280106D01*
X148339792Y-108280104D01*
X148490104Y-108129792D01*
X148490106Y-108129788D01*
X148490109Y-108129786D01*
X148615048Y-107957820D01*
X148615047Y-107957820D01*
X148615051Y-107957816D01*
X148619514Y-107949054D01*
X148667488Y-107898259D01*
X148735308Y-107881463D01*
X148801444Y-107903999D01*
X148840486Y-107949056D01*
X148844951Y-107957820D01*
X148969890Y-108129786D01*
X149120213Y-108280109D01*
X149292179Y-108405048D01*
X149292181Y-108405049D01*
X149292184Y-108405051D01*
X149481588Y-108501557D01*
X149683757Y-108567246D01*
X149893713Y-108600500D01*
X149893714Y-108600500D01*
X150106286Y-108600500D01*
X150106287Y-108600500D01*
X150316243Y-108567246D01*
X150518412Y-108501557D01*
X150707816Y-108405051D01*
X150794138Y-108342335D01*
X150879786Y-108280109D01*
X150879788Y-108280106D01*
X150879792Y-108280104D01*
X151030104Y-108129792D01*
X151030106Y-108129788D01*
X151030109Y-108129786D01*
X151155048Y-107957820D01*
X151155047Y-107957820D01*
X151155051Y-107957816D01*
X151159514Y-107949054D01*
X151207488Y-107898259D01*
X151275308Y-107881463D01*
X151341444Y-107903999D01*
X151380486Y-107949056D01*
X151384951Y-107957820D01*
X151509890Y-108129786D01*
X151660213Y-108280109D01*
X151832179Y-108405048D01*
X151832181Y-108405049D01*
X151832184Y-108405051D01*
X152021588Y-108501557D01*
X152223757Y-108567246D01*
X152433713Y-108600500D01*
X152433714Y-108600500D01*
X152646286Y-108600500D01*
X152646287Y-108600500D01*
X152856243Y-108567246D01*
X153058412Y-108501557D01*
X153247816Y-108405051D01*
X153334138Y-108342335D01*
X153419786Y-108280109D01*
X153419788Y-108280106D01*
X153419792Y-108280104D01*
X153570104Y-108129792D01*
X153570106Y-108129788D01*
X153570109Y-108129786D01*
X153695048Y-107957820D01*
X153695047Y-107957820D01*
X153695051Y-107957816D01*
X153699514Y-107949054D01*
X153747488Y-107898259D01*
X153815308Y-107881463D01*
X153881444Y-107903999D01*
X153920486Y-107949056D01*
X153924951Y-107957820D01*
X154049890Y-108129786D01*
X154200213Y-108280109D01*
X154372179Y-108405048D01*
X154372181Y-108405049D01*
X154372184Y-108405051D01*
X154561588Y-108501557D01*
X154763757Y-108567246D01*
X154973713Y-108600500D01*
X154973714Y-108600500D01*
X155186286Y-108600500D01*
X155186287Y-108600500D01*
X155396243Y-108567246D01*
X155598412Y-108501557D01*
X155787816Y-108405051D01*
X155874138Y-108342335D01*
X155959786Y-108280109D01*
X155959788Y-108280106D01*
X155959792Y-108280104D01*
X156110104Y-108129792D01*
X156110106Y-108129788D01*
X156110109Y-108129786D01*
X156195890Y-108011717D01*
X156235051Y-107957816D01*
X156239793Y-107948508D01*
X156287763Y-107897711D01*
X156355583Y-107880911D01*
X156421719Y-107903445D01*
X156460763Y-107948500D01*
X156465373Y-107957547D01*
X156504728Y-108011716D01*
X157137037Y-107379408D01*
X157154075Y-107442993D01*
X157219901Y-107557007D01*
X157312993Y-107650099D01*
X157427007Y-107715925D01*
X157490590Y-107732962D01*
X156858282Y-108365269D01*
X156858282Y-108365270D01*
X156912449Y-108404624D01*
X157101782Y-108501095D01*
X157303870Y-108566757D01*
X157513754Y-108600000D01*
X157726246Y-108600000D01*
X157936127Y-108566757D01*
X157936130Y-108566757D01*
X158138217Y-108501095D01*
X158327554Y-108404622D01*
X158381716Y-108365270D01*
X158381717Y-108365270D01*
X157749408Y-107732962D01*
X157812993Y-107715925D01*
X157927007Y-107650099D01*
X158020099Y-107557007D01*
X158085925Y-107442993D01*
X158102962Y-107379408D01*
X158735270Y-108011717D01*
X158735270Y-108011716D01*
X158774622Y-107957554D01*
X158871095Y-107768217D01*
X158936757Y-107566130D01*
X158936757Y-107566127D01*
X158970000Y-107356246D01*
X158970000Y-107143753D01*
X158936757Y-106933872D01*
X158936757Y-106933869D01*
X158871095Y-106731782D01*
X158774624Y-106542449D01*
X158735270Y-106488282D01*
X158735269Y-106488282D01*
X158102962Y-107120590D01*
X158085925Y-107057007D01*
X158020099Y-106942993D01*
X157927007Y-106849901D01*
X157812993Y-106784075D01*
X157749409Y-106767037D01*
X158381716Y-106134728D01*
X158327550Y-106095375D01*
X158138217Y-105998904D01*
X157936129Y-105933242D01*
X157726246Y-105900000D01*
X157513754Y-105900000D01*
X157303872Y-105933242D01*
X157303869Y-105933242D01*
X157101782Y-105998904D01*
X156912439Y-106095380D01*
X156858282Y-106134727D01*
X156858282Y-106134728D01*
X157490591Y-106767037D01*
X157427007Y-106784075D01*
X157312993Y-106849901D01*
X157219901Y-106942993D01*
X157154075Y-107057007D01*
X157137037Y-107120591D01*
X156504728Y-106488282D01*
X156504727Y-106488282D01*
X156465380Y-106542440D01*
X156465376Y-106542446D01*
X156460760Y-106551505D01*
X156412781Y-106602297D01*
X156344959Y-106619087D01*
X156278826Y-106596543D01*
X156239794Y-106551493D01*
X156235051Y-106542184D01*
X156235049Y-106542181D01*
X156235048Y-106542179D01*
X156110109Y-106370213D01*
X155959786Y-106219890D01*
X155787820Y-106094951D01*
X155598414Y-105998444D01*
X155598413Y-105998443D01*
X155598412Y-105998443D01*
X155396243Y-105932754D01*
X155396241Y-105932753D01*
X155396240Y-105932753D01*
X155234957Y-105907208D01*
X155186287Y-105899500D01*
X154973713Y-105899500D01*
X154925042Y-105907208D01*
X154763760Y-105932753D01*
X154561585Y-105998444D01*
X154372179Y-106094951D01*
X154200213Y-106219890D01*
X154049890Y-106370213D01*
X153924949Y-106542182D01*
X153920484Y-106550946D01*
X153872509Y-106601742D01*
X153804688Y-106618536D01*
X153738553Y-106595998D01*
X153699516Y-106550946D01*
X153695050Y-106542182D01*
X153570109Y-106370213D01*
X153419786Y-106219890D01*
X153247820Y-106094951D01*
X153058414Y-105998444D01*
X153058413Y-105998443D01*
X153058412Y-105998443D01*
X152856243Y-105932754D01*
X152856241Y-105932753D01*
X152856240Y-105932753D01*
X152694957Y-105907208D01*
X152646287Y-105899500D01*
X152433713Y-105899500D01*
X152277226Y-105924284D01*
X152207933Y-105915329D01*
X152170148Y-105889492D01*
X148449940Y-102169283D01*
X148416455Y-102107960D01*
X148421439Y-102038268D01*
X148463311Y-101982335D01*
X148464646Y-101981349D01*
X148624418Y-101865269D01*
X148765269Y-101724418D01*
X148882353Y-101563266D01*
X148959515Y-101411827D01*
X149007490Y-101361031D01*
X149075311Y-101344236D01*
X149141446Y-101366773D01*
X149180485Y-101411827D01*
X149254807Y-101557693D01*
X149257647Y-101563266D01*
X149374731Y-101724418D01*
X149515582Y-101865269D01*
X149676734Y-101982353D01*
X149801533Y-102045941D01*
X149854219Y-102072786D01*
X150043657Y-102134338D01*
X150043658Y-102134338D01*
X150043661Y-102134339D01*
X150240403Y-102165500D01*
X150240404Y-102165500D01*
X150439596Y-102165500D01*
X150439597Y-102165500D01*
X150636339Y-102134339D01*
X150636342Y-102134338D01*
X150636343Y-102134338D01*
X150825780Y-102072786D01*
X150825780Y-102072785D01*
X150825783Y-102072785D01*
X151003266Y-101982353D01*
X151164418Y-101865269D01*
X151305269Y-101724418D01*
X151422353Y-101563266D01*
X151499515Y-101411827D01*
X151547490Y-101361031D01*
X151615311Y-101344236D01*
X151681446Y-101366773D01*
X151720485Y-101411827D01*
X151794807Y-101557693D01*
X151797647Y-101563266D01*
X151914731Y-101724418D01*
X152055582Y-101865269D01*
X152216734Y-101982353D01*
X152341533Y-102045941D01*
X152394219Y-102072786D01*
X152583657Y-102134338D01*
X152583658Y-102134338D01*
X152583661Y-102134339D01*
X152780403Y-102165500D01*
X152780404Y-102165500D01*
X152979596Y-102165500D01*
X152979597Y-102165500D01*
X153176339Y-102134339D01*
X153176342Y-102134338D01*
X153176343Y-102134338D01*
X153365780Y-102072786D01*
X153365780Y-102072785D01*
X153365783Y-102072785D01*
X153543266Y-101982353D01*
X153704418Y-101865269D01*
X153845269Y-101724418D01*
X153962353Y-101563266D01*
X154039795Y-101411276D01*
X154087769Y-101360481D01*
X154155590Y-101343686D01*
X154221725Y-101366223D01*
X154260765Y-101411277D01*
X154338077Y-101563008D01*
X154365580Y-101600863D01*
X154365581Y-101600864D01*
X154928871Y-101037574D01*
X154944755Y-101096853D01*
X155011898Y-101213147D01*
X155106853Y-101308102D01*
X155223147Y-101375245D01*
X155282425Y-101391128D01*
X154719134Y-101954417D01*
X154756994Y-101981924D01*
X154934405Y-102072320D01*
X155123777Y-102133852D01*
X155320437Y-102165000D01*
X155519563Y-102165000D01*
X155716222Y-102133852D01*
X155905594Y-102072320D01*
X156083005Y-101981924D01*
X156120863Y-101954418D01*
X156120863Y-101954417D01*
X155557574Y-101391128D01*
X155616853Y-101375245D01*
X155733147Y-101308102D01*
X155828102Y-101213147D01*
X155895245Y-101096853D01*
X155911128Y-101037574D01*
X156474417Y-101600863D01*
X156474418Y-101600863D01*
X156501924Y-101563005D01*
X156579234Y-101411277D01*
X156627208Y-101360481D01*
X156695029Y-101343686D01*
X156761164Y-101366223D01*
X156800204Y-101411277D01*
X156874807Y-101557693D01*
X156877647Y-101563266D01*
X156994731Y-101724418D01*
X157135582Y-101865269D01*
X157296734Y-101982353D01*
X157421533Y-102045941D01*
X157474219Y-102072786D01*
X157663657Y-102134338D01*
X157663658Y-102134338D01*
X157663661Y-102134339D01*
X157860403Y-102165500D01*
X157860404Y-102165500D01*
X158059596Y-102165500D01*
X158059597Y-102165500D01*
X158256339Y-102134339D01*
X158256342Y-102134338D01*
X158256343Y-102134338D01*
X158445780Y-102072786D01*
X158445780Y-102072785D01*
X158445783Y-102072785D01*
X158623266Y-101982353D01*
X158784418Y-101865269D01*
X158925269Y-101724418D01*
X159042353Y-101563266D01*
X159119515Y-101411827D01*
X159167490Y-101361031D01*
X159235311Y-101344236D01*
X159301446Y-101366773D01*
X159340485Y-101411827D01*
X159414807Y-101557693D01*
X159417647Y-101563266D01*
X159534731Y-101724418D01*
X159675582Y-101865269D01*
X159836734Y-101982353D01*
X159961533Y-102045941D01*
X160014219Y-102072786D01*
X160203657Y-102134338D01*
X160203658Y-102134338D01*
X160203661Y-102134339D01*
X160400403Y-102165500D01*
X160400404Y-102165500D01*
X160599596Y-102165500D01*
X160599597Y-102165500D01*
X160796339Y-102134339D01*
X160796342Y-102134338D01*
X160796343Y-102134338D01*
X160985780Y-102072786D01*
X160985780Y-102072785D01*
X160985783Y-102072785D01*
X161163266Y-101982353D01*
X161324418Y-101865269D01*
X161465269Y-101724418D01*
X161582353Y-101563266D01*
X161659515Y-101411827D01*
X161707490Y-101361031D01*
X161775311Y-101344236D01*
X161841446Y-101366773D01*
X161880485Y-101411827D01*
X161954807Y-101557693D01*
X161957647Y-101563266D01*
X162074731Y-101724418D01*
X162215582Y-101865269D01*
X162376734Y-101982353D01*
X162501533Y-102045941D01*
X162554219Y-102072786D01*
X162743657Y-102134338D01*
X162743658Y-102134338D01*
X162743661Y-102134339D01*
X162940403Y-102165500D01*
X162940404Y-102165500D01*
X163139596Y-102165500D01*
X163139597Y-102165500D01*
X163336339Y-102134339D01*
X163336342Y-102134338D01*
X163336343Y-102134338D01*
X163525780Y-102072786D01*
X163525780Y-102072785D01*
X163525783Y-102072785D01*
X163703266Y-101982353D01*
X163864418Y-101865269D01*
X164005269Y-101724418D01*
X164122353Y-101563266D01*
X164199515Y-101411827D01*
X164247490Y-101361031D01*
X164315311Y-101344236D01*
X164381446Y-101366773D01*
X164420485Y-101411827D01*
X164494807Y-101557693D01*
X164497647Y-101563266D01*
X164614731Y-101724418D01*
X164755582Y-101865269D01*
X164916734Y-101982353D01*
X165041533Y-102045941D01*
X165094219Y-102072786D01*
X165283657Y-102134338D01*
X165283658Y-102134338D01*
X165283661Y-102134339D01*
X165480403Y-102165500D01*
X165480404Y-102165500D01*
X165679596Y-102165500D01*
X165679597Y-102165500D01*
X165876339Y-102134339D01*
X165876342Y-102134338D01*
X165876343Y-102134338D01*
X166065780Y-102072786D01*
X166065780Y-102072785D01*
X166065783Y-102072785D01*
X166243266Y-101982353D01*
X166404418Y-101865269D01*
X166545269Y-101724418D01*
X166662353Y-101563266D01*
X166739515Y-101411827D01*
X166787490Y-101361031D01*
X166855311Y-101344236D01*
X166921446Y-101366773D01*
X166960485Y-101411827D01*
X167034807Y-101557693D01*
X167037647Y-101563266D01*
X167154731Y-101724418D01*
X167295582Y-101865269D01*
X167456734Y-101982353D01*
X167581533Y-102045941D01*
X167634219Y-102072786D01*
X167823657Y-102134338D01*
X167823658Y-102134338D01*
X167823661Y-102134339D01*
X168020403Y-102165500D01*
X168020404Y-102165500D01*
X168219596Y-102165500D01*
X168219597Y-102165500D01*
X168416339Y-102134339D01*
X168416342Y-102134338D01*
X168416343Y-102134338D01*
X168605780Y-102072786D01*
X168605780Y-102072785D01*
X168605783Y-102072785D01*
X168783266Y-101982353D01*
X168944418Y-101865269D01*
X169085269Y-101724418D01*
X169202353Y-101563266D01*
X169292785Y-101385783D01*
X169301006Y-101360481D01*
X169354338Y-101196343D01*
X169354338Y-101196342D01*
X169354339Y-101196339D01*
X169385500Y-100999597D01*
X169385500Y-100800403D01*
X169354339Y-100603661D01*
X169354338Y-100603657D01*
X169354338Y-100603656D01*
X169292786Y-100414219D01*
X169279514Y-100388172D01*
X169202353Y-100236734D01*
X169085269Y-100075582D01*
X168944418Y-99934731D01*
X168783266Y-99817647D01*
X168704379Y-99777452D01*
X168605780Y-99727213D01*
X168416342Y-99665661D01*
X168268782Y-99642290D01*
X168219597Y-99634500D01*
X168020403Y-99634500D01*
X167954822Y-99644887D01*
X167823659Y-99665661D01*
X167823656Y-99665661D01*
X167634219Y-99727213D01*
X167456733Y-99817647D01*
X167418286Y-99845581D01*
X167295582Y-99934731D01*
X167295580Y-99934733D01*
X167295579Y-99934733D01*
X167154733Y-100075579D01*
X167154733Y-100075580D01*
X167154731Y-100075582D01*
X167122772Y-100119570D01*
X167037647Y-100236733D01*
X166960485Y-100388172D01*
X166912510Y-100438968D01*
X166844689Y-100455763D01*
X166778554Y-100433225D01*
X166739515Y-100388172D01*
X166697877Y-100306453D01*
X166662353Y-100236734D01*
X166545269Y-100075582D01*
X166404418Y-99934731D01*
X166243266Y-99817647D01*
X166164379Y-99777452D01*
X166065780Y-99727213D01*
X165876342Y-99665661D01*
X165728782Y-99642290D01*
X165679597Y-99634500D01*
X165480403Y-99634500D01*
X165414822Y-99644887D01*
X165283659Y-99665661D01*
X165283656Y-99665661D01*
X165094219Y-99727213D01*
X164916733Y-99817647D01*
X164878286Y-99845581D01*
X164755582Y-99934731D01*
X164755580Y-99934733D01*
X164755579Y-99934733D01*
X164614733Y-100075579D01*
X164614733Y-100075580D01*
X164614731Y-100075582D01*
X164582772Y-100119570D01*
X164497647Y-100236733D01*
X164420485Y-100388172D01*
X164372510Y-100438968D01*
X164304689Y-100455763D01*
X164238554Y-100433225D01*
X164199515Y-100388172D01*
X164157877Y-100306453D01*
X164122353Y-100236734D01*
X164005269Y-100075582D01*
X163864418Y-99934731D01*
X163703266Y-99817647D01*
X163624379Y-99777452D01*
X163525780Y-99727213D01*
X163336342Y-99665661D01*
X163188782Y-99642290D01*
X163139597Y-99634500D01*
X162940403Y-99634500D01*
X162874822Y-99644887D01*
X162743659Y-99665661D01*
X162743656Y-99665661D01*
X162554219Y-99727213D01*
X162376733Y-99817647D01*
X162338286Y-99845581D01*
X162215582Y-99934731D01*
X162215580Y-99934733D01*
X162215579Y-99934733D01*
X162074733Y-100075579D01*
X162074733Y-100075580D01*
X162074731Y-100075582D01*
X162042772Y-100119570D01*
X161957647Y-100236733D01*
X161880485Y-100388172D01*
X161832510Y-100438968D01*
X161764689Y-100455763D01*
X161698554Y-100433225D01*
X161659515Y-100388172D01*
X161617877Y-100306453D01*
X161582353Y-100236734D01*
X161465269Y-100075582D01*
X161324418Y-99934731D01*
X161163266Y-99817647D01*
X161084379Y-99777452D01*
X160985780Y-99727213D01*
X160796342Y-99665661D01*
X160648782Y-99642290D01*
X160599597Y-99634500D01*
X160400403Y-99634500D01*
X160334822Y-99644887D01*
X160203659Y-99665661D01*
X160203656Y-99665661D01*
X160014219Y-99727213D01*
X159836733Y-99817647D01*
X159798286Y-99845581D01*
X159675582Y-99934731D01*
X159675580Y-99934733D01*
X159675579Y-99934733D01*
X159534733Y-100075579D01*
X159534733Y-100075580D01*
X159534731Y-100075582D01*
X159502772Y-100119570D01*
X159417647Y-100236733D01*
X159340485Y-100388172D01*
X159292510Y-100438968D01*
X159224689Y-100455763D01*
X159158554Y-100433225D01*
X159119515Y-100388172D01*
X159077877Y-100306453D01*
X159042353Y-100236734D01*
X158925269Y-100075582D01*
X158784418Y-99934731D01*
X158623266Y-99817647D01*
X158544379Y-99777452D01*
X158445780Y-99727213D01*
X158256342Y-99665661D01*
X158108782Y-99642290D01*
X158059597Y-99634500D01*
X157860403Y-99634500D01*
X157860398Y-99634500D01*
X157771521Y-99648577D01*
X157702228Y-99639623D01*
X157664442Y-99613785D01*
X153778305Y-95727648D01*
X175449500Y-95727648D01*
X175449500Y-95932351D01*
X175481522Y-96134534D01*
X175544781Y-96329223D01*
X175637715Y-96511613D01*
X175758028Y-96677213D01*
X175902786Y-96821971D01*
X176057749Y-96934556D01*
X176068390Y-96942287D01*
X176184607Y-97001503D01*
X176250776Y-97035218D01*
X176250778Y-97035218D01*
X176250781Y-97035220D01*
X176355137Y-97069127D01*
X176445465Y-97098477D01*
X176546557Y-97114488D01*
X176647648Y-97130500D01*
X176647649Y-97130500D01*
X176852351Y-97130500D01*
X176852352Y-97130500D01*
X177054534Y-97098477D01*
X177249219Y-97035220D01*
X177431610Y-96942287D01*
X177524590Y-96874732D01*
X177597213Y-96821971D01*
X177597215Y-96821968D01*
X177597219Y-96821966D01*
X177741966Y-96677219D01*
X177741968Y-96677215D01*
X177741971Y-96677213D01*
X177794732Y-96604590D01*
X177862287Y-96511610D01*
X177955220Y-96329219D01*
X178018477Y-96134534D01*
X178050500Y-95932352D01*
X178050500Y-95727648D01*
X178018477Y-95525466D01*
X177955220Y-95330781D01*
X177955218Y-95330778D01*
X177955218Y-95330776D01*
X177921503Y-95264607D01*
X177862287Y-95148390D01*
X177854556Y-95137749D01*
X177741971Y-94982786D01*
X177597213Y-94838028D01*
X177431613Y-94717715D01*
X177431612Y-94717714D01*
X177431610Y-94717713D01*
X177374653Y-94688691D01*
X177249223Y-94624781D01*
X177054534Y-94561522D01*
X176879995Y-94533878D01*
X176852352Y-94529500D01*
X176647648Y-94529500D01*
X176623329Y-94533351D01*
X176445465Y-94561522D01*
X176250776Y-94624781D01*
X176068386Y-94717715D01*
X175902786Y-94838028D01*
X175758028Y-94982786D01*
X175637715Y-95148386D01*
X175544781Y-95330776D01*
X175481522Y-95525465D01*
X175449500Y-95727648D01*
X153778305Y-95727648D01*
X143618305Y-85567648D01*
X175449500Y-85567648D01*
X175449500Y-85772351D01*
X175481522Y-85974534D01*
X175544781Y-86169223D01*
X175637715Y-86351613D01*
X175758028Y-86517213D01*
X175902786Y-86661971D01*
X176057749Y-86774556D01*
X176068390Y-86782287D01*
X176184607Y-86841503D01*
X176250776Y-86875218D01*
X176250778Y-86875218D01*
X176250781Y-86875220D01*
X176355137Y-86909127D01*
X176445465Y-86938477D01*
X176546557Y-86954488D01*
X176647648Y-86970500D01*
X176647649Y-86970500D01*
X176852351Y-86970500D01*
X176852352Y-86970500D01*
X177054534Y-86938477D01*
X177249219Y-86875220D01*
X177431610Y-86782287D01*
X177524590Y-86714732D01*
X177597213Y-86661971D01*
X177597215Y-86661968D01*
X177597219Y-86661966D01*
X177741966Y-86517219D01*
X177741968Y-86517215D01*
X177741971Y-86517213D01*
X177794732Y-86444590D01*
X177862287Y-86351610D01*
X177955220Y-86169219D01*
X178018477Y-85974534D01*
X178050500Y-85772352D01*
X178050500Y-85567648D01*
X178018477Y-85365466D01*
X177955220Y-85170781D01*
X177955218Y-85170778D01*
X177955218Y-85170776D01*
X177921503Y-85104607D01*
X177862287Y-84988390D01*
X177854556Y-84977749D01*
X177741971Y-84822786D01*
X177597213Y-84678028D01*
X177431613Y-84557715D01*
X177431612Y-84557714D01*
X177431610Y-84557713D01*
X177374653Y-84528691D01*
X177249223Y-84464781D01*
X177054534Y-84401522D01*
X176879995Y-84373878D01*
X176852352Y-84369500D01*
X176647648Y-84369500D01*
X176623329Y-84373351D01*
X176445465Y-84401522D01*
X176250776Y-84464781D01*
X176068386Y-84557715D01*
X175902786Y-84678028D01*
X175758028Y-84822786D01*
X175637715Y-84988386D01*
X175544781Y-85170776D01*
X175481522Y-85365465D01*
X175449500Y-85567648D01*
X143618305Y-85567648D01*
X135190435Y-77139778D01*
X174059500Y-77139778D01*
X174059500Y-77360221D01*
X174093985Y-77577952D01*
X174162103Y-77787603D01*
X174162104Y-77787606D01*
X174262187Y-77984025D01*
X174391752Y-78162358D01*
X174391756Y-78162363D01*
X174547636Y-78318243D01*
X174547641Y-78318247D01*
X174703192Y-78431260D01*
X174725978Y-78447815D01*
X174842501Y-78507187D01*
X174922393Y-78547895D01*
X174922396Y-78547896D01*
X175027221Y-78581955D01*
X175132049Y-78616015D01*
X175349778Y-78650500D01*
X175349779Y-78650500D01*
X175570221Y-78650500D01*
X175570222Y-78650500D01*
X175787951Y-78616015D01*
X175997606Y-78547895D01*
X176194022Y-78447815D01*
X176372365Y-78318242D01*
X176422924Y-78267682D01*
X176484245Y-78234198D01*
X176553936Y-78239182D01*
X176609870Y-78281053D01*
X176626786Y-78312030D01*
X176656646Y-78392087D01*
X176656649Y-78392093D01*
X176742809Y-78507187D01*
X176742812Y-78507190D01*
X176857906Y-78593350D01*
X176857913Y-78593354D01*
X176992620Y-78643596D01*
X176992627Y-78643598D01*
X177052155Y-78649999D01*
X177052172Y-78650000D01*
X177750000Y-78650000D01*
X177750000Y-77625277D01*
X177826306Y-77669333D01*
X177940756Y-77700000D01*
X178059244Y-77700000D01*
X178173694Y-77669333D01*
X178250000Y-77625277D01*
X178250000Y-78650000D01*
X178947828Y-78650000D01*
X178947844Y-78649999D01*
X179007372Y-78643598D01*
X179007379Y-78643596D01*
X179142086Y-78593354D01*
X179142093Y-78593350D01*
X179257187Y-78507190D01*
X179257190Y-78507187D01*
X179343350Y-78392093D01*
X179343354Y-78392086D01*
X179393596Y-78257379D01*
X179393598Y-78257372D01*
X179399999Y-78197844D01*
X179400000Y-78197827D01*
X179400000Y-77500000D01*
X178375278Y-77500000D01*
X178419333Y-77423694D01*
X178450000Y-77309244D01*
X178450000Y-77190756D01*
X178419333Y-77076306D01*
X178375278Y-77000000D01*
X179400000Y-77000000D01*
X179400000Y-76302172D01*
X179399999Y-76302155D01*
X179393598Y-76242627D01*
X179393596Y-76242620D01*
X179343354Y-76107913D01*
X179343350Y-76107906D01*
X179257190Y-75992812D01*
X179257187Y-75992809D01*
X179142093Y-75906649D01*
X179142086Y-75906645D01*
X179007379Y-75856403D01*
X179007372Y-75856401D01*
X178947844Y-75850000D01*
X178250000Y-75850000D01*
X178250000Y-76874722D01*
X178173694Y-76830667D01*
X178059244Y-76800000D01*
X177940756Y-76800000D01*
X177826306Y-76830667D01*
X177750000Y-76874722D01*
X177750000Y-75850000D01*
X177052155Y-75850000D01*
X176992627Y-75856401D01*
X176992620Y-75856403D01*
X176857913Y-75906645D01*
X176857906Y-75906649D01*
X176742812Y-75992809D01*
X176742809Y-75992812D01*
X176656649Y-76107906D01*
X176656643Y-76107918D01*
X176626785Y-76187969D01*
X176584914Y-76243903D01*
X176519449Y-76268319D01*
X176451176Y-76253467D01*
X176422923Y-76232316D01*
X176372363Y-76181756D01*
X176372358Y-76181752D01*
X176194025Y-76052187D01*
X176194024Y-76052186D01*
X176194022Y-76052185D01*
X176114816Y-76011827D01*
X175997606Y-75952104D01*
X175997603Y-75952103D01*
X175787952Y-75883985D01*
X175679086Y-75866742D01*
X175570222Y-75849500D01*
X175349778Y-75849500D01*
X175277201Y-75860995D01*
X175132047Y-75883985D01*
X174922396Y-75952103D01*
X174922393Y-75952104D01*
X174725974Y-76052187D01*
X174547641Y-76181752D01*
X174547636Y-76181756D01*
X174391756Y-76337636D01*
X174391752Y-76337641D01*
X174262187Y-76515974D01*
X174162104Y-76712393D01*
X174162103Y-76712396D01*
X174093985Y-76922047D01*
X174059500Y-77139778D01*
X135190435Y-77139778D01*
X135027838Y-76977181D01*
X134994353Y-76915858D01*
X134999337Y-76846166D01*
X135041209Y-76790233D01*
X135106673Y-76765816D01*
X135115519Y-76765500D01*
X135199596Y-76765500D01*
X135199597Y-76765500D01*
X135396339Y-76734339D01*
X135396342Y-76734338D01*
X135396343Y-76734338D01*
X135585780Y-76672786D01*
X135585780Y-76672785D01*
X135585783Y-76672785D01*
X135763266Y-76582353D01*
X135924418Y-76465269D01*
X136065269Y-76324418D01*
X136182353Y-76163266D01*
X136259795Y-76011276D01*
X136307769Y-75960481D01*
X136375590Y-75943686D01*
X136441725Y-75966223D01*
X136480765Y-76011277D01*
X136558077Y-76163008D01*
X136585580Y-76200863D01*
X136585581Y-76200864D01*
X137148871Y-75637574D01*
X137164755Y-75696853D01*
X137231898Y-75813147D01*
X137326853Y-75908102D01*
X137443147Y-75975245D01*
X137502425Y-75991128D01*
X136939134Y-76554417D01*
X136976994Y-76581924D01*
X137154405Y-76672320D01*
X137343777Y-76733852D01*
X137540437Y-76765000D01*
X137739563Y-76765000D01*
X137936222Y-76733852D01*
X138125594Y-76672320D01*
X138303005Y-76581924D01*
X138340863Y-76554418D01*
X138340863Y-76554417D01*
X137777574Y-75991128D01*
X137836853Y-75975245D01*
X137953147Y-75908102D01*
X138048102Y-75813147D01*
X138115245Y-75696853D01*
X138131128Y-75637574D01*
X138694417Y-76200863D01*
X138694418Y-76200863D01*
X138721924Y-76163005D01*
X138799234Y-76011277D01*
X138847208Y-75960481D01*
X138915029Y-75943686D01*
X138981164Y-75966223D01*
X139020204Y-76011277D01*
X139069443Y-76107913D01*
X139097647Y-76163266D01*
X139214731Y-76324418D01*
X139355582Y-76465269D01*
X139516734Y-76582353D01*
X139693304Y-76672320D01*
X139694219Y-76672786D01*
X139883657Y-76734338D01*
X139883658Y-76734338D01*
X139883661Y-76734339D01*
X140080403Y-76765500D01*
X140080404Y-76765500D01*
X140279596Y-76765500D01*
X140279597Y-76765500D01*
X140476339Y-76734339D01*
X140476342Y-76734338D01*
X140476343Y-76734338D01*
X140665780Y-76672786D01*
X140665780Y-76672785D01*
X140665783Y-76672785D01*
X140843266Y-76582353D01*
X141004418Y-76465269D01*
X141145269Y-76324418D01*
X141262353Y-76163266D01*
X141339515Y-76011827D01*
X141387490Y-75961031D01*
X141455311Y-75944236D01*
X141521446Y-75966773D01*
X141560485Y-76011827D01*
X141637647Y-76163266D01*
X141754731Y-76324418D01*
X141895582Y-76465269D01*
X142056734Y-76582353D01*
X142233304Y-76672320D01*
X142234219Y-76672786D01*
X142423657Y-76734338D01*
X142423658Y-76734338D01*
X142423661Y-76734339D01*
X142620403Y-76765500D01*
X142620404Y-76765500D01*
X142819596Y-76765500D01*
X142819597Y-76765500D01*
X143016339Y-76734339D01*
X143016342Y-76734338D01*
X143016343Y-76734338D01*
X143205780Y-76672786D01*
X143205780Y-76672785D01*
X143205783Y-76672785D01*
X143383266Y-76582353D01*
X143544418Y-76465269D01*
X143685269Y-76324418D01*
X143802353Y-76163266D01*
X143879515Y-76011827D01*
X143927490Y-75961031D01*
X143995311Y-75944236D01*
X144061446Y-75966773D01*
X144100485Y-76011827D01*
X144177647Y-76163266D01*
X144294731Y-76324418D01*
X144435582Y-76465269D01*
X144596734Y-76582353D01*
X144773304Y-76672320D01*
X144774219Y-76672786D01*
X144963657Y-76734338D01*
X144963658Y-76734338D01*
X144963661Y-76734339D01*
X145160403Y-76765500D01*
X145160404Y-76765500D01*
X145359596Y-76765500D01*
X145359597Y-76765500D01*
X145556339Y-76734339D01*
X145556342Y-76734338D01*
X145556343Y-76734338D01*
X145745780Y-76672786D01*
X145745780Y-76672785D01*
X145745783Y-76672785D01*
X145923266Y-76582353D01*
X146084418Y-76465269D01*
X146225269Y-76324418D01*
X146342353Y-76163266D01*
X146419515Y-76011827D01*
X146467490Y-75961031D01*
X146535311Y-75944236D01*
X146601446Y-75966773D01*
X146640485Y-76011827D01*
X146717647Y-76163266D01*
X146834731Y-76324418D01*
X146975582Y-76465269D01*
X147136734Y-76582353D01*
X147313304Y-76672320D01*
X147314219Y-76672786D01*
X147503657Y-76734338D01*
X147503658Y-76734338D01*
X147503661Y-76734339D01*
X147700403Y-76765500D01*
X147700404Y-76765500D01*
X147899596Y-76765500D01*
X147899597Y-76765500D01*
X148096339Y-76734339D01*
X148096342Y-76734338D01*
X148096343Y-76734338D01*
X148285780Y-76672786D01*
X148285780Y-76672785D01*
X148285783Y-76672785D01*
X148463266Y-76582353D01*
X148624418Y-76465269D01*
X148765269Y-76324418D01*
X148882353Y-76163266D01*
X148959515Y-76011827D01*
X149007490Y-75961031D01*
X149075311Y-75944236D01*
X149141446Y-75966773D01*
X149180485Y-76011827D01*
X149257647Y-76163266D01*
X149374731Y-76324418D01*
X149515582Y-76465269D01*
X149676734Y-76582353D01*
X149853304Y-76672320D01*
X149854219Y-76672786D01*
X150043657Y-76734338D01*
X150043658Y-76734338D01*
X150043661Y-76734339D01*
X150240403Y-76765500D01*
X150240404Y-76765500D01*
X150439596Y-76765500D01*
X150439597Y-76765500D01*
X150636339Y-76734339D01*
X150636342Y-76734338D01*
X150636343Y-76734338D01*
X150825780Y-76672786D01*
X150825780Y-76672785D01*
X150825783Y-76672785D01*
X151003266Y-76582353D01*
X151164418Y-76465269D01*
X151305269Y-76324418D01*
X151422353Y-76163266D01*
X151499515Y-76011827D01*
X151547490Y-75961031D01*
X151615311Y-75944236D01*
X151681446Y-75966773D01*
X151720485Y-76011827D01*
X151797647Y-76163266D01*
X151914731Y-76324418D01*
X152055582Y-76465269D01*
X152216734Y-76582353D01*
X152393304Y-76672320D01*
X152394219Y-76672786D01*
X152583657Y-76734338D01*
X152583658Y-76734338D01*
X152583661Y-76734339D01*
X152780403Y-76765500D01*
X152780404Y-76765500D01*
X152979596Y-76765500D01*
X152979597Y-76765500D01*
X153176339Y-76734339D01*
X153176342Y-76734338D01*
X153176343Y-76734338D01*
X153365780Y-76672786D01*
X153365780Y-76672785D01*
X153365783Y-76672785D01*
X153543266Y-76582353D01*
X153704418Y-76465269D01*
X153845269Y-76324418D01*
X153962353Y-76163266D01*
X154039515Y-76011827D01*
X154087490Y-75961031D01*
X154155311Y-75944236D01*
X154221446Y-75966773D01*
X154260485Y-76011827D01*
X154337647Y-76163266D01*
X154454731Y-76324418D01*
X154595582Y-76465269D01*
X154756734Y-76582353D01*
X154933304Y-76672320D01*
X154934219Y-76672786D01*
X155123657Y-76734338D01*
X155123658Y-76734338D01*
X155123661Y-76734339D01*
X155320403Y-76765500D01*
X155320404Y-76765500D01*
X155519596Y-76765500D01*
X155519597Y-76765500D01*
X155716339Y-76734339D01*
X155716342Y-76734338D01*
X155716343Y-76734338D01*
X155905780Y-76672786D01*
X155905780Y-76672785D01*
X155905783Y-76672785D01*
X156083266Y-76582353D01*
X156244418Y-76465269D01*
X156385269Y-76324418D01*
X156502353Y-76163266D01*
X156579515Y-76011827D01*
X156627490Y-75961031D01*
X156695311Y-75944236D01*
X156761446Y-75966773D01*
X156800485Y-76011827D01*
X156877647Y-76163266D01*
X156994731Y-76324418D01*
X157135582Y-76465269D01*
X157296734Y-76582353D01*
X157473304Y-76672320D01*
X157474219Y-76672786D01*
X157663657Y-76734338D01*
X157663658Y-76734338D01*
X157663661Y-76734339D01*
X157860403Y-76765500D01*
X157860404Y-76765500D01*
X158059596Y-76765500D01*
X158059597Y-76765500D01*
X158256339Y-76734339D01*
X158256342Y-76734338D01*
X158256343Y-76734338D01*
X158445780Y-76672786D01*
X158445780Y-76672785D01*
X158445783Y-76672785D01*
X158623266Y-76582353D01*
X158784418Y-76465269D01*
X158925269Y-76324418D01*
X159042353Y-76163266D01*
X159119515Y-76011827D01*
X159167490Y-75961031D01*
X159235311Y-75944236D01*
X159301446Y-75966773D01*
X159340485Y-76011827D01*
X159417647Y-76163266D01*
X159534731Y-76324418D01*
X159675582Y-76465269D01*
X159836734Y-76582353D01*
X160013304Y-76672320D01*
X160014219Y-76672786D01*
X160203657Y-76734338D01*
X160203658Y-76734338D01*
X160203661Y-76734339D01*
X160400403Y-76765500D01*
X160400404Y-76765500D01*
X160599596Y-76765500D01*
X160599597Y-76765500D01*
X160796339Y-76734339D01*
X160796342Y-76734338D01*
X160796343Y-76734338D01*
X160985780Y-76672786D01*
X160985780Y-76672785D01*
X160985783Y-76672785D01*
X161163266Y-76582353D01*
X161324418Y-76465269D01*
X161465269Y-76324418D01*
X161582353Y-76163266D01*
X161659515Y-76011827D01*
X161707490Y-75961031D01*
X161775311Y-75944236D01*
X161841446Y-75966773D01*
X161880485Y-76011827D01*
X161957647Y-76163266D01*
X162074731Y-76324418D01*
X162215582Y-76465269D01*
X162376734Y-76582353D01*
X162553304Y-76672320D01*
X162554219Y-76672786D01*
X162743657Y-76734338D01*
X162743658Y-76734338D01*
X162743661Y-76734339D01*
X162940403Y-76765500D01*
X162940404Y-76765500D01*
X163139596Y-76765500D01*
X163139597Y-76765500D01*
X163336339Y-76734339D01*
X163336342Y-76734338D01*
X163336343Y-76734338D01*
X163525780Y-76672786D01*
X163525780Y-76672785D01*
X163525783Y-76672785D01*
X163703266Y-76582353D01*
X163864418Y-76465269D01*
X164005269Y-76324418D01*
X164122353Y-76163266D01*
X164199515Y-76011827D01*
X164247490Y-75961031D01*
X164315311Y-75944236D01*
X164381446Y-75966773D01*
X164420485Y-76011827D01*
X164497647Y-76163266D01*
X164614731Y-76324418D01*
X164755582Y-76465269D01*
X164916734Y-76582353D01*
X165093304Y-76672320D01*
X165094219Y-76672786D01*
X165283657Y-76734338D01*
X165283658Y-76734338D01*
X165283661Y-76734339D01*
X165480403Y-76765500D01*
X165480404Y-76765500D01*
X165679596Y-76765500D01*
X165679597Y-76765500D01*
X165876339Y-76734339D01*
X165876342Y-76734338D01*
X165876343Y-76734338D01*
X166065780Y-76672786D01*
X166065780Y-76672785D01*
X166065783Y-76672785D01*
X166243266Y-76582353D01*
X166404418Y-76465269D01*
X166545269Y-76324418D01*
X166662353Y-76163266D01*
X166739515Y-76011827D01*
X166787490Y-75961031D01*
X166855311Y-75944236D01*
X166921446Y-75966773D01*
X166960485Y-76011827D01*
X167037647Y-76163266D01*
X167154731Y-76324418D01*
X167295582Y-76465269D01*
X167456734Y-76582353D01*
X167633304Y-76672320D01*
X167634219Y-76672786D01*
X167823657Y-76734338D01*
X167823658Y-76734338D01*
X167823661Y-76734339D01*
X168020403Y-76765500D01*
X168020404Y-76765500D01*
X168219596Y-76765500D01*
X168219597Y-76765500D01*
X168416339Y-76734339D01*
X168416342Y-76734338D01*
X168416343Y-76734338D01*
X168605780Y-76672786D01*
X168605780Y-76672785D01*
X168605783Y-76672785D01*
X168783266Y-76582353D01*
X168944418Y-76465269D01*
X169085269Y-76324418D01*
X169202353Y-76163266D01*
X169292785Y-75985783D01*
X169303728Y-75952103D01*
X169354338Y-75796343D01*
X169354338Y-75796342D01*
X169354339Y-75796339D01*
X169385500Y-75599597D01*
X169385500Y-75400403D01*
X169354339Y-75203661D01*
X169354338Y-75203657D01*
X169354338Y-75203656D01*
X169292786Y-75014219D01*
X169202485Y-74836994D01*
X169202353Y-74836734D01*
X169085269Y-74675582D01*
X168944418Y-74534731D01*
X168783266Y-74417647D01*
X168712357Y-74381517D01*
X168605780Y-74327213D01*
X168416342Y-74265661D01*
X168268782Y-74242290D01*
X168219597Y-74234500D01*
X168020403Y-74234500D01*
X167954822Y-74244887D01*
X167823659Y-74265661D01*
X167823656Y-74265661D01*
X167634219Y-74327213D01*
X167456733Y-74417647D01*
X167418286Y-74445581D01*
X167295582Y-74534731D01*
X167295580Y-74534733D01*
X167295579Y-74534733D01*
X167154733Y-74675579D01*
X167154733Y-74675580D01*
X167154731Y-74675582D01*
X167104447Y-74744790D01*
X167037647Y-74836733D01*
X166960485Y-74988172D01*
X166912510Y-75038968D01*
X166844689Y-75055763D01*
X166778554Y-75033225D01*
X166739515Y-74988172D01*
X166662485Y-74836994D01*
X166662353Y-74836734D01*
X166545269Y-74675582D01*
X166404418Y-74534731D01*
X166243266Y-74417647D01*
X166172357Y-74381517D01*
X166065780Y-74327213D01*
X165876342Y-74265661D01*
X165728782Y-74242290D01*
X165679597Y-74234500D01*
X165480403Y-74234500D01*
X165414822Y-74244887D01*
X165283659Y-74265661D01*
X165283656Y-74265661D01*
X165094219Y-74327213D01*
X164916733Y-74417647D01*
X164878286Y-74445581D01*
X164755582Y-74534731D01*
X164755580Y-74534733D01*
X164755579Y-74534733D01*
X164614733Y-74675579D01*
X164614733Y-74675580D01*
X164614731Y-74675582D01*
X164564447Y-74744790D01*
X164497647Y-74836733D01*
X164420485Y-74988172D01*
X164372510Y-75038968D01*
X164304689Y-75055763D01*
X164238554Y-75033225D01*
X164199515Y-74988172D01*
X164122485Y-74836994D01*
X164122353Y-74836734D01*
X164005269Y-74675582D01*
X163864418Y-74534731D01*
X163703266Y-74417647D01*
X163632357Y-74381517D01*
X163525780Y-74327213D01*
X163336342Y-74265661D01*
X163188782Y-74242290D01*
X163139597Y-74234500D01*
X162940403Y-74234500D01*
X162874822Y-74244887D01*
X162743659Y-74265661D01*
X162743656Y-74265661D01*
X162554219Y-74327213D01*
X162376733Y-74417647D01*
X162338286Y-74445581D01*
X162215582Y-74534731D01*
X162215580Y-74534733D01*
X162215579Y-74534733D01*
X162074733Y-74675579D01*
X162074733Y-74675580D01*
X162074731Y-74675582D01*
X162024447Y-74744790D01*
X161957647Y-74836733D01*
X161880485Y-74988172D01*
X161832510Y-75038968D01*
X161764689Y-75055763D01*
X161698554Y-75033225D01*
X161659515Y-74988172D01*
X161582485Y-74836994D01*
X161582353Y-74836734D01*
X161465269Y-74675582D01*
X161324418Y-74534731D01*
X161163266Y-74417647D01*
X161092357Y-74381517D01*
X160985780Y-74327213D01*
X160796342Y-74265661D01*
X160648782Y-74242290D01*
X160599597Y-74234500D01*
X160400403Y-74234500D01*
X160334822Y-74244887D01*
X160203659Y-74265661D01*
X160203656Y-74265661D01*
X160014219Y-74327213D01*
X159836733Y-74417647D01*
X159798286Y-74445581D01*
X159675582Y-74534731D01*
X159675580Y-74534733D01*
X159675579Y-74534733D01*
X159534733Y-74675579D01*
X159534733Y-74675580D01*
X159534731Y-74675582D01*
X159484447Y-74744790D01*
X159417647Y-74836733D01*
X159340485Y-74988172D01*
X159292510Y-75038968D01*
X159224689Y-75055763D01*
X159158554Y-75033225D01*
X159119515Y-74988172D01*
X159042485Y-74836994D01*
X159042353Y-74836734D01*
X158925269Y-74675582D01*
X158784418Y-74534731D01*
X158623266Y-74417647D01*
X158552357Y-74381517D01*
X158445780Y-74327213D01*
X158256342Y-74265661D01*
X158108782Y-74242290D01*
X158059597Y-74234500D01*
X157860403Y-74234500D01*
X157794822Y-74244887D01*
X157663659Y-74265661D01*
X157663656Y-74265661D01*
X157474219Y-74327213D01*
X157296733Y-74417647D01*
X157258286Y-74445581D01*
X157135582Y-74534731D01*
X157135580Y-74534733D01*
X157135579Y-74534733D01*
X156994733Y-74675579D01*
X156994733Y-74675580D01*
X156994731Y-74675582D01*
X156944447Y-74744790D01*
X156877647Y-74836733D01*
X156800485Y-74988172D01*
X156752510Y-75038968D01*
X156684689Y-75055763D01*
X156618554Y-75033225D01*
X156579515Y-74988172D01*
X156502485Y-74836994D01*
X156502353Y-74836734D01*
X156385269Y-74675582D01*
X156244418Y-74534731D01*
X156083266Y-74417647D01*
X156012357Y-74381517D01*
X155905780Y-74327213D01*
X155716342Y-74265661D01*
X155568782Y-74242290D01*
X155519597Y-74234500D01*
X155320403Y-74234500D01*
X155254822Y-74244887D01*
X155123659Y-74265661D01*
X155123656Y-74265661D01*
X154934219Y-74327213D01*
X154756733Y-74417647D01*
X154718286Y-74445581D01*
X154595582Y-74534731D01*
X154595580Y-74534733D01*
X154595579Y-74534733D01*
X154454733Y-74675579D01*
X154454733Y-74675580D01*
X154454731Y-74675582D01*
X154404447Y-74744790D01*
X154337647Y-74836733D01*
X154260485Y-74988172D01*
X154212510Y-75038968D01*
X154144689Y-75055763D01*
X154078554Y-75033225D01*
X154039515Y-74988172D01*
X153962485Y-74836994D01*
X153962353Y-74836734D01*
X153845269Y-74675582D01*
X153704418Y-74534731D01*
X153543266Y-74417647D01*
X153472357Y-74381517D01*
X153365780Y-74327213D01*
X153176342Y-74265661D01*
X153028782Y-74242290D01*
X152979597Y-74234500D01*
X152780403Y-74234500D01*
X152714822Y-74244887D01*
X152583659Y-74265661D01*
X152583656Y-74265661D01*
X152394219Y-74327213D01*
X152216733Y-74417647D01*
X152178286Y-74445581D01*
X152055582Y-74534731D01*
X152055580Y-74534733D01*
X152055579Y-74534733D01*
X151914733Y-74675579D01*
X151914733Y-74675580D01*
X151914731Y-74675582D01*
X151864447Y-74744790D01*
X151797647Y-74836733D01*
X151720485Y-74988172D01*
X151672510Y-75038968D01*
X151604689Y-75055763D01*
X151538554Y-75033225D01*
X151499515Y-74988172D01*
X151422485Y-74836994D01*
X151422353Y-74836734D01*
X151305269Y-74675582D01*
X151164418Y-74534731D01*
X151003266Y-74417647D01*
X150932357Y-74381517D01*
X150825780Y-74327213D01*
X150636342Y-74265661D01*
X150488782Y-74242290D01*
X150439597Y-74234500D01*
X150240403Y-74234500D01*
X150174822Y-74244887D01*
X150043659Y-74265661D01*
X150043656Y-74265661D01*
X149854219Y-74327213D01*
X149676733Y-74417647D01*
X149638286Y-74445581D01*
X149515582Y-74534731D01*
X149515580Y-74534733D01*
X149515579Y-74534733D01*
X149374733Y-74675579D01*
X149374733Y-74675580D01*
X149374731Y-74675582D01*
X149324447Y-74744790D01*
X149257647Y-74836733D01*
X149180485Y-74988172D01*
X149132510Y-75038968D01*
X149064689Y-75055763D01*
X148998554Y-75033225D01*
X148959515Y-74988172D01*
X148882485Y-74836994D01*
X148882353Y-74836734D01*
X148765269Y-74675582D01*
X148624418Y-74534731D01*
X148463266Y-74417647D01*
X148392357Y-74381517D01*
X148285780Y-74327213D01*
X148096342Y-74265661D01*
X147948782Y-74242290D01*
X147899597Y-74234500D01*
X147700403Y-74234500D01*
X147634822Y-74244887D01*
X147503659Y-74265661D01*
X147503656Y-74265661D01*
X147314219Y-74327213D01*
X147136733Y-74417647D01*
X147098286Y-74445581D01*
X146975582Y-74534731D01*
X146975580Y-74534733D01*
X146975579Y-74534733D01*
X146834733Y-74675579D01*
X146834733Y-74675580D01*
X146834731Y-74675582D01*
X146784447Y-74744790D01*
X146717647Y-74836733D01*
X146640485Y-74988172D01*
X146592510Y-75038968D01*
X146524689Y-75055763D01*
X146458554Y-75033225D01*
X146419515Y-74988172D01*
X146342485Y-74836994D01*
X146342353Y-74836734D01*
X146225269Y-74675582D01*
X146084418Y-74534731D01*
X145923266Y-74417647D01*
X145852357Y-74381517D01*
X145745780Y-74327213D01*
X145556342Y-74265661D01*
X145408782Y-74242290D01*
X145359597Y-74234500D01*
X145275518Y-74234500D01*
X145208479Y-74214815D01*
X145162724Y-74162011D01*
X145152780Y-74092853D01*
X145181805Y-74029297D01*
X145187837Y-74022819D01*
X149282740Y-69927918D01*
X149794111Y-69416546D01*
X149794112Y-69416545D01*
X149794112Y-69416544D01*
X149794114Y-69416543D01*
X149870775Y-69301811D01*
X149882557Y-69273368D01*
X149910668Y-69205500D01*
X149923580Y-69174328D01*
X149950500Y-69038994D01*
X149950500Y-68901006D01*
X149950500Y-68722147D01*
X175911600Y-68722147D01*
X175911600Y-68958252D01*
X175948534Y-69191447D01*
X176021497Y-69416002D01*
X176128687Y-69626374D01*
X176188938Y-69709304D01*
X176188940Y-69709305D01*
X176887812Y-69010433D01*
X176899082Y-69052492D01*
X176971490Y-69177908D01*
X177073892Y-69280310D01*
X177199308Y-69352718D01*
X177241365Y-69363987D01*
X176542493Y-70062858D01*
X176625428Y-70123114D01*
X176835797Y-70230302D01*
X177060352Y-70303265D01*
X177060351Y-70303265D01*
X177293548Y-70340200D01*
X177529652Y-70340200D01*
X177762847Y-70303265D01*
X177987402Y-70230302D01*
X178197763Y-70123118D01*
X178197769Y-70123114D01*
X178280704Y-70062858D01*
X178280705Y-70062858D01*
X177581833Y-69363987D01*
X177623892Y-69352718D01*
X177749308Y-69280310D01*
X177851710Y-69177908D01*
X177924118Y-69052492D01*
X177935387Y-69010433D01*
X178634258Y-69709305D01*
X178634258Y-69709304D01*
X178694514Y-69626369D01*
X178694518Y-69626363D01*
X178801702Y-69416002D01*
X178874665Y-69191447D01*
X178911600Y-68958252D01*
X178911600Y-68722147D01*
X178874665Y-68488952D01*
X178801702Y-68264397D01*
X178694514Y-68054028D01*
X178634258Y-67971094D01*
X178634258Y-67971093D01*
X177935387Y-68669965D01*
X177924118Y-68627908D01*
X177851710Y-68502492D01*
X177749308Y-68400090D01*
X177623892Y-68327682D01*
X177581834Y-68316412D01*
X178280705Y-67617540D01*
X178280704Y-67617538D01*
X178197774Y-67557287D01*
X177987402Y-67450097D01*
X177762847Y-67377134D01*
X177762848Y-67377134D01*
X177529652Y-67340200D01*
X177293548Y-67340200D01*
X177060352Y-67377134D01*
X176835797Y-67450097D01*
X176625430Y-67557284D01*
X176542494Y-67617540D01*
X177241366Y-68316412D01*
X177199308Y-68327682D01*
X177073892Y-68400090D01*
X176971490Y-68502492D01*
X176899082Y-68627908D01*
X176887812Y-68669966D01*
X176188940Y-67971094D01*
X176128684Y-68054030D01*
X176021497Y-68264397D01*
X175948534Y-68488952D01*
X175911600Y-68722147D01*
X149950500Y-68722147D01*
X149950500Y-53360099D01*
X149970185Y-53293060D01*
X149971398Y-53291208D01*
X150048013Y-53176547D01*
X150115894Y-53012666D01*
X150150500Y-52838691D01*
X150150500Y-52661309D01*
X150150500Y-52661306D01*
X150150499Y-52661304D01*
X150115896Y-52487341D01*
X150115893Y-52487332D01*
X150048016Y-52323459D01*
X150048009Y-52323446D01*
X149949464Y-52175965D01*
X149949461Y-52175961D01*
X149824038Y-52050538D01*
X149824034Y-52050535D01*
X149676553Y-51951990D01*
X149676540Y-51951983D01*
X149512667Y-51884106D01*
X149512658Y-51884103D01*
X149338694Y-51849500D01*
X149338691Y-51849500D01*
X149161309Y-51849500D01*
X149161306Y-51849500D01*
X148987341Y-51884103D01*
X148987332Y-51884106D01*
X148823459Y-51951983D01*
X148823446Y-51951990D01*
X148675965Y-52050535D01*
X148675961Y-52050538D01*
X148550538Y-52175961D01*
X148550535Y-52175965D01*
X148451990Y-52323446D01*
X148451983Y-52323459D01*
X148384106Y-52487332D01*
X148384103Y-52487341D01*
X148349500Y-52661304D01*
X148349500Y-52838695D01*
X148384103Y-53012658D01*
X148384106Y-53012667D01*
X148451984Y-53176542D01*
X148451985Y-53176543D01*
X148451987Y-53176547D01*
X148495258Y-53241306D01*
X148528602Y-53291208D01*
X148549480Y-53357885D01*
X148549500Y-53360099D01*
X148549500Y-68628480D01*
X148529815Y-68695519D01*
X148513181Y-68716161D01*
X143015557Y-74213785D01*
X142954234Y-74247270D01*
X142908478Y-74248577D01*
X142819602Y-74234500D01*
X142819597Y-74234500D01*
X142620403Y-74234500D01*
X142554822Y-74244887D01*
X142423659Y-74265661D01*
X142423656Y-74265661D01*
X142234219Y-74327213D01*
X142056733Y-74417647D01*
X142018286Y-74445581D01*
X141895582Y-74534731D01*
X141895580Y-74534733D01*
X141895579Y-74534733D01*
X141754733Y-74675579D01*
X141754733Y-74675580D01*
X141754731Y-74675582D01*
X141704447Y-74744790D01*
X141637647Y-74836733D01*
X141560485Y-74988172D01*
X141512510Y-75038968D01*
X141444689Y-75055763D01*
X141378554Y-75033225D01*
X141339515Y-74988172D01*
X141262485Y-74836994D01*
X141262353Y-74836734D01*
X141145269Y-74675582D01*
X141004418Y-74534731D01*
X141004417Y-74534730D01*
X140931613Y-74481834D01*
X140888948Y-74426504D01*
X140880500Y-74381517D01*
X140880500Y-56611004D01*
X140853581Y-56475677D01*
X140853580Y-56475676D01*
X140853580Y-56475672D01*
X140846956Y-56459681D01*
X140800778Y-56348195D01*
X140800776Y-56348191D01*
X140800775Y-56348189D01*
X140756915Y-56282548D01*
X140756915Y-56282547D01*
X140724115Y-56233458D01*
X140724109Y-56233451D01*
X137043037Y-52552380D01*
X137009552Y-52491057D01*
X137014536Y-52421365D01*
X137056408Y-52365432D01*
X137121872Y-52341015D01*
X137130718Y-52340699D01*
X138459471Y-52340699D01*
X138459472Y-52340699D01*
X138519083Y-52334291D01*
X138653931Y-52283996D01*
X138769146Y-52197746D01*
X138855396Y-52082531D01*
X138905691Y-51947683D01*
X138912100Y-51888073D01*
X138912099Y-49792328D01*
X138905691Y-49732717D01*
X138893128Y-49699035D01*
X138855397Y-49597871D01*
X138855393Y-49597864D01*
X138769147Y-49482655D01*
X138769144Y-49482652D01*
X138653935Y-49396406D01*
X138653928Y-49396402D01*
X138519082Y-49346108D01*
X138519083Y-49346108D01*
X138459483Y-49339701D01*
X138459481Y-49339700D01*
X138459473Y-49339700D01*
X138459464Y-49339700D01*
X136363729Y-49339700D01*
X136363723Y-49339701D01*
X136304116Y-49346108D01*
X136169271Y-49396402D01*
X136169264Y-49396406D01*
X136054055Y-49482652D01*
X136054052Y-49482655D01*
X135967806Y-49597864D01*
X135967802Y-49597871D01*
X135917508Y-49732717D01*
X135913249Y-49772335D01*
X135911101Y-49792323D01*
X135911100Y-49792335D01*
X135911100Y-51121081D01*
X135891415Y-51188120D01*
X135838611Y-51233875D01*
X135769453Y-51243819D01*
X135705897Y-51214794D01*
X135699419Y-51208762D01*
X129917116Y-45426459D01*
X129883631Y-45365136D01*
X129888615Y-45295444D01*
X129924269Y-45244484D01*
X129927200Y-45241979D01*
X129927219Y-45241966D01*
X130071966Y-45097219D01*
X130071968Y-45097215D01*
X130071971Y-45097213D01*
X130137008Y-45007695D01*
X130192287Y-44931610D01*
X130285220Y-44749219D01*
X130348477Y-44554534D01*
X130380500Y-44352352D01*
X130380500Y-44147648D01*
X130348477Y-43945466D01*
X130321297Y-43861817D01*
X130319303Y-43791978D01*
X130355383Y-43732145D01*
X130418083Y-43701316D01*
X130439229Y-43699500D01*
X132310771Y-43699500D01*
X132377810Y-43719185D01*
X132423565Y-43771989D01*
X132433509Y-43841147D01*
X132428702Y-43861819D01*
X132401522Y-43945465D01*
X132369500Y-44147648D01*
X132369500Y-44352351D01*
X132401522Y-44554534D01*
X132464781Y-44749223D01*
X132523114Y-44863706D01*
X132552513Y-44921405D01*
X132557715Y-44931613D01*
X132678028Y-45097213D01*
X132822786Y-45241971D01*
X132977749Y-45354556D01*
X132988390Y-45362287D01*
X133104607Y-45421503D01*
X133170776Y-45455218D01*
X133170778Y-45455218D01*
X133170781Y-45455220D01*
X133275137Y-45489127D01*
X133365465Y-45518477D01*
X133466557Y-45534488D01*
X133567648Y-45550500D01*
X133567649Y-45550500D01*
X133772351Y-45550500D01*
X133772352Y-45550500D01*
X133974534Y-45518477D01*
X134169219Y-45455220D01*
X134351610Y-45362287D01*
X134444590Y-45294732D01*
X134517213Y-45241971D01*
X134517215Y-45241968D01*
X134517219Y-45241966D01*
X134661966Y-45097219D01*
X134664650Y-45093524D01*
X134695100Y-45051615D01*
X134699431Y-45048274D01*
X134701705Y-45043297D01*
X134726804Y-45027166D01*
X134750429Y-45008949D01*
X134757102Y-45007695D01*
X134760483Y-45005523D01*
X134795418Y-45000500D01*
X134887770Y-45000500D01*
X134954809Y-45020185D01*
X134975451Y-45036819D01*
X141361780Y-51423148D01*
X141361784Y-51423151D01*
X141484698Y-51505280D01*
X141484711Y-51505287D01*
X141621282Y-51561856D01*
X141621287Y-51561858D01*
X141621291Y-51561858D01*
X141621292Y-51561859D01*
X141766279Y-51590700D01*
X141766282Y-51590700D01*
X141914117Y-51590700D01*
X175787101Y-51590700D01*
X175854140Y-51610385D01*
X175899895Y-51663189D01*
X175911101Y-51714700D01*
X175911101Y-51888076D01*
X175917508Y-51947683D01*
X175967802Y-52082528D01*
X175967806Y-52082535D01*
X176054052Y-52197744D01*
X176054055Y-52197747D01*
X176169264Y-52283993D01*
X176169271Y-52283997D01*
X176304117Y-52334291D01*
X176304116Y-52334291D01*
X176311044Y-52335035D01*
X176363727Y-52340700D01*
X178459472Y-52340699D01*
X178519083Y-52334291D01*
X178653931Y-52283996D01*
X178769146Y-52197746D01*
X178855396Y-52082531D01*
X178905691Y-51947683D01*
X178912100Y-51888073D01*
X178912099Y-49792328D01*
X178905691Y-49732717D01*
X178893128Y-49699035D01*
X178855397Y-49597871D01*
X178855393Y-49597864D01*
X178769147Y-49482655D01*
X178769144Y-49482652D01*
X178653935Y-49396406D01*
X178653928Y-49396402D01*
X178519082Y-49346108D01*
X178519083Y-49346108D01*
X178459483Y-49339701D01*
X178459481Y-49339700D01*
X178459473Y-49339700D01*
X178459464Y-49339700D01*
X176363729Y-49339700D01*
X176363723Y-49339701D01*
X176304116Y-49346108D01*
X176169271Y-49396402D01*
X176169264Y-49396406D01*
X176054055Y-49482652D01*
X176054052Y-49482655D01*
X175967806Y-49597864D01*
X175967802Y-49597871D01*
X175917508Y-49732717D01*
X175913249Y-49772335D01*
X175911101Y-49792323D01*
X175911100Y-49792335D01*
X175911100Y-49965700D01*
X175891415Y-50032739D01*
X175838611Y-50078494D01*
X175787100Y-50089700D01*
X153460856Y-50089700D01*
X153393817Y-50070015D01*
X153348062Y-50017211D01*
X153338118Y-49948053D01*
X153367143Y-49884497D01*
X153391964Y-49862598D01*
X153398241Y-49858404D01*
X153449035Y-49824464D01*
X153574464Y-49699035D01*
X153673013Y-49551547D01*
X153740894Y-49387666D01*
X153749161Y-49346109D01*
X153775499Y-49213695D01*
X153775500Y-49213693D01*
X153775500Y-49036306D01*
X153775499Y-49036304D01*
X153740896Y-48862341D01*
X153740893Y-48862332D01*
X153673016Y-48698459D01*
X153673009Y-48698446D01*
X153574464Y-48550965D01*
X153574461Y-48550961D01*
X153449038Y-48425538D01*
X153449034Y-48425535D01*
X153301553Y-48326990D01*
X153301540Y-48326983D01*
X153137667Y-48259106D01*
X153137658Y-48259103D01*
X153002413Y-48232202D01*
X152940502Y-48199817D01*
X152938923Y-48198266D01*
X148651838Y-43911181D01*
X148618353Y-43849858D01*
X148623337Y-43780166D01*
X148665209Y-43724233D01*
X148730673Y-43699816D01*
X148739519Y-43699500D01*
X181089981Y-43699500D01*
X181157020Y-43719185D01*
X181177662Y-43735819D01*
X185025681Y-47583838D01*
X185059166Y-47645161D01*
X185062000Y-47671519D01*
X185062000Y-49577870D01*
X185062001Y-49577876D01*
X185068408Y-49637483D01*
X185118702Y-49772328D01*
X185118706Y-49772335D01*
X185204952Y-49887544D01*
X185204955Y-49887547D01*
X185320164Y-49973793D01*
X185320171Y-49973797D01*
X185455017Y-50024091D01*
X185455016Y-50024091D01*
X185461944Y-50024835D01*
X185514627Y-50030500D01*
X188010372Y-50030499D01*
X188069983Y-50024091D01*
X188204831Y-49973796D01*
X188320046Y-49887546D01*
X188406296Y-49772331D01*
X188456591Y-49637483D01*
X188463000Y-49577873D01*
X188462999Y-47082128D01*
X188456591Y-47022517D01*
X188415765Y-46913058D01*
X188406297Y-46887671D01*
X188406293Y-46887664D01*
X188320047Y-46772455D01*
X188320044Y-46772452D01*
X188204835Y-46686206D01*
X188204828Y-46686202D01*
X188069982Y-46635908D01*
X188069983Y-46635908D01*
X188010383Y-46629501D01*
X188010381Y-46629500D01*
X188010373Y-46629500D01*
X188010365Y-46629500D01*
X186104019Y-46629500D01*
X186036980Y-46609815D01*
X186016338Y-46593181D01*
X182645323Y-43222165D01*
X182561707Y-43138549D01*
X185062000Y-43138549D01*
X185062000Y-43361450D01*
X185062001Y-43361466D01*
X185091094Y-43582452D01*
X185091095Y-43582457D01*
X185091096Y-43582463D01*
X185141879Y-43771989D01*
X185148790Y-43797780D01*
X185148793Y-43797790D01*
X185209963Y-43945466D01*
X185234095Y-44003726D01*
X185345552Y-44196774D01*
X185345557Y-44196780D01*
X185345558Y-44196782D01*
X185481251Y-44373622D01*
X185481257Y-44373629D01*
X185638870Y-44531242D01*
X185638877Y-44531248D01*
X185764794Y-44627867D01*
X185815726Y-44666948D01*
X186008774Y-44778405D01*
X186214719Y-44863710D01*
X186430037Y-44921404D01*
X186651043Y-44950500D01*
X186651050Y-44950500D01*
X186873950Y-44950500D01*
X186873957Y-44950500D01*
X187094963Y-44921404D01*
X187310281Y-44863710D01*
X187516226Y-44778405D01*
X187709274Y-44666948D01*
X187886124Y-44531247D01*
X188043747Y-44373624D01*
X188179448Y-44196774D01*
X188290905Y-44003726D01*
X188376210Y-43797781D01*
X188433904Y-43582463D01*
X188463000Y-43361457D01*
X188463000Y-43138543D01*
X188433904Y-42917537D01*
X188376210Y-42702219D01*
X188290905Y-42496274D01*
X188179448Y-42303226D01*
X188043747Y-42126376D01*
X188043742Y-42126370D01*
X187886129Y-41968757D01*
X187886122Y-41968751D01*
X187709282Y-41833058D01*
X187709280Y-41833057D01*
X187709274Y-41833052D01*
X187516226Y-41721595D01*
X187516222Y-41721593D01*
X187310290Y-41636293D01*
X187310283Y-41636291D01*
X187310281Y-41636290D01*
X187094963Y-41578596D01*
X187094957Y-41578595D01*
X187094952Y-41578594D01*
X186873966Y-41549501D01*
X186873963Y-41549500D01*
X186873957Y-41549500D01*
X186651043Y-41549500D01*
X186651037Y-41549500D01*
X186651033Y-41549501D01*
X186430047Y-41578594D01*
X186430040Y-41578595D01*
X186430037Y-41578596D01*
X186327002Y-41606204D01*
X186214719Y-41636290D01*
X186214709Y-41636293D01*
X186008777Y-41721593D01*
X186008773Y-41721595D01*
X185815726Y-41833052D01*
X185815717Y-41833058D01*
X185638877Y-41968751D01*
X185638870Y-41968757D01*
X185481257Y-42126370D01*
X185481251Y-42126377D01*
X185345558Y-42303217D01*
X185345552Y-42303226D01*
X185234095Y-42496273D01*
X185234093Y-42496277D01*
X185148793Y-42702209D01*
X185148790Y-42702219D01*
X185091097Y-42917534D01*
X185091094Y-42917547D01*
X185062001Y-43138533D01*
X185062000Y-43138549D01*
X182561707Y-43138549D01*
X181878045Y-42454887D01*
X181763307Y-42378222D01*
X181635832Y-42325421D01*
X181635822Y-42325418D01*
X181500496Y-42298500D01*
X181500494Y-42298500D01*
X181500493Y-42298500D01*
X128492825Y-42298500D01*
X128492821Y-42298500D01*
X128384408Y-42320065D01*
X128384407Y-42320065D01*
X128357499Y-42325418D01*
X128357489Y-42325420D01*
X128230008Y-42378224D01*
X128115272Y-42454887D01*
X127284887Y-43285272D01*
X127208222Y-43400010D01*
X127155421Y-43527485D01*
X127155418Y-43527497D01*
X127135184Y-43629223D01*
X127135184Y-43629226D01*
X127128500Y-43662824D01*
X127128500Y-53083305D01*
X127126117Y-53107497D01*
X127099500Y-53241306D01*
X127099500Y-53418695D01*
X127134103Y-53592658D01*
X127134106Y-53592667D01*
X127201983Y-53756540D01*
X127201990Y-53756553D01*
X127300535Y-53904034D01*
X127300538Y-53904038D01*
X127425961Y-54029461D01*
X127425965Y-54029464D01*
X127573446Y-54128009D01*
X127573459Y-54128016D01*
X127634043Y-54153110D01*
X127737334Y-54195894D01*
X127737336Y-54195894D01*
X127737341Y-54195896D01*
X127911304Y-54230499D01*
X127911307Y-54230500D01*
X127911309Y-54230500D01*
X128088693Y-54230500D01*
X128088694Y-54230499D01*
X128146682Y-54218964D01*
X128262658Y-54195896D01*
X128262661Y-54195894D01*
X128262666Y-54195894D01*
X128426547Y-54128013D01*
X128574035Y-54029464D01*
X128578709Y-54024790D01*
X128587819Y-54015681D01*
X128649142Y-53982196D01*
X128718834Y-53987180D01*
X128774767Y-54029052D01*
X128799184Y-54094516D01*
X128799500Y-54103362D01*
X128799500Y-71681006D01*
X128799500Y-71818994D01*
X128799500Y-71818996D01*
X128799499Y-71818996D01*
X128826418Y-71954322D01*
X128826421Y-71954332D01*
X128879222Y-72081807D01*
X128955887Y-72196545D01*
X128955888Y-72196546D01*
X130607181Y-73847838D01*
X130640666Y-73909161D01*
X130643500Y-73935519D01*
X130643500Y-74201289D01*
X130623815Y-74268328D01*
X130571011Y-74314083D01*
X130501853Y-74324027D01*
X130481183Y-74319220D01*
X130316347Y-74265662D01*
X130316340Y-74265661D01*
X130200223Y-74247270D01*
X130119597Y-74234500D01*
X129920403Y-74234500D01*
X129854822Y-74244887D01*
X129723659Y-74265661D01*
X129723656Y-74265661D01*
X129534219Y-74327213D01*
X129356733Y-74417647D01*
X129318286Y-74445581D01*
X129195582Y-74534731D01*
X129195580Y-74534733D01*
X129195579Y-74534733D01*
X129054733Y-74675579D01*
X129054733Y-74675580D01*
X129054731Y-74675582D01*
X129004447Y-74744790D01*
X128937647Y-74836733D01*
X128860485Y-74988172D01*
X128812510Y-75038968D01*
X128744689Y-75055763D01*
X128678554Y-75033225D01*
X128639515Y-74988172D01*
X128562485Y-74836994D01*
X128562353Y-74836734D01*
X128445269Y-74675582D01*
X128304418Y-74534731D01*
X128143266Y-74417647D01*
X128072357Y-74381517D01*
X127965780Y-74327213D01*
X127776342Y-74265661D01*
X127628782Y-74242290D01*
X127579597Y-74234500D01*
X127380403Y-74234500D01*
X127314822Y-74244887D01*
X127183659Y-74265661D01*
X127183656Y-74265661D01*
X126994219Y-74327213D01*
X126816733Y-74417647D01*
X126778286Y-74445581D01*
X126655582Y-74534731D01*
X126655580Y-74534733D01*
X126655579Y-74534733D01*
X126514733Y-74675579D01*
X126514733Y-74675580D01*
X126514731Y-74675582D01*
X126464447Y-74744790D01*
X126397647Y-74836733D01*
X126320485Y-74988172D01*
X126272510Y-75038968D01*
X126204689Y-75055763D01*
X126138554Y-75033225D01*
X126099515Y-74988172D01*
X126022485Y-74836994D01*
X126022353Y-74836734D01*
X125905269Y-74675582D01*
X125764418Y-74534731D01*
X125603266Y-74417647D01*
X125532357Y-74381517D01*
X125425780Y-74327213D01*
X125236342Y-74265661D01*
X125088782Y-74242290D01*
X125039597Y-74234500D01*
X124840403Y-74234500D01*
X124774822Y-74244887D01*
X124643659Y-74265661D01*
X124643656Y-74265661D01*
X124454219Y-74327213D01*
X124276733Y-74417647D01*
X124238286Y-74445581D01*
X124115582Y-74534731D01*
X124115580Y-74534733D01*
X124115579Y-74534733D01*
X123974733Y-74675579D01*
X123974733Y-74675580D01*
X123974731Y-74675582D01*
X123939555Y-74723997D01*
X123857645Y-74836735D01*
X123780203Y-74988723D01*
X123732229Y-75039518D01*
X123664408Y-75056313D01*
X123598273Y-75033775D01*
X123559234Y-74988722D01*
X123481924Y-74836994D01*
X123454417Y-74799135D01*
X123454417Y-74799134D01*
X122891128Y-75362424D01*
X122875245Y-75303147D01*
X122808102Y-75186853D01*
X122713147Y-75091898D01*
X122596853Y-75024755D01*
X122537574Y-75008871D01*
X123100864Y-74445581D01*
X123100863Y-74445580D01*
X123063008Y-74418077D01*
X122885594Y-74327679D01*
X122696222Y-74266147D01*
X122499563Y-74235000D01*
X122300437Y-74235000D01*
X122103777Y-74266147D01*
X121914405Y-74327679D01*
X121736990Y-74418077D01*
X121699135Y-74445580D01*
X121699135Y-74445581D01*
X122262425Y-75008871D01*
X122203147Y-75024755D01*
X122086853Y-75091898D01*
X121991898Y-75186853D01*
X121924755Y-75303147D01*
X121908871Y-75362425D01*
X121345581Y-74799135D01*
X121345580Y-74799135D01*
X121318077Y-74836990D01*
X121227679Y-75014405D01*
X121166147Y-75203777D01*
X121135000Y-75400436D01*
X121135000Y-75599563D01*
X121166147Y-75796222D01*
X121227679Y-75985594D01*
X121318077Y-76163008D01*
X121345580Y-76200863D01*
X121345581Y-76200864D01*
X121908871Y-75637574D01*
X121924755Y-75696853D01*
X121991898Y-75813147D01*
X122086853Y-75908102D01*
X122203147Y-75975245D01*
X122262425Y-75991128D01*
X121699134Y-76554417D01*
X121736994Y-76581924D01*
X121914405Y-76672320D01*
X122103777Y-76733852D01*
X122300437Y-76765000D01*
X122499563Y-76765000D01*
X122696222Y-76733852D01*
X122885594Y-76672320D01*
X123063005Y-76581924D01*
X123100863Y-76554418D01*
X123100863Y-76554417D01*
X122537574Y-75991128D01*
X122596853Y-75975245D01*
X122713147Y-75908102D01*
X122808102Y-75813147D01*
X122875245Y-75696853D01*
X122891128Y-75637574D01*
X123454417Y-76200863D01*
X123454418Y-76200863D01*
X123481924Y-76163005D01*
X123559234Y-76011277D01*
X123607208Y-75960481D01*
X123675029Y-75943686D01*
X123741164Y-75966223D01*
X123780204Y-76011277D01*
X123829443Y-76107913D01*
X123857647Y-76163266D01*
X123974731Y-76324418D01*
X124115582Y-76465269D01*
X124276734Y-76582353D01*
X124453304Y-76672320D01*
X124454219Y-76672786D01*
X124643657Y-76734338D01*
X124643658Y-76734338D01*
X124643661Y-76734339D01*
X124840403Y-76765500D01*
X124840404Y-76765500D01*
X125039596Y-76765500D01*
X125039597Y-76765500D01*
X125128478Y-76751422D01*
X125197771Y-76760376D01*
X125235557Y-76786214D01*
X127959181Y-79509838D01*
X127992666Y-79571161D01*
X127995500Y-79597519D01*
X127995500Y-99566198D01*
X127975815Y-99633237D01*
X127923011Y-99678992D01*
X127853853Y-99688936D01*
X127833183Y-99684129D01*
X127776347Y-99665662D01*
X127776340Y-99665661D01*
X127668475Y-99648577D01*
X127579597Y-99634500D01*
X127380403Y-99634500D01*
X127314822Y-99644887D01*
X127183659Y-99665661D01*
X127183656Y-99665661D01*
X126994219Y-99727213D01*
X126816733Y-99817647D01*
X126778286Y-99845581D01*
X126655582Y-99934731D01*
X126655580Y-99934733D01*
X126655579Y-99934733D01*
X126514733Y-100075579D01*
X126514733Y-100075580D01*
X126514731Y-100075582D01*
X126482772Y-100119570D01*
X126397647Y-100236733D01*
X126320485Y-100388172D01*
X126272510Y-100438968D01*
X126204689Y-100455763D01*
X126138554Y-100433225D01*
X126099515Y-100388172D01*
X126057877Y-100306453D01*
X126022353Y-100236734D01*
X125905269Y-100075582D01*
X125764418Y-99934731D01*
X125603266Y-99817647D01*
X125524379Y-99777452D01*
X125425780Y-99727213D01*
X125236342Y-99665661D01*
X125088782Y-99642290D01*
X125039597Y-99634500D01*
X124840403Y-99634500D01*
X124774822Y-99644887D01*
X124643659Y-99665661D01*
X124643656Y-99665661D01*
X124454219Y-99727213D01*
X124276733Y-99817647D01*
X124238286Y-99845581D01*
X124115582Y-99934731D01*
X124115580Y-99934733D01*
X124115579Y-99934733D01*
X123974733Y-100075579D01*
X123974733Y-100075580D01*
X123974731Y-100075582D01*
X123942772Y-100119570D01*
X123889817Y-100192456D01*
X123834487Y-100235121D01*
X123764873Y-100241100D01*
X123703078Y-100208494D01*
X123668721Y-100147655D01*
X123665499Y-100119570D01*
X123665499Y-100087129D01*
X123665498Y-100087123D01*
X123665497Y-100087116D01*
X123659091Y-100027517D01*
X123608796Y-99892669D01*
X123608795Y-99892668D01*
X123608793Y-99892664D01*
X123522547Y-99777455D01*
X123522544Y-99777452D01*
X123407335Y-99691206D01*
X123407328Y-99691202D01*
X123272482Y-99640908D01*
X123272483Y-99640908D01*
X123212883Y-99634501D01*
X123212881Y-99634500D01*
X123212873Y-99634500D01*
X123212864Y-99634500D01*
X121587129Y-99634500D01*
X121587123Y-99634501D01*
X121527516Y-99640908D01*
X121392671Y-99691202D01*
X121392664Y-99691206D01*
X121277455Y-99777452D01*
X121277452Y-99777455D01*
X121191206Y-99892664D01*
X121191202Y-99892671D01*
X121140908Y-100027517D01*
X121135741Y-100075580D01*
X121134501Y-100087123D01*
X121134500Y-100087135D01*
X109994380Y-100087135D01*
X110000483Y-82796557D01*
X110004077Y-82777370D01*
X110000506Y-82730887D01*
X110000523Y-82684284D01*
X109998449Y-82676535D01*
X109994598Y-82653969D01*
X109993984Y-82645976D01*
X109993984Y-82645973D01*
X109980090Y-82606502D01*
X109977274Y-82597398D01*
X109966460Y-82556978D01*
X109962443Y-82550015D01*
X109952890Y-82529230D01*
X108911650Y-79571161D01*
X102770658Y-62125161D01*
X102087292Y-60183780D01*
X101775053Y-59296737D01*
X100964898Y-56995161D01*
X100837808Y-56634110D01*
X100825028Y-56597804D01*
X104574500Y-56597804D01*
X104574500Y-56822195D01*
X104609599Y-57043805D01*
X104678938Y-57257206D01*
X104759637Y-57415584D01*
X104780803Y-57457125D01*
X104912690Y-57638651D01*
X105071349Y-57797310D01*
X105252875Y-57929197D01*
X105452798Y-58031063D01*
X105476771Y-58038852D01*
X105534446Y-58078291D01*
X105561644Y-58142649D01*
X105549729Y-58211496D01*
X105502484Y-58262971D01*
X105494748Y-58267267D01*
X105420857Y-58304917D01*
X105413682Y-58310129D01*
X105998554Y-58895000D01*
X105953263Y-58895000D01*
X105862975Y-58919193D01*
X105782025Y-58965930D01*
X105715930Y-59032025D01*
X105669193Y-59112975D01*
X105645000Y-59203263D01*
X105645000Y-59248553D01*
X105060129Y-58663682D01*
X105054918Y-58670854D01*
X104975955Y-58825826D01*
X104975954Y-58825829D01*
X104922209Y-58991243D01*
X104895000Y-59163035D01*
X104895000Y-59336964D01*
X104922209Y-59508756D01*
X104975954Y-59674170D01*
X104975955Y-59674173D01*
X105054919Y-59829146D01*
X105060129Y-59836316D01*
X105645000Y-59251445D01*
X105645000Y-59296737D01*
X105669193Y-59387025D01*
X105715930Y-59467975D01*
X105782025Y-59534070D01*
X105862975Y-59580807D01*
X105953263Y-59605000D01*
X105998554Y-59605000D01*
X105413683Y-60189869D01*
X105420854Y-60195081D01*
X105575826Y-60274044D01*
X105575829Y-60274045D01*
X105741243Y-60327790D01*
X105913036Y-60355000D01*
X106086964Y-60355000D01*
X106258756Y-60327790D01*
X106424170Y-60274045D01*
X106424173Y-60274044D01*
X106579145Y-60195080D01*
X106586316Y-60189869D01*
X106001447Y-59605000D01*
X106046737Y-59605000D01*
X106137025Y-59580807D01*
X106217975Y-59534070D01*
X106284070Y-59467975D01*
X106330807Y-59387025D01*
X106355000Y-59296737D01*
X106355000Y-59251447D01*
X106939869Y-59836316D01*
X106945080Y-59829145D01*
X107024044Y-59674173D01*
X107024045Y-59674170D01*
X107077790Y-59508756D01*
X107105000Y-59336964D01*
X107105000Y-59163035D01*
X107077790Y-58991243D01*
X107024045Y-58825829D01*
X107024044Y-58825826D01*
X106945081Y-58670854D01*
X106939869Y-58663683D01*
X106355000Y-59248552D01*
X106355000Y-59203263D01*
X106330807Y-59112975D01*
X106284070Y-59032025D01*
X106217975Y-58965930D01*
X106137025Y-58919193D01*
X106046737Y-58895000D01*
X106001447Y-58895000D01*
X106586316Y-58310129D01*
X106579146Y-58304919D01*
X106505252Y-58267268D01*
X106454456Y-58219293D01*
X106437661Y-58151472D01*
X106460199Y-58085337D01*
X106514914Y-58041886D01*
X106523221Y-58038854D01*
X106547202Y-58031063D01*
X106747125Y-57929197D01*
X106928651Y-57797310D01*
X113054142Y-51671819D01*
X113115465Y-51638334D01*
X113141823Y-51635500D01*
X114604008Y-51635500D01*
X114671047Y-51655185D01*
X114716802Y-51707989D01*
X114726746Y-51777147D01*
X114704326Y-51832385D01*
X114605212Y-51968804D01*
X114498697Y-52177849D01*
X114426201Y-52400969D01*
X114426201Y-52400971D01*
X114411527Y-52493614D01*
X114381597Y-52556749D01*
X114376735Y-52561896D01*
X109523047Y-57415584D01*
X109523042Y-57415590D01*
X109495294Y-57457122D01*
X109495292Y-57457125D01*
X109479358Y-57480972D01*
X109440914Y-57538507D01*
X109384343Y-57675082D01*
X109384340Y-57675092D01*
X109355500Y-57820079D01*
X109355500Y-64042346D01*
X109335815Y-64109385D01*
X109283011Y-64155140D01*
X109213853Y-64165084D01*
X109212103Y-64164819D01*
X109086965Y-64145000D01*
X108913036Y-64145000D01*
X108741243Y-64172209D01*
X108575829Y-64225954D01*
X108575826Y-64225955D01*
X108420854Y-64304918D01*
X108413682Y-64310129D01*
X108998553Y-64895000D01*
X108953263Y-64895000D01*
X108862975Y-64919193D01*
X108782025Y-64965930D01*
X108715930Y-65032025D01*
X108669193Y-65112975D01*
X108645000Y-65203263D01*
X108645000Y-65248553D01*
X108060129Y-64663682D01*
X108054918Y-64670854D01*
X107975955Y-64825826D01*
X107975954Y-64825829D01*
X107922209Y-64991243D01*
X107895000Y-65163035D01*
X107895000Y-65336964D01*
X107922209Y-65508756D01*
X107975954Y-65674170D01*
X107975955Y-65674173D01*
X108054919Y-65829146D01*
X108060129Y-65836316D01*
X108645000Y-65251445D01*
X108645000Y-65296737D01*
X108669193Y-65387025D01*
X108715930Y-65467975D01*
X108782025Y-65534070D01*
X108862975Y-65580807D01*
X108953263Y-65605000D01*
X108998552Y-65605000D01*
X108413682Y-66189869D01*
X108420854Y-66195081D01*
X108575826Y-66274044D01*
X108575829Y-66274045D01*
X108741243Y-66327790D01*
X108913036Y-66355000D01*
X109074271Y-66355000D01*
X109095516Y-66361238D01*
X109117605Y-66362818D01*
X109128388Y-66370890D01*
X109141310Y-66374685D01*
X109155809Y-66391418D01*
X109173538Y-66404690D01*
X109178245Y-66417310D01*
X109187065Y-66427489D01*
X109190216Y-66449406D01*
X109197955Y-66470154D01*
X109195092Y-66483314D01*
X109197009Y-66496647D01*
X109187809Y-66516790D01*
X109183103Y-66538427D01*
X109169834Y-66556152D01*
X109167984Y-66560203D01*
X109161952Y-66566681D01*
X109080452Y-66648181D01*
X109019129Y-66681666D01*
X108992771Y-66684500D01*
X108912990Y-66684500D01*
X108741127Y-66711720D01*
X108575630Y-66765494D01*
X108420588Y-66844494D01*
X108279821Y-66946766D01*
X108279816Y-66946770D01*
X108156770Y-67069816D01*
X108156766Y-67069821D01*
X108054494Y-67210588D01*
X107975494Y-67365630D01*
X107921720Y-67531127D01*
X107894500Y-67702989D01*
X107894500Y-67877010D01*
X107921720Y-68048872D01*
X107975494Y-68214369D01*
X108054494Y-68369411D01*
X108156766Y-68510178D01*
X108156770Y-68510183D01*
X108279816Y-68633229D01*
X108279821Y-68633233D01*
X108393963Y-68716161D01*
X108420592Y-68735508D01*
X108490117Y-68770933D01*
X108575630Y-68814505D01*
X108575632Y-68814505D01*
X108575635Y-68814507D01*
X108654707Y-68840199D01*
X108741127Y-68868279D01*
X108912990Y-68895500D01*
X108912995Y-68895500D01*
X109087010Y-68895500D01*
X109258872Y-68868279D01*
X109424365Y-68814507D01*
X109579408Y-68735508D01*
X109720185Y-68633228D01*
X109843228Y-68510185D01*
X109945508Y-68369408D01*
X110024507Y-68214365D01*
X110078279Y-68048872D01*
X110105500Y-67877010D01*
X110105500Y-67797229D01*
X110125185Y-67730190D01*
X110141819Y-67709548D01*
X110688948Y-67162419D01*
X110688951Y-67162416D01*
X110771084Y-67039495D01*
X110827658Y-66902913D01*
X110854993Y-66765494D01*
X110856500Y-66757920D01*
X110856500Y-58256228D01*
X110876185Y-58189189D01*
X110892814Y-58168552D01*
X114214500Y-54846865D01*
X114275821Y-54813382D01*
X114345513Y-54818366D01*
X114401446Y-54860238D01*
X114425863Y-54925702D01*
X114424652Y-54953945D01*
X114390000Y-55172733D01*
X114390000Y-55407265D01*
X114426689Y-55638909D01*
X114499164Y-55861965D01*
X114605640Y-56070933D01*
X114664498Y-56151945D01*
X114664499Y-56151945D01*
X115271304Y-55545140D01*
X115295116Y-55602627D01*
X115367345Y-55710725D01*
X115459275Y-55802655D01*
X115567373Y-55874884D01*
X115624858Y-55898695D01*
X115018053Y-56505499D01*
X115020673Y-56538789D01*
X115006309Y-56607166D01*
X114969942Y-56648835D01*
X114909004Y-56693109D01*
X114743108Y-56859005D01*
X114743104Y-56859010D01*
X114605212Y-57048804D01*
X114498697Y-57257849D01*
X114426201Y-57480972D01*
X114389500Y-57712695D01*
X114389500Y-57947304D01*
X114426201Y-58179027D01*
X114498697Y-58402150D01*
X114605212Y-58611195D01*
X114743104Y-58800989D01*
X114743108Y-58800994D01*
X114909005Y-58966891D01*
X114909010Y-58966895D01*
X114954137Y-58999682D01*
X114996803Y-59055012D01*
X115002782Y-59124625D01*
X114970176Y-59186420D01*
X114954137Y-59200318D01*
X114909010Y-59233104D01*
X114909005Y-59233108D01*
X114743108Y-59399005D01*
X114743104Y-59399010D01*
X114605212Y-59588804D01*
X114498697Y-59797849D01*
X114426201Y-60020972D01*
X114426201Y-60020974D01*
X114389500Y-60252695D01*
X114389500Y-60487305D01*
X114403486Y-60575608D01*
X114426201Y-60719027D01*
X114498697Y-60942150D01*
X114605212Y-61151195D01*
X114743104Y-61340989D01*
X114743108Y-61340994D01*
X114909005Y-61506891D01*
X114909010Y-61506895D01*
X114954137Y-61539682D01*
X114996803Y-61595012D01*
X115002782Y-61664625D01*
X114970176Y-61726420D01*
X114954137Y-61740318D01*
X114909010Y-61773104D01*
X114909005Y-61773108D01*
X114743108Y-61939005D01*
X114743104Y-61939010D01*
X114605212Y-62128804D01*
X114498697Y-62337849D01*
X114426201Y-62560972D01*
X114389500Y-62792695D01*
X114389500Y-63027304D01*
X114426201Y-63259027D01*
X114498697Y-63482150D01*
X114605212Y-63691195D01*
X114743104Y-63880989D01*
X114743108Y-63880994D01*
X114909005Y-64046891D01*
X114909010Y-64046895D01*
X114954137Y-64079682D01*
X114996803Y-64135012D01*
X115002782Y-64204625D01*
X114970176Y-64266420D01*
X114954137Y-64280318D01*
X114909010Y-64313104D01*
X114909005Y-64313108D01*
X114743108Y-64479005D01*
X114743104Y-64479010D01*
X114605212Y-64668804D01*
X114498697Y-64877849D01*
X114426201Y-65100972D01*
X114395195Y-65296737D01*
X114389500Y-65332695D01*
X114389500Y-65567305D01*
X114395470Y-65605000D01*
X114426201Y-65799027D01*
X114498697Y-66022150D01*
X114498699Y-66022153D01*
X114586810Y-66195081D01*
X114605212Y-66231195D01*
X114743104Y-66420989D01*
X114743108Y-66420994D01*
X114743110Y-66420996D01*
X114909004Y-66586890D01*
X114969940Y-66631162D01*
X115012606Y-66686492D01*
X115020673Y-66741210D01*
X115018053Y-66774499D01*
X115624858Y-67381304D01*
X115567373Y-67405116D01*
X115459275Y-67477345D01*
X115367345Y-67569275D01*
X115295116Y-67677373D01*
X115271304Y-67734858D01*
X114664499Y-67128053D01*
X114664498Y-67128053D01*
X114605639Y-67209068D01*
X114499164Y-67418034D01*
X114426689Y-67641090D01*
X114390000Y-67872734D01*
X114390000Y-68107265D01*
X114426689Y-68338909D01*
X114499164Y-68561965D01*
X114605640Y-68770933D01*
X114664498Y-68851945D01*
X114664499Y-68851945D01*
X115271304Y-68245140D01*
X115295116Y-68302627D01*
X115367345Y-68410725D01*
X115459275Y-68502655D01*
X115567373Y-68574884D01*
X115624858Y-68598695D01*
X115018052Y-69205499D01*
X115018053Y-69205500D01*
X115099066Y-69264359D01*
X115308034Y-69370835D01*
X115531090Y-69443310D01*
X115762735Y-69480000D01*
X115997265Y-69480000D01*
X116228909Y-69443310D01*
X116451965Y-69370835D01*
X116660930Y-69264361D01*
X116741945Y-69205499D01*
X116741946Y-69205499D01*
X116135141Y-68598695D01*
X116192627Y-68574884D01*
X116300725Y-68502655D01*
X116392655Y-68410725D01*
X116464884Y-68302627D01*
X116488695Y-68245142D01*
X117095499Y-68851946D01*
X117095499Y-68851945D01*
X117154361Y-68770930D01*
X117260835Y-68561965D01*
X117333310Y-68338909D01*
X117370000Y-68107265D01*
X117370000Y-67872734D01*
X117333310Y-67641090D01*
X117260835Y-67418034D01*
X117154359Y-67209066D01*
X117095500Y-67128053D01*
X117095499Y-67128052D01*
X116488694Y-67734857D01*
X116464884Y-67677373D01*
X116392655Y-67569275D01*
X116300725Y-67477345D01*
X116192627Y-67405116D01*
X116135141Y-67381304D01*
X116741945Y-66774499D01*
X116739325Y-66741211D01*
X116753689Y-66672834D01*
X116790056Y-66631164D01*
X116850996Y-66586890D01*
X117016890Y-66420996D01*
X117154790Y-66231192D01*
X117261301Y-66022153D01*
X117333799Y-65799026D01*
X117370500Y-65567305D01*
X117370500Y-65332695D01*
X117333799Y-65100974D01*
X117296293Y-64985542D01*
X117261302Y-64877849D01*
X117155832Y-64670854D01*
X117154790Y-64668808D01*
X117137171Y-64644558D01*
X117016895Y-64479010D01*
X117016891Y-64479005D01*
X116850992Y-64313106D01*
X116805863Y-64280319D01*
X116763196Y-64224989D01*
X116757216Y-64155376D01*
X116789822Y-64093581D01*
X116805863Y-64079681D01*
X116850992Y-64046893D01*
X116850992Y-64046892D01*
X116850996Y-64046890D01*
X117016890Y-63880996D01*
X117154790Y-63691192D01*
X117261301Y-63482153D01*
X117333799Y-63259026D01*
X117370500Y-63027305D01*
X117370500Y-62792695D01*
X117333799Y-62560974D01*
X117261301Y-62337847D01*
X117154790Y-62128808D01*
X117107587Y-62063838D01*
X117016895Y-61939010D01*
X117016891Y-61939005D01*
X116850992Y-61773106D01*
X116805863Y-61740319D01*
X116763196Y-61684989D01*
X116757216Y-61615376D01*
X116789822Y-61553581D01*
X116805863Y-61539681D01*
X116850992Y-61506893D01*
X116850992Y-61506892D01*
X116850996Y-61506890D01*
X117016890Y-61340996D01*
X117154790Y-61151192D01*
X117261301Y-60942153D01*
X117333799Y-60719026D01*
X117370500Y-60487305D01*
X117370500Y-60252695D01*
X117333799Y-60020974D01*
X117297550Y-59909410D01*
X117261302Y-59797849D01*
X117261301Y-59797847D01*
X117154790Y-59588808D01*
X117067000Y-59467975D01*
X117016895Y-59399010D01*
X117016891Y-59399005D01*
X116850992Y-59233106D01*
X116805863Y-59200319D01*
X116763196Y-59144989D01*
X116757216Y-59075376D01*
X116789822Y-59013581D01*
X116805863Y-58999681D01*
X116850992Y-58966893D01*
X116850992Y-58966892D01*
X116850996Y-58966890D01*
X117016890Y-58800996D01*
X117154790Y-58611192D01*
X117261301Y-58402153D01*
X117333799Y-58179026D01*
X117370500Y-57947305D01*
X117370500Y-57712695D01*
X117333799Y-57480974D01*
X117261301Y-57257847D01*
X117154790Y-57048808D01*
X117071260Y-56933838D01*
X117016895Y-56859010D01*
X117016891Y-56859005D01*
X116850998Y-56693112D01*
X116850994Y-56693109D01*
X116850992Y-56693107D01*
X116790058Y-56648836D01*
X116747392Y-56593506D01*
X116739325Y-56538788D01*
X116741945Y-56505499D01*
X116135141Y-55898695D01*
X116192627Y-55874884D01*
X116300725Y-55802655D01*
X116392655Y-55710725D01*
X116464884Y-55602627D01*
X116488695Y-55545142D01*
X117095499Y-56151946D01*
X117095499Y-56151945D01*
X117154361Y-56070930D01*
X117260835Y-55861965D01*
X117333310Y-55638909D01*
X117370000Y-55407265D01*
X117370000Y-55172734D01*
X117333310Y-54941090D01*
X117260835Y-54718034D01*
X117154359Y-54509066D01*
X117095500Y-54428053D01*
X117095499Y-54428052D01*
X116488694Y-55034857D01*
X116464884Y-54977373D01*
X116392655Y-54869275D01*
X116300725Y-54777345D01*
X116192627Y-54705116D01*
X116135140Y-54681304D01*
X116741945Y-54074499D01*
X116739325Y-54041211D01*
X116753689Y-53972834D01*
X116790056Y-53931164D01*
X116850996Y-53886890D01*
X117016890Y-53720996D01*
X117154790Y-53531192D01*
X117261301Y-53322153D01*
X117333799Y-53099026D01*
X117370500Y-52867305D01*
X117370500Y-52632695D01*
X117333799Y-52400974D01*
X117261301Y-52177847D01*
X117154790Y-51968808D01*
X117096132Y-51888072D01*
X117016895Y-51779010D01*
X117016891Y-51779005D01*
X116850992Y-51613106D01*
X116805863Y-51580319D01*
X116763196Y-51524989D01*
X116757216Y-51455376D01*
X116789822Y-51393581D01*
X116805863Y-51379681D01*
X116850992Y-51346893D01*
X116850992Y-51346892D01*
X116850996Y-51346890D01*
X117016890Y-51180996D01*
X117154790Y-50991192D01*
X117261301Y-50782153D01*
X117333799Y-50559026D01*
X117370500Y-50327305D01*
X117370500Y-50092695D01*
X117333799Y-49860974D01*
X117261301Y-49637847D01*
X117154790Y-49428808D01*
X117131246Y-49396402D01*
X117016895Y-49239010D01*
X117016891Y-49239005D01*
X116850994Y-49073108D01*
X116850989Y-49073104D01*
X116661195Y-48935212D01*
X116661194Y-48935211D01*
X116661192Y-48935210D01*
X116518179Y-48862341D01*
X116452150Y-48828697D01*
X116229027Y-48756201D01*
X116113165Y-48737850D01*
X115997305Y-48719500D01*
X115762695Y-48719500D01*
X115717558Y-48726649D01*
X115530972Y-48756201D01*
X115462556Y-48778431D01*
X115424238Y-48784500D01*
X112387805Y-48784500D01*
X112166194Y-48819599D01*
X111952793Y-48888938D01*
X111752873Y-48990803D01*
X111690248Y-49036304D01*
X111690241Y-49036309D01*
X111571349Y-49122689D01*
X111571347Y-49122691D01*
X111571346Y-49122691D01*
X111412686Y-49281352D01*
X104912692Y-55781346D01*
X104912690Y-55781349D01*
X104856049Y-55859307D01*
X104780803Y-55962874D01*
X104678938Y-56162793D01*
X104609599Y-56376194D01*
X104574500Y-56597804D01*
X100825028Y-56597804D01*
X99007398Y-51434082D01*
X99000363Y-51393069D01*
X98998700Y-50092695D01*
X98996304Y-48218549D01*
X104049500Y-48218549D01*
X104049500Y-48441450D01*
X104049501Y-48441466D01*
X104078594Y-48662452D01*
X104078595Y-48662457D01*
X104078596Y-48662463D01*
X104132151Y-48862334D01*
X104136290Y-48877780D01*
X104136293Y-48877790D01*
X104221593Y-49083722D01*
X104221595Y-49083726D01*
X104333052Y-49276774D01*
X104333057Y-49276780D01*
X104333058Y-49276782D01*
X104468751Y-49453622D01*
X104468757Y-49453629D01*
X104626370Y-49611242D01*
X104626377Y-49611248D01*
X104740783Y-49699034D01*
X104803226Y-49746948D01*
X104996274Y-49858405D01*
X105202219Y-49943710D01*
X105417537Y-50001404D01*
X105638543Y-50030500D01*
X105638550Y-50030500D01*
X105861450Y-50030500D01*
X105861457Y-50030500D01*
X106082463Y-50001404D01*
X106297781Y-49943710D01*
X106503726Y-49858405D01*
X106696774Y-49746948D01*
X106873624Y-49611247D01*
X107031247Y-49453624D01*
X107166948Y-49276774D01*
X107278405Y-49083726D01*
X107363710Y-48877781D01*
X107421404Y-48662463D01*
X107450500Y-48441457D01*
X107450500Y-48218543D01*
X107421404Y-47997537D01*
X107363710Y-47782219D01*
X107278405Y-47576274D01*
X107166948Y-47383226D01*
X107031247Y-47206376D01*
X107031242Y-47206370D01*
X106873629Y-47048757D01*
X106873622Y-47048751D01*
X106696782Y-46913058D01*
X106696780Y-46913057D01*
X106696774Y-46913052D01*
X106503726Y-46801595D01*
X106503722Y-46801593D01*
X106297790Y-46716293D01*
X106297783Y-46716291D01*
X106297781Y-46716290D01*
X106082463Y-46658596D01*
X106082457Y-46658595D01*
X106082452Y-46658594D01*
X105861466Y-46629501D01*
X105861463Y-46629500D01*
X105861457Y-46629500D01*
X105638543Y-46629500D01*
X105638537Y-46629500D01*
X105638533Y-46629501D01*
X105417547Y-46658594D01*
X105417540Y-46658595D01*
X105417537Y-46658596D01*
X105314502Y-46686204D01*
X105202219Y-46716290D01*
X105202209Y-46716293D01*
X104996277Y-46801593D01*
X104996273Y-46801595D01*
X104803226Y-46913052D01*
X104803217Y-46913058D01*
X104626377Y-47048751D01*
X104626370Y-47048757D01*
X104468757Y-47206370D01*
X104468751Y-47206377D01*
X104333058Y-47383217D01*
X104333052Y-47383226D01*
X104221595Y-47576273D01*
X104221593Y-47576277D01*
X104136293Y-47782209D01*
X104136290Y-47782219D01*
X104078597Y-47997534D01*
X104078594Y-47997547D01*
X104049501Y-48218533D01*
X104049500Y-48218549D01*
X98996304Y-48218549D01*
X98988356Y-42002135D01*
X104049500Y-42002135D01*
X104049500Y-44497870D01*
X104049501Y-44497876D01*
X104055908Y-44557483D01*
X104106202Y-44692328D01*
X104106206Y-44692335D01*
X104192452Y-44807544D01*
X104192455Y-44807547D01*
X104307664Y-44893793D01*
X104307671Y-44893797D01*
X104442517Y-44944091D01*
X104442516Y-44944091D01*
X104449444Y-44944835D01*
X104502127Y-44950500D01*
X106997872Y-44950499D01*
X107057483Y-44944091D01*
X107192331Y-44893796D01*
X107307546Y-44807546D01*
X107393796Y-44692331D01*
X107444091Y-44557483D01*
X107450500Y-44497873D01*
X107450500Y-44147648D01*
X117619500Y-44147648D01*
X117619500Y-44352351D01*
X117651522Y-44554534D01*
X117714781Y-44749223D01*
X117773114Y-44863706D01*
X117802513Y-44921405D01*
X117807715Y-44931613D01*
X117928028Y-45097213D01*
X118072786Y-45241971D01*
X118227749Y-45354556D01*
X118238390Y-45362287D01*
X118354607Y-45421503D01*
X118420776Y-45455218D01*
X118420778Y-45455218D01*
X118420781Y-45455220D01*
X118525137Y-45489127D01*
X118615465Y-45518477D01*
X118716557Y-45534488D01*
X118817648Y-45550500D01*
X118817649Y-45550500D01*
X119022351Y-45550500D01*
X119022352Y-45550500D01*
X119224534Y-45518477D01*
X119419219Y-45455220D01*
X119601610Y-45362287D01*
X119694590Y-45294732D01*
X119767213Y-45241971D01*
X119767215Y-45241968D01*
X119767219Y-45241966D01*
X119911966Y-45097219D01*
X119911968Y-45097215D01*
X119911971Y-45097213D01*
X119977008Y-45007695D01*
X120032287Y-44931610D01*
X120125220Y-44749219D01*
X120188477Y-44554534D01*
X120220500Y-44352352D01*
X120220500Y-44147648D01*
X120188477Y-43945466D01*
X120125220Y-43750781D01*
X120125218Y-43750778D01*
X120125218Y-43750776D01*
X120080404Y-43662825D01*
X120032287Y-43568390D01*
X120002568Y-43527485D01*
X119911971Y-43402786D01*
X119767213Y-43258028D01*
X119601613Y-43137715D01*
X119601612Y-43137714D01*
X119601610Y-43137713D01*
X119544653Y-43108691D01*
X119419223Y-43044781D01*
X119224534Y-42981522D01*
X119049995Y-42953878D01*
X119022352Y-42949500D01*
X118817648Y-42949500D01*
X118793329Y-42953351D01*
X118615465Y-42981522D01*
X118420776Y-43044781D01*
X118238386Y-43137715D01*
X118072786Y-43258028D01*
X117928028Y-43402786D01*
X117807715Y-43568386D01*
X117714781Y-43750776D01*
X117651522Y-43945465D01*
X117619500Y-44147648D01*
X107450500Y-44147648D01*
X107450499Y-43222165D01*
X107450499Y-42002129D01*
X107450498Y-42002123D01*
X107450497Y-42002116D01*
X107444091Y-41942517D01*
X107403265Y-41833058D01*
X107393797Y-41807671D01*
X107393793Y-41807664D01*
X107307547Y-41692455D01*
X107307544Y-41692452D01*
X107192335Y-41606206D01*
X107192328Y-41606202D01*
X107057482Y-41555908D01*
X107057483Y-41555908D01*
X106997883Y-41549501D01*
X106997881Y-41549500D01*
X106997873Y-41549500D01*
X106997864Y-41549500D01*
X104502129Y-41549500D01*
X104502123Y-41549501D01*
X104442516Y-41555908D01*
X104307671Y-41606202D01*
X104307664Y-41606206D01*
X104192455Y-41692452D01*
X104192452Y-41692455D01*
X104106206Y-41807664D01*
X104106202Y-41807671D01*
X104055908Y-41942517D01*
X104049840Y-41998965D01*
X104049501Y-42002123D01*
X104049500Y-42002135D01*
X98988356Y-42002135D01*
X98984063Y-38644402D01*
X126749500Y-38644402D01*
X126749500Y-38880597D01*
X126786446Y-39113868D01*
X126859433Y-39338496D01*
X126960288Y-39536433D01*
X126966657Y-39548933D01*
X127105483Y-39740010D01*
X127272490Y-39907017D01*
X127463567Y-40045843D01*
X127562991Y-40096502D01*
X127674003Y-40153066D01*
X127674005Y-40153066D01*
X127674008Y-40153068D01*
X127794412Y-40192189D01*
X127898631Y-40226053D01*
X128131903Y-40263000D01*
X128131908Y-40263000D01*
X128368097Y-40263000D01*
X128601368Y-40226053D01*
X128639839Y-40213553D01*
X128825992Y-40153068D01*
X129036433Y-40045843D01*
X129227510Y-39907017D01*
X129394517Y-39740010D01*
X129533343Y-39548933D01*
X129640568Y-39338492D01*
X129713553Y-39113868D01*
X129731603Y-38999904D01*
X129750500Y-38880597D01*
X129750500Y-38644402D01*
X133249500Y-38644402D01*
X133249500Y-38880597D01*
X133286446Y-39113868D01*
X133359433Y-39338496D01*
X133460288Y-39536433D01*
X133466657Y-39548933D01*
X133605483Y-39740010D01*
X133772490Y-39907017D01*
X133963567Y-40045843D01*
X134062991Y-40096502D01*
X134174003Y-40153066D01*
X134174005Y-40153066D01*
X134174008Y-40153068D01*
X134294412Y-40192189D01*
X134398631Y-40226053D01*
X134631903Y-40263000D01*
X134631908Y-40263000D01*
X134868097Y-40263000D01*
X135101368Y-40226053D01*
X135139839Y-40213553D01*
X135325992Y-40153068D01*
X135536433Y-40045843D01*
X135727510Y-39907017D01*
X135894517Y-39740010D01*
X136033343Y-39548933D01*
X136140568Y-39338492D01*
X136213553Y-39113868D01*
X136231603Y-38999904D01*
X136250500Y-38880597D01*
X136250500Y-38644401D01*
X136248520Y-38631902D01*
X138039500Y-38631902D01*
X138039500Y-38868097D01*
X138076446Y-39101368D01*
X138149433Y-39325996D01*
X138245965Y-39515449D01*
X138256657Y-39536433D01*
X138395483Y-39727510D01*
X138562490Y-39894517D01*
X138753567Y-40033343D01*
X138778098Y-40045842D01*
X138964003Y-40140566D01*
X138964005Y-40140566D01*
X138964008Y-40140568D01*
X139084412Y-40179689D01*
X139188631Y-40213553D01*
X139421903Y-40250500D01*
X139421908Y-40250500D01*
X139658097Y-40250500D01*
X139891368Y-40213553D01*
X140115992Y-40140568D01*
X140326433Y-40033343D01*
X140517510Y-39894517D01*
X140684517Y-39727510D01*
X140823343Y-39536433D01*
X140930568Y-39325992D01*
X141003553Y-39101368D01*
X141040500Y-38868097D01*
X141040500Y-38631902D01*
X144539500Y-38631902D01*
X144539500Y-38868097D01*
X144576446Y-39101368D01*
X144649433Y-39325996D01*
X144745965Y-39515449D01*
X144756657Y-39536433D01*
X144895483Y-39727510D01*
X145062490Y-39894517D01*
X145253567Y-40033343D01*
X145278098Y-40045842D01*
X145464003Y-40140566D01*
X145464005Y-40140566D01*
X145464008Y-40140568D01*
X145584412Y-40179689D01*
X145688631Y-40213553D01*
X145921903Y-40250500D01*
X145921908Y-40250500D01*
X146158097Y-40250500D01*
X146391368Y-40213553D01*
X146615992Y-40140568D01*
X146826433Y-40033343D01*
X147017510Y-39894517D01*
X147184517Y-39727510D01*
X147323343Y-39536433D01*
X147430568Y-39325992D01*
X147474947Y-39189405D01*
X147503552Y-39101372D01*
X147503552Y-39101371D01*
X147503553Y-39101368D01*
X147530063Y-38933991D01*
X147540500Y-38868097D01*
X147540500Y-38631902D01*
X147503553Y-38398631D01*
X147445788Y-38220851D01*
X147430568Y-38174008D01*
X147430566Y-38174005D01*
X147430566Y-38174003D01*
X147323343Y-37963567D01*
X147309782Y-37944902D01*
X147309781Y-37944901D01*
X147259776Y-37876075D01*
X152010000Y-37876075D01*
X152010000Y-38098924D01*
X152039085Y-38319854D01*
X152039088Y-38319867D01*
X152096763Y-38535118D01*
X152182045Y-38741002D01*
X152182054Y-38741020D01*
X152293464Y-38933991D01*
X152293473Y-38934004D01*
X152344040Y-38999903D01*
X152344043Y-38999903D01*
X152994152Y-38349793D01*
X153001049Y-38366442D01*
X153088599Y-38497470D01*
X153200030Y-38608901D01*
X153331058Y-38696451D01*
X153347705Y-38703346D01*
X152697595Y-39353455D01*
X152697595Y-39353456D01*
X152763507Y-39404033D01*
X152956485Y-39515449D01*
X152956497Y-39515454D01*
X153162381Y-39600736D01*
X153377632Y-39658411D01*
X153377645Y-39658414D01*
X153598575Y-39687500D01*
X153821425Y-39687500D01*
X154042354Y-39658414D01*
X154042367Y-39658411D01*
X154257618Y-39600736D01*
X154463502Y-39515454D01*
X154463514Y-39515449D01*
X154656498Y-39404030D01*
X154722403Y-39353457D01*
X154722404Y-39353456D01*
X154072294Y-38703346D01*
X154088942Y-38696451D01*
X154219970Y-38608901D01*
X154331401Y-38497470D01*
X154418951Y-38366442D01*
X154425846Y-38349794D01*
X155075956Y-38999904D01*
X155075957Y-38999903D01*
X155126530Y-38933998D01*
X155237949Y-38741014D01*
X155237954Y-38741002D01*
X155323236Y-38535118D01*
X155380911Y-38319867D01*
X155380914Y-38319854D01*
X155410000Y-38098924D01*
X155410000Y-37876075D01*
X155380914Y-37655145D01*
X155380911Y-37655132D01*
X155323236Y-37439881D01*
X155237954Y-37233997D01*
X155237949Y-37233985D01*
X155126533Y-37041007D01*
X155075956Y-36975095D01*
X155075955Y-36975095D01*
X154425846Y-37625204D01*
X154418951Y-37608558D01*
X154331401Y-37477530D01*
X154219970Y-37366099D01*
X154088942Y-37278549D01*
X154072293Y-37271652D01*
X154604312Y-36739635D01*
X157089500Y-36739635D01*
X157089500Y-39235370D01*
X157089501Y-39235376D01*
X157095908Y-39294983D01*
X157146202Y-39429828D01*
X157146206Y-39429835D01*
X157232452Y-39545044D01*
X157232455Y-39545047D01*
X157347664Y-39631293D01*
X157347671Y-39631297D01*
X157482517Y-39681591D01*
X157482516Y-39681591D01*
X157489444Y-39682335D01*
X157542127Y-39688000D01*
X160037872Y-39687999D01*
X160097483Y-39681591D01*
X160232331Y-39631296D01*
X160347546Y-39545046D01*
X160433796Y-39429831D01*
X160484091Y-39294983D01*
X160490500Y-39235373D01*
X160490499Y-36739628D01*
X160484091Y-36680017D01*
X160462281Y-36621542D01*
X160433797Y-36545171D01*
X160433793Y-36545164D01*
X160347547Y-36429955D01*
X160347544Y-36429952D01*
X160232335Y-36343706D01*
X160232328Y-36343702D01*
X160097482Y-36293408D01*
X160097483Y-36293408D01*
X160037883Y-36287001D01*
X160037881Y-36287000D01*
X160037873Y-36287000D01*
X160037864Y-36287000D01*
X157542129Y-36287000D01*
X157542123Y-36287001D01*
X157482516Y-36293408D01*
X157347671Y-36343702D01*
X157347664Y-36343706D01*
X157232455Y-36429952D01*
X157232452Y-36429955D01*
X157146206Y-36545164D01*
X157146202Y-36545171D01*
X157095908Y-36680017D01*
X157089501Y-36739616D01*
X157089501Y-36739623D01*
X157089500Y-36739635D01*
X154604312Y-36739635D01*
X154695322Y-36648625D01*
X154722403Y-36621543D01*
X154722403Y-36621540D01*
X154656504Y-36570973D01*
X154656491Y-36570964D01*
X154463520Y-36459554D01*
X154463502Y-36459545D01*
X154257618Y-36374263D01*
X154042367Y-36316588D01*
X154042354Y-36316585D01*
X153821425Y-36287500D01*
X153598575Y-36287500D01*
X153377645Y-36316585D01*
X153377632Y-36316588D01*
X153162381Y-36374263D01*
X152956497Y-36459545D01*
X152956479Y-36459554D01*
X152763511Y-36570962D01*
X152697595Y-36621542D01*
X153347706Y-37271652D01*
X153331058Y-37278549D01*
X153200030Y-37366099D01*
X153088599Y-37477530D01*
X153001049Y-37608558D01*
X152994153Y-37625206D01*
X152344042Y-36975095D01*
X152293462Y-37041011D01*
X152182054Y-37233979D01*
X152182045Y-37233997D01*
X152096763Y-37439881D01*
X152039088Y-37655132D01*
X152039085Y-37655145D01*
X152010000Y-37876075D01*
X147259776Y-37876075D01*
X147184517Y-37772490D01*
X147017510Y-37605483D01*
X146826433Y-37466657D01*
X146615996Y-37359433D01*
X146391368Y-37286446D01*
X146158097Y-37249500D01*
X146158092Y-37249500D01*
X145921908Y-37249500D01*
X145921903Y-37249500D01*
X145688631Y-37286446D01*
X145464003Y-37359433D01*
X145253566Y-37466657D01*
X145144550Y-37545862D01*
X145062490Y-37605483D01*
X145062488Y-37605485D01*
X145062487Y-37605485D01*
X144895485Y-37772487D01*
X144895485Y-37772488D01*
X144895483Y-37772490D01*
X144835862Y-37854550D01*
X144756657Y-37963566D01*
X144649433Y-38174003D01*
X144576446Y-38398631D01*
X144539500Y-38631902D01*
X141040500Y-38631902D01*
X141003553Y-38398631D01*
X140945788Y-38220851D01*
X140930568Y-38174008D01*
X140930566Y-38174005D01*
X140930566Y-38174003D01*
X140829712Y-37976067D01*
X140823343Y-37963567D01*
X140684517Y-37772490D01*
X140517510Y-37605483D01*
X140326433Y-37466657D01*
X140115996Y-37359433D01*
X139891368Y-37286446D01*
X139658097Y-37249500D01*
X139658092Y-37249500D01*
X139421908Y-37249500D01*
X139421903Y-37249500D01*
X139188631Y-37286446D01*
X138964003Y-37359433D01*
X138753566Y-37466657D01*
X138644550Y-37545862D01*
X138562490Y-37605483D01*
X138562488Y-37605485D01*
X138562487Y-37605485D01*
X138395485Y-37772487D01*
X138395485Y-37772488D01*
X138395483Y-37772490D01*
X138335862Y-37854550D01*
X138256657Y-37963566D01*
X138149433Y-38174003D01*
X138076446Y-38398631D01*
X138039500Y-38631902D01*
X136248520Y-38631902D01*
X136213553Y-38411131D01*
X136179689Y-38306912D01*
X136140568Y-38186508D01*
X136140566Y-38186505D01*
X136140566Y-38186503D01*
X136079315Y-38066293D01*
X136033343Y-37976067D01*
X135894517Y-37784990D01*
X135727510Y-37617983D01*
X135536433Y-37479157D01*
X135533240Y-37477530D01*
X135325996Y-37371933D01*
X135101368Y-37298946D01*
X134868097Y-37262000D01*
X134868092Y-37262000D01*
X134631908Y-37262000D01*
X134631903Y-37262000D01*
X134398631Y-37298946D01*
X134174003Y-37371933D01*
X133963566Y-37479157D01*
X133854550Y-37558362D01*
X133772490Y-37617983D01*
X133772488Y-37617985D01*
X133772487Y-37617985D01*
X133605485Y-37784987D01*
X133605485Y-37784988D01*
X133605483Y-37784990D01*
X133545862Y-37867050D01*
X133466657Y-37976066D01*
X133359433Y-38186503D01*
X133286446Y-38411131D01*
X133249500Y-38644402D01*
X129750500Y-38644402D01*
X129713553Y-38411131D01*
X129679689Y-38306912D01*
X129640568Y-38186508D01*
X129640566Y-38186505D01*
X129640566Y-38186503D01*
X129579315Y-38066293D01*
X129533343Y-37976067D01*
X129394517Y-37784990D01*
X129227510Y-37617983D01*
X129036433Y-37479157D01*
X129033240Y-37477530D01*
X128825996Y-37371933D01*
X128601368Y-37298946D01*
X128368097Y-37262000D01*
X128368092Y-37262000D01*
X128131908Y-37262000D01*
X128131903Y-37262000D01*
X127898631Y-37298946D01*
X127674003Y-37371933D01*
X127463566Y-37479157D01*
X127354550Y-37558362D01*
X127272490Y-37617983D01*
X127272488Y-37617985D01*
X127272487Y-37617985D01*
X127105485Y-37784987D01*
X127105485Y-37784988D01*
X127105483Y-37784990D01*
X127045862Y-37867050D01*
X126966657Y-37976066D01*
X126859433Y-38186503D01*
X126786446Y-38411131D01*
X126749500Y-38644402D01*
X98984063Y-38644402D01*
X98981049Y-36287000D01*
X98980208Y-35628711D01*
X102399500Y-35628711D01*
X102399500Y-35871288D01*
X102431161Y-36111785D01*
X102493947Y-36346104D01*
X102540936Y-36459545D01*
X102586776Y-36570212D01*
X102708064Y-36780289D01*
X102708066Y-36780292D01*
X102708067Y-36780293D01*
X102855733Y-36972736D01*
X102855739Y-36972743D01*
X103027256Y-37144260D01*
X103027262Y-37144265D01*
X103219711Y-37291936D01*
X103429788Y-37413224D01*
X103653900Y-37506054D01*
X103888211Y-37568838D01*
X104068586Y-37592584D01*
X104128711Y-37600500D01*
X104128712Y-37600500D01*
X104371289Y-37600500D01*
X104419388Y-37594167D01*
X104611789Y-37568838D01*
X104846100Y-37506054D01*
X105070212Y-37413224D01*
X105280289Y-37291936D01*
X105472738Y-37144265D01*
X105644265Y-36972738D01*
X105791936Y-36780289D01*
X105913224Y-36570212D01*
X106006054Y-36346100D01*
X106068838Y-36111789D01*
X106100500Y-35871288D01*
X106100500Y-35628712D01*
X106068838Y-35388211D01*
X106006054Y-35153900D01*
X105913224Y-34929788D01*
X105791936Y-34719711D01*
X105690647Y-34587708D01*
X105644266Y-34527263D01*
X105644260Y-34527256D01*
X105472743Y-34355739D01*
X105472736Y-34355733D01*
X105319239Y-34237951D01*
X105280293Y-34208067D01*
X105280292Y-34208066D01*
X105280289Y-34208064D01*
X105170102Y-34144447D01*
X126750000Y-34144447D01*
X126750000Y-34380552D01*
X126786934Y-34613747D01*
X126859897Y-34838302D01*
X126967087Y-35048674D01*
X127027338Y-35131604D01*
X127027340Y-35131605D01*
X127726212Y-34432733D01*
X127737482Y-34474792D01*
X127809890Y-34600208D01*
X127912292Y-34702610D01*
X128037708Y-34775018D01*
X128079765Y-34786287D01*
X127380893Y-35485158D01*
X127463828Y-35545414D01*
X127674197Y-35652602D01*
X127898752Y-35725565D01*
X127898751Y-35725565D01*
X128131948Y-35762500D01*
X128368052Y-35762500D01*
X128601247Y-35725565D01*
X128825802Y-35652602D01*
X129036163Y-35545418D01*
X129036169Y-35545414D01*
X129119104Y-35485158D01*
X129119105Y-35485158D01*
X128420233Y-34786287D01*
X128462292Y-34775018D01*
X128587708Y-34702610D01*
X128690110Y-34600208D01*
X128762518Y-34474792D01*
X128773787Y-34432734D01*
X129472658Y-35131605D01*
X129472658Y-35131604D01*
X129532914Y-35048669D01*
X129532918Y-35048663D01*
X129640102Y-34838302D01*
X129713065Y-34613747D01*
X129750000Y-34380552D01*
X129750000Y-34144447D01*
X133250000Y-34144447D01*
X133250000Y-34380552D01*
X133286934Y-34613747D01*
X133359897Y-34838302D01*
X133467087Y-35048674D01*
X133527338Y-35131604D01*
X133527340Y-35131605D01*
X134226212Y-34432733D01*
X134237482Y-34474792D01*
X134309890Y-34600208D01*
X134412292Y-34702610D01*
X134537708Y-34775018D01*
X134579765Y-34786287D01*
X133880893Y-35485158D01*
X133963828Y-35545414D01*
X134174197Y-35652602D01*
X134398752Y-35725565D01*
X134398751Y-35725565D01*
X134631948Y-35762500D01*
X134868052Y-35762500D01*
X135101247Y-35725565D01*
X135325802Y-35652602D01*
X135536163Y-35545418D01*
X135536169Y-35545414D01*
X135619104Y-35485158D01*
X135619105Y-35485158D01*
X134920233Y-34786287D01*
X134962292Y-34775018D01*
X135087708Y-34702610D01*
X135190110Y-34600208D01*
X135262518Y-34474792D01*
X135273787Y-34432734D01*
X135972658Y-35131605D01*
X135972658Y-35131604D01*
X136032914Y-35048669D01*
X136032918Y-35048663D01*
X136140102Y-34838302D01*
X136213065Y-34613747D01*
X136250000Y-34380552D01*
X136250000Y-34144446D01*
X136249999Y-34144445D01*
X136248020Y-34131947D01*
X138040000Y-34131947D01*
X138040000Y-34368052D01*
X138076934Y-34601247D01*
X138149897Y-34825802D01*
X138257087Y-35036174D01*
X138317338Y-35119104D01*
X138317340Y-35119105D01*
X139016212Y-34420233D01*
X139027482Y-34462292D01*
X139099890Y-34587708D01*
X139202292Y-34690110D01*
X139327708Y-34762518D01*
X139369765Y-34773787D01*
X138670893Y-35472658D01*
X138753828Y-35532914D01*
X138964197Y-35640102D01*
X139188752Y-35713065D01*
X139188751Y-35713065D01*
X139421948Y-35750000D01*
X139658052Y-35750000D01*
X139891247Y-35713065D01*
X140115802Y-35640102D01*
X140326163Y-35532918D01*
X140326169Y-35532914D01*
X140409104Y-35472658D01*
X140409105Y-35472658D01*
X139710233Y-34773787D01*
X139752292Y-34762518D01*
X139877708Y-34690110D01*
X139980110Y-34587708D01*
X140052518Y-34462292D01*
X140063787Y-34420234D01*
X140762658Y-35119105D01*
X140762658Y-35119104D01*
X140822914Y-35036169D01*
X140822918Y-35036163D01*
X140930102Y-34825802D01*
X141003065Y-34601247D01*
X141040000Y-34368052D01*
X141040000Y-34131947D01*
X144540000Y-34131947D01*
X144540000Y-34368052D01*
X144576934Y-34601247D01*
X144649897Y-34825802D01*
X144757087Y-35036174D01*
X144817338Y-35119104D01*
X144817340Y-35119105D01*
X145516212Y-34420233D01*
X145527482Y-34462292D01*
X145599890Y-34587708D01*
X145702292Y-34690110D01*
X145827708Y-34762518D01*
X145869765Y-34773787D01*
X145170893Y-35472658D01*
X145253828Y-35532914D01*
X145464197Y-35640102D01*
X145688752Y-35713065D01*
X145688751Y-35713065D01*
X145921948Y-35750000D01*
X146158052Y-35750000D01*
X146391247Y-35713065D01*
X146615802Y-35640102D01*
X146638158Y-35628711D01*
X186399500Y-35628711D01*
X186399500Y-35871288D01*
X186431161Y-36111785D01*
X186493947Y-36346104D01*
X186540936Y-36459545D01*
X186586776Y-36570212D01*
X186708064Y-36780289D01*
X186708066Y-36780292D01*
X186708067Y-36780293D01*
X186855733Y-36972736D01*
X186855739Y-36972743D01*
X187027256Y-37144260D01*
X187027262Y-37144265D01*
X187219711Y-37291936D01*
X187429788Y-37413224D01*
X187653900Y-37506054D01*
X187888211Y-37568838D01*
X188068586Y-37592584D01*
X188128711Y-37600500D01*
X188128712Y-37600500D01*
X188371289Y-37600500D01*
X188419388Y-37594167D01*
X188611789Y-37568838D01*
X188846100Y-37506054D01*
X189070212Y-37413224D01*
X189280289Y-37291936D01*
X189472738Y-37144265D01*
X189644265Y-36972738D01*
X189791936Y-36780289D01*
X189913224Y-36570212D01*
X190006054Y-36346100D01*
X190068838Y-36111789D01*
X190100500Y-35871288D01*
X190100500Y-35628712D01*
X190068838Y-35388211D01*
X190006054Y-35153900D01*
X189913224Y-34929788D01*
X189791936Y-34719711D01*
X189690647Y-34587708D01*
X189644266Y-34527263D01*
X189644260Y-34527256D01*
X189472743Y-34355739D01*
X189472736Y-34355733D01*
X189280293Y-34208067D01*
X189280292Y-34208066D01*
X189280289Y-34208064D01*
X189108661Y-34108974D01*
X189070214Y-34086777D01*
X189070205Y-34086773D01*
X188846104Y-33993947D01*
X188611785Y-33931161D01*
X188371289Y-33899500D01*
X188371288Y-33899500D01*
X188128712Y-33899500D01*
X188128711Y-33899500D01*
X187888214Y-33931161D01*
X187653895Y-33993947D01*
X187429794Y-34086773D01*
X187429785Y-34086777D01*
X187219706Y-34208067D01*
X187027263Y-34355733D01*
X187027256Y-34355739D01*
X186855739Y-34527256D01*
X186855733Y-34527263D01*
X186708067Y-34719706D01*
X186586777Y-34929785D01*
X186586773Y-34929794D01*
X186493947Y-35153895D01*
X186431161Y-35388214D01*
X186399500Y-35628711D01*
X146638158Y-35628711D01*
X146826163Y-35532918D01*
X146826176Y-35532910D01*
X146837975Y-35524338D01*
X146837979Y-35524335D01*
X146909104Y-35472658D01*
X146909105Y-35472658D01*
X146210233Y-34773787D01*
X146252292Y-34762518D01*
X146377708Y-34690110D01*
X146480110Y-34587708D01*
X146552518Y-34462292D01*
X146563787Y-34420234D01*
X147262658Y-35119105D01*
X147262658Y-35119104D01*
X147322914Y-35036169D01*
X147322918Y-35036163D01*
X147430102Y-34825802D01*
X147503065Y-34601247D01*
X147540000Y-34368052D01*
X147540000Y-34131947D01*
X147505191Y-33912174D01*
X147505190Y-33912171D01*
X147503064Y-33898748D01*
X147502707Y-33897648D01*
X169869500Y-33897648D01*
X169869500Y-34102351D01*
X169901522Y-34304534D01*
X169964781Y-34499223D01*
X170057715Y-34681613D01*
X170178028Y-34847213D01*
X170322786Y-34991971D01*
X170477749Y-35104556D01*
X170488390Y-35112287D01*
X170604607Y-35171503D01*
X170670776Y-35205218D01*
X170670778Y-35205218D01*
X170670781Y-35205220D01*
X170775137Y-35239127D01*
X170865465Y-35268477D01*
X170966557Y-35284488D01*
X171067648Y-35300500D01*
X171067649Y-35300500D01*
X171272351Y-35300500D01*
X171272352Y-35300500D01*
X171474534Y-35268477D01*
X171669219Y-35205220D01*
X171851610Y-35112287D01*
X171944590Y-35044732D01*
X172017213Y-34991971D01*
X172017215Y-34991968D01*
X172017219Y-34991966D01*
X172161966Y-34847219D01*
X172236570Y-34744534D01*
X172291897Y-34701870D01*
X172361510Y-34695889D01*
X172423306Y-34728494D01*
X172457664Y-34789333D01*
X172460177Y-34804166D01*
X172465908Y-34857483D01*
X172516202Y-34992328D01*
X172516206Y-34992335D01*
X172602452Y-35107544D01*
X172602455Y-35107547D01*
X172717664Y-35193793D01*
X172717671Y-35193797D01*
X172852516Y-35244091D01*
X172878419Y-35246875D01*
X172912127Y-35250500D01*
X172994540Y-35250499D01*
X173050833Y-35264013D01*
X173162798Y-35321063D01*
X173334167Y-35376744D01*
X173376194Y-35390400D01*
X173597806Y-35425500D01*
X173597811Y-35425500D01*
X173822194Y-35425500D01*
X174043805Y-35390400D01*
X174050542Y-35388211D01*
X174257202Y-35321063D01*
X174369166Y-35264013D01*
X174425461Y-35250499D01*
X174507871Y-35250499D01*
X174507872Y-35250499D01*
X174567483Y-35244091D01*
X174702331Y-35193796D01*
X174817546Y-35107546D01*
X174903796Y-34992331D01*
X174954091Y-34857483D01*
X174956153Y-34838302D01*
X174959824Y-34804166D01*
X174986562Y-34739615D01*
X175043955Y-34699767D01*
X175113780Y-34697274D01*
X175173869Y-34732927D01*
X175183431Y-34744537D01*
X175258028Y-34847213D01*
X175402786Y-34991971D01*
X175557749Y-35104556D01*
X175568390Y-35112287D01*
X175684607Y-35171503D01*
X175750776Y-35205218D01*
X175750778Y-35205218D01*
X175750781Y-35205220D01*
X175855137Y-35239127D01*
X175945465Y-35268477D01*
X176046557Y-35284488D01*
X176147648Y-35300500D01*
X176147649Y-35300500D01*
X176352351Y-35300500D01*
X176352352Y-35300500D01*
X176554534Y-35268477D01*
X176749219Y-35205220D01*
X176931610Y-35112287D01*
X177024590Y-35044732D01*
X177097213Y-34991971D01*
X177097215Y-34991968D01*
X177097219Y-34991966D01*
X177241966Y-34847219D01*
X177241968Y-34847215D01*
X177241971Y-34847213D01*
X177334605Y-34719711D01*
X177362287Y-34681610D01*
X177455220Y-34499219D01*
X177518477Y-34304534D01*
X177550500Y-34102352D01*
X177550500Y-33897648D01*
X177518477Y-33695466D01*
X177511566Y-33674197D01*
X177455218Y-33500776D01*
X177421503Y-33434607D01*
X177362287Y-33318390D01*
X177308539Y-33244411D01*
X177241971Y-33152786D01*
X177097213Y-33008028D01*
X176931613Y-32887715D01*
X176931612Y-32887714D01*
X176931610Y-32887713D01*
X176865127Y-32853838D01*
X176749223Y-32794781D01*
X176554534Y-32731522D01*
X176379995Y-32703878D01*
X176352352Y-32699500D01*
X176147648Y-32699500D01*
X176123329Y-32703351D01*
X175945465Y-32731522D01*
X175750776Y-32794781D01*
X175568386Y-32887715D01*
X175402788Y-33008027D01*
X175311809Y-33099006D01*
X175250485Y-33132490D01*
X175180794Y-33127506D01*
X175124860Y-33085634D01*
X175101654Y-33030718D01*
X175100400Y-33022795D01*
X175031063Y-32809398D01*
X175031061Y-32809395D01*
X175031061Y-32809393D01*
X174975067Y-32699500D01*
X174929197Y-32609475D01*
X174849228Y-32499407D01*
X174797316Y-32427955D01*
X174797312Y-32427950D01*
X174638649Y-32269287D01*
X174638644Y-32269283D01*
X174457128Y-32137405D01*
X174457127Y-32137404D01*
X174457125Y-32137403D01*
X174394692Y-32105592D01*
X174257206Y-32035538D01*
X174043805Y-31966199D01*
X173822194Y-31931100D01*
X173822189Y-31931100D01*
X173597811Y-31931100D01*
X173597806Y-31931100D01*
X173376194Y-31966199D01*
X173162793Y-32035538D01*
X172962871Y-32137405D01*
X172781355Y-32269283D01*
X172781350Y-32269287D01*
X172622687Y-32427950D01*
X172622683Y-32427955D01*
X172490805Y-32609471D01*
X172388938Y-32809393D01*
X172319600Y-33022791D01*
X172318344Y-33030725D01*
X172288413Y-33093859D01*
X172229100Y-33130789D01*
X172159238Y-33129789D01*
X172108190Y-33099005D01*
X172017213Y-33008028D01*
X171851613Y-32887715D01*
X171851612Y-32887714D01*
X171851610Y-32887713D01*
X171785127Y-32853838D01*
X171669223Y-32794781D01*
X171474534Y-32731522D01*
X171299995Y-32703878D01*
X171272352Y-32699500D01*
X171067648Y-32699500D01*
X171043329Y-32703351D01*
X170865465Y-32731522D01*
X170670776Y-32794781D01*
X170488386Y-32887715D01*
X170322786Y-33008028D01*
X170178028Y-33152786D01*
X170057715Y-33318386D01*
X169964781Y-33500776D01*
X169901522Y-33695465D01*
X169869500Y-33897648D01*
X147502707Y-33897648D01*
X147430102Y-33674197D01*
X147322914Y-33463828D01*
X147262658Y-33380894D01*
X147262658Y-33380893D01*
X146563787Y-34079765D01*
X146552518Y-34037708D01*
X146480110Y-33912292D01*
X146377708Y-33809890D01*
X146252292Y-33737482D01*
X146210234Y-33726212D01*
X146909105Y-33027340D01*
X146909104Y-33027338D01*
X146826174Y-32967087D01*
X146615802Y-32859897D01*
X146391247Y-32786934D01*
X146391248Y-32786934D01*
X146158052Y-32750000D01*
X145921948Y-32750000D01*
X145688752Y-32786934D01*
X145464197Y-32859897D01*
X145253830Y-32967084D01*
X145170894Y-33027340D01*
X145869766Y-33726212D01*
X145827708Y-33737482D01*
X145702292Y-33809890D01*
X145599890Y-33912292D01*
X145527482Y-34037708D01*
X145516212Y-34079766D01*
X144817340Y-33380894D01*
X144757084Y-33463830D01*
X144649897Y-33674197D01*
X144576934Y-33898752D01*
X144540000Y-34131947D01*
X141040000Y-34131947D01*
X141003065Y-33898752D01*
X140930102Y-33674197D01*
X140822914Y-33463828D01*
X140762658Y-33380894D01*
X140762658Y-33380893D01*
X140063787Y-34079765D01*
X140052518Y-34037708D01*
X139980110Y-33912292D01*
X139877708Y-33809890D01*
X139752292Y-33737482D01*
X139710234Y-33726212D01*
X140409105Y-33027340D01*
X140409104Y-33027339D01*
X140326174Y-32967087D01*
X140115802Y-32859897D01*
X139891247Y-32786934D01*
X139891248Y-32786934D01*
X139658052Y-32750000D01*
X139421948Y-32750000D01*
X139188752Y-32786934D01*
X138964197Y-32859897D01*
X138753830Y-32967084D01*
X138670894Y-33027340D01*
X139369766Y-33726212D01*
X139327708Y-33737482D01*
X139202292Y-33809890D01*
X139099890Y-33912292D01*
X139027482Y-34037708D01*
X139016212Y-34079766D01*
X138317340Y-33380894D01*
X138257084Y-33463830D01*
X138149897Y-33674197D01*
X138076934Y-33898752D01*
X138040000Y-34131947D01*
X136248020Y-34131947D01*
X136213065Y-33911252D01*
X136140102Y-33686697D01*
X136032914Y-33476328D01*
X135972658Y-33393394D01*
X135972658Y-33393393D01*
X135273787Y-34092265D01*
X135262518Y-34050208D01*
X135190110Y-33924792D01*
X135087708Y-33822390D01*
X134962292Y-33749982D01*
X134920234Y-33738712D01*
X135619105Y-33039840D01*
X135619104Y-33039838D01*
X135536174Y-32979587D01*
X135325802Y-32872397D01*
X135101247Y-32799434D01*
X135101248Y-32799434D01*
X134868052Y-32762500D01*
X134631948Y-32762500D01*
X134398752Y-32799434D01*
X134174197Y-32872397D01*
X133963830Y-32979584D01*
X133880894Y-33039840D01*
X134579766Y-33738712D01*
X134537708Y-33749982D01*
X134412292Y-33822390D01*
X134309890Y-33924792D01*
X134237482Y-34050208D01*
X134226212Y-34092266D01*
X133527340Y-33393394D01*
X133467084Y-33476330D01*
X133359897Y-33686697D01*
X133286934Y-33911252D01*
X133250000Y-34144447D01*
X129750000Y-34144447D01*
X129713065Y-33911252D01*
X129640102Y-33686697D01*
X129532914Y-33476328D01*
X129472658Y-33393394D01*
X129472658Y-33393393D01*
X128773787Y-34092265D01*
X128762518Y-34050208D01*
X128690110Y-33924792D01*
X128587708Y-33822390D01*
X128462292Y-33749982D01*
X128420234Y-33738712D01*
X129119105Y-33039840D01*
X129119104Y-33039839D01*
X129036174Y-32979587D01*
X128825802Y-32872397D01*
X128601247Y-32799434D01*
X128601248Y-32799434D01*
X128368052Y-32762500D01*
X128131948Y-32762500D01*
X127898752Y-32799434D01*
X127674197Y-32872397D01*
X127463830Y-32979584D01*
X127380894Y-33039840D01*
X128079766Y-33738712D01*
X128037708Y-33749982D01*
X127912292Y-33822390D01*
X127809890Y-33924792D01*
X127737482Y-34050208D01*
X127726212Y-34092266D01*
X127027340Y-33393394D01*
X126967084Y-33476330D01*
X126859897Y-33686697D01*
X126786934Y-33911252D01*
X126750000Y-34144447D01*
X105170102Y-34144447D01*
X105108661Y-34108974D01*
X105070214Y-34086777D01*
X105070205Y-34086773D01*
X104846104Y-33993947D01*
X104611785Y-33931161D01*
X104371289Y-33899500D01*
X104371288Y-33899500D01*
X104128712Y-33899500D01*
X104128711Y-33899500D01*
X103888214Y-33931161D01*
X103653895Y-33993947D01*
X103429794Y-34086773D01*
X103429785Y-34086777D01*
X103219706Y-34208067D01*
X103027263Y-34355733D01*
X103027256Y-34355739D01*
X102855739Y-34527256D01*
X102855733Y-34527263D01*
X102708067Y-34719706D01*
X102586777Y-34929785D01*
X102586773Y-34929794D01*
X102493947Y-35153895D01*
X102431161Y-35388214D01*
X102399500Y-35628711D01*
X98980208Y-35628711D01*
X98980203Y-35624812D01*
X98978502Y-34294509D01*
X98978651Y-34288265D01*
X98983474Y-34190091D01*
X98996361Y-33927791D01*
X98997554Y-33915685D01*
X98998058Y-33912292D01*
X99050075Y-33561627D01*
X99052449Y-33549694D01*
X99064701Y-33500781D01*
X99139427Y-33202461D01*
X99142947Y-33190858D01*
X99263544Y-32853817D01*
X99268193Y-32842596D01*
X99271819Y-32834931D01*
X99421235Y-32519019D01*
X99426964Y-32508298D01*
X99610995Y-32201263D01*
X99617735Y-32191176D01*
X99830969Y-31903666D01*
X99838679Y-31894272D01*
X100079066Y-31629046D01*
X100087656Y-31620456D01*
X100352882Y-31380070D01*
X100362267Y-31372367D01*
X100649794Y-31159123D01*
X100659882Y-31152383D01*
X100966918Y-30968354D01*
X100977621Y-30962632D01*
X101301222Y-30809581D01*
X101312429Y-30804939D01*
X101649471Y-30684344D01*
X101661092Y-30680819D01*
X102008327Y-30593841D01*
X102020229Y-30591474D01*
X102374306Y-30538952D01*
X102386402Y-30537760D01*
X102746994Y-30520045D01*
X102753022Y-30519897D01*
X189746961Y-30501403D01*
X189753019Y-30501551D01*
G37*
%TD.AperFunction*%
%TD*%
M02*
