%TF.GenerationSoftware,KiCad,Pcbnew,9.0.7*%
%TF.CreationDate,2026-02-14T18:41:00+05:30*%
%TF.ProjectId,Line_Follower,4c696e65-5f46-46f6-9c6c-6f7765722e6b,v1.0*%
%TF.SameCoordinates,Original*%
%TF.FileFunction,Copper,L1,Top*%
%TF.FilePolarity,Positive*%
%FSLAX46Y46*%
G04 Gerber Fmt 4.6, Leading zero omitted, Abs format (unit mm)*
G04 Created by KiCad (PCBNEW 9.0.7) date 2026-02-14 18:41:00*
%MOMM*%
%LPD*%
G01*
G04 APERTURE LIST*
%TA.AperFunction,ComponentPad*%
%ADD10C,1.600000*%
%TD*%
%TA.AperFunction,ComponentPad*%
%ADD11R,1.500000X1.500000*%
%TD*%
%TA.AperFunction,ComponentPad*%
%ADD12R,2.400000X2.400000*%
%TD*%
%TA.AperFunction,ComponentPad*%
%ADD13C,2.400000*%
%TD*%
%TA.AperFunction,ComponentPad*%
%ADD14R,1.800000X1.800000*%
%TD*%
%TA.AperFunction,ComponentPad*%
%ADD15C,1.800000*%
%TD*%
%TA.AperFunction,ComponentPad*%
%ADD16R,2.000000X2.000000*%
%TD*%
%TA.AperFunction,ComponentPad*%
%ADD17C,2.000000*%
%TD*%
%TA.AperFunction,ComponentPad*%
%ADD18R,1.530000X1.530000*%
%TD*%
%TA.AperFunction,ComponentPad*%
%ADD19C,1.530000*%
%TD*%
%TA.AperFunction,SMDPad,CuDef*%
%ADD20R,2.000000X2.000000*%
%TD*%
%TA.AperFunction,ComponentPad*%
%ADD21C,1.210000*%
%TD*%
%TA.AperFunction,ComponentPad*%
%ADD22R,1.700000X1.700000*%
%TD*%
%TA.AperFunction,ComponentPad*%
%ADD23C,1.700000*%
%TD*%
%TA.AperFunction,ComponentPad*%
%ADD24C,1.980000*%
%TD*%
%TA.AperFunction,ViaPad*%
%ADD25C,0.800000*%
%TD*%
%TA.AperFunction,Conductor*%
%ADD26C,0.400000*%
%TD*%
%TA.AperFunction,Conductor*%
%ADD27C,0.500000*%
%TD*%
%TA.AperFunction,Conductor*%
%ADD28C,1.850000*%
%TD*%
G04 APERTURE END LIST*
D10*
%TO.P,R14,1*%
%TO.N,3V3*%
X118920000Y-44250000D03*
%TO.P,R14,2*%
%TO.N,MODE*%
X129080000Y-44250000D03*
%TD*%
D11*
%TO.P,SW1,1,A*%
%TO.N,VBAT+*%
X173710000Y-34000000D03*
D10*
%TO.P,SW1,2,B*%
%TO.N,Net-(J1-Pin_1)*%
X171170000Y-34000000D03*
%TO.P,SW1,3,C*%
%TO.N,unconnected-(SW1-C-Pad3)*%
X176250000Y-34000000D03*
%TD*%
D12*
%TO.P,J10,1,Pin_1*%
%TO.N,MB1*%
X186762500Y-48330000D03*
D13*
%TO.P,J10,2,Pin_2*%
%TO.N,MB2*%
X186762500Y-43250000D03*
%TD*%
D14*
%TO.P,D2,1,K*%
%TO.N,GND*%
X178000000Y-77250000D03*
D15*
%TO.P,D2,2,A*%
%TO.N,Net-(D2-A)*%
X175460000Y-77250000D03*
%TD*%
D12*
%TO.P,J9,1,Pin_1*%
%TO.N,MA1*%
X105750000Y-43250000D03*
D13*
%TO.P,J9,2,Pin_2*%
%TO.N,MA2*%
X105750000Y-48330000D03*
%TD*%
D16*
%TO.P,U2,1,IN+*%
%TO.N,VBAT+*%
X137411600Y-50840200D03*
D17*
%TO.P,U2,2,IN-*%
%TO.N,GND*%
X137411600Y-68840200D03*
%TO.P,U2,3,OUT-*%
X177411600Y-68840200D03*
D16*
%TO.P,U2,4,OUT+*%
%TO.N,3V3*%
X177411600Y-50840200D03*
%TD*%
D18*
%TO.P,U1,1,3V3*%
%TO.N,3V3*%
X122400000Y-100900000D03*
D19*
%TO.P,U1,2,EN*%
%TO.N,unconnected-(U1-EN-Pad2)*%
X124940000Y-100900000D03*
%TO.P,U1,3,SENSOR_VP*%
%TO.N,IR2*%
X127480000Y-100900000D03*
%TO.P,U1,4,SENSOR_VN*%
%TO.N,IR3*%
X130020000Y-100900000D03*
%TO.P,U1,5,IO34*%
%TO.N,IR4*%
X132560000Y-100900000D03*
%TO.P,U1,6,IO35*%
%TO.N,IR5*%
X135100000Y-100900000D03*
%TO.P,U1,7,IO32*%
%TO.N,IR6*%
X137640000Y-100900000D03*
%TO.P,U1,8,IO33*%
%TO.N,IR7*%
X140180000Y-100900000D03*
%TO.P,U1,9,IO25*%
%TO.N,PWMA*%
X142720000Y-100900000D03*
%TO.P,U1,10,IO26*%
%TO.N,PWMB*%
X145260000Y-100900000D03*
%TO.P,U1,11,IO27*%
%TO.N,BIN1*%
X147800000Y-100900000D03*
%TO.P,U1,12,IO14*%
%TO.N,unconnected-(U1-IO14-Pad12)*%
X150340000Y-100900000D03*
%TO.P,U1,13,IO12*%
%TO.N,unconnected-(U1-IO12-Pad13)*%
X152880000Y-100900000D03*
%TO.P,U1,14,GND1*%
%TO.N,GND*%
X155420000Y-100900000D03*
%TO.P,U1,15,IO13*%
%TO.N,BIN2*%
X157960000Y-100900000D03*
%TO.P,U1,16,SD2*%
%TO.N,unconnected-(U1-SD2-Pad16)*%
X160500000Y-100900000D03*
%TO.P,U1,17,SD3*%
%TO.N,unconnected-(U1-SD3-Pad17)*%
X163040000Y-100900000D03*
%TO.P,U1,18,CMD*%
%TO.N,unconnected-(U1-CMD-Pad18)*%
X165580000Y-100900000D03*
%TO.P,U1,19,EXT_5V*%
%TO.N,unconnected-(U1-EXT_5V-Pad19)*%
X168120000Y-100900000D03*
%TO.P,U1,20,CLK*%
%TO.N,unconnected-(U1-CLK-Pad20)*%
X168120000Y-75500000D03*
%TO.P,U1,21,SD0*%
%TO.N,unconnected-(U1-SD0-Pad21)*%
X165580000Y-75500000D03*
%TO.P,U1,22,SD1*%
%TO.N,unconnected-(U1-SD1-Pad22)*%
X163040000Y-75500000D03*
%TO.P,U1,23,IO15*%
%TO.N,unconnected-(U1-IO15-Pad23)*%
X160500000Y-75500000D03*
%TO.P,U1,24,IO2*%
%TO.N,unconnected-(U1-IO2-Pad24)*%
X157960000Y-75500000D03*
%TO.P,U1,25,IO0*%
%TO.N,unconnected-(U1-IO0-Pad25)*%
X155420000Y-75500000D03*
%TO.P,U1,26,IO4*%
%TO.N,unconnected-(U1-IO4-Pad26)*%
X152880000Y-75500000D03*
%TO.P,U1,27,IO16*%
%TO.N,AIN2*%
X150340000Y-75500000D03*
%TO.P,U1,28,IO17*%
%TO.N,AIN1*%
X147800000Y-75500000D03*
%TO.P,U1,29,IO5*%
%TO.N,unconnected-(U1-IO5-Pad29)*%
X145260000Y-75500000D03*
%TO.P,U1,30,IO18*%
%TO.N,CAL*%
X142720000Y-75500000D03*
%TO.P,U1,31,IO19*%
%TO.N,MODE*%
X140180000Y-75500000D03*
%TO.P,U1,32,GND2*%
%TO.N,GND*%
X137640000Y-75500000D03*
%TO.P,U1,33,IO21*%
%TO.N,STBY*%
X135100000Y-75500000D03*
%TO.P,U1,34,RXD0*%
%TO.N,unconnected-(U1-RXD0-Pad34)*%
X132560000Y-75500000D03*
%TO.P,U1,35,TXD0*%
%TO.N,unconnected-(U1-TXD0-Pad35)*%
X130020000Y-75500000D03*
%TO.P,U1,36,IO22*%
%TO.N,IR8*%
X127480000Y-75500000D03*
%TO.P,U1,37,IO23*%
%TO.N,IR1*%
X124940000Y-75500000D03*
%TO.P,U1,38,GND3*%
%TO.N,GND*%
X122400000Y-75500000D03*
%TD*%
D10*
%TO.P,R13,1*%
%TO.N,3V3*%
X133670000Y-44250000D03*
%TO.P,R13,2*%
%TO.N,CAL*%
X143830000Y-44250000D03*
%TD*%
D20*
%TO.P,TP2,1,1*%
%TO.N,GND*%
X121540000Y-35262500D03*
%TD*%
D21*
%TO.P,C8,1*%
%TO.N,3V3*%
X109000000Y-67790000D03*
%TO.P,C8,2*%
%TO.N,GND*%
X109000000Y-65250000D03*
%TD*%
D20*
%TO.P,TP1,1,1*%
%TO.N,VBAT+*%
X116040000Y-35512500D03*
%TD*%
D22*
%TO.P,J11,1,Pin_1*%
%TO.N,IR1*%
X134760000Y-107250000D03*
D23*
%TO.P,J11,2,Pin_2*%
%TO.N,IR2*%
X137300000Y-107250000D03*
%TO.P,J11,3,Pin_3*%
%TO.N,IR3*%
X139840000Y-107250000D03*
%TO.P,J11,4,Pin_4*%
%TO.N,IR4*%
X142380000Y-107250000D03*
%TO.P,J11,5,Pin_5*%
%TO.N,IR5*%
X144920000Y-107250000D03*
%TO.P,J11,6,Pin_6*%
%TO.N,IR6*%
X147460000Y-107250000D03*
%TO.P,J11,7,Pin_7*%
%TO.N,IR7*%
X150000000Y-107250000D03*
%TO.P,J11,8,Pin_8*%
%TO.N,IR8*%
X152540000Y-107250000D03*
%TO.P,J11,9,Pin_9*%
%TO.N,3V3*%
X155080000Y-107250000D03*
%TO.P,J11,10,Pin_10*%
%TO.N,GND*%
X157620000Y-107250000D03*
%TD*%
D17*
%TO.P,SW3,1,1*%
%TO.N,GND*%
X128250000Y-34262500D03*
X134750000Y-34262500D03*
%TO.P,SW3,2,2*%
%TO.N,MODE*%
X128250000Y-38762500D03*
X134750000Y-38762500D03*
%TD*%
D24*
%TO.P,U3,1,VM*%
%TO.N,VBAT+*%
X115880000Y-50210000D03*
%TO.P,U3,2,VCC*%
%TO.N,3V3*%
X115880000Y-52750000D03*
%TO.P,U3,3,GND*%
%TO.N,GND*%
X115880000Y-55290000D03*
%TO.P,U3,4,A01*%
%TO.N,MA1*%
X115880000Y-57830000D03*
%TO.P,U3,5,A02*%
%TO.N,MA2*%
X115880000Y-60370000D03*
%TO.P,U3,6,B02*%
%TO.N,MB2*%
X115880000Y-62910000D03*
%TO.P,U3,7,B01*%
%TO.N,MB1*%
X115880000Y-65450000D03*
%TO.P,U3,8,GND*%
%TO.N,GND*%
X115880000Y-67990000D03*
%TO.P,U3,9,GND*%
X131120000Y-67990000D03*
%TO.P,U3,10,PWMB*%
%TO.N,PWMB*%
X131120000Y-65450000D03*
%TO.P,U3,11,BI2*%
%TO.N,BIN2*%
X131120000Y-62910000D03*
%TO.P,U3,12,BI1*%
%TO.N,BIN1*%
X131120000Y-60370000D03*
%TO.P,U3,13,STBY*%
%TO.N,STBY*%
X131120000Y-57830000D03*
%TO.P,U3,14,AI1*%
%TO.N,AIN1*%
X131120000Y-55290000D03*
%TO.P,U3,15,AI2*%
%TO.N,AIN2*%
X131120000Y-52750000D03*
%TO.P,U3,16,PWMA*%
%TO.N,PWMA*%
X131120000Y-50210000D03*
%TD*%
D10*
%TO.P,R2,1*%
%TO.N,3V3*%
X176750000Y-95830000D03*
%TO.P,R2,2*%
%TO.N,Net-(D2-A)*%
X176750000Y-85670000D03*
%TD*%
D12*
%TO.P,J1,1,Pin_1*%
%TO.N,Net-(J1-Pin_1)*%
X158790000Y-37987500D03*
D13*
%TO.P,J1,2,Pin_2*%
%TO.N,GND*%
X153710000Y-37987500D03*
%TD*%
D17*
%TO.P,SW6,1,1*%
%TO.N,GND*%
X139540000Y-34250000D03*
X146040000Y-34250000D03*
%TO.P,SW6,2,2*%
%TO.N,CAL*%
X139540000Y-38750000D03*
X146040000Y-38750000D03*
%TD*%
D21*
%TO.P,C5,1*%
%TO.N,VBAT+*%
X106000000Y-56710000D03*
%TO.P,C5,2*%
%TO.N,GND*%
X106000000Y-59250000D03*
%TD*%
D25*
%TO.N,MB1*%
X128000000Y-53330000D03*
%TO.N,CAL*%
X152875000Y-49125000D03*
X149250000Y-52750000D03*
%TD*%
D26*
%TO.N,Net-(D2-A)*%
X175460000Y-77250000D02*
X175460000Y-84380000D01*
X175460000Y-84380000D02*
X176750000Y-85670000D01*
%TO.N,GND*%
X139528000Y-34262500D02*
X139540000Y-34250000D01*
%TO.N,MA2*%
X105750000Y-50240000D02*
X115880000Y-60370000D01*
X105750000Y-48330000D02*
X105750000Y-50240000D01*
%TO.N,MA1*%
X105750000Y-43250000D02*
X108250000Y-45750000D01*
X108250000Y-51375000D02*
X114705000Y-57830000D01*
X108250000Y-45750000D02*
X108250000Y-51375000D01*
X114705000Y-57830000D02*
X115880000Y-57830000D01*
%TO.N,MB2*%
X165813118Y-54351000D02*
X137298882Y-54351000D01*
X137298882Y-54351000D02*
X131716882Y-48769000D01*
X186762500Y-43250000D02*
X176914118Y-43250000D01*
X130021000Y-48769000D02*
X115880000Y-62910000D01*
X176914118Y-43250000D02*
X165813118Y-54351000D01*
X131716882Y-48769000D02*
X130021000Y-48769000D01*
%TO.N,MB1*%
X115880000Y-65450000D02*
X128000000Y-53330000D01*
%TO.N,IR7*%
X141780000Y-102500000D02*
X145250000Y-102500000D01*
X145250000Y-102500000D02*
X150000000Y-107250000D01*
X140180000Y-100900000D02*
X141780000Y-102500000D01*
%TO.N,IR5*%
X141666000Y-103996000D02*
X144920000Y-107250000D01*
X135100000Y-100900000D02*
X138196000Y-103996000D01*
X138196000Y-103996000D02*
X141666000Y-103996000D01*
%TO.N,IR6*%
X137640000Y-100900000D02*
X140085000Y-103345000D01*
X140085000Y-103345000D02*
X143555000Y-103345000D01*
X143555000Y-103345000D02*
X147460000Y-107250000D01*
%TO.N,IR3*%
X134418000Y-105298000D02*
X137888000Y-105298000D01*
X130020000Y-100900000D02*
X134418000Y-105298000D01*
X137888000Y-105298000D02*
X139840000Y-107250000D01*
%TO.N,IR4*%
X136307000Y-104647000D02*
X139777000Y-104647000D01*
X139777000Y-104647000D02*
X142380000Y-107250000D01*
X132560000Y-100900000D02*
X136307000Y-104647000D01*
%TO.N,IR2*%
X135999000Y-105949000D02*
X132529000Y-105949000D01*
X137300000Y-107250000D02*
X135999000Y-105949000D01*
X132529000Y-105949000D02*
X127480000Y-100900000D01*
D27*
%TO.N,3V3*%
X115880000Y-52750000D02*
X118920000Y-49710000D01*
X121920000Y-47250000D02*
X130670000Y-47250000D01*
X118920000Y-49710000D02*
X118920000Y-44250000D01*
X177411600Y-50840200D02*
X172250000Y-56001800D01*
X172250000Y-91330000D02*
X176750000Y-95830000D01*
X155080000Y-107250000D02*
X157330000Y-105000000D01*
X151330000Y-111000000D02*
X155080000Y-107250000D01*
X130670000Y-47250000D02*
X133670000Y-44250000D01*
X172250000Y-56001800D02*
X172250000Y-91330000D01*
X157330000Y-105000000D02*
X170750000Y-105000000D01*
X176750000Y-99000000D02*
X176750000Y-95830000D01*
X132500000Y-111000000D02*
X151330000Y-111000000D01*
X122400000Y-100900000D02*
X132500000Y-111000000D01*
X118920000Y-44250000D02*
X121920000Y-47250000D01*
X170750000Y-105000000D02*
X176750000Y-99000000D01*
D26*
%TO.N,CAL*%
X146040000Y-38750000D02*
X143830000Y-40960000D01*
X143830000Y-40960000D02*
X143830000Y-44250000D01*
X149250000Y-52750000D02*
X152875000Y-49125000D01*
X139540000Y-38750000D02*
X146040000Y-38750000D01*
%TO.N,MODE*%
X128250000Y-38762500D02*
X134750000Y-38762500D01*
X129080000Y-44250000D02*
X129080000Y-39592500D01*
X129080000Y-39592500D02*
X128250000Y-38762500D01*
D28*
%TO.N,VBAT+*%
X137411600Y-50840200D02*
X141251800Y-47000000D01*
X116040000Y-35512500D02*
X119678500Y-31874000D01*
X115880000Y-50210000D02*
X115880000Y-35672500D01*
X173710000Y-38040000D02*
X173710000Y-34000000D01*
X172050619Y-31874000D02*
X173710000Y-33533381D01*
X164750000Y-47000000D02*
X173710000Y-38040000D01*
X115880000Y-35672500D02*
X116040000Y-35512500D01*
X173710000Y-33533381D02*
X173710000Y-34000000D01*
X141251800Y-47000000D02*
X164750000Y-47000000D01*
X119678500Y-31874000D02*
X172050619Y-31874000D01*
D26*
%TO.N,AIN2*%
X150340000Y-75500000D02*
X150340000Y-71970000D01*
X150340000Y-71970000D02*
X131120000Y-52750000D01*
%TO.N,BIN1*%
X131120000Y-60370000D02*
X144044000Y-73294000D01*
X144044000Y-97144000D02*
X147800000Y-100900000D01*
X144044000Y-73294000D02*
X144044000Y-97144000D01*
%TO.N,PWMB*%
X133884000Y-68214000D02*
X133884000Y-89524000D01*
X131120000Y-65450000D02*
X133884000Y-68214000D01*
X133884000Y-89524000D02*
X145260000Y-100900000D01*
%TO.N,AIN1*%
X147800000Y-75500000D02*
X147800000Y-71970000D01*
X147800000Y-71970000D02*
X131120000Y-55290000D01*
D28*
%TO.N,Net-(J1-Pin_1)*%
X158790000Y-37987500D02*
X167255726Y-37987500D01*
X167255726Y-37987500D02*
X171118226Y-34125000D01*
%TD*%
%TA.AperFunction,Conductor*%
%TO.N,GND*%
G36*
X189753019Y-30501551D02*
G01*
X190113383Y-30519255D01*
X190125483Y-30520447D01*
X190479344Y-30572937D01*
X190491254Y-30575306D01*
X190838290Y-30662235D01*
X190849903Y-30665759D01*
X191186739Y-30786282D01*
X191197958Y-30790929D01*
X191521345Y-30943882D01*
X191532064Y-30949610D01*
X191838909Y-31133528D01*
X191849015Y-31140281D01*
X192136347Y-31353383D01*
X192145741Y-31361093D01*
X192410808Y-31601339D01*
X192419398Y-31609929D01*
X192505761Y-31705217D01*
X192659635Y-31874994D01*
X192667354Y-31884400D01*
X192880443Y-32171722D01*
X192887204Y-32181840D01*
X193055894Y-32463289D01*
X193071110Y-32488675D01*
X193076846Y-32499407D01*
X193229786Y-32822781D01*
X193234443Y-32834024D01*
X193354953Y-33170840D01*
X193358485Y-33182485D01*
X193445399Y-33529483D01*
X193447773Y-33541418D01*
X193500257Y-33895265D01*
X193501450Y-33907375D01*
X193508465Y-34050208D01*
X193517106Y-34226148D01*
X193519201Y-34268792D01*
X193519350Y-34275018D01*
X193499622Y-51393091D01*
X193492587Y-51434120D01*
X182547107Y-82529234D01*
X182543293Y-82540070D01*
X182533539Y-82556980D01*
X182521493Y-82601999D01*
X182519906Y-82606509D01*
X182506016Y-82645969D01*
X182506015Y-82645977D01*
X182505400Y-82653979D01*
X182504521Y-82665433D01*
X182499477Y-82684286D01*
X182499492Y-82730880D01*
X182499127Y-82735644D01*
X182495923Y-82777367D01*
X182495923Y-82777373D01*
X182497402Y-82785268D01*
X182499521Y-82808050D01*
X182509342Y-110358345D01*
X182509342Y-110358355D01*
X182509344Y-110367170D01*
X182509116Y-110368038D01*
X182509361Y-110431032D01*
X182509362Y-110431314D01*
X182509350Y-110431351D01*
X182509235Y-110436963D01*
X182492717Y-110801364D01*
X182491566Y-110813508D01*
X182439762Y-111171487D01*
X182437423Y-111183460D01*
X182350695Y-111534614D01*
X182347191Y-111546299D01*
X182226375Y-111887240D01*
X182221739Y-111898524D01*
X182068015Y-112225925D01*
X182062294Y-112236699D01*
X181877134Y-112547428D01*
X181870381Y-112557588D01*
X181655591Y-112848611D01*
X181647873Y-112858058D01*
X181405523Y-113126569D01*
X181396914Y-113135212D01*
X181129351Y-113378614D01*
X181119934Y-113386369D01*
X180829752Y-113602299D01*
X180819619Y-113609091D01*
X180509625Y-113795463D01*
X180498873Y-113801227D01*
X180172065Y-113956237D01*
X180160806Y-113960914D01*
X179894336Y-114056517D01*
X179820342Y-114083065D01*
X179808670Y-114086614D01*
X179457861Y-114174716D01*
X179445898Y-114177102D01*
X179088127Y-114230308D01*
X179075987Y-114231507D01*
X178713732Y-114249350D01*
X178707632Y-114249500D01*
X113794436Y-114249500D01*
X113788351Y-114249351D01*
X113424934Y-114231495D01*
X113412824Y-114230302D01*
X113055937Y-114177362D01*
X113044002Y-114174988D01*
X112694010Y-114087319D01*
X112682366Y-114083786D01*
X112342676Y-113962243D01*
X112331433Y-113957587D01*
X112005263Y-113803320D01*
X111994536Y-113797585D01*
X111685075Y-113612102D01*
X111674957Y-113605342D01*
X111385154Y-113390409D01*
X111375748Y-113382689D01*
X111108418Y-113140397D01*
X111099820Y-113131800D01*
X110857500Y-112864442D01*
X110849801Y-112855059D01*
X110634867Y-112565257D01*
X110628110Y-112555145D01*
X110626628Y-112552673D01*
X110442615Y-112245668D01*
X110436883Y-112234942D01*
X110282619Y-111908782D01*
X110277971Y-111897562D01*
X110156414Y-111557838D01*
X110152887Y-111546213D01*
X110065214Y-111196211D01*
X110062841Y-111184281D01*
X110044265Y-111059062D01*
X110009898Y-110827389D01*
X110008705Y-110815278D01*
X109990873Y-110452358D01*
X109990724Y-110446229D01*
X109990730Y-110430846D01*
X109991192Y-109121288D01*
X109991278Y-108878711D01*
X113399500Y-108878711D01*
X113399500Y-109121288D01*
X113431161Y-109361785D01*
X113493947Y-109596104D01*
X113586773Y-109820205D01*
X113586776Y-109820212D01*
X113708064Y-110030289D01*
X113708066Y-110030292D01*
X113708067Y-110030293D01*
X113855733Y-110222736D01*
X113855739Y-110222743D01*
X114027256Y-110394260D01*
X114027263Y-110394266D01*
X114079034Y-110433991D01*
X114219711Y-110541936D01*
X114429788Y-110663224D01*
X114653900Y-110756054D01*
X114888211Y-110818838D01*
X115068586Y-110842584D01*
X115128711Y-110850500D01*
X115128712Y-110850500D01*
X115371289Y-110850500D01*
X115419388Y-110844167D01*
X115611789Y-110818838D01*
X115846100Y-110756054D01*
X116070212Y-110663224D01*
X116280289Y-110541936D01*
X116472738Y-110394265D01*
X116644265Y-110222738D01*
X116791936Y-110030289D01*
X116913224Y-109820212D01*
X117006054Y-109596100D01*
X117068838Y-109361789D01*
X117100500Y-109121288D01*
X117100500Y-108878712D01*
X117068838Y-108638211D01*
X117006054Y-108403900D01*
X116913224Y-108179788D01*
X116791936Y-107969711D01*
X116644265Y-107777262D01*
X116644260Y-107777256D01*
X116472743Y-107605739D01*
X116472736Y-107605733D01*
X116280293Y-107458067D01*
X116280292Y-107458066D01*
X116280289Y-107458064D01*
X116070212Y-107336776D01*
X116070205Y-107336773D01*
X115846104Y-107243947D01*
X115611785Y-107181161D01*
X115371289Y-107149500D01*
X115371288Y-107149500D01*
X115128712Y-107149500D01*
X115128711Y-107149500D01*
X114888214Y-107181161D01*
X114653895Y-107243947D01*
X114429794Y-107336773D01*
X114429785Y-107336777D01*
X114219706Y-107458067D01*
X114027263Y-107605733D01*
X114027256Y-107605739D01*
X113855739Y-107777256D01*
X113855733Y-107777263D01*
X113708067Y-107969706D01*
X113586777Y-108179785D01*
X113586773Y-108179794D01*
X113493947Y-108403895D01*
X113431161Y-108638214D01*
X113399500Y-108878711D01*
X109991278Y-108878711D01*
X109991279Y-108874609D01*
X109993273Y-103225233D01*
X110000483Y-82796557D01*
X110004077Y-82777370D01*
X110000506Y-82730887D01*
X110000523Y-82684284D01*
X109998449Y-82676535D01*
X109994598Y-82653969D01*
X109993984Y-82645976D01*
X109993984Y-82645973D01*
X109980090Y-82606502D01*
X109977274Y-82597398D01*
X109966460Y-82556978D01*
X109962443Y-82550015D01*
X109952890Y-82529230D01*
X108587401Y-78649999D01*
X104734053Y-67702989D01*
X107894500Y-67702989D01*
X107894500Y-67877010D01*
X107921720Y-68048872D01*
X107975494Y-68214369D01*
X108054494Y-68369411D01*
X108156766Y-68510178D01*
X108156770Y-68510183D01*
X108279816Y-68633229D01*
X108279821Y-68633233D01*
X108402202Y-68722147D01*
X108420592Y-68735508D01*
X108490117Y-68770933D01*
X108575630Y-68814505D01*
X108575632Y-68814505D01*
X108575635Y-68814507D01*
X108654707Y-68840199D01*
X108741127Y-68868279D01*
X108912990Y-68895500D01*
X108912995Y-68895500D01*
X109087010Y-68895500D01*
X109258872Y-68868279D01*
X109424365Y-68814507D01*
X109579408Y-68735508D01*
X109720185Y-68633228D01*
X109843228Y-68510185D01*
X109945508Y-68369408D01*
X110024507Y-68214365D01*
X110078279Y-68048872D01*
X110084488Y-68009672D01*
X110105500Y-67877010D01*
X110105500Y-67702989D01*
X110078279Y-67531127D01*
X110051950Y-67450097D01*
X110024507Y-67365635D01*
X110024505Y-67365632D01*
X110024505Y-67365630D01*
X109979195Y-67276706D01*
X109945508Y-67210592D01*
X109932440Y-67192605D01*
X109843233Y-67069821D01*
X109843229Y-67069816D01*
X109720183Y-66946770D01*
X109720178Y-66946766D01*
X109579411Y-66844494D01*
X109579410Y-66844493D01*
X109579408Y-66844492D01*
X109530992Y-66819823D01*
X109424369Y-66765494D01*
X109258872Y-66711720D01*
X109087010Y-66684500D01*
X109087005Y-66684500D01*
X108912995Y-66684500D01*
X108912990Y-66684500D01*
X108741127Y-66711720D01*
X108575630Y-66765494D01*
X108420588Y-66844494D01*
X108279821Y-66946766D01*
X108279816Y-66946770D01*
X108156770Y-67069816D01*
X108156766Y-67069821D01*
X108054494Y-67210588D01*
X107975494Y-67365630D01*
X107921720Y-67531127D01*
X107894500Y-67702989D01*
X104734053Y-67702989D01*
X104511178Y-67069821D01*
X104199292Y-66183780D01*
X103918834Y-65387025D01*
X103839989Y-65163035D01*
X107895000Y-65163035D01*
X107895000Y-65336964D01*
X107922209Y-65508756D01*
X107975954Y-65674170D01*
X107975955Y-65674173D01*
X108054919Y-65829146D01*
X108060129Y-65836316D01*
X108645000Y-65251445D01*
X108645000Y-65296737D01*
X108669193Y-65387025D01*
X108715930Y-65467975D01*
X108782025Y-65534070D01*
X108862975Y-65580807D01*
X108953263Y-65605000D01*
X108998554Y-65605000D01*
X108413683Y-66189869D01*
X108420854Y-66195081D01*
X108575826Y-66274044D01*
X108575829Y-66274045D01*
X108741243Y-66327790D01*
X108913036Y-66355000D01*
X109086964Y-66355000D01*
X109258756Y-66327790D01*
X109424170Y-66274045D01*
X109424173Y-66274044D01*
X109579145Y-66195080D01*
X109586316Y-66189869D01*
X109001447Y-65605000D01*
X109046737Y-65605000D01*
X109137025Y-65580807D01*
X109217975Y-65534070D01*
X109284070Y-65467975D01*
X109330807Y-65387025D01*
X109355000Y-65296737D01*
X109355000Y-65251447D01*
X109939869Y-65836316D01*
X109945080Y-65829145D01*
X110024044Y-65674173D01*
X110024045Y-65674170D01*
X110077790Y-65508756D01*
X110105000Y-65336964D01*
X110105000Y-65163035D01*
X110077790Y-64991243D01*
X110024045Y-64825829D01*
X110024044Y-64825826D01*
X109945081Y-64670854D01*
X109939869Y-64663683D01*
X109355000Y-65248552D01*
X109355000Y-65203263D01*
X109330807Y-65112975D01*
X109284070Y-65032025D01*
X109217975Y-64965930D01*
X109137025Y-64919193D01*
X109046737Y-64895000D01*
X109001447Y-64895000D01*
X109586316Y-64310129D01*
X109579146Y-64304919D01*
X109424173Y-64225955D01*
X109424170Y-64225954D01*
X109258756Y-64172209D01*
X109086964Y-64145000D01*
X108913036Y-64145000D01*
X108741243Y-64172209D01*
X108575829Y-64225954D01*
X108575826Y-64225955D01*
X108420854Y-64304918D01*
X108413682Y-64310129D01*
X108998554Y-64895000D01*
X108953263Y-64895000D01*
X108862975Y-64919193D01*
X108782025Y-64965930D01*
X108715930Y-65032025D01*
X108669193Y-65112975D01*
X108645000Y-65203263D01*
X108645000Y-65248553D01*
X108060129Y-64663682D01*
X108054918Y-64670854D01*
X107975955Y-64825826D01*
X107975954Y-64825829D01*
X107922209Y-64991243D01*
X107895000Y-65163035D01*
X103839989Y-65163035D01*
X103540815Y-64313108D01*
X102087292Y-60183780D01*
X101775053Y-59296737D01*
X101727990Y-59163035D01*
X104895000Y-59163035D01*
X104895000Y-59336964D01*
X104922209Y-59508756D01*
X104975954Y-59674170D01*
X104975955Y-59674173D01*
X105054919Y-59829146D01*
X105060129Y-59836316D01*
X105645000Y-59251445D01*
X105645000Y-59296737D01*
X105669193Y-59387025D01*
X105715930Y-59467975D01*
X105782025Y-59534070D01*
X105862975Y-59580807D01*
X105953263Y-59605000D01*
X105998554Y-59605000D01*
X105413683Y-60189869D01*
X105420854Y-60195081D01*
X105575826Y-60274044D01*
X105575829Y-60274045D01*
X105741243Y-60327790D01*
X105913036Y-60355000D01*
X106086964Y-60355000D01*
X106258756Y-60327790D01*
X106424170Y-60274045D01*
X106424173Y-60274044D01*
X106579145Y-60195080D01*
X106586316Y-60189869D01*
X106001447Y-59605000D01*
X106046737Y-59605000D01*
X106137025Y-59580807D01*
X106217975Y-59534070D01*
X106284070Y-59467975D01*
X106330807Y-59387025D01*
X106355000Y-59296737D01*
X106355000Y-59251447D01*
X106939869Y-59836316D01*
X106945080Y-59829145D01*
X107024044Y-59674173D01*
X107024045Y-59674170D01*
X107077790Y-59508756D01*
X107105000Y-59336964D01*
X107105000Y-59163035D01*
X107077790Y-58991243D01*
X107024045Y-58825829D01*
X107024044Y-58825826D01*
X106945081Y-58670854D01*
X106939869Y-58663683D01*
X106355000Y-59248552D01*
X106355000Y-59203263D01*
X106330807Y-59112975D01*
X106284070Y-59032025D01*
X106217975Y-58965930D01*
X106137025Y-58919193D01*
X106046737Y-58895000D01*
X106001447Y-58895000D01*
X106586316Y-58310129D01*
X106579146Y-58304919D01*
X106424173Y-58225955D01*
X106424170Y-58225954D01*
X106258756Y-58172209D01*
X106086964Y-58145000D01*
X105913036Y-58145000D01*
X105741243Y-58172209D01*
X105575829Y-58225954D01*
X105575826Y-58225955D01*
X105420854Y-58304918D01*
X105413682Y-58310129D01*
X105998554Y-58895000D01*
X105953263Y-58895000D01*
X105862975Y-58919193D01*
X105782025Y-58965930D01*
X105715930Y-59032025D01*
X105669193Y-59112975D01*
X105645000Y-59203263D01*
X105645000Y-59248553D01*
X105060129Y-58663682D01*
X105054918Y-58670854D01*
X104975955Y-58825826D01*
X104975954Y-58825829D01*
X104922209Y-58991243D01*
X104895000Y-59163035D01*
X101727990Y-59163035D01*
X101425932Y-58304918D01*
X100846673Y-56659295D01*
X100833893Y-56622989D01*
X104894500Y-56622989D01*
X104894500Y-56797010D01*
X104921720Y-56968872D01*
X104975494Y-57134369D01*
X105054494Y-57289411D01*
X105156766Y-57430178D01*
X105156770Y-57430183D01*
X105279816Y-57553229D01*
X105279821Y-57553233D01*
X105402605Y-57642440D01*
X105420592Y-57655508D01*
X105519381Y-57705844D01*
X105575630Y-57734505D01*
X105575632Y-57734505D01*
X105575635Y-57734507D01*
X105664343Y-57763330D01*
X105741127Y-57788279D01*
X105912990Y-57815500D01*
X105912995Y-57815500D01*
X106087010Y-57815500D01*
X106258872Y-57788279D01*
X106424365Y-57734507D01*
X106579408Y-57655508D01*
X106720185Y-57553228D01*
X106843228Y-57430185D01*
X106945508Y-57289408D01*
X107024507Y-57134365D01*
X107078279Y-56968872D01*
X107093988Y-56869689D01*
X107105500Y-56797010D01*
X107105500Y-56622989D01*
X107078279Y-56451127D01*
X107042009Y-56339500D01*
X107024507Y-56285635D01*
X107024505Y-56285632D01*
X107024505Y-56285630D01*
X106956388Y-56151946D01*
X106945508Y-56130592D01*
X106902352Y-56071192D01*
X106843233Y-55989821D01*
X106843229Y-55989816D01*
X106720183Y-55866770D01*
X106720178Y-55866766D01*
X106579411Y-55764494D01*
X106579410Y-55764493D01*
X106579408Y-55764492D01*
X106530992Y-55739823D01*
X106424369Y-55685494D01*
X106258872Y-55631720D01*
X106087010Y-55604500D01*
X106087005Y-55604500D01*
X105912995Y-55604500D01*
X105912990Y-55604500D01*
X105741127Y-55631720D01*
X105575630Y-55685494D01*
X105420588Y-55764494D01*
X105279821Y-55866766D01*
X105279816Y-55866770D01*
X105156770Y-55989816D01*
X105156766Y-55989821D01*
X105054494Y-56130588D01*
X104975494Y-56285630D01*
X104921720Y-56451127D01*
X104894500Y-56622989D01*
X100833893Y-56622989D01*
X99007398Y-51434082D01*
X99000363Y-51393069D01*
X98980208Y-35628711D01*
X102399500Y-35628711D01*
X102399500Y-35871288D01*
X102431161Y-36111785D01*
X102493947Y-36346104D01*
X102583374Y-36562000D01*
X102586776Y-36570212D01*
X102708064Y-36780289D01*
X102708066Y-36780292D01*
X102708067Y-36780293D01*
X102855733Y-36972736D01*
X102855739Y-36972743D01*
X103027256Y-37144260D01*
X103027262Y-37144265D01*
X103219711Y-37291936D01*
X103429788Y-37413224D01*
X103653900Y-37506054D01*
X103888211Y-37568838D01*
X104068586Y-37592584D01*
X104128711Y-37600500D01*
X104128712Y-37600500D01*
X104371289Y-37600500D01*
X104419388Y-37594167D01*
X104611789Y-37568838D01*
X104846100Y-37506054D01*
X105070212Y-37413224D01*
X105280289Y-37291936D01*
X105472738Y-37144265D01*
X105644265Y-36972738D01*
X105791936Y-36780289D01*
X105913224Y-36570212D01*
X106006054Y-36346100D01*
X106068838Y-36111789D01*
X106100500Y-35871288D01*
X106100500Y-35628712D01*
X106068838Y-35388211D01*
X106006054Y-35153900D01*
X105913224Y-34929788D01*
X105791936Y-34719711D01*
X105644265Y-34527262D01*
X105644260Y-34527256D01*
X105472743Y-34355739D01*
X105472736Y-34355733D01*
X105280293Y-34208067D01*
X105280292Y-34208066D01*
X105280289Y-34208064D01*
X105108661Y-34108974D01*
X105070214Y-34086777D01*
X105070205Y-34086773D01*
X104846104Y-33993947D01*
X104611785Y-33931161D01*
X104371289Y-33899500D01*
X104371288Y-33899500D01*
X104128712Y-33899500D01*
X104128711Y-33899500D01*
X103888214Y-33931161D01*
X103653895Y-33993947D01*
X103429794Y-34086773D01*
X103429785Y-34086777D01*
X103219706Y-34208067D01*
X103027263Y-34355733D01*
X103027256Y-34355739D01*
X102855739Y-34527256D01*
X102855733Y-34527263D01*
X102708067Y-34719706D01*
X102586777Y-34929785D01*
X102586773Y-34929794D01*
X102493947Y-35153895D01*
X102431161Y-35388214D01*
X102399500Y-35628711D01*
X98980208Y-35628711D01*
X98980203Y-35624812D01*
X98978502Y-34294509D01*
X98978651Y-34288265D01*
X98982267Y-34214672D01*
X98996361Y-33927791D01*
X98997554Y-33915685D01*
X98998058Y-33912292D01*
X99050075Y-33561627D01*
X99052449Y-33549694D01*
X99064701Y-33500781D01*
X99139427Y-33202461D01*
X99142947Y-33190858D01*
X99263544Y-32853817D01*
X99268193Y-32842596D01*
X99271819Y-32834931D01*
X99344714Y-32680807D01*
X99421235Y-32519019D01*
X99426964Y-32508298D01*
X99610995Y-32201263D01*
X99617735Y-32191176D01*
X99830969Y-31903666D01*
X99838679Y-31894272D01*
X100079066Y-31629046D01*
X100087656Y-31620456D01*
X100352882Y-31380070D01*
X100362267Y-31372367D01*
X100649794Y-31159123D01*
X100659882Y-31152383D01*
X100966918Y-30968354D01*
X100977621Y-30962632D01*
X101301222Y-30809581D01*
X101312429Y-30804939D01*
X101649471Y-30684344D01*
X101661092Y-30680819D01*
X102008327Y-30593841D01*
X102020229Y-30591474D01*
X102374306Y-30538952D01*
X102386402Y-30537760D01*
X102746994Y-30520045D01*
X102753022Y-30519897D01*
X118740074Y-30516498D01*
X118807117Y-30536168D01*
X118852883Y-30588963D01*
X118862842Y-30658119D01*
X118833830Y-30721681D01*
X118812987Y-30740815D01*
X118749851Y-30786686D01*
X118749849Y-30786688D01*
X118591186Y-30945352D01*
X115560856Y-33975681D01*
X115499533Y-34009166D01*
X115473175Y-34012000D01*
X114992129Y-34012000D01*
X114992123Y-34012001D01*
X114932516Y-34018408D01*
X114797671Y-34068702D01*
X114797664Y-34068706D01*
X114682455Y-34154952D01*
X114682452Y-34154955D01*
X114596206Y-34270164D01*
X114596202Y-34270171D01*
X114545908Y-34405017D01*
X114539501Y-34464616D01*
X114539500Y-34464635D01*
X114539500Y-35165477D01*
X114533431Y-35203795D01*
X114489600Y-35338693D01*
X114454500Y-35560305D01*
X114454500Y-49754238D01*
X114448431Y-49792556D01*
X114426201Y-49860972D01*
X114389500Y-50092695D01*
X114389500Y-50327304D01*
X114426201Y-50559027D01*
X114498697Y-50782150D01*
X114605212Y-50991195D01*
X114743104Y-51180989D01*
X114743108Y-51180994D01*
X114909005Y-51346891D01*
X114909010Y-51346895D01*
X114954137Y-51379682D01*
X114996803Y-51435012D01*
X115002782Y-51504625D01*
X114970176Y-51566420D01*
X114954137Y-51580318D01*
X114909010Y-51613104D01*
X114909005Y-51613108D01*
X114743108Y-51779005D01*
X114743104Y-51779010D01*
X114605212Y-51968804D01*
X114498697Y-52177849D01*
X114426201Y-52400972D01*
X114389500Y-52632695D01*
X114389500Y-52867304D01*
X114426201Y-53099027D01*
X114498697Y-53322150D01*
X114499659Y-53324038D01*
X114589389Y-53500142D01*
X114605212Y-53531195D01*
X114743104Y-53720989D01*
X114743108Y-53720994D01*
X114743110Y-53720996D01*
X114909004Y-53886890D01*
X114969940Y-53931162D01*
X115012606Y-53986492D01*
X115020673Y-54041210D01*
X115018053Y-54074499D01*
X115624858Y-54681304D01*
X115567373Y-54705116D01*
X115459275Y-54777345D01*
X115367345Y-54869275D01*
X115295116Y-54977373D01*
X115271304Y-55034858D01*
X114664499Y-54428053D01*
X114664498Y-54428053D01*
X114605639Y-54509068D01*
X114499164Y-54718034D01*
X114426689Y-54941090D01*
X114390000Y-55172734D01*
X114390000Y-55407265D01*
X114426689Y-55638909D01*
X114499164Y-55861965D01*
X114605640Y-56070933D01*
X114664498Y-56151945D01*
X114664499Y-56151945D01*
X115271304Y-55545140D01*
X115295116Y-55602627D01*
X115367345Y-55710725D01*
X115459275Y-55802655D01*
X115567373Y-55874884D01*
X115624858Y-55898695D01*
X115018053Y-56505499D01*
X115020673Y-56538789D01*
X115019774Y-56543066D01*
X115021048Y-56547245D01*
X115012657Y-56576946D01*
X115006309Y-56607166D01*
X115002905Y-56611465D01*
X115002053Y-56614483D01*
X114992024Y-56625211D01*
X114979216Y-56641392D01*
X114974749Y-56645343D01*
X114909004Y-56693110D01*
X114818889Y-56783224D01*
X114816046Y-56785740D01*
X114787709Y-56799034D01*
X114760242Y-56814032D01*
X114756337Y-56813752D01*
X114752792Y-56815416D01*
X114721775Y-56811281D01*
X114690551Y-56809048D01*
X114686762Y-56806613D01*
X114683535Y-56806183D01*
X114675554Y-56799409D01*
X114646204Y-56780547D01*
X108986819Y-51121162D01*
X108953334Y-51059839D01*
X108950500Y-51033481D01*
X108950500Y-45681004D01*
X108923581Y-45545677D01*
X108923580Y-45545676D01*
X108923580Y-45545672D01*
X108886113Y-45455218D01*
X108870777Y-45418192D01*
X108794112Y-45303454D01*
X107486818Y-43996160D01*
X107453333Y-43934837D01*
X107450499Y-43908479D01*
X107450499Y-42002129D01*
X107450498Y-42002123D01*
X107450497Y-42002116D01*
X107444091Y-41942517D01*
X107403265Y-41833058D01*
X107393797Y-41807671D01*
X107393793Y-41807664D01*
X107307547Y-41692455D01*
X107307544Y-41692452D01*
X107192335Y-41606206D01*
X107192328Y-41606202D01*
X107057482Y-41555908D01*
X107057483Y-41555908D01*
X106997883Y-41549501D01*
X106997881Y-41549500D01*
X106997873Y-41549500D01*
X106997864Y-41549500D01*
X104502129Y-41549500D01*
X104502123Y-41549501D01*
X104442516Y-41555908D01*
X104307671Y-41606202D01*
X104307664Y-41606206D01*
X104192455Y-41692452D01*
X104192452Y-41692455D01*
X104106206Y-41807664D01*
X104106202Y-41807671D01*
X104055908Y-41942517D01*
X104049501Y-42002116D01*
X104049501Y-42002123D01*
X104049500Y-42002135D01*
X104049500Y-44497870D01*
X104049501Y-44497876D01*
X104055908Y-44557483D01*
X104106202Y-44692328D01*
X104106206Y-44692335D01*
X104192452Y-44807544D01*
X104192455Y-44807547D01*
X104307664Y-44893793D01*
X104307671Y-44893797D01*
X104442517Y-44944091D01*
X104442516Y-44944091D01*
X104449444Y-44944835D01*
X104502127Y-44950500D01*
X106408480Y-44950499D01*
X106475519Y-44970184D01*
X106496161Y-44986818D01*
X107513181Y-46003838D01*
X107546666Y-46065161D01*
X107549500Y-46091519D01*
X107549500Y-47607364D01*
X107529815Y-47674403D01*
X107477011Y-47720158D01*
X107407853Y-47730102D01*
X107344297Y-47701077D01*
X107310939Y-47654817D01*
X107278406Y-47576277D01*
X107278405Y-47576274D01*
X107166948Y-47383226D01*
X107031247Y-47206376D01*
X107031242Y-47206370D01*
X106873629Y-47048757D01*
X106873622Y-47048751D01*
X106696782Y-46913058D01*
X106696780Y-46913057D01*
X106696774Y-46913052D01*
X106503726Y-46801595D01*
X106503722Y-46801593D01*
X106297790Y-46716293D01*
X106297783Y-46716291D01*
X106297781Y-46716290D01*
X106082463Y-46658596D01*
X106082457Y-46658595D01*
X106082452Y-46658594D01*
X105861466Y-46629501D01*
X105861463Y-46629500D01*
X105861457Y-46629500D01*
X105638543Y-46629500D01*
X105638537Y-46629500D01*
X105638533Y-46629501D01*
X105417547Y-46658594D01*
X105417540Y-46658595D01*
X105417537Y-46658596D01*
X105314502Y-46686204D01*
X105202219Y-46716290D01*
X105202209Y-46716293D01*
X104996277Y-46801593D01*
X104996273Y-46801595D01*
X104803226Y-46913052D01*
X104803217Y-46913058D01*
X104626377Y-47048751D01*
X104626370Y-47048757D01*
X104468757Y-47206370D01*
X104468751Y-47206377D01*
X104333058Y-47383217D01*
X104333052Y-47383226D01*
X104221595Y-47576273D01*
X104221593Y-47576277D01*
X104136293Y-47782209D01*
X104136290Y-47782219D01*
X104097055Y-47928649D01*
X104078597Y-47997534D01*
X104078594Y-47997547D01*
X104049501Y-48218533D01*
X104049500Y-48218543D01*
X104049500Y-48441450D01*
X104049501Y-48441466D01*
X104078594Y-48662452D01*
X104078595Y-48662457D01*
X104078596Y-48662463D01*
X104132151Y-48862334D01*
X104136290Y-48877780D01*
X104136293Y-48877790D01*
X104221591Y-49083717D01*
X104221595Y-49083726D01*
X104333052Y-49276774D01*
X104333057Y-49276780D01*
X104333058Y-49276782D01*
X104468751Y-49453622D01*
X104468757Y-49453629D01*
X104626370Y-49611242D01*
X104626377Y-49611248D01*
X104740783Y-49699034D01*
X104803226Y-49746948D01*
X104803228Y-49746949D01*
X104803232Y-49746952D01*
X104881838Y-49792335D01*
X104987500Y-49853339D01*
X105035716Y-49903906D01*
X105049500Y-49960726D01*
X105049500Y-50171006D01*
X105049500Y-50308994D01*
X105049500Y-50308996D01*
X105049499Y-50308996D01*
X105076418Y-50444322D01*
X105076421Y-50444332D01*
X105129222Y-50571807D01*
X105205887Y-50686545D01*
X105205888Y-50686546D01*
X114400455Y-59881111D01*
X114433940Y-59942434D01*
X114430706Y-60007108D01*
X114426200Y-60020974D01*
X114389500Y-60252695D01*
X114389500Y-60487304D01*
X114426201Y-60719027D01*
X114498697Y-60942150D01*
X114605212Y-61151195D01*
X114743104Y-61340989D01*
X114743108Y-61340994D01*
X114909005Y-61506891D01*
X114909010Y-61506895D01*
X114954137Y-61539682D01*
X114996803Y-61595012D01*
X115002782Y-61664625D01*
X114970176Y-61726420D01*
X114954137Y-61740318D01*
X114909010Y-61773104D01*
X114909005Y-61773108D01*
X114743108Y-61939005D01*
X114743104Y-61939010D01*
X114605212Y-62128804D01*
X114498697Y-62337849D01*
X114426201Y-62560972D01*
X114426201Y-62560974D01*
X114389500Y-62792695D01*
X114389500Y-63027305D01*
X114403486Y-63115608D01*
X114426201Y-63259027D01*
X114498697Y-63482150D01*
X114605212Y-63691195D01*
X114743104Y-63880989D01*
X114743108Y-63880994D01*
X114909005Y-64046891D01*
X114909010Y-64046895D01*
X114954137Y-64079682D01*
X114996803Y-64135012D01*
X115002782Y-64204625D01*
X114970176Y-64266420D01*
X114954137Y-64280318D01*
X114909010Y-64313104D01*
X114909005Y-64313108D01*
X114743108Y-64479005D01*
X114743104Y-64479010D01*
X114605212Y-64668804D01*
X114498697Y-64877849D01*
X114426201Y-65100972D01*
X114389500Y-65332695D01*
X114389500Y-65567304D01*
X114426201Y-65799027D01*
X114498697Y-66022150D01*
X114498699Y-66022153D01*
X114586810Y-66195081D01*
X114605212Y-66231195D01*
X114743104Y-66420989D01*
X114743108Y-66420994D01*
X114743110Y-66420996D01*
X114909004Y-66586890D01*
X114969940Y-66631162D01*
X115012606Y-66686492D01*
X115020673Y-66741210D01*
X115018053Y-66774499D01*
X115624858Y-67381304D01*
X115567373Y-67405116D01*
X115459275Y-67477345D01*
X115367345Y-67569275D01*
X115295116Y-67677373D01*
X115271304Y-67734858D01*
X114664499Y-67128053D01*
X114664498Y-67128053D01*
X114605639Y-67209068D01*
X114499164Y-67418034D01*
X114426689Y-67641090D01*
X114390000Y-67872734D01*
X114390000Y-68107265D01*
X114426689Y-68338909D01*
X114499164Y-68561965D01*
X114605640Y-68770933D01*
X114664498Y-68851945D01*
X114664499Y-68851945D01*
X115271304Y-68245140D01*
X115295116Y-68302627D01*
X115367345Y-68410725D01*
X115459275Y-68502655D01*
X115567373Y-68574884D01*
X115624858Y-68598695D01*
X115018052Y-69205499D01*
X115018053Y-69205500D01*
X115099066Y-69264359D01*
X115308034Y-69370835D01*
X115531090Y-69443310D01*
X115762735Y-69480000D01*
X115997265Y-69480000D01*
X116228909Y-69443310D01*
X116451965Y-69370835D01*
X116660930Y-69264361D01*
X116741945Y-69205499D01*
X116741946Y-69205499D01*
X116135141Y-68598695D01*
X116192627Y-68574884D01*
X116300725Y-68502655D01*
X116392655Y-68410725D01*
X116464884Y-68302627D01*
X116488695Y-68245142D01*
X117095499Y-68851946D01*
X117095499Y-68851945D01*
X117154361Y-68770930D01*
X117260835Y-68561965D01*
X117333310Y-68338909D01*
X117370000Y-68107265D01*
X117370000Y-67872734D01*
X117333310Y-67641090D01*
X117260835Y-67418034D01*
X117154359Y-67209066D01*
X117095500Y-67128053D01*
X117095499Y-67128052D01*
X116488694Y-67734857D01*
X116464884Y-67677373D01*
X116392655Y-67569275D01*
X116300725Y-67477345D01*
X116192627Y-67405116D01*
X116135141Y-67381304D01*
X116741945Y-66774499D01*
X116739325Y-66741211D01*
X116753689Y-66672834D01*
X116790056Y-66631164D01*
X116850996Y-66586890D01*
X117016890Y-66420996D01*
X117154790Y-66231192D01*
X117261301Y-66022153D01*
X117333799Y-65799026D01*
X117370500Y-65567305D01*
X117370500Y-65332695D01*
X117333799Y-65100974D01*
X117329293Y-65087109D01*
X117327299Y-65017269D01*
X117359542Y-64961113D01*
X128063923Y-54256731D01*
X128125244Y-54223248D01*
X128127248Y-54222830D01*
X128262666Y-54195894D01*
X128426547Y-54128013D01*
X128574035Y-54029464D01*
X128699464Y-53904035D01*
X128798013Y-53756547D01*
X128865894Y-53592666D01*
X128878122Y-53531195D01*
X128900499Y-53418695D01*
X128900500Y-53418693D01*
X128900500Y-53241306D01*
X128900499Y-53241304D01*
X128865896Y-53067341D01*
X128865893Y-53067332D01*
X128798016Y-52903459D01*
X128798009Y-52903446D01*
X128699464Y-52755965D01*
X128699461Y-52755961D01*
X128574038Y-52630538D01*
X128574034Y-52630535D01*
X128426553Y-52531990D01*
X128426540Y-52531983D01*
X128262667Y-52464106D01*
X128262658Y-52464103D01*
X128088694Y-52429500D01*
X128088691Y-52429500D01*
X127911309Y-52429500D01*
X127911306Y-52429500D01*
X127737341Y-52464103D01*
X127737337Y-52464105D01*
X127737335Y-52464105D01*
X127737334Y-52464106D01*
X127695114Y-52481593D01*
X127594948Y-52523083D01*
X127525479Y-52530551D01*
X127463000Y-52499275D01*
X127427348Y-52439186D01*
X127429843Y-52369360D01*
X127459814Y-52320842D01*
X129433333Y-50347323D01*
X129494654Y-50313840D01*
X129564346Y-50318824D01*
X129620279Y-50360696D01*
X129643485Y-50415608D01*
X129666200Y-50559027D01*
X129738697Y-50782150D01*
X129845212Y-50991195D01*
X129983104Y-51180989D01*
X129983108Y-51180994D01*
X130149005Y-51346891D01*
X130149010Y-51346895D01*
X130194137Y-51379682D01*
X130236803Y-51435012D01*
X130242782Y-51504625D01*
X130210176Y-51566420D01*
X130194137Y-51580318D01*
X130149010Y-51613104D01*
X130149005Y-51613108D01*
X129983108Y-51779005D01*
X129983104Y-51779010D01*
X129845212Y-51968804D01*
X129738697Y-52177849D01*
X129666201Y-52400972D01*
X129629500Y-52632695D01*
X129629500Y-52867304D01*
X129666201Y-53099027D01*
X129738697Y-53322150D01*
X129739659Y-53324038D01*
X129829389Y-53500142D01*
X129845212Y-53531195D01*
X129983104Y-53720989D01*
X129983108Y-53720994D01*
X130149005Y-53886891D01*
X130149010Y-53886895D01*
X130194137Y-53919682D01*
X130236803Y-53975012D01*
X130242782Y-54044625D01*
X130210176Y-54106420D01*
X130194137Y-54120318D01*
X130149010Y-54153104D01*
X130149005Y-54153108D01*
X129983108Y-54319005D01*
X129983104Y-54319010D01*
X129845212Y-54508804D01*
X129738697Y-54717849D01*
X129666201Y-54940972D01*
X129661322Y-54971777D01*
X129629500Y-55172695D01*
X129629500Y-55407305D01*
X129641412Y-55482515D01*
X129666201Y-55639027D01*
X129738697Y-55862150D01*
X129770536Y-55924636D01*
X129845078Y-56070933D01*
X129845212Y-56071195D01*
X129983104Y-56260989D01*
X129983108Y-56260994D01*
X130149005Y-56426891D01*
X130149010Y-56426895D01*
X130194137Y-56459682D01*
X130236803Y-56515012D01*
X130242782Y-56584625D01*
X130210176Y-56646420D01*
X130194137Y-56660318D01*
X130149010Y-56693104D01*
X130149005Y-56693108D01*
X129983108Y-56859005D01*
X129983104Y-56859010D01*
X129845212Y-57048804D01*
X129738697Y-57257849D01*
X129666201Y-57480972D01*
X129629500Y-57712695D01*
X129629500Y-57947305D01*
X129643486Y-58035608D01*
X129666201Y-58179027D01*
X129738697Y-58402150D01*
X129845212Y-58611195D01*
X129983104Y-58800989D01*
X129983108Y-58800994D01*
X130149005Y-58966891D01*
X130149010Y-58966895D01*
X130194137Y-58999682D01*
X130236803Y-59055012D01*
X130242782Y-59124625D01*
X130210176Y-59186420D01*
X130194137Y-59200318D01*
X130149010Y-59233104D01*
X130149005Y-59233108D01*
X129983108Y-59399005D01*
X129983104Y-59399010D01*
X129845212Y-59588804D01*
X129738697Y-59797849D01*
X129666201Y-60020972D01*
X129629500Y-60252695D01*
X129629500Y-60487304D01*
X129666201Y-60719027D01*
X129738697Y-60942150D01*
X129845212Y-61151195D01*
X129983104Y-61340989D01*
X129983108Y-61340994D01*
X130149005Y-61506891D01*
X130149010Y-61506895D01*
X130194137Y-61539682D01*
X130236803Y-61595012D01*
X130242782Y-61664625D01*
X130210176Y-61726420D01*
X130194137Y-61740318D01*
X130149010Y-61773104D01*
X130149005Y-61773108D01*
X129983108Y-61939005D01*
X129983104Y-61939010D01*
X129845212Y-62128804D01*
X129738697Y-62337849D01*
X129666201Y-62560972D01*
X129666201Y-62560974D01*
X129629500Y-62792695D01*
X129629500Y-63027305D01*
X129643486Y-63115608D01*
X129666201Y-63259027D01*
X129738697Y-63482150D01*
X129845212Y-63691195D01*
X129983104Y-63880989D01*
X129983108Y-63880994D01*
X130149005Y-64046891D01*
X130149010Y-64046895D01*
X130194137Y-64079682D01*
X130236803Y-64135012D01*
X130242782Y-64204625D01*
X130210176Y-64266420D01*
X130194137Y-64280318D01*
X130149010Y-64313104D01*
X130149005Y-64313108D01*
X129983108Y-64479005D01*
X129983104Y-64479010D01*
X129845212Y-64668804D01*
X129738697Y-64877849D01*
X129666201Y-65100972D01*
X129629500Y-65332695D01*
X129629500Y-65567304D01*
X129666201Y-65799027D01*
X129738697Y-66022150D01*
X129738699Y-66022153D01*
X129826810Y-66195081D01*
X129845212Y-66231195D01*
X129983104Y-66420989D01*
X129983108Y-66420994D01*
X129983110Y-66420996D01*
X130149004Y-66586890D01*
X130209940Y-66631162D01*
X130252606Y-66686492D01*
X130260673Y-66741210D01*
X130258053Y-66774499D01*
X130864858Y-67381304D01*
X130807373Y-67405116D01*
X130699275Y-67477345D01*
X130607345Y-67569275D01*
X130535116Y-67677373D01*
X130511304Y-67734858D01*
X129904499Y-67128053D01*
X129904498Y-67128053D01*
X129845639Y-67209068D01*
X129739164Y-67418034D01*
X129666689Y-67641090D01*
X129630000Y-67872734D01*
X129630000Y-68107265D01*
X129666689Y-68338909D01*
X129739164Y-68561965D01*
X129845640Y-68770933D01*
X129904498Y-68851945D01*
X129904499Y-68851945D01*
X130511304Y-68245140D01*
X130535116Y-68302627D01*
X130607345Y-68410725D01*
X130699275Y-68502655D01*
X130807373Y-68574884D01*
X130864858Y-68598695D01*
X130258052Y-69205499D01*
X130258053Y-69205500D01*
X130339066Y-69264359D01*
X130548034Y-69370835D01*
X130771090Y-69443310D01*
X131002735Y-69480000D01*
X131237265Y-69480000D01*
X131468909Y-69443310D01*
X131691965Y-69370835D01*
X131900930Y-69264361D01*
X131981945Y-69205499D01*
X131981946Y-69205499D01*
X131375141Y-68598695D01*
X131432627Y-68574884D01*
X131540725Y-68502655D01*
X131632655Y-68410725D01*
X131704884Y-68302627D01*
X131728695Y-68245141D01*
X132335499Y-68851946D01*
X132335499Y-68851945D01*
X132394361Y-68770930D01*
X132500835Y-68561965D01*
X132573310Y-68338909D01*
X132596077Y-68195171D01*
X132626006Y-68132036D01*
X132685318Y-68095105D01*
X132755180Y-68096103D01*
X132806231Y-68126888D01*
X133147181Y-68467838D01*
X133180666Y-68529161D01*
X133183500Y-68555519D01*
X133183500Y-74201289D01*
X133163815Y-74268328D01*
X133111011Y-74314083D01*
X133041853Y-74324027D01*
X133021183Y-74319220D01*
X132856347Y-74265662D01*
X132856340Y-74265661D01*
X132757731Y-74250043D01*
X132659597Y-74234500D01*
X132460403Y-74234500D01*
X132394822Y-74244887D01*
X132263659Y-74265661D01*
X132263656Y-74265661D01*
X132074219Y-74327213D01*
X131896733Y-74417647D01*
X131858286Y-74445581D01*
X131735582Y-74534731D01*
X131735580Y-74534733D01*
X131735579Y-74534733D01*
X131594733Y-74675579D01*
X131594733Y-74675580D01*
X131594731Y-74675582D01*
X131544447Y-74744790D01*
X131477647Y-74836733D01*
X131400485Y-74988172D01*
X131352510Y-75038968D01*
X131284689Y-75055763D01*
X131218554Y-75033225D01*
X131179515Y-74988172D01*
X131102485Y-74836994D01*
X131102353Y-74836734D01*
X130985269Y-74675582D01*
X130844418Y-74534731D01*
X130683266Y-74417647D01*
X130612357Y-74381517D01*
X130505780Y-74327213D01*
X130316342Y-74265661D01*
X130168782Y-74242290D01*
X130119597Y-74234500D01*
X129920403Y-74234500D01*
X129854822Y-74244887D01*
X129723659Y-74265661D01*
X129723656Y-74265661D01*
X129534219Y-74327213D01*
X129356733Y-74417647D01*
X129318286Y-74445581D01*
X129195582Y-74534731D01*
X129195580Y-74534733D01*
X129195579Y-74534733D01*
X129054733Y-74675579D01*
X129054733Y-74675580D01*
X129054731Y-74675582D01*
X129004447Y-74744790D01*
X128937647Y-74836733D01*
X128860485Y-74988172D01*
X128812510Y-75038968D01*
X128744689Y-75055763D01*
X128678554Y-75033225D01*
X128639515Y-74988172D01*
X128562485Y-74836994D01*
X128562353Y-74836734D01*
X128445269Y-74675582D01*
X128304418Y-74534731D01*
X128143266Y-74417647D01*
X128072357Y-74381517D01*
X127965780Y-74327213D01*
X127776342Y-74265661D01*
X127628782Y-74242290D01*
X127579597Y-74234500D01*
X127380403Y-74234500D01*
X127314822Y-74244887D01*
X127183659Y-74265661D01*
X127183656Y-74265661D01*
X126994219Y-74327213D01*
X126816733Y-74417647D01*
X126778286Y-74445581D01*
X126655582Y-74534731D01*
X126655580Y-74534733D01*
X126655579Y-74534733D01*
X126514733Y-74675579D01*
X126514733Y-74675580D01*
X126514731Y-74675582D01*
X126464447Y-74744790D01*
X126397647Y-74836733D01*
X126320485Y-74988172D01*
X126272510Y-75038968D01*
X126204689Y-75055763D01*
X126138554Y-75033225D01*
X126099515Y-74988172D01*
X126022485Y-74836994D01*
X126022353Y-74836734D01*
X125905269Y-74675582D01*
X125764418Y-74534731D01*
X125603266Y-74417647D01*
X125532357Y-74381517D01*
X125425780Y-74327213D01*
X125236342Y-74265661D01*
X125088782Y-74242290D01*
X125039597Y-74234500D01*
X124840403Y-74234500D01*
X124774822Y-74244887D01*
X124643659Y-74265661D01*
X124643656Y-74265661D01*
X124454219Y-74327213D01*
X124276733Y-74417647D01*
X124238286Y-74445581D01*
X124115582Y-74534731D01*
X124115580Y-74534733D01*
X124115579Y-74534733D01*
X123974733Y-74675579D01*
X123974733Y-74675580D01*
X123974731Y-74675582D01*
X123939555Y-74723997D01*
X123857645Y-74836735D01*
X123780203Y-74988723D01*
X123732229Y-75039518D01*
X123664408Y-75056313D01*
X123598273Y-75033775D01*
X123559234Y-74988722D01*
X123481924Y-74836994D01*
X123454417Y-74799135D01*
X123454417Y-74799134D01*
X122891128Y-75362424D01*
X122875245Y-75303147D01*
X122808102Y-75186853D01*
X122713147Y-75091898D01*
X122596853Y-75024755D01*
X122537574Y-75008871D01*
X123100864Y-74445581D01*
X123100863Y-74445580D01*
X123063008Y-74418077D01*
X122885594Y-74327679D01*
X122696222Y-74266147D01*
X122499563Y-74235000D01*
X122300437Y-74235000D01*
X122103777Y-74266147D01*
X121914405Y-74327679D01*
X121736990Y-74418077D01*
X121699135Y-74445580D01*
X121699135Y-74445581D01*
X122262425Y-75008871D01*
X122203147Y-75024755D01*
X122086853Y-75091898D01*
X121991898Y-75186853D01*
X121924755Y-75303147D01*
X121908871Y-75362425D01*
X121345581Y-74799135D01*
X121345580Y-74799135D01*
X121318077Y-74836990D01*
X121227679Y-75014405D01*
X121166147Y-75203777D01*
X121135000Y-75400436D01*
X121135000Y-75599563D01*
X121166147Y-75796222D01*
X121227679Y-75985594D01*
X121318077Y-76163008D01*
X121345580Y-76200863D01*
X121345581Y-76200864D01*
X121908871Y-75637574D01*
X121924755Y-75696853D01*
X121991898Y-75813147D01*
X122086853Y-75908102D01*
X122203147Y-75975245D01*
X122262425Y-75991128D01*
X121699134Y-76554417D01*
X121736994Y-76581924D01*
X121914405Y-76672320D01*
X122103777Y-76733852D01*
X122300437Y-76765000D01*
X122499563Y-76765000D01*
X122696222Y-76733852D01*
X122885594Y-76672320D01*
X123063005Y-76581924D01*
X123100863Y-76554418D01*
X123100863Y-76554417D01*
X122537574Y-75991128D01*
X122596853Y-75975245D01*
X122713147Y-75908102D01*
X122808102Y-75813147D01*
X122875245Y-75696853D01*
X122891128Y-75637574D01*
X123454417Y-76200863D01*
X123454418Y-76200863D01*
X123481924Y-76163005D01*
X123559234Y-76011277D01*
X123607208Y-75960481D01*
X123675029Y-75943686D01*
X123741164Y-75966223D01*
X123780204Y-76011277D01*
X123829443Y-76107913D01*
X123857647Y-76163266D01*
X123974731Y-76324418D01*
X124115582Y-76465269D01*
X124276734Y-76582353D01*
X124424499Y-76657643D01*
X124454219Y-76672786D01*
X124643657Y-76734338D01*
X124643658Y-76734338D01*
X124643661Y-76734339D01*
X124840403Y-76765500D01*
X124840404Y-76765500D01*
X125039596Y-76765500D01*
X125039597Y-76765500D01*
X125236339Y-76734339D01*
X125236342Y-76734338D01*
X125236343Y-76734338D01*
X125425780Y-76672786D01*
X125425780Y-76672785D01*
X125425783Y-76672785D01*
X125603266Y-76582353D01*
X125764418Y-76465269D01*
X125905269Y-76324418D01*
X126022353Y-76163266D01*
X126099515Y-76011827D01*
X126147490Y-75961031D01*
X126215311Y-75944236D01*
X126281446Y-75966773D01*
X126320485Y-76011827D01*
X126397647Y-76163266D01*
X126514731Y-76324418D01*
X126655582Y-76465269D01*
X126816734Y-76582353D01*
X126964499Y-76657643D01*
X126994219Y-76672786D01*
X127183657Y-76734338D01*
X127183658Y-76734338D01*
X127183661Y-76734339D01*
X127380403Y-76765500D01*
X127380404Y-76765500D01*
X127579596Y-76765500D01*
X127579597Y-76765500D01*
X127776339Y-76734339D01*
X127776342Y-76734338D01*
X127776343Y-76734338D01*
X127965780Y-76672786D01*
X127965780Y-76672785D01*
X127965783Y-76672785D01*
X128143266Y-76582353D01*
X128304418Y-76465269D01*
X128445269Y-76324418D01*
X128562353Y-76163266D01*
X128639515Y-76011827D01*
X128687490Y-75961031D01*
X128755311Y-75944236D01*
X128821446Y-75966773D01*
X128860485Y-76011827D01*
X128937647Y-76163266D01*
X129054731Y-76324418D01*
X129195582Y-76465269D01*
X129356734Y-76582353D01*
X129504499Y-76657643D01*
X129534219Y-76672786D01*
X129723657Y-76734338D01*
X129723658Y-76734338D01*
X129723661Y-76734339D01*
X129920403Y-76765500D01*
X129920404Y-76765500D01*
X130119596Y-76765500D01*
X130119597Y-76765500D01*
X130316339Y-76734339D01*
X130316342Y-76734338D01*
X130316343Y-76734338D01*
X130505780Y-76672786D01*
X130505780Y-76672785D01*
X130505783Y-76672785D01*
X130683266Y-76582353D01*
X130844418Y-76465269D01*
X130985269Y-76324418D01*
X131102353Y-76163266D01*
X131179515Y-76011827D01*
X131227490Y-75961031D01*
X131295311Y-75944236D01*
X131361446Y-75966773D01*
X131400485Y-76011827D01*
X131477647Y-76163266D01*
X131594731Y-76324418D01*
X131735582Y-76465269D01*
X131896734Y-76582353D01*
X132044499Y-76657643D01*
X132074219Y-76672786D01*
X132263657Y-76734338D01*
X132263658Y-76734338D01*
X132263661Y-76734339D01*
X132460403Y-76765500D01*
X132460404Y-76765500D01*
X132659596Y-76765500D01*
X132659597Y-76765500D01*
X132856339Y-76734339D01*
X133021183Y-76680777D01*
X133091022Y-76678783D01*
X133150855Y-76714863D01*
X133181684Y-76777564D01*
X133183500Y-76798709D01*
X133183500Y-89455006D01*
X133183500Y-89592994D01*
X133183500Y-89592996D01*
X133183499Y-89592996D01*
X133210418Y-89728322D01*
X133210421Y-89728332D01*
X133263222Y-89855807D01*
X133339887Y-89970545D01*
X133339888Y-89970546D01*
X142792163Y-99422819D01*
X142825648Y-99484142D01*
X142820664Y-99553834D01*
X142778792Y-99609767D01*
X142713328Y-99634184D01*
X142704482Y-99634500D01*
X142620403Y-99634500D01*
X142563460Y-99643519D01*
X142423659Y-99665661D01*
X142423656Y-99665661D01*
X142234219Y-99727213D01*
X142056733Y-99817647D01*
X142018286Y-99845581D01*
X141895582Y-99934731D01*
X141895580Y-99934733D01*
X141895579Y-99934733D01*
X141754733Y-100075579D01*
X141754733Y-100075580D01*
X141754731Y-100075582D01*
X141722772Y-100119570D01*
X141637647Y-100236733D01*
X141560485Y-100388172D01*
X141512510Y-100438968D01*
X141444689Y-100455763D01*
X141378554Y-100433225D01*
X141339515Y-100388172D01*
X141297877Y-100306453D01*
X141262353Y-100236734D01*
X141145269Y-100075582D01*
X141004418Y-99934731D01*
X140843266Y-99817647D01*
X140764379Y-99777452D01*
X140665780Y-99727213D01*
X140476342Y-99665661D01*
X140328782Y-99642290D01*
X140279597Y-99634500D01*
X140080403Y-99634500D01*
X140023460Y-99643519D01*
X139883659Y-99665661D01*
X139883656Y-99665661D01*
X139694219Y-99727213D01*
X139516733Y-99817647D01*
X139478286Y-99845581D01*
X139355582Y-99934731D01*
X139355580Y-99934733D01*
X139355579Y-99934733D01*
X139214733Y-100075579D01*
X139214733Y-100075580D01*
X139214731Y-100075582D01*
X139182772Y-100119570D01*
X139097647Y-100236733D01*
X139020485Y-100388172D01*
X138972510Y-100438968D01*
X138904689Y-100455763D01*
X138838554Y-100433225D01*
X138799515Y-100388172D01*
X138757877Y-100306453D01*
X138722353Y-100236734D01*
X138605269Y-100075582D01*
X138464418Y-99934731D01*
X138303266Y-99817647D01*
X138224379Y-99777452D01*
X138125780Y-99727213D01*
X137936342Y-99665661D01*
X137788782Y-99642290D01*
X137739597Y-99634500D01*
X137540403Y-99634500D01*
X137483460Y-99643519D01*
X137343659Y-99665661D01*
X137343656Y-99665661D01*
X137154219Y-99727213D01*
X136976733Y-99817647D01*
X136938286Y-99845581D01*
X136815582Y-99934731D01*
X136815580Y-99934733D01*
X136815579Y-99934733D01*
X136674733Y-100075579D01*
X136674733Y-100075580D01*
X136674731Y-100075582D01*
X136642772Y-100119570D01*
X136557647Y-100236733D01*
X136480485Y-100388172D01*
X136432510Y-100438968D01*
X136364689Y-100455763D01*
X136298554Y-100433225D01*
X136259515Y-100388172D01*
X136217877Y-100306453D01*
X136182353Y-100236734D01*
X136065269Y-100075582D01*
X135924418Y-99934731D01*
X135763266Y-99817647D01*
X135684379Y-99777452D01*
X135585780Y-99727213D01*
X135396342Y-99665661D01*
X135248782Y-99642290D01*
X135199597Y-99634500D01*
X135000403Y-99634500D01*
X134943460Y-99643519D01*
X134803659Y-99665661D01*
X134803656Y-99665661D01*
X134614219Y-99727213D01*
X134436733Y-99817647D01*
X134398286Y-99845581D01*
X134275582Y-99934731D01*
X134275580Y-99934733D01*
X134275579Y-99934733D01*
X134134733Y-100075579D01*
X134134733Y-100075580D01*
X134134731Y-100075582D01*
X134102772Y-100119570D01*
X134017647Y-100236733D01*
X133940485Y-100388172D01*
X133892510Y-100438968D01*
X133824689Y-100455763D01*
X133758554Y-100433225D01*
X133719515Y-100388172D01*
X133677877Y-100306453D01*
X133642353Y-100236734D01*
X133525269Y-100075582D01*
X133384418Y-99934731D01*
X133223266Y-99817647D01*
X133144379Y-99777452D01*
X133045780Y-99727213D01*
X132856342Y-99665661D01*
X132708782Y-99642290D01*
X132659597Y-99634500D01*
X132460403Y-99634500D01*
X132403460Y-99643519D01*
X132263659Y-99665661D01*
X132263656Y-99665661D01*
X132074219Y-99727213D01*
X131896733Y-99817647D01*
X131858286Y-99845581D01*
X131735582Y-99934731D01*
X131735580Y-99934733D01*
X131735579Y-99934733D01*
X131594733Y-100075579D01*
X131594733Y-100075580D01*
X131594731Y-100075582D01*
X131562772Y-100119570D01*
X131477647Y-100236733D01*
X131400485Y-100388172D01*
X131352510Y-100438968D01*
X131284689Y-100455763D01*
X131218554Y-100433225D01*
X131179515Y-100388172D01*
X131137877Y-100306453D01*
X131102353Y-100236734D01*
X130985269Y-100075582D01*
X130844418Y-99934731D01*
X130683266Y-99817647D01*
X130604379Y-99777452D01*
X130505780Y-99727213D01*
X130316342Y-99665661D01*
X130168782Y-99642290D01*
X130119597Y-99634500D01*
X129920403Y-99634500D01*
X129863460Y-99643519D01*
X129723659Y-99665661D01*
X129723656Y-99665661D01*
X129534219Y-99727213D01*
X129356733Y-99817647D01*
X129318286Y-99845581D01*
X129195582Y-99934731D01*
X129195580Y-99934733D01*
X129195579Y-99934733D01*
X129054733Y-100075579D01*
X129054733Y-100075580D01*
X129054731Y-100075582D01*
X129022772Y-100119570D01*
X128937647Y-100236733D01*
X128860485Y-100388172D01*
X128812510Y-100438968D01*
X128744689Y-100455763D01*
X128678554Y-100433225D01*
X128639515Y-100388172D01*
X128597877Y-100306453D01*
X128562353Y-100236734D01*
X128445269Y-100075582D01*
X128304418Y-99934731D01*
X128143266Y-99817647D01*
X128064379Y-99777452D01*
X127965780Y-99727213D01*
X127776342Y-99665661D01*
X127628782Y-99642290D01*
X127579597Y-99634500D01*
X127380403Y-99634500D01*
X127323460Y-99643519D01*
X127183659Y-99665661D01*
X127183656Y-99665661D01*
X126994219Y-99727213D01*
X126816733Y-99817647D01*
X126778286Y-99845581D01*
X126655582Y-99934731D01*
X126655580Y-99934733D01*
X126655579Y-99934733D01*
X126514733Y-100075579D01*
X126514733Y-100075580D01*
X126514731Y-100075582D01*
X126482772Y-100119570D01*
X126397647Y-100236733D01*
X126320485Y-100388172D01*
X126272510Y-100438968D01*
X126204689Y-100455763D01*
X126138554Y-100433225D01*
X126099515Y-100388172D01*
X126057877Y-100306453D01*
X126022353Y-100236734D01*
X125905269Y-100075582D01*
X125764418Y-99934731D01*
X125603266Y-99817647D01*
X125524379Y-99777452D01*
X125425780Y-99727213D01*
X125236342Y-99665661D01*
X125088782Y-99642290D01*
X125039597Y-99634500D01*
X124840403Y-99634500D01*
X124783460Y-99643519D01*
X124643659Y-99665661D01*
X124643656Y-99665661D01*
X124454219Y-99727213D01*
X124276733Y-99817647D01*
X124238286Y-99845581D01*
X124115582Y-99934731D01*
X124115580Y-99934733D01*
X124115579Y-99934733D01*
X123974733Y-100075579D01*
X123974733Y-100075580D01*
X123974731Y-100075582D01*
X123942772Y-100119570D01*
X123889817Y-100192456D01*
X123834487Y-100235121D01*
X123764873Y-100241100D01*
X123703078Y-100208494D01*
X123668721Y-100147655D01*
X123665499Y-100119570D01*
X123665499Y-100087129D01*
X123665498Y-100087123D01*
X123665497Y-100087116D01*
X123659091Y-100027517D01*
X123608796Y-99892669D01*
X123608795Y-99892668D01*
X123608793Y-99892664D01*
X123522547Y-99777455D01*
X123522544Y-99777452D01*
X123407335Y-99691206D01*
X123407328Y-99691202D01*
X123272482Y-99640908D01*
X123272483Y-99640908D01*
X123212883Y-99634501D01*
X123212881Y-99634500D01*
X123212873Y-99634500D01*
X123212864Y-99634500D01*
X121587129Y-99634500D01*
X121587123Y-99634501D01*
X121527516Y-99640908D01*
X121392671Y-99691202D01*
X121392664Y-99691206D01*
X121277455Y-99777452D01*
X121277452Y-99777455D01*
X121191206Y-99892664D01*
X121191202Y-99892671D01*
X121140908Y-100027517D01*
X121135741Y-100075580D01*
X121134501Y-100087123D01*
X121134500Y-100087135D01*
X121134500Y-101712870D01*
X121134501Y-101712876D01*
X121140908Y-101772483D01*
X121191202Y-101907328D01*
X121191206Y-101907335D01*
X121277452Y-102022544D01*
X121277455Y-102022547D01*
X121392664Y-102108793D01*
X121392671Y-102108797D01*
X121527517Y-102159091D01*
X121527516Y-102159091D01*
X121534444Y-102159835D01*
X121587127Y-102165500D01*
X122552769Y-102165499D01*
X122619808Y-102185183D01*
X122640450Y-102201818D01*
X132021586Y-111582954D01*
X132051058Y-111602645D01*
X132095270Y-111632186D01*
X132144505Y-111665084D01*
X132144506Y-111665084D01*
X132144507Y-111665085D01*
X132144509Y-111665086D01*
X132281082Y-111721656D01*
X132281087Y-111721658D01*
X132281091Y-111721658D01*
X132281092Y-111721659D01*
X132426079Y-111750500D01*
X132426082Y-111750500D01*
X151403920Y-111750500D01*
X151501462Y-111731096D01*
X151548913Y-111721658D01*
X151685495Y-111665084D01*
X151734729Y-111632186D01*
X151734734Y-111632183D01*
X151759071Y-111615921D01*
X151808416Y-111582952D01*
X154512655Y-108878711D01*
X175649500Y-108878711D01*
X175649500Y-109121288D01*
X175681161Y-109361785D01*
X175743947Y-109596104D01*
X175836773Y-109820205D01*
X175836776Y-109820212D01*
X175958064Y-110030289D01*
X175958066Y-110030292D01*
X175958067Y-110030293D01*
X176105733Y-110222736D01*
X176105739Y-110222743D01*
X176277256Y-110394260D01*
X176277263Y-110394266D01*
X176329034Y-110433991D01*
X176469711Y-110541936D01*
X176679788Y-110663224D01*
X176903900Y-110756054D01*
X177138211Y-110818838D01*
X177318586Y-110842584D01*
X177378711Y-110850500D01*
X177378712Y-110850500D01*
X177621289Y-110850500D01*
X177669388Y-110844167D01*
X177861789Y-110818838D01*
X178096100Y-110756054D01*
X178320212Y-110663224D01*
X178530289Y-110541936D01*
X178722738Y-110394265D01*
X178894265Y-110222738D01*
X179041936Y-110030289D01*
X179163224Y-109820212D01*
X179256054Y-109596100D01*
X179318838Y-109361789D01*
X179350500Y-109121288D01*
X179350500Y-108878712D01*
X179318838Y-108638211D01*
X179256054Y-108403900D01*
X179163224Y-108179788D01*
X179041936Y-107969711D01*
X178894265Y-107777262D01*
X178894260Y-107777256D01*
X178722743Y-107605739D01*
X178722736Y-107605733D01*
X178530293Y-107458067D01*
X178530292Y-107458066D01*
X178530289Y-107458064D01*
X178320212Y-107336776D01*
X178320205Y-107336773D01*
X178096104Y-107243947D01*
X177861785Y-107181161D01*
X177621289Y-107149500D01*
X177621288Y-107149500D01*
X177378712Y-107149500D01*
X177378711Y-107149500D01*
X177138214Y-107181161D01*
X176903895Y-107243947D01*
X176679794Y-107336773D01*
X176679785Y-107336777D01*
X176469706Y-107458067D01*
X176277263Y-107605733D01*
X176277256Y-107605739D01*
X176105739Y-107777256D01*
X176105733Y-107777263D01*
X175958067Y-107969706D01*
X175836777Y-108179785D01*
X175836773Y-108179794D01*
X175743947Y-108403895D01*
X175681161Y-108638214D01*
X175649500Y-108878711D01*
X154512655Y-108878711D01*
X154771194Y-108620172D01*
X154832515Y-108586689D01*
X154878265Y-108585382D01*
X154973713Y-108600500D01*
X154973715Y-108600500D01*
X155186286Y-108600500D01*
X155186287Y-108600500D01*
X155396243Y-108567246D01*
X155598412Y-108501557D01*
X155787816Y-108405051D01*
X155874138Y-108342335D01*
X155959786Y-108280109D01*
X155959788Y-108280106D01*
X155959792Y-108280104D01*
X156110104Y-108129792D01*
X156110106Y-108129788D01*
X156110109Y-108129786D01*
X156195890Y-108011717D01*
X156235051Y-107957816D01*
X156239793Y-107948508D01*
X156287763Y-107897711D01*
X156355583Y-107880911D01*
X156421719Y-107903445D01*
X156460763Y-107948500D01*
X156465373Y-107957547D01*
X156504728Y-108011716D01*
X157137037Y-107379408D01*
X157154075Y-107442993D01*
X157219901Y-107557007D01*
X157312993Y-107650099D01*
X157427007Y-107715925D01*
X157490590Y-107732962D01*
X156858282Y-108365269D01*
X156858282Y-108365270D01*
X156912449Y-108404624D01*
X157101782Y-108501095D01*
X157303870Y-108566757D01*
X157513754Y-108600000D01*
X157726246Y-108600000D01*
X157936127Y-108566757D01*
X157936130Y-108566757D01*
X158138217Y-108501095D01*
X158327554Y-108404622D01*
X158381716Y-108365270D01*
X158381717Y-108365270D01*
X157749408Y-107732962D01*
X157812993Y-107715925D01*
X157927007Y-107650099D01*
X158020099Y-107557007D01*
X158085925Y-107442993D01*
X158102962Y-107379408D01*
X158735270Y-108011717D01*
X158735270Y-108011716D01*
X158774622Y-107957554D01*
X158871095Y-107768217D01*
X158936757Y-107566130D01*
X158936757Y-107566127D01*
X158970000Y-107356246D01*
X158970000Y-107143753D01*
X158936757Y-106933872D01*
X158936757Y-106933869D01*
X158871095Y-106731782D01*
X158774624Y-106542449D01*
X158735270Y-106488282D01*
X158735269Y-106488282D01*
X158102962Y-107120590D01*
X158085925Y-107057007D01*
X158020099Y-106942993D01*
X157927007Y-106849901D01*
X157812993Y-106784075D01*
X157749408Y-106767037D01*
X158381716Y-106134728D01*
X158327550Y-106095375D01*
X158138217Y-105998904D01*
X158118294Y-105992431D01*
X158060619Y-105952994D01*
X158033420Y-105888635D01*
X158045335Y-105819789D01*
X158092579Y-105768313D01*
X158156612Y-105750500D01*
X170823920Y-105750500D01*
X170921462Y-105731096D01*
X170968913Y-105721658D01*
X171050608Y-105687819D01*
X171105491Y-105665086D01*
X171105492Y-105665085D01*
X171105495Y-105665084D01*
X171158285Y-105629811D01*
X171228416Y-105582952D01*
X177332951Y-99478416D01*
X177415084Y-99355495D01*
X177471658Y-99218913D01*
X177500500Y-99073918D01*
X177500500Y-98926083D01*
X177500500Y-96955416D01*
X177520185Y-96888377D01*
X177551613Y-96855099D01*
X177597219Y-96821966D01*
X177741966Y-96677219D01*
X177741968Y-96677215D01*
X177741971Y-96677213D01*
X177794732Y-96604590D01*
X177862287Y-96511610D01*
X177955220Y-96329219D01*
X178018477Y-96134534D01*
X178050500Y-95932352D01*
X178050500Y-95727648D01*
X178018477Y-95525466D01*
X177955220Y-95330781D01*
X177955218Y-95330778D01*
X177955218Y-95330776D01*
X177921503Y-95264607D01*
X177862287Y-95148390D01*
X177854556Y-95137749D01*
X177741971Y-94982786D01*
X177597213Y-94838028D01*
X177431613Y-94717715D01*
X177431612Y-94717714D01*
X177431610Y-94717713D01*
X177374653Y-94688691D01*
X177249223Y-94624781D01*
X177054534Y-94561522D01*
X176879995Y-94533878D01*
X176852352Y-94529500D01*
X176647648Y-94529500D01*
X176591972Y-94538318D01*
X176522679Y-94529363D01*
X176484894Y-94503526D01*
X173036819Y-91055451D01*
X173003334Y-90994128D01*
X173000500Y-90967770D01*
X173000500Y-77139778D01*
X174059500Y-77139778D01*
X174059500Y-77360221D01*
X174093985Y-77577952D01*
X174162103Y-77787603D01*
X174162104Y-77787606D01*
X174262187Y-77984025D01*
X174391752Y-78162358D01*
X174391756Y-78162363D01*
X174391758Y-78162365D01*
X174547635Y-78318242D01*
X174708386Y-78435034D01*
X174751051Y-78490362D01*
X174759500Y-78535351D01*
X174759500Y-84311006D01*
X174759500Y-84448994D01*
X174759500Y-84448996D01*
X174759499Y-84448996D01*
X174786418Y-84584322D01*
X174786421Y-84584332D01*
X174839222Y-84711807D01*
X174915887Y-84826545D01*
X174915888Y-84826546D01*
X175433194Y-85343851D01*
X175466679Y-85405174D01*
X175467986Y-85450929D01*
X175449500Y-85567647D01*
X175449500Y-85772351D01*
X175481522Y-85974534D01*
X175544781Y-86169223D01*
X175637715Y-86351613D01*
X175758028Y-86517213D01*
X175902786Y-86661971D01*
X176057749Y-86774556D01*
X176068390Y-86782287D01*
X176184607Y-86841503D01*
X176250776Y-86875218D01*
X176250778Y-86875218D01*
X176250781Y-86875220D01*
X176355137Y-86909127D01*
X176445465Y-86938477D01*
X176546557Y-86954488D01*
X176647648Y-86970500D01*
X176647649Y-86970500D01*
X176852351Y-86970500D01*
X176852352Y-86970500D01*
X177054534Y-86938477D01*
X177249219Y-86875220D01*
X177431610Y-86782287D01*
X177524590Y-86714732D01*
X177597213Y-86661971D01*
X177597215Y-86661968D01*
X177597219Y-86661966D01*
X177741966Y-86517219D01*
X177741968Y-86517215D01*
X177741971Y-86517213D01*
X177794732Y-86444590D01*
X177862287Y-86351610D01*
X177955220Y-86169219D01*
X178018477Y-85974534D01*
X178050500Y-85772352D01*
X178050500Y-85567648D01*
X178018477Y-85365466D01*
X177955220Y-85170781D01*
X177955218Y-85170778D01*
X177955218Y-85170776D01*
X177921503Y-85104607D01*
X177862287Y-84988390D01*
X177854556Y-84977749D01*
X177741971Y-84822786D01*
X177597213Y-84678028D01*
X177431613Y-84557715D01*
X177431612Y-84557714D01*
X177431610Y-84557713D01*
X177374653Y-84528691D01*
X177249223Y-84464781D01*
X177054534Y-84401522D01*
X176879995Y-84373878D01*
X176852352Y-84369500D01*
X176647648Y-84369500D01*
X176530929Y-84387986D01*
X176461636Y-84379031D01*
X176423851Y-84353194D01*
X176196819Y-84126162D01*
X176163334Y-84064839D01*
X176160500Y-84038481D01*
X176160500Y-78535351D01*
X176180185Y-78468312D01*
X176211611Y-78435035D01*
X176372365Y-78318242D01*
X176422924Y-78267682D01*
X176484245Y-78234198D01*
X176553936Y-78239182D01*
X176609870Y-78281053D01*
X176626786Y-78312030D01*
X176656646Y-78392087D01*
X176656649Y-78392093D01*
X176742809Y-78507187D01*
X176742812Y-78507190D01*
X176857906Y-78593350D01*
X176857913Y-78593354D01*
X176992620Y-78643596D01*
X176992627Y-78643598D01*
X177052155Y-78649999D01*
X177052172Y-78650000D01*
X177750000Y-78650000D01*
X177750000Y-77625277D01*
X177826306Y-77669333D01*
X177940756Y-77700000D01*
X178059244Y-77700000D01*
X178173694Y-77669333D01*
X178250000Y-77625277D01*
X178250000Y-78650000D01*
X178947828Y-78650000D01*
X178947844Y-78649999D01*
X179007372Y-78643598D01*
X179007379Y-78643596D01*
X179142086Y-78593354D01*
X179142093Y-78593350D01*
X179257187Y-78507190D01*
X179257190Y-78507187D01*
X179343350Y-78392093D01*
X179343354Y-78392086D01*
X179393596Y-78257379D01*
X179393598Y-78257372D01*
X179399999Y-78197844D01*
X179400000Y-78197827D01*
X179400000Y-77500000D01*
X178375278Y-77500000D01*
X178419333Y-77423694D01*
X178450000Y-77309244D01*
X178450000Y-77190756D01*
X178419333Y-77076306D01*
X178375278Y-77000000D01*
X179400000Y-77000000D01*
X179400000Y-76302172D01*
X179399999Y-76302155D01*
X179393598Y-76242627D01*
X179393596Y-76242620D01*
X179343354Y-76107913D01*
X179343350Y-76107906D01*
X179257190Y-75992812D01*
X179257187Y-75992809D01*
X179142093Y-75906649D01*
X179142086Y-75906645D01*
X179007379Y-75856403D01*
X179007372Y-75856401D01*
X178947844Y-75850000D01*
X178250000Y-75850000D01*
X178250000Y-76874722D01*
X178173694Y-76830667D01*
X178059244Y-76800000D01*
X177940756Y-76800000D01*
X177826306Y-76830667D01*
X177750000Y-76874722D01*
X177750000Y-75850000D01*
X177052155Y-75850000D01*
X176992627Y-75856401D01*
X176992620Y-75856403D01*
X176857913Y-75906645D01*
X176857906Y-75906649D01*
X176742812Y-75992809D01*
X176742809Y-75992812D01*
X176656649Y-76107906D01*
X176656643Y-76107918D01*
X176626785Y-76187969D01*
X176584914Y-76243903D01*
X176519449Y-76268319D01*
X176451176Y-76253467D01*
X176422923Y-76232316D01*
X176372363Y-76181756D01*
X176372358Y-76181752D01*
X176194025Y-76052187D01*
X176194024Y-76052186D01*
X176194022Y-76052185D01*
X176114816Y-76011827D01*
X175997606Y-75952104D01*
X175997603Y-75952103D01*
X175787952Y-75883985D01*
X175679086Y-75866742D01*
X175570222Y-75849500D01*
X175349778Y-75849500D01*
X175277201Y-75860995D01*
X175132047Y-75883985D01*
X174922396Y-75952103D01*
X174922393Y-75952104D01*
X174725974Y-76052187D01*
X174547641Y-76181752D01*
X174547636Y-76181756D01*
X174391756Y-76337636D01*
X174391752Y-76337641D01*
X174262187Y-76515974D01*
X174162104Y-76712393D01*
X174162103Y-76712396D01*
X174093985Y-76922047D01*
X174059500Y-77139778D01*
X173000500Y-77139778D01*
X173000500Y-68722147D01*
X175911600Y-68722147D01*
X175911600Y-68958252D01*
X175948534Y-69191447D01*
X176021497Y-69416002D01*
X176128687Y-69626374D01*
X176188938Y-69709304D01*
X176188940Y-69709305D01*
X176887812Y-69010433D01*
X176899082Y-69052492D01*
X176971490Y-69177908D01*
X177073892Y-69280310D01*
X177199308Y-69352718D01*
X177241365Y-69363987D01*
X176542493Y-70062858D01*
X176625428Y-70123114D01*
X176835797Y-70230302D01*
X177060352Y-70303265D01*
X177060351Y-70303265D01*
X177293548Y-70340200D01*
X177529652Y-70340200D01*
X177762847Y-70303265D01*
X177987402Y-70230302D01*
X178197763Y-70123118D01*
X178197769Y-70123114D01*
X178280704Y-70062858D01*
X178280705Y-70062858D01*
X177581833Y-69363987D01*
X177623892Y-69352718D01*
X177749308Y-69280310D01*
X177851710Y-69177908D01*
X177924118Y-69052492D01*
X177935387Y-69010433D01*
X178634258Y-69709305D01*
X178634258Y-69709304D01*
X178694514Y-69626369D01*
X178694518Y-69626363D01*
X178801702Y-69416002D01*
X178874665Y-69191447D01*
X178911600Y-68958252D01*
X178911600Y-68722147D01*
X178874665Y-68488952D01*
X178801702Y-68264397D01*
X178694514Y-68054028D01*
X178634258Y-67971094D01*
X178634258Y-67971093D01*
X177935387Y-68669965D01*
X177924118Y-68627908D01*
X177851710Y-68502492D01*
X177749308Y-68400090D01*
X177623892Y-68327682D01*
X177581834Y-68316412D01*
X178280705Y-67617540D01*
X178280704Y-67617538D01*
X178197774Y-67557287D01*
X177987402Y-67450097D01*
X177762847Y-67377134D01*
X177762848Y-67377134D01*
X177529652Y-67340200D01*
X177293548Y-67340200D01*
X177060352Y-67377134D01*
X176835797Y-67450097D01*
X176625430Y-67557284D01*
X176542494Y-67617540D01*
X177241366Y-68316412D01*
X177199308Y-68327682D01*
X177073892Y-68400090D01*
X176971490Y-68502492D01*
X176899082Y-68627908D01*
X176887812Y-68669966D01*
X176188940Y-67971094D01*
X176128684Y-68054030D01*
X176021497Y-68264397D01*
X175948534Y-68488952D01*
X175911600Y-68722147D01*
X173000500Y-68722147D01*
X173000500Y-56364029D01*
X173020185Y-56296990D01*
X173036814Y-56276353D01*
X176936149Y-52377017D01*
X176997472Y-52343533D01*
X177023830Y-52340699D01*
X178459471Y-52340699D01*
X178459472Y-52340699D01*
X178519083Y-52334291D01*
X178653931Y-52283996D01*
X178769146Y-52197746D01*
X178855396Y-52082531D01*
X178905691Y-51947683D01*
X178912100Y-51888073D01*
X178912099Y-49792328D01*
X178905691Y-49732717D01*
X178893128Y-49699035D01*
X178855397Y-49597871D01*
X178855393Y-49597864D01*
X178769147Y-49482655D01*
X178769144Y-49482652D01*
X178653935Y-49396406D01*
X178653928Y-49396402D01*
X178519082Y-49346108D01*
X178519083Y-49346108D01*
X178459483Y-49339701D01*
X178459481Y-49339700D01*
X178459473Y-49339700D01*
X178459464Y-49339700D01*
X176363729Y-49339700D01*
X176363723Y-49339701D01*
X176304116Y-49346108D01*
X176169271Y-49396402D01*
X176169264Y-49396406D01*
X176054055Y-49482652D01*
X176054052Y-49482655D01*
X175967806Y-49597864D01*
X175967802Y-49597871D01*
X175917508Y-49732717D01*
X175912758Y-49776905D01*
X175911101Y-49792323D01*
X175911100Y-49792335D01*
X175911100Y-51227969D01*
X175891415Y-51295008D01*
X175874781Y-51315650D01*
X171667045Y-55523386D01*
X171641414Y-55561749D01*
X171641413Y-55561751D01*
X171584914Y-55646307D01*
X171528343Y-55782882D01*
X171528340Y-55782892D01*
X171499500Y-55927879D01*
X171499500Y-55927882D01*
X171499500Y-91403918D01*
X171499500Y-91403920D01*
X171499499Y-91403920D01*
X171528340Y-91548907D01*
X171528343Y-91548917D01*
X171584914Y-91685492D01*
X171617812Y-91734727D01*
X171617813Y-91734730D01*
X171667046Y-91808414D01*
X171667052Y-91808421D01*
X175423526Y-95564894D01*
X175457011Y-95626217D01*
X175458318Y-95671972D01*
X175449500Y-95727647D01*
X175449500Y-95932351D01*
X175481522Y-96134534D01*
X175544781Y-96329223D01*
X175637715Y-96511613D01*
X175758028Y-96677213D01*
X175758034Y-96677219D01*
X175902781Y-96821966D01*
X175948384Y-96855098D01*
X175991050Y-96910425D01*
X175999500Y-96955416D01*
X175999500Y-98637770D01*
X175979815Y-98704809D01*
X175963181Y-98725451D01*
X170475451Y-104213181D01*
X170414128Y-104246666D01*
X170387770Y-104249500D01*
X157256076Y-104249500D01*
X157227242Y-104255234D01*
X157227243Y-104255235D01*
X157111093Y-104278339D01*
X157111083Y-104278342D01*
X157031081Y-104311479D01*
X157031082Y-104311480D01*
X156974505Y-104334915D01*
X156892372Y-104389795D01*
X156851585Y-104417047D01*
X156851581Y-104417050D01*
X155388807Y-105879824D01*
X155327484Y-105913309D01*
X155281728Y-105914616D01*
X155186292Y-105899500D01*
X155186287Y-105899500D01*
X154973713Y-105899500D01*
X154925042Y-105907208D01*
X154763760Y-105932753D01*
X154561585Y-105998444D01*
X154372179Y-106094951D01*
X154200213Y-106219890D01*
X154049890Y-106370213D01*
X153924949Y-106542182D01*
X153920484Y-106550946D01*
X153872509Y-106601742D01*
X153804688Y-106618536D01*
X153738553Y-106595998D01*
X153699516Y-106550946D01*
X153695050Y-106542182D01*
X153570109Y-106370213D01*
X153419786Y-106219890D01*
X153247820Y-106094951D01*
X153058414Y-105998444D01*
X153058413Y-105998443D01*
X153058412Y-105998443D01*
X152856243Y-105932754D01*
X152856241Y-105932753D01*
X152856240Y-105932753D01*
X152694957Y-105907208D01*
X152646287Y-105899500D01*
X152433713Y-105899500D01*
X152385042Y-105907208D01*
X152223760Y-105932753D01*
X152021585Y-105998444D01*
X151832179Y-106094951D01*
X151660213Y-106219890D01*
X151509890Y-106370213D01*
X151384949Y-106542182D01*
X151380484Y-106550946D01*
X151332509Y-106601742D01*
X151264688Y-106618536D01*
X151198553Y-106595998D01*
X151159516Y-106550946D01*
X151155050Y-106542182D01*
X151030109Y-106370213D01*
X150879786Y-106219890D01*
X150707820Y-106094951D01*
X150518414Y-105998444D01*
X150518413Y-105998443D01*
X150518412Y-105998443D01*
X150316243Y-105932754D01*
X150316241Y-105932753D01*
X150316240Y-105932753D01*
X150154957Y-105907208D01*
X150106287Y-105899500D01*
X149893713Y-105899500D01*
X149737226Y-105924284D01*
X149667933Y-105915329D01*
X149630148Y-105889492D01*
X145909940Y-102169283D01*
X145876455Y-102107960D01*
X145881439Y-102038268D01*
X145923311Y-101982335D01*
X145924646Y-101981349D01*
X146084418Y-101865269D01*
X146225269Y-101724418D01*
X146342353Y-101563266D01*
X146419515Y-101411827D01*
X146467490Y-101361031D01*
X146535311Y-101344236D01*
X146601446Y-101366773D01*
X146640485Y-101411827D01*
X146717647Y-101563266D01*
X146834731Y-101724418D01*
X146975582Y-101865269D01*
X147136734Y-101982353D01*
X147269395Y-102049947D01*
X147314219Y-102072786D01*
X147503657Y-102134338D01*
X147503658Y-102134338D01*
X147503661Y-102134339D01*
X147700403Y-102165500D01*
X147700404Y-102165500D01*
X147899596Y-102165500D01*
X147899597Y-102165500D01*
X148096339Y-102134339D01*
X148096342Y-102134338D01*
X148096343Y-102134338D01*
X148285780Y-102072786D01*
X148285780Y-102072785D01*
X148285783Y-102072785D01*
X148463266Y-101982353D01*
X148624418Y-101865269D01*
X148765269Y-101724418D01*
X148882353Y-101563266D01*
X148959515Y-101411827D01*
X149007490Y-101361031D01*
X149075311Y-101344236D01*
X149141446Y-101366773D01*
X149180485Y-101411827D01*
X149257647Y-101563266D01*
X149374731Y-101724418D01*
X149515582Y-101865269D01*
X149676734Y-101982353D01*
X149809395Y-102049947D01*
X149854219Y-102072786D01*
X150043657Y-102134338D01*
X150043658Y-102134338D01*
X150043661Y-102134339D01*
X150240403Y-102165500D01*
X150240404Y-102165500D01*
X150439596Y-102165500D01*
X150439597Y-102165500D01*
X150636339Y-102134339D01*
X150636342Y-102134338D01*
X150636343Y-102134338D01*
X150825780Y-102072786D01*
X150825780Y-102072785D01*
X150825783Y-102072785D01*
X151003266Y-101982353D01*
X151164418Y-101865269D01*
X151305269Y-101724418D01*
X151422353Y-101563266D01*
X151499515Y-101411827D01*
X151547490Y-101361031D01*
X151615311Y-101344236D01*
X151681446Y-101366773D01*
X151720485Y-101411827D01*
X151797647Y-101563266D01*
X151914731Y-101724418D01*
X152055582Y-101865269D01*
X152216734Y-101982353D01*
X152349395Y-102049947D01*
X152394219Y-102072786D01*
X152583657Y-102134338D01*
X152583658Y-102134338D01*
X152583661Y-102134339D01*
X152780403Y-102165500D01*
X152780404Y-102165500D01*
X152979596Y-102165500D01*
X152979597Y-102165500D01*
X153176339Y-102134339D01*
X153176342Y-102134338D01*
X153176343Y-102134338D01*
X153365780Y-102072786D01*
X153365780Y-102072785D01*
X153365783Y-102072785D01*
X153543266Y-101982353D01*
X153704418Y-101865269D01*
X153845269Y-101724418D01*
X153962353Y-101563266D01*
X154039795Y-101411276D01*
X154087769Y-101360481D01*
X154155590Y-101343686D01*
X154221725Y-101366223D01*
X154260765Y-101411277D01*
X154338077Y-101563008D01*
X154365580Y-101600863D01*
X154365581Y-101600864D01*
X154928871Y-101037574D01*
X154944755Y-101096853D01*
X155011898Y-101213147D01*
X155106853Y-101308102D01*
X155223147Y-101375245D01*
X155282425Y-101391128D01*
X154719134Y-101954417D01*
X154756994Y-101981924D01*
X154934405Y-102072320D01*
X155123777Y-102133852D01*
X155320437Y-102165000D01*
X155519563Y-102165000D01*
X155716222Y-102133852D01*
X155905594Y-102072320D01*
X156083005Y-101981924D01*
X156120863Y-101954418D01*
X156120863Y-101954417D01*
X155557574Y-101391128D01*
X155616853Y-101375245D01*
X155733147Y-101308102D01*
X155828102Y-101213147D01*
X155895245Y-101096853D01*
X155911128Y-101037574D01*
X156474417Y-101600863D01*
X156474418Y-101600863D01*
X156501924Y-101563005D01*
X156579234Y-101411277D01*
X156627208Y-101360481D01*
X156695029Y-101343686D01*
X156761164Y-101366223D01*
X156800204Y-101411277D01*
X156877514Y-101563005D01*
X156877647Y-101563266D01*
X156994731Y-101724418D01*
X157135582Y-101865269D01*
X157296734Y-101982353D01*
X157429395Y-102049947D01*
X157474219Y-102072786D01*
X157663657Y-102134338D01*
X157663658Y-102134338D01*
X157663661Y-102134339D01*
X157860403Y-102165500D01*
X157860404Y-102165500D01*
X158059596Y-102165500D01*
X158059597Y-102165500D01*
X158256339Y-102134339D01*
X158256342Y-102134338D01*
X158256343Y-102134338D01*
X158445780Y-102072786D01*
X158445780Y-102072785D01*
X158445783Y-102072785D01*
X158623266Y-101982353D01*
X158784418Y-101865269D01*
X158925269Y-101724418D01*
X159042353Y-101563266D01*
X159119515Y-101411827D01*
X159167490Y-101361031D01*
X159235311Y-101344236D01*
X159301446Y-101366773D01*
X159340485Y-101411827D01*
X159417647Y-101563266D01*
X159534731Y-101724418D01*
X159675582Y-101865269D01*
X159836734Y-101982353D01*
X159969395Y-102049947D01*
X160014219Y-102072786D01*
X160203657Y-102134338D01*
X160203658Y-102134338D01*
X160203661Y-102134339D01*
X160400403Y-102165500D01*
X160400404Y-102165500D01*
X160599596Y-102165500D01*
X160599597Y-102165500D01*
X160796339Y-102134339D01*
X160796342Y-102134338D01*
X160796343Y-102134338D01*
X160985780Y-102072786D01*
X160985780Y-102072785D01*
X160985783Y-102072785D01*
X161163266Y-101982353D01*
X161324418Y-101865269D01*
X161465269Y-101724418D01*
X161582353Y-101563266D01*
X161659515Y-101411827D01*
X161707490Y-101361031D01*
X161775311Y-101344236D01*
X161841446Y-101366773D01*
X161880485Y-101411827D01*
X161957647Y-101563266D01*
X162074731Y-101724418D01*
X162215582Y-101865269D01*
X162376734Y-101982353D01*
X162509395Y-102049947D01*
X162554219Y-102072786D01*
X162743657Y-102134338D01*
X162743658Y-102134338D01*
X162743661Y-102134339D01*
X162940403Y-102165500D01*
X162940404Y-102165500D01*
X163139596Y-102165500D01*
X163139597Y-102165500D01*
X163336339Y-102134339D01*
X163336342Y-102134338D01*
X163336343Y-102134338D01*
X163525780Y-102072786D01*
X163525780Y-102072785D01*
X163525783Y-102072785D01*
X163703266Y-101982353D01*
X163864418Y-101865269D01*
X164005269Y-101724418D01*
X164122353Y-101563266D01*
X164199515Y-101411827D01*
X164247490Y-101361031D01*
X164315311Y-101344236D01*
X164381446Y-101366773D01*
X164420485Y-101411827D01*
X164497647Y-101563266D01*
X164614731Y-101724418D01*
X164755582Y-101865269D01*
X164916734Y-101982353D01*
X165049395Y-102049947D01*
X165094219Y-102072786D01*
X165283657Y-102134338D01*
X165283658Y-102134338D01*
X165283661Y-102134339D01*
X165480403Y-102165500D01*
X165480404Y-102165500D01*
X165679596Y-102165500D01*
X165679597Y-102165500D01*
X165876339Y-102134339D01*
X165876342Y-102134338D01*
X165876343Y-102134338D01*
X166065780Y-102072786D01*
X166065780Y-102072785D01*
X166065783Y-102072785D01*
X166243266Y-101982353D01*
X166404418Y-101865269D01*
X166545269Y-101724418D01*
X166662353Y-101563266D01*
X166739515Y-101411827D01*
X166787490Y-101361031D01*
X166855311Y-101344236D01*
X166921446Y-101366773D01*
X166960485Y-101411827D01*
X167037647Y-101563266D01*
X167154731Y-101724418D01*
X167295582Y-101865269D01*
X167456734Y-101982353D01*
X167589395Y-102049947D01*
X167634219Y-102072786D01*
X167823657Y-102134338D01*
X167823658Y-102134338D01*
X167823661Y-102134339D01*
X168020403Y-102165500D01*
X168020404Y-102165500D01*
X168219596Y-102165500D01*
X168219597Y-102165500D01*
X168416339Y-102134339D01*
X168416342Y-102134338D01*
X168416343Y-102134338D01*
X168605780Y-102072786D01*
X168605780Y-102072785D01*
X168605783Y-102072785D01*
X168783266Y-101982353D01*
X168944418Y-101865269D01*
X169085269Y-101724418D01*
X169202353Y-101563266D01*
X169292785Y-101385783D01*
X169301006Y-101360481D01*
X169354338Y-101196343D01*
X169354338Y-101196342D01*
X169354339Y-101196339D01*
X169385500Y-100999597D01*
X169385500Y-100800403D01*
X169354339Y-100603661D01*
X169354338Y-100603657D01*
X169354338Y-100603656D01*
X169292786Y-100414219D01*
X169279514Y-100388172D01*
X169202353Y-100236734D01*
X169085269Y-100075582D01*
X168944418Y-99934731D01*
X168783266Y-99817647D01*
X168704379Y-99777452D01*
X168605780Y-99727213D01*
X168416342Y-99665661D01*
X168268782Y-99642290D01*
X168219597Y-99634500D01*
X168020403Y-99634500D01*
X167963460Y-99643519D01*
X167823659Y-99665661D01*
X167823656Y-99665661D01*
X167634219Y-99727213D01*
X167456733Y-99817647D01*
X167418286Y-99845581D01*
X167295582Y-99934731D01*
X167295580Y-99934733D01*
X167295579Y-99934733D01*
X167154733Y-100075579D01*
X167154733Y-100075580D01*
X167154731Y-100075582D01*
X167122772Y-100119570D01*
X167037647Y-100236733D01*
X166960485Y-100388172D01*
X166912510Y-100438968D01*
X166844689Y-100455763D01*
X166778554Y-100433225D01*
X166739515Y-100388172D01*
X166697877Y-100306453D01*
X166662353Y-100236734D01*
X166545269Y-100075582D01*
X166404418Y-99934731D01*
X166243266Y-99817647D01*
X166164379Y-99777452D01*
X166065780Y-99727213D01*
X165876342Y-99665661D01*
X165728782Y-99642290D01*
X165679597Y-99634500D01*
X165480403Y-99634500D01*
X165423460Y-99643519D01*
X165283659Y-99665661D01*
X165283656Y-99665661D01*
X165094219Y-99727213D01*
X164916733Y-99817647D01*
X164878286Y-99845581D01*
X164755582Y-99934731D01*
X164755580Y-99934733D01*
X164755579Y-99934733D01*
X164614733Y-100075579D01*
X164614733Y-100075580D01*
X164614731Y-100075582D01*
X164582772Y-100119570D01*
X164497647Y-100236733D01*
X164420485Y-100388172D01*
X164372510Y-100438968D01*
X164304689Y-100455763D01*
X164238554Y-100433225D01*
X164199515Y-100388172D01*
X164157877Y-100306453D01*
X164122353Y-100236734D01*
X164005269Y-100075582D01*
X163864418Y-99934731D01*
X163703266Y-99817647D01*
X163624379Y-99777452D01*
X163525780Y-99727213D01*
X163336342Y-99665661D01*
X163188782Y-99642290D01*
X163139597Y-99634500D01*
X162940403Y-99634500D01*
X162883460Y-99643519D01*
X162743659Y-99665661D01*
X162743656Y-99665661D01*
X162554219Y-99727213D01*
X162376733Y-99817647D01*
X162338286Y-99845581D01*
X162215582Y-99934731D01*
X162215580Y-99934733D01*
X162215579Y-99934733D01*
X162074733Y-100075579D01*
X162074733Y-100075580D01*
X162074731Y-100075582D01*
X162042772Y-100119570D01*
X161957647Y-100236733D01*
X161880485Y-100388172D01*
X161832510Y-100438968D01*
X161764689Y-100455763D01*
X161698554Y-100433225D01*
X161659515Y-100388172D01*
X161617877Y-100306453D01*
X161582353Y-100236734D01*
X161465269Y-100075582D01*
X161324418Y-99934731D01*
X161163266Y-99817647D01*
X161084379Y-99777452D01*
X160985780Y-99727213D01*
X160796342Y-99665661D01*
X160648782Y-99642290D01*
X160599597Y-99634500D01*
X160400403Y-99634500D01*
X160343460Y-99643519D01*
X160203659Y-99665661D01*
X160203656Y-99665661D01*
X160014219Y-99727213D01*
X159836733Y-99817647D01*
X159798286Y-99845581D01*
X159675582Y-99934731D01*
X159675580Y-99934733D01*
X159675579Y-99934733D01*
X159534733Y-100075579D01*
X159534733Y-100075580D01*
X159534731Y-100075582D01*
X159502772Y-100119570D01*
X159417647Y-100236733D01*
X159340485Y-100388172D01*
X159292510Y-100438968D01*
X159224689Y-100455763D01*
X159158554Y-100433225D01*
X159119515Y-100388172D01*
X159077877Y-100306453D01*
X159042353Y-100236734D01*
X158925269Y-100075582D01*
X158784418Y-99934731D01*
X158623266Y-99817647D01*
X158544379Y-99777452D01*
X158445780Y-99727213D01*
X158256342Y-99665661D01*
X158108782Y-99642290D01*
X158059597Y-99634500D01*
X157860403Y-99634500D01*
X157803460Y-99643519D01*
X157663659Y-99665661D01*
X157663656Y-99665661D01*
X157474219Y-99727213D01*
X157296733Y-99817647D01*
X157258286Y-99845581D01*
X157135582Y-99934731D01*
X157135580Y-99934733D01*
X157135579Y-99934733D01*
X156994733Y-100075579D01*
X156994733Y-100075580D01*
X156994731Y-100075582D01*
X156962772Y-100119570D01*
X156877645Y-100236735D01*
X156800203Y-100388723D01*
X156752229Y-100439518D01*
X156684408Y-100456313D01*
X156618273Y-100433775D01*
X156579234Y-100388722D01*
X156501924Y-100236994D01*
X156474417Y-100199135D01*
X156474417Y-100199134D01*
X155911128Y-100762424D01*
X155895245Y-100703147D01*
X155828102Y-100586853D01*
X155733147Y-100491898D01*
X155616853Y-100424755D01*
X155557574Y-100408871D01*
X156120864Y-99845581D01*
X156120863Y-99845580D01*
X156083008Y-99818077D01*
X155905594Y-99727679D01*
X155716222Y-99666147D01*
X155519563Y-99635000D01*
X155320437Y-99635000D01*
X155123777Y-99666147D01*
X154934405Y-99727679D01*
X154756990Y-99818077D01*
X154719135Y-99845580D01*
X154719135Y-99845581D01*
X155282425Y-100408871D01*
X155223147Y-100424755D01*
X155106853Y-100491898D01*
X155011898Y-100586853D01*
X154944755Y-100703147D01*
X154928871Y-100762425D01*
X154365581Y-100199135D01*
X154365580Y-100199135D01*
X154338075Y-100236993D01*
X154260764Y-100388723D01*
X154212790Y-100439518D01*
X154144969Y-100456313D01*
X154078834Y-100433775D01*
X154039795Y-100388722D01*
X154008299Y-100326909D01*
X153962353Y-100236734D01*
X153845269Y-100075582D01*
X153704418Y-99934731D01*
X153543266Y-99817647D01*
X153464379Y-99777452D01*
X153365780Y-99727213D01*
X153176342Y-99665661D01*
X153028782Y-99642290D01*
X152979597Y-99634500D01*
X152780403Y-99634500D01*
X152723460Y-99643519D01*
X152583659Y-99665661D01*
X152583656Y-99665661D01*
X152394219Y-99727213D01*
X152216733Y-99817647D01*
X152178286Y-99845581D01*
X152055582Y-99934731D01*
X152055580Y-99934733D01*
X152055579Y-99934733D01*
X151914733Y-100075579D01*
X151914733Y-100075580D01*
X151914731Y-100075582D01*
X151882772Y-100119570D01*
X151797647Y-100236733D01*
X151720485Y-100388172D01*
X151672510Y-100438968D01*
X151604689Y-100455763D01*
X151538554Y-100433225D01*
X151499515Y-100388172D01*
X151457877Y-100306453D01*
X151422353Y-100236734D01*
X151305269Y-100075582D01*
X151164418Y-99934731D01*
X151003266Y-99817647D01*
X150924379Y-99777452D01*
X150825780Y-99727213D01*
X150636342Y-99665661D01*
X150488782Y-99642290D01*
X150439597Y-99634500D01*
X150240403Y-99634500D01*
X150183460Y-99643519D01*
X150043659Y-99665661D01*
X150043656Y-99665661D01*
X149854219Y-99727213D01*
X149676733Y-99817647D01*
X149638286Y-99845581D01*
X149515582Y-99934731D01*
X149515580Y-99934733D01*
X149515579Y-99934733D01*
X149374733Y-100075579D01*
X149374733Y-100075580D01*
X149374731Y-100075582D01*
X149342772Y-100119570D01*
X149257647Y-100236733D01*
X149180485Y-100388172D01*
X149132510Y-100438968D01*
X149064689Y-100455763D01*
X148998554Y-100433225D01*
X148959515Y-100388172D01*
X148917877Y-100306453D01*
X148882353Y-100236734D01*
X148765269Y-100075582D01*
X148624418Y-99934731D01*
X148463266Y-99817647D01*
X148384379Y-99777452D01*
X148285780Y-99727213D01*
X148096342Y-99665661D01*
X147948782Y-99642290D01*
X147899597Y-99634500D01*
X147700403Y-99634500D01*
X147700398Y-99634500D01*
X147611521Y-99648577D01*
X147542228Y-99639623D01*
X147504442Y-99613785D01*
X144780819Y-96890162D01*
X144747334Y-96828839D01*
X144744500Y-96802481D01*
X144744500Y-76833800D01*
X144764185Y-76766761D01*
X144816989Y-76721006D01*
X144886147Y-76711062D01*
X144906817Y-76715869D01*
X144922626Y-76721006D01*
X144963653Y-76734337D01*
X144963656Y-76734337D01*
X144963661Y-76734339D01*
X145160403Y-76765500D01*
X145160404Y-76765500D01*
X145359596Y-76765500D01*
X145359597Y-76765500D01*
X145556339Y-76734339D01*
X145556342Y-76734338D01*
X145556343Y-76734338D01*
X145745780Y-76672786D01*
X145745780Y-76672785D01*
X145745783Y-76672785D01*
X145923266Y-76582353D01*
X146084418Y-76465269D01*
X146225269Y-76324418D01*
X146342353Y-76163266D01*
X146419515Y-76011827D01*
X146467490Y-75961031D01*
X146535311Y-75944236D01*
X146601446Y-75966773D01*
X146640485Y-76011827D01*
X146717647Y-76163266D01*
X146834731Y-76324418D01*
X146975582Y-76465269D01*
X147136734Y-76582353D01*
X147284499Y-76657643D01*
X147314219Y-76672786D01*
X147503657Y-76734338D01*
X147503658Y-76734338D01*
X147503661Y-76734339D01*
X147700403Y-76765500D01*
X147700404Y-76765500D01*
X147899596Y-76765500D01*
X147899597Y-76765500D01*
X148096339Y-76734339D01*
X148096342Y-76734338D01*
X148096343Y-76734338D01*
X148285780Y-76672786D01*
X148285780Y-76672785D01*
X148285783Y-76672785D01*
X148463266Y-76582353D01*
X148624418Y-76465269D01*
X148765269Y-76324418D01*
X148882353Y-76163266D01*
X148959515Y-76011827D01*
X149007490Y-75961031D01*
X149075311Y-75944236D01*
X149141446Y-75966773D01*
X149180485Y-76011827D01*
X149257647Y-76163266D01*
X149374731Y-76324418D01*
X149515582Y-76465269D01*
X149676734Y-76582353D01*
X149824499Y-76657643D01*
X149854219Y-76672786D01*
X150043657Y-76734338D01*
X150043658Y-76734338D01*
X150043661Y-76734339D01*
X150240403Y-76765500D01*
X150240404Y-76765500D01*
X150439596Y-76765500D01*
X150439597Y-76765500D01*
X150636339Y-76734339D01*
X150636342Y-76734338D01*
X150636343Y-76734338D01*
X150825780Y-76672786D01*
X150825780Y-76672785D01*
X150825783Y-76672785D01*
X151003266Y-76582353D01*
X151164418Y-76465269D01*
X151305269Y-76324418D01*
X151422353Y-76163266D01*
X151499515Y-76011827D01*
X151547490Y-75961031D01*
X151615311Y-75944236D01*
X151681446Y-75966773D01*
X151720485Y-76011827D01*
X151797647Y-76163266D01*
X151914731Y-76324418D01*
X152055582Y-76465269D01*
X152216734Y-76582353D01*
X152364499Y-76657643D01*
X152394219Y-76672786D01*
X152583657Y-76734338D01*
X152583658Y-76734338D01*
X152583661Y-76734339D01*
X152780403Y-76765500D01*
X152780404Y-76765500D01*
X152979596Y-76765500D01*
X152979597Y-76765500D01*
X153176339Y-76734339D01*
X153176342Y-76734338D01*
X153176343Y-76734338D01*
X153365780Y-76672786D01*
X153365780Y-76672785D01*
X153365783Y-76672785D01*
X153543266Y-76582353D01*
X153704418Y-76465269D01*
X153845269Y-76324418D01*
X153962353Y-76163266D01*
X154039515Y-76011827D01*
X154087490Y-75961031D01*
X154155311Y-75944236D01*
X154221446Y-75966773D01*
X154260485Y-76011827D01*
X154337647Y-76163266D01*
X154454731Y-76324418D01*
X154595582Y-76465269D01*
X154756734Y-76582353D01*
X154904499Y-76657643D01*
X154934219Y-76672786D01*
X155123657Y-76734338D01*
X155123658Y-76734338D01*
X155123661Y-76734339D01*
X155320403Y-76765500D01*
X155320404Y-76765500D01*
X155519596Y-76765500D01*
X155519597Y-76765500D01*
X155716339Y-76734339D01*
X155716342Y-76734338D01*
X155716343Y-76734338D01*
X155905780Y-76672786D01*
X155905780Y-76672785D01*
X155905783Y-76672785D01*
X156083266Y-76582353D01*
X156244418Y-76465269D01*
X156385269Y-76324418D01*
X156502353Y-76163266D01*
X156579515Y-76011827D01*
X156627490Y-75961031D01*
X156695311Y-75944236D01*
X156761446Y-75966773D01*
X156800485Y-76011827D01*
X156877647Y-76163266D01*
X156994731Y-76324418D01*
X157135582Y-76465269D01*
X157296734Y-76582353D01*
X157444499Y-76657643D01*
X157474219Y-76672786D01*
X157663657Y-76734338D01*
X157663658Y-76734338D01*
X157663661Y-76734339D01*
X157860403Y-76765500D01*
X157860404Y-76765500D01*
X158059596Y-76765500D01*
X158059597Y-76765500D01*
X158256339Y-76734339D01*
X158256342Y-76734338D01*
X158256343Y-76734338D01*
X158445780Y-76672786D01*
X158445780Y-76672785D01*
X158445783Y-76672785D01*
X158623266Y-76582353D01*
X158784418Y-76465269D01*
X158925269Y-76324418D01*
X159042353Y-76163266D01*
X159119515Y-76011827D01*
X159167490Y-75961031D01*
X159235311Y-75944236D01*
X159301446Y-75966773D01*
X159340485Y-76011827D01*
X159417647Y-76163266D01*
X159534731Y-76324418D01*
X159675582Y-76465269D01*
X159836734Y-76582353D01*
X159984499Y-76657643D01*
X160014219Y-76672786D01*
X160203657Y-76734338D01*
X160203658Y-76734338D01*
X160203661Y-76734339D01*
X160400403Y-76765500D01*
X160400404Y-76765500D01*
X160599596Y-76765500D01*
X160599597Y-76765500D01*
X160796339Y-76734339D01*
X160796342Y-76734338D01*
X160796343Y-76734338D01*
X160985780Y-76672786D01*
X160985780Y-76672785D01*
X160985783Y-76672785D01*
X161163266Y-76582353D01*
X161324418Y-76465269D01*
X161465269Y-76324418D01*
X161582353Y-76163266D01*
X161659515Y-76011827D01*
X161707490Y-75961031D01*
X161775311Y-75944236D01*
X161841446Y-75966773D01*
X161880485Y-76011827D01*
X161957647Y-76163266D01*
X162074731Y-76324418D01*
X162215582Y-76465269D01*
X162376734Y-76582353D01*
X162524499Y-76657643D01*
X162554219Y-76672786D01*
X162743657Y-76734338D01*
X162743658Y-76734338D01*
X162743661Y-76734339D01*
X162940403Y-76765500D01*
X162940404Y-76765500D01*
X163139596Y-76765500D01*
X163139597Y-76765500D01*
X163336339Y-76734339D01*
X163336342Y-76734338D01*
X163336343Y-76734338D01*
X163525780Y-76672786D01*
X163525780Y-76672785D01*
X163525783Y-76672785D01*
X163703266Y-76582353D01*
X163864418Y-76465269D01*
X164005269Y-76324418D01*
X164122353Y-76163266D01*
X164199515Y-76011827D01*
X164247490Y-75961031D01*
X164315311Y-75944236D01*
X164381446Y-75966773D01*
X164420485Y-76011827D01*
X164497647Y-76163266D01*
X164614731Y-76324418D01*
X164755582Y-76465269D01*
X164916734Y-76582353D01*
X165064499Y-76657643D01*
X165094219Y-76672786D01*
X165283657Y-76734338D01*
X165283658Y-76734338D01*
X165283661Y-76734339D01*
X165480403Y-76765500D01*
X165480404Y-76765500D01*
X165679596Y-76765500D01*
X165679597Y-76765500D01*
X165876339Y-76734339D01*
X165876342Y-76734338D01*
X165876343Y-76734338D01*
X166065780Y-76672786D01*
X166065780Y-76672785D01*
X166065783Y-76672785D01*
X166243266Y-76582353D01*
X166404418Y-76465269D01*
X166545269Y-76324418D01*
X166662353Y-76163266D01*
X166739515Y-76011827D01*
X166787490Y-75961031D01*
X166855311Y-75944236D01*
X166921446Y-75966773D01*
X166960485Y-76011827D01*
X167037647Y-76163266D01*
X167154731Y-76324418D01*
X167295582Y-76465269D01*
X167456734Y-76582353D01*
X167604499Y-76657643D01*
X167634219Y-76672786D01*
X167823657Y-76734338D01*
X167823658Y-76734338D01*
X167823661Y-76734339D01*
X168020403Y-76765500D01*
X168020404Y-76765500D01*
X168219596Y-76765500D01*
X168219597Y-76765500D01*
X168416339Y-76734339D01*
X168416342Y-76734338D01*
X168416343Y-76734338D01*
X168605780Y-76672786D01*
X168605780Y-76672785D01*
X168605783Y-76672785D01*
X168783266Y-76582353D01*
X168944418Y-76465269D01*
X169085269Y-76324418D01*
X169202353Y-76163266D01*
X169292785Y-75985783D01*
X169303728Y-75952103D01*
X169354338Y-75796343D01*
X169354338Y-75796342D01*
X169354339Y-75796339D01*
X169385500Y-75599597D01*
X169385500Y-75400403D01*
X169354339Y-75203661D01*
X169354338Y-75203657D01*
X169354338Y-75203656D01*
X169292786Y-75014219D01*
X169202485Y-74836994D01*
X169202353Y-74836734D01*
X169085269Y-74675582D01*
X168944418Y-74534731D01*
X168783266Y-74417647D01*
X168712357Y-74381517D01*
X168605780Y-74327213D01*
X168416342Y-74265661D01*
X168268782Y-74242290D01*
X168219597Y-74234500D01*
X168020403Y-74234500D01*
X167954822Y-74244887D01*
X167823659Y-74265661D01*
X167823656Y-74265661D01*
X167634219Y-74327213D01*
X167456733Y-74417647D01*
X167418286Y-74445581D01*
X167295582Y-74534731D01*
X167295580Y-74534733D01*
X167295579Y-74534733D01*
X167154733Y-74675579D01*
X167154733Y-74675580D01*
X167154731Y-74675582D01*
X167104447Y-74744790D01*
X167037647Y-74836733D01*
X166960485Y-74988172D01*
X166912510Y-75038968D01*
X166844689Y-75055763D01*
X166778554Y-75033225D01*
X166739515Y-74988172D01*
X166662485Y-74836994D01*
X166662353Y-74836734D01*
X166545269Y-74675582D01*
X166404418Y-74534731D01*
X166243266Y-74417647D01*
X166172357Y-74381517D01*
X166065780Y-74327213D01*
X165876342Y-74265661D01*
X165728782Y-74242290D01*
X165679597Y-74234500D01*
X165480403Y-74234500D01*
X165414822Y-74244887D01*
X165283659Y-74265661D01*
X165283656Y-74265661D01*
X165094219Y-74327213D01*
X164916733Y-74417647D01*
X164878286Y-74445581D01*
X164755582Y-74534731D01*
X164755580Y-74534733D01*
X164755579Y-74534733D01*
X164614733Y-74675579D01*
X164614733Y-74675580D01*
X164614731Y-74675582D01*
X164564447Y-74744790D01*
X164497647Y-74836733D01*
X164420485Y-74988172D01*
X164372510Y-75038968D01*
X164304689Y-75055763D01*
X164238554Y-75033225D01*
X164199515Y-74988172D01*
X164122485Y-74836994D01*
X164122353Y-74836734D01*
X164005269Y-74675582D01*
X163864418Y-74534731D01*
X163703266Y-74417647D01*
X163632357Y-74381517D01*
X163525780Y-74327213D01*
X163336342Y-74265661D01*
X163188782Y-74242290D01*
X163139597Y-74234500D01*
X162940403Y-74234500D01*
X162874822Y-74244887D01*
X162743659Y-74265661D01*
X162743656Y-74265661D01*
X162554219Y-74327213D01*
X162376733Y-74417647D01*
X162338286Y-74445581D01*
X162215582Y-74534731D01*
X162215580Y-74534733D01*
X162215579Y-74534733D01*
X162074733Y-74675579D01*
X162074733Y-74675580D01*
X162074731Y-74675582D01*
X162024447Y-74744790D01*
X161957647Y-74836733D01*
X161880485Y-74988172D01*
X161832510Y-75038968D01*
X161764689Y-75055763D01*
X161698554Y-75033225D01*
X161659515Y-74988172D01*
X161582485Y-74836994D01*
X161582353Y-74836734D01*
X161465269Y-74675582D01*
X161324418Y-74534731D01*
X161163266Y-74417647D01*
X161092357Y-74381517D01*
X160985780Y-74327213D01*
X160796342Y-74265661D01*
X160648782Y-74242290D01*
X160599597Y-74234500D01*
X160400403Y-74234500D01*
X160334822Y-74244887D01*
X160203659Y-74265661D01*
X160203656Y-74265661D01*
X160014219Y-74327213D01*
X159836733Y-74417647D01*
X159798286Y-74445581D01*
X159675582Y-74534731D01*
X159675580Y-74534733D01*
X159675579Y-74534733D01*
X159534733Y-74675579D01*
X159534733Y-74675580D01*
X159534731Y-74675582D01*
X159484447Y-74744790D01*
X159417647Y-74836733D01*
X159340485Y-74988172D01*
X159292510Y-75038968D01*
X159224689Y-75055763D01*
X159158554Y-75033225D01*
X159119515Y-74988172D01*
X159042485Y-74836994D01*
X159042353Y-74836734D01*
X158925269Y-74675582D01*
X158784418Y-74534731D01*
X158623266Y-74417647D01*
X158552357Y-74381517D01*
X158445780Y-74327213D01*
X158256342Y-74265661D01*
X158108782Y-74242290D01*
X158059597Y-74234500D01*
X157860403Y-74234500D01*
X157794822Y-74244887D01*
X157663659Y-74265661D01*
X157663656Y-74265661D01*
X157474219Y-74327213D01*
X157296733Y-74417647D01*
X157258286Y-74445581D01*
X157135582Y-74534731D01*
X157135580Y-74534733D01*
X157135579Y-74534733D01*
X156994733Y-74675579D01*
X156994733Y-74675580D01*
X156994731Y-74675582D01*
X156944447Y-74744790D01*
X156877647Y-74836733D01*
X156800485Y-74988172D01*
X156752510Y-75038968D01*
X156684689Y-75055763D01*
X156618554Y-75033225D01*
X156579515Y-74988172D01*
X156502485Y-74836994D01*
X156502353Y-74836734D01*
X156385269Y-74675582D01*
X156244418Y-74534731D01*
X156083266Y-74417647D01*
X156012357Y-74381517D01*
X155905780Y-74327213D01*
X155716342Y-74265661D01*
X155568782Y-74242290D01*
X155519597Y-74234500D01*
X155320403Y-74234500D01*
X155254822Y-74244887D01*
X155123659Y-74265661D01*
X155123656Y-74265661D01*
X154934219Y-74327213D01*
X154756733Y-74417647D01*
X154718286Y-74445581D01*
X154595582Y-74534731D01*
X154595580Y-74534733D01*
X154595579Y-74534733D01*
X154454733Y-74675579D01*
X154454733Y-74675580D01*
X154454731Y-74675582D01*
X154404447Y-74744790D01*
X154337647Y-74836733D01*
X154260485Y-74988172D01*
X154212510Y-75038968D01*
X154144689Y-75055763D01*
X154078554Y-75033225D01*
X154039515Y-74988172D01*
X153962485Y-74836994D01*
X153962353Y-74836734D01*
X153845269Y-74675582D01*
X153704418Y-74534731D01*
X153543266Y-74417647D01*
X153472357Y-74381517D01*
X153365780Y-74327213D01*
X153176342Y-74265661D01*
X153028782Y-74242290D01*
X152979597Y-74234500D01*
X152780403Y-74234500D01*
X152714822Y-74244887D01*
X152583659Y-74265661D01*
X152583656Y-74265661D01*
X152394219Y-74327213D01*
X152216733Y-74417647D01*
X152178286Y-74445581D01*
X152055582Y-74534731D01*
X152055580Y-74534733D01*
X152055579Y-74534733D01*
X151914733Y-74675579D01*
X151914733Y-74675580D01*
X151914731Y-74675582D01*
X151864447Y-74744790D01*
X151797647Y-74836733D01*
X151720485Y-74988172D01*
X151672510Y-75038968D01*
X151604689Y-75055763D01*
X151538554Y-75033225D01*
X151499515Y-74988172D01*
X151422485Y-74836994D01*
X151422353Y-74836734D01*
X151305269Y-74675582D01*
X151164418Y-74534731D01*
X151164417Y-74534730D01*
X151091613Y-74481834D01*
X151048948Y-74426504D01*
X151040500Y-74381517D01*
X151040500Y-71901004D01*
X151013581Y-71765677D01*
X151013580Y-71765676D01*
X151013580Y-71765672D01*
X151013578Y-71765667D01*
X150960777Y-71638192D01*
X150884112Y-71523454D01*
X150884111Y-71523453D01*
X132599544Y-53238887D01*
X132566059Y-53177564D01*
X132569294Y-53112888D01*
X132573799Y-53099026D01*
X132610500Y-52867305D01*
X132610500Y-52632695D01*
X132573799Y-52400974D01*
X132501301Y-52177847D01*
X132394790Y-51968808D01*
X132336132Y-51888072D01*
X132256895Y-51779010D01*
X132256891Y-51779005D01*
X132090992Y-51613106D01*
X132045863Y-51580319D01*
X132003196Y-51524989D01*
X131997216Y-51455376D01*
X132029822Y-51393581D01*
X132045863Y-51379681D01*
X132090992Y-51346893D01*
X132090992Y-51346892D01*
X132090996Y-51346890D01*
X132256890Y-51180996D01*
X132394790Y-50991192D01*
X132501301Y-50782153D01*
X132501300Y-50782153D01*
X132503513Y-50777812D01*
X132505299Y-50778722D01*
X132543803Y-50730892D01*
X132610086Y-50708793D01*
X132677794Y-50726038D01*
X132702256Y-50745031D01*
X136852335Y-54895111D01*
X136852336Y-54895112D01*
X136967074Y-54971777D01*
X137094549Y-55024578D01*
X137094554Y-55024580D01*
X137094558Y-55024580D01*
X137094559Y-55024581D01*
X137229885Y-55051500D01*
X137229888Y-55051500D01*
X165882114Y-55051500D01*
X165973158Y-55033389D01*
X166017446Y-55024580D01*
X166081187Y-54998177D01*
X166144925Y-54971777D01*
X166144926Y-54971776D01*
X166144929Y-54971775D01*
X166259661Y-54895114D01*
X174072640Y-47082135D01*
X185062000Y-47082135D01*
X185062000Y-49577870D01*
X185062001Y-49577876D01*
X185068408Y-49637483D01*
X185118702Y-49772328D01*
X185118706Y-49772335D01*
X185204952Y-49887544D01*
X185204955Y-49887547D01*
X185320164Y-49973793D01*
X185320171Y-49973797D01*
X185455017Y-50024091D01*
X185455016Y-50024091D01*
X185461944Y-50024835D01*
X185514627Y-50030500D01*
X188010372Y-50030499D01*
X188069983Y-50024091D01*
X188204831Y-49973796D01*
X188320046Y-49887546D01*
X188406296Y-49772331D01*
X188456591Y-49637483D01*
X188463000Y-49577873D01*
X188462999Y-47082128D01*
X188456591Y-47022517D01*
X188415765Y-46913058D01*
X188406297Y-46887671D01*
X188406293Y-46887664D01*
X188320047Y-46772455D01*
X188320044Y-46772452D01*
X188204835Y-46686206D01*
X188204828Y-46686202D01*
X188069982Y-46635908D01*
X188069983Y-46635908D01*
X188010383Y-46629501D01*
X188010381Y-46629500D01*
X188010373Y-46629500D01*
X188010364Y-46629500D01*
X185514629Y-46629500D01*
X185514623Y-46629501D01*
X185455016Y-46635908D01*
X185320171Y-46686202D01*
X185320164Y-46686206D01*
X185204955Y-46772452D01*
X185204952Y-46772455D01*
X185118706Y-46887664D01*
X185118702Y-46887671D01*
X185068408Y-47022517D01*
X185062001Y-47082116D01*
X185062001Y-47082123D01*
X185062000Y-47082135D01*
X174072640Y-47082135D01*
X177167956Y-43986819D01*
X177229279Y-43953334D01*
X177255637Y-43950500D01*
X185131773Y-43950500D01*
X185198812Y-43970185D01*
X185239160Y-44012499D01*
X185345552Y-44196774D01*
X185345557Y-44196780D01*
X185345558Y-44196782D01*
X185481251Y-44373622D01*
X185481257Y-44373629D01*
X185638870Y-44531242D01*
X185638877Y-44531248D01*
X185764794Y-44627867D01*
X185815726Y-44666948D01*
X186008774Y-44778405D01*
X186214719Y-44863710D01*
X186430037Y-44921404D01*
X186651043Y-44950500D01*
X186651050Y-44950500D01*
X186873950Y-44950500D01*
X186873957Y-44950500D01*
X187094963Y-44921404D01*
X187310281Y-44863710D01*
X187516226Y-44778405D01*
X187709274Y-44666948D01*
X187886124Y-44531247D01*
X188043747Y-44373624D01*
X188179448Y-44196774D01*
X188290905Y-44003726D01*
X188376210Y-43797781D01*
X188433904Y-43582463D01*
X188463000Y-43361457D01*
X188463000Y-43138543D01*
X188433904Y-42917537D01*
X188376210Y-42702219D01*
X188290905Y-42496274D01*
X188179448Y-42303226D01*
X188043747Y-42126376D01*
X188043742Y-42126370D01*
X187886129Y-41968757D01*
X187886122Y-41968751D01*
X187709282Y-41833058D01*
X187709280Y-41833057D01*
X187709274Y-41833052D01*
X187516226Y-41721595D01*
X187516222Y-41721593D01*
X187310290Y-41636293D01*
X187310283Y-41636291D01*
X187310281Y-41636290D01*
X187094963Y-41578596D01*
X187094957Y-41578595D01*
X187094952Y-41578594D01*
X186873966Y-41549501D01*
X186873963Y-41549500D01*
X186873957Y-41549500D01*
X186651043Y-41549500D01*
X186651037Y-41549500D01*
X186651033Y-41549501D01*
X186430047Y-41578594D01*
X186430040Y-41578595D01*
X186430037Y-41578596D01*
X186327002Y-41606204D01*
X186214719Y-41636290D01*
X186214709Y-41636293D01*
X186008777Y-41721593D01*
X186008773Y-41721595D01*
X185815726Y-41833052D01*
X185815717Y-41833058D01*
X185638877Y-41968751D01*
X185638870Y-41968757D01*
X185481257Y-42126370D01*
X185481251Y-42126377D01*
X185345558Y-42303217D01*
X185345552Y-42303226D01*
X185239160Y-42487501D01*
X185188592Y-42535716D01*
X185131773Y-42549500D01*
X176845122Y-42549500D01*
X176709795Y-42576418D01*
X176709785Y-42576421D01*
X176582310Y-42629222D01*
X176467572Y-42705887D01*
X176467571Y-42705888D01*
X165559280Y-53614181D01*
X165497957Y-53647666D01*
X165471599Y-53650500D01*
X149922362Y-53650500D01*
X149855323Y-53630815D01*
X149809568Y-53578011D01*
X149799624Y-53508853D01*
X149828649Y-53445297D01*
X149834681Y-53438819D01*
X149949461Y-53324038D01*
X149949464Y-53324035D01*
X150048013Y-53176547D01*
X150115894Y-53012666D01*
X150142797Y-52877408D01*
X150175180Y-52815503D01*
X150176676Y-52813979D01*
X152938925Y-50051730D01*
X153000246Y-50018247D01*
X153002237Y-50017831D01*
X153137666Y-49990894D01*
X153287303Y-49928913D01*
X153301540Y-49923016D01*
X153301540Y-49923015D01*
X153301547Y-49923013D01*
X153449035Y-49824464D01*
X153574464Y-49699035D01*
X153673013Y-49551547D01*
X153740894Y-49387666D01*
X153749161Y-49346109D01*
X153775499Y-49213695D01*
X153775500Y-49213693D01*
X153775500Y-49036306D01*
X153775499Y-49036304D01*
X153740896Y-48862341D01*
X153740893Y-48862332D01*
X153673016Y-48698459D01*
X153673012Y-48698452D01*
X153648965Y-48662463D01*
X153619516Y-48618390D01*
X153598639Y-48551714D01*
X153617123Y-48484334D01*
X153669102Y-48437643D01*
X153722619Y-48425500D01*
X164862195Y-48425500D01*
X165083805Y-48390400D01*
X165297202Y-48321063D01*
X165497125Y-48219197D01*
X165498025Y-48218543D01*
X165678651Y-48087311D01*
X165837311Y-47928651D01*
X165837312Y-47928649D01*
X165844372Y-47921589D01*
X165844377Y-47921582D01*
X174797311Y-38968651D01*
X174929197Y-38787125D01*
X175031063Y-38587202D01*
X175100400Y-38373805D01*
X175135501Y-38152189D01*
X175135501Y-37927810D01*
X175135501Y-37923409D01*
X175135500Y-37923394D01*
X175135500Y-35628711D01*
X186399500Y-35628711D01*
X186399500Y-35871288D01*
X186431161Y-36111785D01*
X186493947Y-36346104D01*
X186583374Y-36562000D01*
X186586776Y-36570212D01*
X186708064Y-36780289D01*
X186708066Y-36780292D01*
X186708067Y-36780293D01*
X186855733Y-36972736D01*
X186855739Y-36972743D01*
X187027256Y-37144260D01*
X187027262Y-37144265D01*
X187219711Y-37291936D01*
X187429788Y-37413224D01*
X187653900Y-37506054D01*
X187888211Y-37568838D01*
X188068586Y-37592584D01*
X188128711Y-37600500D01*
X188128712Y-37600500D01*
X188371289Y-37600500D01*
X188419388Y-37594167D01*
X188611789Y-37568838D01*
X188846100Y-37506054D01*
X189070212Y-37413224D01*
X189280289Y-37291936D01*
X189472738Y-37144265D01*
X189644265Y-36972738D01*
X189791936Y-36780289D01*
X189913224Y-36570212D01*
X190006054Y-36346100D01*
X190068838Y-36111789D01*
X190100500Y-35871288D01*
X190100500Y-35628712D01*
X190068838Y-35388211D01*
X190006054Y-35153900D01*
X189913224Y-34929788D01*
X189791936Y-34719711D01*
X189644265Y-34527262D01*
X189644260Y-34527256D01*
X189472743Y-34355739D01*
X189472736Y-34355733D01*
X189280293Y-34208067D01*
X189280292Y-34208066D01*
X189280289Y-34208064D01*
X189108661Y-34108974D01*
X189070214Y-34086777D01*
X189070205Y-34086773D01*
X188846104Y-33993947D01*
X188611785Y-33931161D01*
X188371289Y-33899500D01*
X188371288Y-33899500D01*
X188128712Y-33899500D01*
X188128711Y-33899500D01*
X187888214Y-33931161D01*
X187653895Y-33993947D01*
X187429794Y-34086773D01*
X187429785Y-34086777D01*
X187219706Y-34208067D01*
X187027263Y-34355733D01*
X187027256Y-34355739D01*
X186855739Y-34527256D01*
X186855733Y-34527263D01*
X186708067Y-34719706D01*
X186586777Y-34929785D01*
X186586773Y-34929794D01*
X186493947Y-35153895D01*
X186431161Y-35388214D01*
X186399500Y-35628711D01*
X175135500Y-35628711D01*
X175135500Y-35024047D01*
X175155185Y-34957008D01*
X175207989Y-34911253D01*
X175277147Y-34901309D01*
X175340703Y-34930334D01*
X175347181Y-34936366D01*
X175402786Y-34991971D01*
X175557749Y-35104556D01*
X175568390Y-35112287D01*
X175657844Y-35157866D01*
X175750776Y-35205218D01*
X175750778Y-35205218D01*
X175750781Y-35205220D01*
X175855137Y-35239127D01*
X175945465Y-35268477D01*
X175980639Y-35274048D01*
X176147648Y-35300500D01*
X176147649Y-35300500D01*
X176352351Y-35300500D01*
X176352352Y-35300500D01*
X176554534Y-35268477D01*
X176749219Y-35205220D01*
X176931610Y-35112287D01*
X177024590Y-35044732D01*
X177097213Y-34991971D01*
X177097215Y-34991968D01*
X177097219Y-34991966D01*
X177241966Y-34847219D01*
X177241968Y-34847215D01*
X177241971Y-34847213D01*
X177334605Y-34719711D01*
X177362287Y-34681610D01*
X177455220Y-34499219D01*
X177518477Y-34304534D01*
X177550500Y-34102352D01*
X177550500Y-33897648D01*
X177536600Y-33809890D01*
X177518477Y-33695465D01*
X177455218Y-33500776D01*
X177389597Y-33371989D01*
X177362287Y-33318390D01*
X177318005Y-33257440D01*
X177241971Y-33152786D01*
X177097213Y-33008028D01*
X176931613Y-32887715D01*
X176931612Y-32887714D01*
X176931610Y-32887713D01*
X176865127Y-32853838D01*
X176749223Y-32794781D01*
X176554534Y-32731522D01*
X176379995Y-32703878D01*
X176352352Y-32699500D01*
X176147648Y-32699500D01*
X176123329Y-32703351D01*
X175945465Y-32731522D01*
X175750776Y-32794781D01*
X175568386Y-32887715D01*
X175402788Y-33008027D01*
X175270664Y-33140151D01*
X175241330Y-33156168D01*
X175212420Y-33172924D01*
X175210781Y-33172848D01*
X175209341Y-33173635D01*
X175175997Y-33171250D01*
X175142624Y-33169717D01*
X175141286Y-33168768D01*
X175139649Y-33168651D01*
X175112891Y-33148620D01*
X175085642Y-33129285D01*
X175084692Y-33127510D01*
X175083716Y-33126779D01*
X175067943Y-33098749D01*
X175066363Y-33094823D01*
X175031063Y-32986179D01*
X174993618Y-32912689D01*
X174929197Y-32786255D01*
X174809223Y-32621126D01*
X174809223Y-32621125D01*
X174797311Y-32604730D01*
X174797307Y-32604725D01*
X174635555Y-32442973D01*
X174635524Y-32442944D01*
X173142270Y-30949690D01*
X173142261Y-30949680D01*
X173136459Y-30943878D01*
X172979270Y-30786689D01*
X172979266Y-30786686D01*
X172979262Y-30786682D01*
X172900263Y-30729286D01*
X172857597Y-30673956D01*
X172851618Y-30604343D01*
X172884224Y-30542548D01*
X172945062Y-30508191D01*
X172973113Y-30504968D01*
X189746961Y-30501403D01*
X189753019Y-30501551D01*
G37*
%TD.AperFunction*%
%TA.AperFunction,Conductor*%
G36*
X138694417Y-76200863D02*
G01*
X138694418Y-76200863D01*
X138721924Y-76163005D01*
X138799234Y-76011277D01*
X138847208Y-75960481D01*
X138915029Y-75943686D01*
X138981164Y-75966223D01*
X139020204Y-76011277D01*
X139069443Y-76107913D01*
X139097647Y-76163266D01*
X139214731Y-76324418D01*
X139355582Y-76465269D01*
X139516734Y-76582353D01*
X139664499Y-76657643D01*
X139694219Y-76672786D01*
X139883657Y-76734338D01*
X139883658Y-76734338D01*
X139883661Y-76734339D01*
X140080403Y-76765500D01*
X140080404Y-76765500D01*
X140279596Y-76765500D01*
X140279597Y-76765500D01*
X140476339Y-76734339D01*
X140476342Y-76734338D01*
X140476343Y-76734338D01*
X140665780Y-76672786D01*
X140665780Y-76672785D01*
X140665783Y-76672785D01*
X140843266Y-76582353D01*
X141004418Y-76465269D01*
X141145269Y-76324418D01*
X141262353Y-76163266D01*
X141339515Y-76011827D01*
X141387490Y-75961031D01*
X141455311Y-75944236D01*
X141521446Y-75966773D01*
X141560485Y-76011827D01*
X141637647Y-76163266D01*
X141754731Y-76324418D01*
X141895582Y-76465269D01*
X142056734Y-76582353D01*
X142204499Y-76657643D01*
X142234219Y-76672786D01*
X142423657Y-76734338D01*
X142423658Y-76734338D01*
X142423661Y-76734339D01*
X142620403Y-76765500D01*
X142620404Y-76765500D01*
X142819596Y-76765500D01*
X142819597Y-76765500D01*
X143016339Y-76734339D01*
X143181183Y-76680777D01*
X143251022Y-76678783D01*
X143310855Y-76714863D01*
X143341684Y-76777564D01*
X143343500Y-76798709D01*
X143343500Y-97075006D01*
X143343500Y-97212994D01*
X143343500Y-97212996D01*
X143343499Y-97212996D01*
X143370418Y-97348322D01*
X143370421Y-97348332D01*
X143423222Y-97475807D01*
X143499887Y-97590545D01*
X143499888Y-97590546D01*
X145332162Y-99422819D01*
X145340427Y-99437956D01*
X145352741Y-99450037D01*
X145356825Y-99467986D01*
X145365647Y-99484142D01*
X145364416Y-99501345D01*
X145368244Y-99518165D01*
X145361976Y-99535472D01*
X145360663Y-99553834D01*
X145350326Y-99567641D01*
X145344453Y-99583860D01*
X145329821Y-99595032D01*
X145318791Y-99609767D01*
X145302402Y-99615968D01*
X145288921Y-99626263D01*
X145262028Y-99631247D01*
X145254507Y-99634094D01*
X145249502Y-99634500D01*
X145160403Y-99634500D01*
X145066857Y-99649316D01*
X145062148Y-99649698D01*
X145032382Y-99643519D01*
X145002227Y-99639623D01*
X144997266Y-99636230D01*
X144993736Y-99635498D01*
X144988081Y-99629950D01*
X144964441Y-99613785D01*
X134620819Y-89270162D01*
X134587334Y-89208839D01*
X134584500Y-89182481D01*
X134584500Y-76833800D01*
X134604185Y-76766761D01*
X134656989Y-76721006D01*
X134726147Y-76711062D01*
X134746817Y-76715869D01*
X134762626Y-76721006D01*
X134803653Y-76734337D01*
X134803656Y-76734337D01*
X134803661Y-76734339D01*
X135000403Y-76765500D01*
X135000404Y-76765500D01*
X135199596Y-76765500D01*
X135199597Y-76765500D01*
X135396339Y-76734339D01*
X135396342Y-76734338D01*
X135396343Y-76734338D01*
X135585780Y-76672786D01*
X135585780Y-76672785D01*
X135585783Y-76672785D01*
X135763266Y-76582353D01*
X135924418Y-76465269D01*
X136065269Y-76324418D01*
X136182353Y-76163266D01*
X136259795Y-76011276D01*
X136307769Y-75960481D01*
X136375590Y-75943686D01*
X136441725Y-75966223D01*
X136480765Y-76011277D01*
X136558077Y-76163008D01*
X136585580Y-76200863D01*
X136585581Y-76200864D01*
X137148871Y-75637574D01*
X137164755Y-75696853D01*
X137231898Y-75813147D01*
X137326853Y-75908102D01*
X137443147Y-75975245D01*
X137502425Y-75991128D01*
X136939134Y-76554417D01*
X136976994Y-76581924D01*
X137154405Y-76672320D01*
X137343777Y-76733852D01*
X137540437Y-76765000D01*
X137739563Y-76765000D01*
X137936222Y-76733852D01*
X138125594Y-76672320D01*
X138303005Y-76581924D01*
X138340863Y-76554418D01*
X138340863Y-76554417D01*
X137777574Y-75991128D01*
X137836853Y-75975245D01*
X137953147Y-75908102D01*
X138048102Y-75813147D01*
X138115245Y-75696853D01*
X138131128Y-75637574D01*
X138694417Y-76200863D01*
G37*
%TD.AperFunction*%
%TA.AperFunction,Conductor*%
G36*
X132755617Y-63016540D02*
G01*
X132806668Y-63047325D01*
X136974726Y-67215383D01*
X137008211Y-67276706D01*
X137003227Y-67346398D01*
X136961355Y-67402331D01*
X136925364Y-67420995D01*
X136835795Y-67450097D01*
X136625430Y-67557284D01*
X136542494Y-67617540D01*
X137241366Y-68316412D01*
X137199308Y-68327682D01*
X137073892Y-68400090D01*
X136971490Y-68502492D01*
X136899082Y-68627908D01*
X136887812Y-68669966D01*
X136188940Y-67971094D01*
X136128684Y-68054030D01*
X136021497Y-68264397D01*
X135948534Y-68488952D01*
X135911600Y-68722147D01*
X135911600Y-68958252D01*
X135948534Y-69191447D01*
X136021497Y-69416002D01*
X136128687Y-69626374D01*
X136188938Y-69709304D01*
X136188940Y-69709305D01*
X136887812Y-69010433D01*
X136899082Y-69052492D01*
X136971490Y-69177908D01*
X137073892Y-69280310D01*
X137199308Y-69352718D01*
X137241365Y-69363987D01*
X136542493Y-70062858D01*
X136625428Y-70123114D01*
X136835797Y-70230302D01*
X137060352Y-70303265D01*
X137060351Y-70303265D01*
X137293548Y-70340200D01*
X137529652Y-70340200D01*
X137762847Y-70303265D01*
X137987402Y-70230302D01*
X138197763Y-70123118D01*
X138197769Y-70123114D01*
X138280704Y-70062858D01*
X138280705Y-70062858D01*
X137581833Y-69363987D01*
X137623892Y-69352718D01*
X137749308Y-69280310D01*
X137851710Y-69177908D01*
X137924118Y-69052492D01*
X137935387Y-69010433D01*
X138634258Y-69709305D01*
X138634258Y-69709304D01*
X138694514Y-69626369D01*
X138694518Y-69626363D01*
X138801703Y-69416001D01*
X138830804Y-69326437D01*
X138870241Y-69268761D01*
X138934599Y-69241562D01*
X139003446Y-69253476D01*
X139036416Y-69277073D01*
X143307181Y-73547838D01*
X143340666Y-73609161D01*
X143343500Y-73635519D01*
X143343500Y-74201289D01*
X143323815Y-74268328D01*
X143271011Y-74314083D01*
X143201853Y-74324027D01*
X143181183Y-74319220D01*
X143016347Y-74265662D01*
X143016340Y-74265661D01*
X142917731Y-74250043D01*
X142819597Y-74234500D01*
X142620403Y-74234500D01*
X142554822Y-74244887D01*
X142423659Y-74265661D01*
X142423656Y-74265661D01*
X142234219Y-74327213D01*
X142056733Y-74417647D01*
X142018286Y-74445581D01*
X141895582Y-74534731D01*
X141895580Y-74534733D01*
X141895579Y-74534733D01*
X141754733Y-74675579D01*
X141754733Y-74675580D01*
X141754731Y-74675582D01*
X141704447Y-74744790D01*
X141637647Y-74836733D01*
X141560485Y-74988172D01*
X141512510Y-75038968D01*
X141444689Y-75055763D01*
X141378554Y-75033225D01*
X141339515Y-74988172D01*
X141262485Y-74836994D01*
X141262353Y-74836734D01*
X141145269Y-74675582D01*
X141004418Y-74534731D01*
X140843266Y-74417647D01*
X140772357Y-74381517D01*
X140665780Y-74327213D01*
X140476342Y-74265661D01*
X140328782Y-74242290D01*
X140279597Y-74234500D01*
X140080403Y-74234500D01*
X140014822Y-74244887D01*
X139883659Y-74265661D01*
X139883656Y-74265661D01*
X139694219Y-74327213D01*
X139516733Y-74417647D01*
X139478286Y-74445581D01*
X139355582Y-74534731D01*
X139355580Y-74534733D01*
X139355579Y-74534733D01*
X139214733Y-74675579D01*
X139214733Y-74675580D01*
X139214731Y-74675582D01*
X139179555Y-74723997D01*
X139097645Y-74836735D01*
X139020203Y-74988723D01*
X138972229Y-75039518D01*
X138904408Y-75056313D01*
X138838273Y-75033775D01*
X138799234Y-74988722D01*
X138721924Y-74836994D01*
X138694417Y-74799135D01*
X138694417Y-74799134D01*
X138131128Y-75362424D01*
X138115245Y-75303147D01*
X138048102Y-75186853D01*
X137953147Y-75091898D01*
X137836853Y-75024755D01*
X137777574Y-75008871D01*
X138340864Y-74445581D01*
X138340863Y-74445580D01*
X138303008Y-74418077D01*
X138125594Y-74327679D01*
X137936222Y-74266147D01*
X137739563Y-74235000D01*
X137540437Y-74235000D01*
X137343777Y-74266147D01*
X137154405Y-74327679D01*
X136976990Y-74418077D01*
X136939135Y-74445580D01*
X136939135Y-74445581D01*
X137502425Y-75008871D01*
X137443147Y-75024755D01*
X137326853Y-75091898D01*
X137231898Y-75186853D01*
X137164755Y-75303147D01*
X137148871Y-75362425D01*
X136585581Y-74799135D01*
X136585580Y-74799135D01*
X136558075Y-74836993D01*
X136480764Y-74988723D01*
X136432790Y-75039518D01*
X136364969Y-75056313D01*
X136298834Y-75033775D01*
X136259795Y-74988722D01*
X136182485Y-74836994D01*
X136182353Y-74836734D01*
X136065269Y-74675582D01*
X135924418Y-74534731D01*
X135763266Y-74417647D01*
X135692357Y-74381517D01*
X135585780Y-74327213D01*
X135396342Y-74265661D01*
X135248782Y-74242290D01*
X135199597Y-74234500D01*
X135000403Y-74234500D01*
X134934822Y-74244887D01*
X134803659Y-74265661D01*
X134803652Y-74265662D01*
X134746817Y-74284129D01*
X134676976Y-74286124D01*
X134617143Y-74250043D01*
X134586316Y-74187341D01*
X134584500Y-74166198D01*
X134584500Y-68145004D01*
X134557581Y-68009677D01*
X134557580Y-68009676D01*
X134557580Y-68009672D01*
X134504775Y-67882189D01*
X134458819Y-67813412D01*
X134458693Y-67813223D01*
X134428116Y-67767459D01*
X132599544Y-65938887D01*
X132566059Y-65877564D01*
X132569294Y-65812888D01*
X132573799Y-65799026D01*
X132610500Y-65567305D01*
X132610500Y-65332695D01*
X132573799Y-65100974D01*
X132507344Y-64896446D01*
X132501302Y-64877849D01*
X132395832Y-64670854D01*
X132394790Y-64668808D01*
X132377171Y-64644558D01*
X132256895Y-64479010D01*
X132256891Y-64479005D01*
X132090992Y-64313106D01*
X132045863Y-64280319D01*
X132003196Y-64224989D01*
X131997216Y-64155376D01*
X132029822Y-64093581D01*
X132045863Y-64079681D01*
X132090992Y-64046893D01*
X132090992Y-64046892D01*
X132090996Y-64046890D01*
X132256890Y-63880996D01*
X132394790Y-63691192D01*
X132501301Y-63482153D01*
X132573799Y-63259026D01*
X132596514Y-63115607D01*
X132626443Y-63052474D01*
X132685754Y-63015542D01*
X132755617Y-63016540D01*
G37*
%TD.AperFunction*%
%TA.AperFunction,Conductor*%
G36*
X119875703Y-46267516D02*
G01*
X119882181Y-46273548D01*
X121337049Y-47728416D01*
X121441584Y-47832951D01*
X121441587Y-47832953D01*
X121441588Y-47832954D01*
X121564494Y-47915077D01*
X121564496Y-47915078D01*
X121564505Y-47915084D01*
X121597257Y-47928650D01*
X121597258Y-47928651D01*
X121597259Y-47928651D01*
X121701088Y-47971659D01*
X121817241Y-47994763D01*
X121831237Y-47997547D01*
X121846081Y-48000500D01*
X129501501Y-48000500D01*
X129568540Y-48020185D01*
X129614295Y-48072989D01*
X129624239Y-48142147D01*
X129595214Y-48205703D01*
X129578612Y-48220348D01*
X129579165Y-48221022D01*
X129574453Y-48224888D01*
X117566668Y-60232674D01*
X117505345Y-60266159D01*
X117435653Y-60261175D01*
X117379720Y-60219303D01*
X117356514Y-60164391D01*
X117333799Y-60020974D01*
X117288355Y-59881111D01*
X117261302Y-59797849D01*
X117261301Y-59797847D01*
X117154790Y-59588808D01*
X117067000Y-59467975D01*
X117016895Y-59399010D01*
X117016891Y-59399005D01*
X116850992Y-59233106D01*
X116805863Y-59200319D01*
X116763196Y-59144989D01*
X116757216Y-59075376D01*
X116789822Y-59013581D01*
X116805863Y-58999681D01*
X116850992Y-58966893D01*
X116850992Y-58966892D01*
X116850996Y-58966890D01*
X117016890Y-58800996D01*
X117154790Y-58611192D01*
X117261301Y-58402153D01*
X117333799Y-58179026D01*
X117370500Y-57947305D01*
X117370500Y-57712695D01*
X117333799Y-57480974D01*
X117261301Y-57257847D01*
X117154790Y-57048808D01*
X117137171Y-57024558D01*
X117016895Y-56859010D01*
X117016891Y-56859005D01*
X116850998Y-56693112D01*
X116850992Y-56693107D01*
X116790058Y-56648836D01*
X116747392Y-56593506D01*
X116739325Y-56538788D01*
X116741945Y-56505499D01*
X116135141Y-55898695D01*
X116192627Y-55874884D01*
X116300725Y-55802655D01*
X116392655Y-55710725D01*
X116464884Y-55602627D01*
X116488695Y-55545142D01*
X117095499Y-56151946D01*
X117095499Y-56151945D01*
X117154361Y-56070930D01*
X117260835Y-55861965D01*
X117333310Y-55638909D01*
X117370000Y-55407265D01*
X117370000Y-55172734D01*
X117333310Y-54941090D01*
X117260835Y-54718034D01*
X117154359Y-54509066D01*
X117095500Y-54428053D01*
X117095499Y-54428052D01*
X116488694Y-55034857D01*
X116464884Y-54977373D01*
X116392655Y-54869275D01*
X116300725Y-54777345D01*
X116192627Y-54705116D01*
X116135141Y-54681304D01*
X116741945Y-54074499D01*
X116739325Y-54041211D01*
X116753689Y-53972834D01*
X116790056Y-53931164D01*
X116850996Y-53886890D01*
X117016890Y-53720996D01*
X117154790Y-53531192D01*
X117261301Y-53322153D01*
X117333799Y-53099026D01*
X117370500Y-52867305D01*
X117370500Y-52632695D01*
X117337747Y-52425903D01*
X117346701Y-52356613D01*
X117372536Y-52318830D01*
X119502951Y-50188416D01*
X119585084Y-50065495D01*
X119641658Y-49928913D01*
X119662435Y-49824464D01*
X119670500Y-49783920D01*
X119670500Y-46361229D01*
X119690185Y-46294190D01*
X119742989Y-46248435D01*
X119812147Y-46238491D01*
X119875703Y-46267516D01*
G37*
%TD.AperFunction*%
%TA.AperFunction,Conductor*%
G36*
X126921873Y-33319185D02*
G01*
X126967628Y-33371989D01*
X126977572Y-33441147D01*
X126965319Y-33479795D01*
X126859897Y-33686697D01*
X126786934Y-33911252D01*
X126750000Y-34144447D01*
X126750000Y-34380552D01*
X126786934Y-34613747D01*
X126859897Y-34838302D01*
X126967087Y-35048674D01*
X127027338Y-35131604D01*
X127027340Y-35131605D01*
X127726212Y-34432733D01*
X127737482Y-34474792D01*
X127809890Y-34600208D01*
X127912292Y-34702610D01*
X128037708Y-34775018D01*
X128079765Y-34786287D01*
X127380893Y-35485158D01*
X127463828Y-35545414D01*
X127674197Y-35652602D01*
X127898752Y-35725565D01*
X127898751Y-35725565D01*
X128131948Y-35762500D01*
X128368052Y-35762500D01*
X128601247Y-35725565D01*
X128825802Y-35652602D01*
X129036163Y-35545418D01*
X129036169Y-35545414D01*
X129119104Y-35485158D01*
X129119105Y-35485158D01*
X128420233Y-34786287D01*
X128462292Y-34775018D01*
X128587708Y-34702610D01*
X128690110Y-34600208D01*
X128762518Y-34474792D01*
X128773787Y-34432734D01*
X129472658Y-35131605D01*
X129472658Y-35131604D01*
X129532914Y-35048669D01*
X129532918Y-35048663D01*
X129640102Y-34838302D01*
X129713065Y-34613747D01*
X129750000Y-34380552D01*
X129750000Y-34144447D01*
X129713065Y-33911252D01*
X129640102Y-33686697D01*
X129534681Y-33479795D01*
X129521785Y-33411126D01*
X129548061Y-33346385D01*
X129605168Y-33306128D01*
X129645166Y-33299500D01*
X133354834Y-33299500D01*
X133421873Y-33319185D01*
X133467628Y-33371989D01*
X133477572Y-33441147D01*
X133465319Y-33479795D01*
X133359897Y-33686697D01*
X133286934Y-33911252D01*
X133250000Y-34144447D01*
X133250000Y-34380552D01*
X133286934Y-34613747D01*
X133359897Y-34838302D01*
X133467087Y-35048674D01*
X133527338Y-35131604D01*
X133527340Y-35131605D01*
X134226212Y-34432733D01*
X134237482Y-34474792D01*
X134309890Y-34600208D01*
X134412292Y-34702610D01*
X134537708Y-34775018D01*
X134579765Y-34786287D01*
X133880893Y-35485158D01*
X133963828Y-35545414D01*
X134174197Y-35652602D01*
X134398752Y-35725565D01*
X134398751Y-35725565D01*
X134631948Y-35762500D01*
X134868052Y-35762500D01*
X135101247Y-35725565D01*
X135325802Y-35652602D01*
X135536163Y-35545418D01*
X135536169Y-35545414D01*
X135619104Y-35485158D01*
X135619105Y-35485158D01*
X134920233Y-34786287D01*
X134962292Y-34775018D01*
X135087708Y-34702610D01*
X135190110Y-34600208D01*
X135262518Y-34474792D01*
X135273787Y-34432734D01*
X135972658Y-35131605D01*
X135972658Y-35131604D01*
X136032914Y-35048669D01*
X136032918Y-35048663D01*
X136140102Y-34838302D01*
X136213065Y-34613747D01*
X136250000Y-34380552D01*
X136250000Y-34144447D01*
X136213065Y-33911252D01*
X136140102Y-33686697D01*
X136034681Y-33479795D01*
X136021785Y-33411126D01*
X136048061Y-33346385D01*
X136105168Y-33306128D01*
X136145166Y-33299500D01*
X138138465Y-33299500D01*
X138205504Y-33319185D01*
X138251259Y-33371989D01*
X138261203Y-33441147D01*
X138248950Y-33479795D01*
X138149897Y-33674197D01*
X138076934Y-33898752D01*
X138040000Y-34131947D01*
X138040000Y-34368052D01*
X138076934Y-34601247D01*
X138149897Y-34825802D01*
X138257087Y-35036174D01*
X138317338Y-35119104D01*
X138317340Y-35119105D01*
X139016212Y-34420233D01*
X139027482Y-34462292D01*
X139099890Y-34587708D01*
X139202292Y-34690110D01*
X139327708Y-34762518D01*
X139369765Y-34773787D01*
X138670893Y-35472658D01*
X138753828Y-35532914D01*
X138964197Y-35640102D01*
X139188752Y-35713065D01*
X139188751Y-35713065D01*
X139421948Y-35750000D01*
X139658052Y-35750000D01*
X139891247Y-35713065D01*
X140115802Y-35640102D01*
X140326163Y-35532918D01*
X140326169Y-35532914D01*
X140409104Y-35472658D01*
X140409105Y-35472658D01*
X139710233Y-34773787D01*
X139752292Y-34762518D01*
X139877708Y-34690110D01*
X139980110Y-34587708D01*
X140052518Y-34462292D01*
X140063787Y-34420234D01*
X140762658Y-35119105D01*
X140762658Y-35119104D01*
X140822914Y-35036169D01*
X140822918Y-35036163D01*
X140930102Y-34825802D01*
X141003065Y-34601247D01*
X141040000Y-34368052D01*
X141040000Y-34131947D01*
X141003065Y-33898752D01*
X140930102Y-33674197D01*
X140831050Y-33479795D01*
X140818154Y-33411126D01*
X140844430Y-33346385D01*
X140901537Y-33306128D01*
X140941535Y-33299500D01*
X144638465Y-33299500D01*
X144705504Y-33319185D01*
X144751259Y-33371989D01*
X144761203Y-33441147D01*
X144748950Y-33479795D01*
X144649897Y-33674197D01*
X144576934Y-33898752D01*
X144540000Y-34131947D01*
X144540000Y-34368052D01*
X144576934Y-34601247D01*
X144649897Y-34825802D01*
X144757087Y-35036174D01*
X144817338Y-35119104D01*
X144817340Y-35119105D01*
X145516212Y-34420233D01*
X145527482Y-34462292D01*
X145599890Y-34587708D01*
X145702292Y-34690110D01*
X145827708Y-34762518D01*
X145869765Y-34773787D01*
X145170893Y-35472658D01*
X145253828Y-35532914D01*
X145464197Y-35640102D01*
X145688752Y-35713065D01*
X145688751Y-35713065D01*
X145921948Y-35750000D01*
X146158052Y-35750000D01*
X146391247Y-35713065D01*
X146615802Y-35640102D01*
X146826163Y-35532918D01*
X146826169Y-35532914D01*
X146909104Y-35472658D01*
X146909105Y-35472658D01*
X146210233Y-34773787D01*
X146252292Y-34762518D01*
X146377708Y-34690110D01*
X146480110Y-34587708D01*
X146552518Y-34462292D01*
X146563787Y-34420234D01*
X147262658Y-35119105D01*
X147262658Y-35119104D01*
X147322914Y-35036169D01*
X147322918Y-35036163D01*
X147430102Y-34825802D01*
X147503065Y-34601247D01*
X147540000Y-34368052D01*
X147540000Y-34131947D01*
X147503065Y-33898752D01*
X147430102Y-33674197D01*
X147331050Y-33479795D01*
X147318154Y-33411126D01*
X147344430Y-33346385D01*
X147401537Y-33306128D01*
X147441535Y-33299500D01*
X169628403Y-33299500D01*
X169695442Y-33319185D01*
X169741197Y-33371989D01*
X169751141Y-33441147D01*
X169722116Y-33504703D01*
X169716084Y-33511181D01*
X166701584Y-36525681D01*
X166640261Y-36559166D01*
X166613903Y-36562000D01*
X160508465Y-36562000D01*
X160441426Y-36542315D01*
X160409198Y-36512311D01*
X160347546Y-36429954D01*
X160273153Y-36374263D01*
X160232335Y-36343706D01*
X160232328Y-36343702D01*
X160097482Y-36293408D01*
X160097483Y-36293408D01*
X160037883Y-36287001D01*
X160037881Y-36287000D01*
X160037873Y-36287000D01*
X160037864Y-36287000D01*
X157542129Y-36287000D01*
X157542123Y-36287001D01*
X157482516Y-36293408D01*
X157347671Y-36343702D01*
X157347664Y-36343706D01*
X157232455Y-36429952D01*
X157232452Y-36429955D01*
X157146206Y-36545164D01*
X157146202Y-36545171D01*
X157095908Y-36680017D01*
X157089501Y-36739616D01*
X157089500Y-36739635D01*
X157089500Y-39235370D01*
X157089501Y-39235376D01*
X157095908Y-39294983D01*
X157146202Y-39429828D01*
X157146206Y-39429835D01*
X157232452Y-39545044D01*
X157232455Y-39545047D01*
X157347664Y-39631293D01*
X157347671Y-39631297D01*
X157482517Y-39681591D01*
X157482516Y-39681591D01*
X157489444Y-39682335D01*
X157542127Y-39688000D01*
X160037872Y-39687999D01*
X160097483Y-39681591D01*
X160232331Y-39631296D01*
X160347546Y-39545046D01*
X160409199Y-39462688D01*
X160465132Y-39420818D01*
X160508465Y-39413000D01*
X167367921Y-39413000D01*
X167589531Y-39377900D01*
X167802928Y-39308563D01*
X168002851Y-39206697D01*
X168086451Y-39145958D01*
X168184377Y-39074811D01*
X168343037Y-38916151D01*
X168343038Y-38916149D01*
X168350098Y-38909089D01*
X168350103Y-38909082D01*
X172072821Y-35186365D01*
X172134142Y-35152882D01*
X172203834Y-35157866D01*
X172259767Y-35199738D01*
X172284184Y-35265202D01*
X172284500Y-35274048D01*
X172284500Y-37398176D01*
X172264815Y-37465215D01*
X172248181Y-37485857D01*
X164195858Y-45538181D01*
X164134535Y-45571666D01*
X164108177Y-45574500D01*
X144601157Y-45574500D01*
X144534118Y-45554815D01*
X144488363Y-45502011D01*
X144478419Y-45432853D01*
X144507444Y-45369297D01*
X144528269Y-45350183D01*
X144677219Y-45241966D01*
X144821966Y-45097219D01*
X144821968Y-45097215D01*
X144821971Y-45097213D01*
X144902176Y-44986818D01*
X144942287Y-44931610D01*
X145035220Y-44749219D01*
X145098477Y-44554534D01*
X145130500Y-44352352D01*
X145130500Y-44147648D01*
X145098477Y-43945466D01*
X145095023Y-43934837D01*
X145035218Y-43750776D01*
X145001503Y-43684607D01*
X144942287Y-43568390D01*
X144934556Y-43557749D01*
X144821971Y-43402786D01*
X144677217Y-43258032D01*
X144677212Y-43258028D01*
X144581615Y-43188573D01*
X144538949Y-43133243D01*
X144530500Y-43088255D01*
X144530500Y-41301518D01*
X144550185Y-41234479D01*
X144566814Y-41213841D01*
X145543177Y-40237478D01*
X145604498Y-40203995D01*
X145669175Y-40207230D01*
X145688632Y-40213553D01*
X145767555Y-40226053D01*
X145921903Y-40250500D01*
X145921908Y-40250500D01*
X146158097Y-40250500D01*
X146391368Y-40213553D01*
X146420784Y-40203995D01*
X146615992Y-40140568D01*
X146826433Y-40033343D01*
X147017510Y-39894517D01*
X147184517Y-39727510D01*
X147323343Y-39536433D01*
X147430568Y-39325992D01*
X147489065Y-39145957D01*
X147503552Y-39101372D01*
X147503552Y-39101371D01*
X147503553Y-39101368D01*
X147524573Y-38968651D01*
X147540500Y-38868097D01*
X147540500Y-38631902D01*
X147503553Y-38398631D01*
X147445788Y-38220851D01*
X147430568Y-38174008D01*
X147430566Y-38174005D01*
X147430566Y-38174003D01*
X147323343Y-37963567D01*
X147309782Y-37944902D01*
X147309781Y-37944901D01*
X147297364Y-37927810D01*
X147259776Y-37876075D01*
X152010000Y-37876075D01*
X152010000Y-38098924D01*
X152039085Y-38319854D01*
X152039088Y-38319867D01*
X152096763Y-38535118D01*
X152182045Y-38741002D01*
X152182054Y-38741020D01*
X152293464Y-38933991D01*
X152293473Y-38934004D01*
X152344040Y-38999903D01*
X152344043Y-38999903D01*
X152994152Y-38349793D01*
X153001049Y-38366442D01*
X153088599Y-38497470D01*
X153200030Y-38608901D01*
X153331058Y-38696451D01*
X153347705Y-38703346D01*
X152697595Y-39353455D01*
X152697595Y-39353456D01*
X152763507Y-39404033D01*
X152956485Y-39515449D01*
X152956497Y-39515454D01*
X153162381Y-39600736D01*
X153377632Y-39658411D01*
X153377645Y-39658414D01*
X153598575Y-39687500D01*
X153821425Y-39687500D01*
X154042354Y-39658414D01*
X154042367Y-39658411D01*
X154257618Y-39600736D01*
X154463502Y-39515454D01*
X154463514Y-39515449D01*
X154656498Y-39404030D01*
X154722403Y-39353457D01*
X154722404Y-39353456D01*
X154072294Y-38703346D01*
X154088942Y-38696451D01*
X154219970Y-38608901D01*
X154331401Y-38497470D01*
X154418951Y-38366442D01*
X154425846Y-38349794D01*
X155075956Y-38999904D01*
X155075957Y-38999903D01*
X155126530Y-38933998D01*
X155237949Y-38741014D01*
X155237954Y-38741002D01*
X155323236Y-38535118D01*
X155380911Y-38319867D01*
X155380914Y-38319854D01*
X155410000Y-38098924D01*
X155410000Y-37876075D01*
X155380914Y-37655145D01*
X155380911Y-37655132D01*
X155323236Y-37439881D01*
X155237954Y-37233997D01*
X155237949Y-37233985D01*
X155126533Y-37041007D01*
X155075956Y-36975095D01*
X155075955Y-36975095D01*
X154425846Y-37625204D01*
X154418951Y-37608558D01*
X154331401Y-37477530D01*
X154219970Y-37366099D01*
X154088942Y-37278549D01*
X154072293Y-37271652D01*
X154722403Y-36621543D01*
X154722403Y-36621540D01*
X154656504Y-36570973D01*
X154656491Y-36570964D01*
X154463520Y-36459554D01*
X154463502Y-36459545D01*
X154257618Y-36374263D01*
X154042367Y-36316588D01*
X154042354Y-36316585D01*
X153821425Y-36287500D01*
X153598575Y-36287500D01*
X153377645Y-36316585D01*
X153377632Y-36316588D01*
X153162381Y-36374263D01*
X152956497Y-36459545D01*
X152956479Y-36459554D01*
X152763511Y-36570962D01*
X152697595Y-36621542D01*
X153347706Y-37271652D01*
X153331058Y-37278549D01*
X153200030Y-37366099D01*
X153088599Y-37477530D01*
X153001049Y-37608558D01*
X152994153Y-37625206D01*
X152344042Y-36975095D01*
X152293462Y-37041011D01*
X152182054Y-37233979D01*
X152182045Y-37233997D01*
X152096763Y-37439881D01*
X152039088Y-37655132D01*
X152039085Y-37655145D01*
X152010000Y-37876075D01*
X147259776Y-37876075D01*
X147184517Y-37772490D01*
X147017510Y-37605483D01*
X146826433Y-37466657D01*
X146792835Y-37449538D01*
X146615996Y-37359433D01*
X146391368Y-37286446D01*
X146158097Y-37249500D01*
X146158092Y-37249500D01*
X145921908Y-37249500D01*
X145921903Y-37249500D01*
X145688631Y-37286446D01*
X145464003Y-37359433D01*
X145253566Y-37466657D01*
X145144550Y-37545862D01*
X145062490Y-37605483D01*
X145062488Y-37605485D01*
X145062487Y-37605485D01*
X144895485Y-37772487D01*
X144895485Y-37772488D01*
X144895483Y-37772490D01*
X144835862Y-37854550D01*
X144756657Y-37963566D01*
X144747368Y-37981797D01*
X144699392Y-38032592D01*
X144636884Y-38049500D01*
X140943116Y-38049500D01*
X140876077Y-38029815D01*
X140832632Y-37981797D01*
X140823342Y-37963566D01*
X140809781Y-37944901D01*
X140684517Y-37772490D01*
X140517510Y-37605483D01*
X140326433Y-37466657D01*
X140292835Y-37449538D01*
X140115996Y-37359433D01*
X139891368Y-37286446D01*
X139658097Y-37249500D01*
X139658092Y-37249500D01*
X139421908Y-37249500D01*
X139421903Y-37249500D01*
X139188631Y-37286446D01*
X138964003Y-37359433D01*
X138753566Y-37466657D01*
X138644550Y-37545862D01*
X138562490Y-37605483D01*
X138562488Y-37605485D01*
X138562487Y-37605485D01*
X138395485Y-37772487D01*
X138395485Y-37772488D01*
X138395483Y-37772490D01*
X138335862Y-37854550D01*
X138256657Y-37963566D01*
X138149433Y-38174003D01*
X138076446Y-38398631D01*
X138039500Y-38631902D01*
X138039500Y-38868097D01*
X138076446Y-39101368D01*
X138149433Y-39325996D01*
X138229271Y-39482685D01*
X138256657Y-39536433D01*
X138395483Y-39727510D01*
X138562490Y-39894517D01*
X138753567Y-40033343D01*
X138778098Y-40045842D01*
X138964003Y-40140566D01*
X138964005Y-40140566D01*
X138964008Y-40140568D01*
X139084412Y-40179689D01*
X139188631Y-40213553D01*
X139421903Y-40250500D01*
X139421908Y-40250500D01*
X139658097Y-40250500D01*
X139891368Y-40213553D01*
X139920784Y-40203995D01*
X140115992Y-40140568D01*
X140326433Y-40033343D01*
X140517510Y-39894517D01*
X140684517Y-39727510D01*
X140823343Y-39536433D01*
X140832632Y-39518203D01*
X140880608Y-39467408D01*
X140943116Y-39450500D01*
X144049481Y-39450500D01*
X144116520Y-39470185D01*
X144162275Y-39522989D01*
X144172219Y-39592147D01*
X144143194Y-39655703D01*
X144137162Y-39662181D01*
X143285888Y-40513453D01*
X143285887Y-40513454D01*
X143209222Y-40628192D01*
X143156421Y-40755667D01*
X143156418Y-40755677D01*
X143129500Y-40891004D01*
X143129500Y-43088255D01*
X143109815Y-43155294D01*
X143078385Y-43188573D01*
X142982787Y-43258028D01*
X142982782Y-43258032D01*
X142838028Y-43402786D01*
X142717715Y-43568386D01*
X142624781Y-43750776D01*
X142561522Y-43945465D01*
X142529500Y-44147648D01*
X142529500Y-44352351D01*
X142561522Y-44554534D01*
X142624781Y-44749223D01*
X142683114Y-44863706D01*
X142712513Y-44921405D01*
X142717715Y-44931613D01*
X142838028Y-45097213D01*
X142838034Y-45097219D01*
X142982781Y-45241966D01*
X143131728Y-45350182D01*
X143174394Y-45405511D01*
X143180373Y-45475125D01*
X143147768Y-45536920D01*
X143086929Y-45571277D01*
X143058843Y-45574500D01*
X141139605Y-45574500D01*
X140917994Y-45609599D01*
X140704593Y-45678938D01*
X140504671Y-45780805D01*
X140323155Y-45912683D01*
X140323150Y-45912687D01*
X140164486Y-46071352D01*
X136932456Y-49303381D01*
X136871133Y-49336866D01*
X136844775Y-49339700D01*
X136363729Y-49339700D01*
X136363723Y-49339701D01*
X136304116Y-49346108D01*
X136169271Y-49396402D01*
X136169264Y-49396406D01*
X136054055Y-49482652D01*
X136054052Y-49482655D01*
X135967806Y-49597864D01*
X135967802Y-49597871D01*
X135917508Y-49732717D01*
X135912758Y-49776905D01*
X135911101Y-49792323D01*
X135911100Y-49792335D01*
X135911100Y-51673199D01*
X135891415Y-51740238D01*
X135838611Y-51785993D01*
X135769453Y-51795937D01*
X135705897Y-51766912D01*
X135699419Y-51760880D01*
X132163428Y-48224888D01*
X132163427Y-48224887D01*
X132048689Y-48148222D01*
X131921214Y-48095421D01*
X131921204Y-48095418D01*
X131785878Y-48068500D01*
X131785876Y-48068500D01*
X131785875Y-48068500D01*
X131204666Y-48068500D01*
X131137627Y-48048815D01*
X131091872Y-47996011D01*
X131081928Y-47926853D01*
X131110953Y-47863297D01*
X131135777Y-47841397D01*
X131148413Y-47832954D01*
X131148412Y-47832954D01*
X131148416Y-47832952D01*
X133404894Y-45576471D01*
X133466215Y-45542988D01*
X133511970Y-45541681D01*
X133567648Y-45550500D01*
X133567649Y-45550500D01*
X133772351Y-45550500D01*
X133772352Y-45550500D01*
X133974534Y-45518477D01*
X134169219Y-45455220D01*
X134351610Y-45362287D01*
X134471619Y-45275096D01*
X134517213Y-45241971D01*
X134517215Y-45241968D01*
X134517219Y-45241966D01*
X134661966Y-45097219D01*
X134661968Y-45097215D01*
X134661971Y-45097213D01*
X134742176Y-44986818D01*
X134782287Y-44931610D01*
X134875220Y-44749219D01*
X134938477Y-44554534D01*
X134970500Y-44352352D01*
X134970500Y-44147648D01*
X134938477Y-43945466D01*
X134935023Y-43934837D01*
X134875218Y-43750776D01*
X134841503Y-43684607D01*
X134782287Y-43568390D01*
X134774556Y-43557749D01*
X134661971Y-43402786D01*
X134517213Y-43258028D01*
X134351613Y-43137715D01*
X134351612Y-43137714D01*
X134351610Y-43137713D01*
X134294653Y-43108691D01*
X134169223Y-43044781D01*
X133974534Y-42981522D01*
X133799995Y-42953878D01*
X133772352Y-42949500D01*
X133567648Y-42949500D01*
X133543329Y-42953351D01*
X133365465Y-42981522D01*
X133170776Y-43044781D01*
X132988386Y-43137715D01*
X132822786Y-43258028D01*
X132678028Y-43402786D01*
X132557715Y-43568386D01*
X132464781Y-43750776D01*
X132401522Y-43945465D01*
X132369500Y-44147648D01*
X132369500Y-44352351D01*
X132378318Y-44408026D01*
X132369363Y-44477320D01*
X132343526Y-44515105D01*
X130395451Y-46463181D01*
X130334128Y-46496666D01*
X130307770Y-46499500D01*
X122282229Y-46499500D01*
X122215190Y-46479815D01*
X122194548Y-46463181D01*
X120246473Y-44515106D01*
X120212988Y-44453783D01*
X120211681Y-44408028D01*
X120220500Y-44352352D01*
X120220500Y-44147648D01*
X120188477Y-43945466D01*
X120185023Y-43934837D01*
X120125218Y-43750776D01*
X120091503Y-43684607D01*
X120032287Y-43568390D01*
X120024556Y-43557749D01*
X119911971Y-43402786D01*
X119767213Y-43258028D01*
X119601613Y-43137715D01*
X119601612Y-43137714D01*
X119601610Y-43137713D01*
X119544653Y-43108691D01*
X119419223Y-43044781D01*
X119224534Y-42981522D01*
X119049995Y-42953878D01*
X119022352Y-42949500D01*
X118817648Y-42949500D01*
X118793329Y-42953351D01*
X118615465Y-42981522D01*
X118420776Y-43044781D01*
X118238386Y-43137715D01*
X118072786Y-43258028D01*
X117928028Y-43402786D01*
X117807715Y-43568386D01*
X117714781Y-43750776D01*
X117651522Y-43945465D01*
X117619500Y-44147648D01*
X117619500Y-44352351D01*
X117651522Y-44554534D01*
X117714781Y-44749223D01*
X117773114Y-44863706D01*
X117802513Y-44921405D01*
X117807715Y-44931613D01*
X117928028Y-45097213D01*
X117928034Y-45097219D01*
X118072781Y-45241966D01*
X118118384Y-45275098D01*
X118161050Y-45330425D01*
X118169500Y-45375416D01*
X118169500Y-49347770D01*
X118149815Y-49414809D01*
X118133181Y-49435451D01*
X117556999Y-50011632D01*
X117549944Y-50015484D01*
X117545232Y-50021997D01*
X117519720Y-50031987D01*
X117495676Y-50045117D01*
X117487658Y-50044543D01*
X117480173Y-50047475D01*
X117453310Y-50042087D01*
X117425984Y-50040133D01*
X117419548Y-50035315D01*
X117411668Y-50033735D01*
X117391981Y-50014678D01*
X117370051Y-49998261D01*
X117365957Y-49989486D01*
X117361466Y-49985139D01*
X117354080Y-49964031D01*
X117348596Y-49952275D01*
X117347560Y-49947863D01*
X117333799Y-49860974D01*
X117309963Y-49787616D01*
X117308778Y-49782562D01*
X117309090Y-49776905D01*
X117305500Y-49754238D01*
X117305500Y-38644402D01*
X126749500Y-38644402D01*
X126749500Y-38880597D01*
X126786446Y-39113868D01*
X126859433Y-39338496D01*
X126950999Y-39518203D01*
X126966657Y-39548933D01*
X127105483Y-39740010D01*
X127272490Y-39907017D01*
X127463567Y-40045843D01*
X127562991Y-40096502D01*
X127674003Y-40153066D01*
X127674005Y-40153066D01*
X127674008Y-40153068D01*
X127768434Y-40183749D01*
X127898631Y-40226053D01*
X128131903Y-40263000D01*
X128255500Y-40263000D01*
X128322539Y-40282685D01*
X128368294Y-40335489D01*
X128379500Y-40387000D01*
X128379500Y-43088255D01*
X128359815Y-43155294D01*
X128328385Y-43188573D01*
X128232787Y-43258028D01*
X128232782Y-43258032D01*
X128088028Y-43402786D01*
X127967715Y-43568386D01*
X127874781Y-43750776D01*
X127811522Y-43945465D01*
X127779500Y-44147648D01*
X127779500Y-44352351D01*
X127811522Y-44554534D01*
X127874781Y-44749223D01*
X127933114Y-44863706D01*
X127962513Y-44921405D01*
X127967715Y-44931613D01*
X128088028Y-45097213D01*
X128232786Y-45241971D01*
X128354535Y-45330425D01*
X128398390Y-45362287D01*
X128483222Y-45405511D01*
X128580776Y-45455218D01*
X128580778Y-45455218D01*
X128580781Y-45455220D01*
X128685137Y-45489127D01*
X128775465Y-45518477D01*
X128859564Y-45531797D01*
X128977648Y-45550500D01*
X128977649Y-45550500D01*
X129182351Y-45550500D01*
X129182352Y-45550500D01*
X129384534Y-45518477D01*
X129579219Y-45455220D01*
X129761610Y-45362287D01*
X129881619Y-45275096D01*
X129927213Y-45241971D01*
X129927215Y-45241968D01*
X129927219Y-45241966D01*
X130071966Y-45097219D01*
X130071968Y-45097215D01*
X130071971Y-45097213D01*
X130152176Y-44986818D01*
X130192287Y-44931610D01*
X130285220Y-44749219D01*
X130348477Y-44554534D01*
X130380500Y-44352352D01*
X130380500Y-44147648D01*
X130348477Y-43945466D01*
X130345023Y-43934837D01*
X130285218Y-43750776D01*
X130251503Y-43684607D01*
X130192287Y-43568390D01*
X130184556Y-43557749D01*
X130071971Y-43402786D01*
X129927217Y-43258032D01*
X129927212Y-43258028D01*
X129831615Y-43188573D01*
X129788949Y-43133243D01*
X129780500Y-43088255D01*
X129780500Y-39587000D01*
X129800185Y-39519961D01*
X129852989Y-39474206D01*
X129904500Y-39463000D01*
X133346884Y-39463000D01*
X133413923Y-39482685D01*
X133457368Y-39530703D01*
X133466657Y-39548933D01*
X133605483Y-39740010D01*
X133772490Y-39907017D01*
X133963567Y-40045843D01*
X134062991Y-40096502D01*
X134174003Y-40153066D01*
X134174005Y-40153066D01*
X134174008Y-40153068D01*
X134268434Y-40183749D01*
X134398631Y-40226053D01*
X134631903Y-40263000D01*
X134631908Y-40263000D01*
X134868097Y-40263000D01*
X135101368Y-40226053D01*
X135139842Y-40213552D01*
X135325992Y-40153068D01*
X135536433Y-40045843D01*
X135727510Y-39907017D01*
X135894517Y-39740010D01*
X136033343Y-39548933D01*
X136140568Y-39338492D01*
X136213553Y-39113868D01*
X136215533Y-39101368D01*
X136250500Y-38880597D01*
X136250500Y-38644402D01*
X136213553Y-38411131D01*
X136179689Y-38306912D01*
X136140568Y-38186508D01*
X136140566Y-38186505D01*
X136140566Y-38186503D01*
X136060729Y-38029815D01*
X136033343Y-37976067D01*
X135894517Y-37784990D01*
X135727510Y-37617983D01*
X135536433Y-37479157D01*
X135533240Y-37477530D01*
X135325996Y-37371933D01*
X135101368Y-37298946D01*
X134868097Y-37262000D01*
X134868092Y-37262000D01*
X134631908Y-37262000D01*
X134631903Y-37262000D01*
X134398631Y-37298946D01*
X134174003Y-37371933D01*
X133963566Y-37479157D01*
X133854550Y-37558362D01*
X133772490Y-37617983D01*
X133772488Y-37617985D01*
X133772487Y-37617985D01*
X133605485Y-37784987D01*
X133605485Y-37784988D01*
X133605483Y-37784990D01*
X133545862Y-37867050D01*
X133466657Y-37976066D01*
X133457368Y-37994297D01*
X133409392Y-38045092D01*
X133346884Y-38062000D01*
X129653116Y-38062000D01*
X129586077Y-38042315D01*
X129542632Y-37994297D01*
X129538688Y-37986558D01*
X129533343Y-37976067D01*
X129394517Y-37784990D01*
X129227510Y-37617983D01*
X129036433Y-37479157D01*
X129033240Y-37477530D01*
X128825996Y-37371933D01*
X128601368Y-37298946D01*
X128368097Y-37262000D01*
X128368092Y-37262000D01*
X128131908Y-37262000D01*
X128131903Y-37262000D01*
X127898631Y-37298946D01*
X127674003Y-37371933D01*
X127463566Y-37479157D01*
X127354550Y-37558362D01*
X127272490Y-37617983D01*
X127272488Y-37617985D01*
X127272487Y-37617985D01*
X127105485Y-37784987D01*
X127105485Y-37784988D01*
X127105483Y-37784990D01*
X127045862Y-37867050D01*
X126966657Y-37976066D01*
X126859433Y-38186503D01*
X126786446Y-38411131D01*
X126749500Y-38644402D01*
X117305500Y-38644402D01*
X117305500Y-37001020D01*
X117325185Y-36933981D01*
X117355188Y-36901754D01*
X117397546Y-36870046D01*
X117483796Y-36754831D01*
X117534091Y-36619983D01*
X117540500Y-36560373D01*
X117540499Y-36310344D01*
X120040000Y-36310344D01*
X120046401Y-36369872D01*
X120046403Y-36369879D01*
X120096645Y-36504586D01*
X120096649Y-36504593D01*
X120182809Y-36619687D01*
X120182812Y-36619690D01*
X120297906Y-36705850D01*
X120297913Y-36705854D01*
X120432620Y-36756096D01*
X120432627Y-36756098D01*
X120492155Y-36762499D01*
X120492172Y-36762500D01*
X121290000Y-36762500D01*
X121790000Y-36762500D01*
X122587828Y-36762500D01*
X122587844Y-36762499D01*
X122647372Y-36756098D01*
X122647379Y-36756096D01*
X122782086Y-36705854D01*
X122782093Y-36705850D01*
X122897187Y-36619690D01*
X122915534Y-36595183D01*
X122915535Y-36595181D01*
X122983350Y-36504593D01*
X122983354Y-36504586D01*
X123033596Y-36369879D01*
X123033598Y-36369872D01*
X123039999Y-36310344D01*
X123040000Y-36310327D01*
X123040000Y-35512500D01*
X121790000Y-35512500D01*
X121790000Y-36762500D01*
X121290000Y-36762500D01*
X121290000Y-35512500D01*
X120040000Y-35512500D01*
X120040000Y-36310344D01*
X117540499Y-36310344D01*
X117540499Y-36079321D01*
X117560183Y-36012283D01*
X117576813Y-35991646D01*
X119353805Y-34214655D01*
X120040000Y-34214655D01*
X120040000Y-35012500D01*
X121290000Y-35012500D01*
X121790000Y-35012500D01*
X123040000Y-35012500D01*
X123040000Y-34214672D01*
X123039999Y-34214655D01*
X123033598Y-34155127D01*
X123033596Y-34155120D01*
X122983354Y-34020413D01*
X122983350Y-34020406D01*
X122897190Y-33905312D01*
X122897187Y-33905309D01*
X122782093Y-33819149D01*
X122782086Y-33819145D01*
X122647379Y-33768903D01*
X122647372Y-33768901D01*
X122587844Y-33762500D01*
X121790000Y-33762500D01*
X121790000Y-35012500D01*
X121290000Y-35012500D01*
X121290000Y-33762500D01*
X120492155Y-33762500D01*
X120432627Y-33768901D01*
X120432620Y-33768903D01*
X120297913Y-33819145D01*
X120297906Y-33819149D01*
X120182812Y-33905309D01*
X120182809Y-33905312D01*
X120096649Y-34020406D01*
X120096645Y-34020413D01*
X120046403Y-34155120D01*
X120046401Y-34155127D01*
X120040000Y-34214655D01*
X119353805Y-34214655D01*
X120232642Y-33335819D01*
X120293965Y-33302334D01*
X120320323Y-33299500D01*
X126854834Y-33299500D01*
X126921873Y-33319185D01*
G37*
%TD.AperFunction*%
%TD*%
M02*
