%TF.GenerationSoftware,KiCad,Pcbnew,9.0.7*%
%TF.CreationDate,2026-02-14T18:41:00+05:30*%
%TF.ProjectId,Line_Follower,4c696e65-5f46-46f6-9c6c-6f7765722e6b,v1.0*%
%TF.SameCoordinates,Original*%
%TF.FileFunction,Legend,Top*%
%TF.FilePolarity,Positive*%
%FSLAX46Y46*%
G04 Gerber Fmt 4.6, Leading zero omitted, Abs format (unit mm)*
G04 Created by KiCad (PCBNEW 9.0.7) date 2026-02-14 18:41:00*
%MOMM*%
%LPD*%
G01*
G04 APERTURE LIST*
%ADD10C,0.180000*%
%ADD11C,0.150000*%
%ADD12C,0.187500*%
%ADD13C,0.120000*%
%ADD14C,0.127000*%
%ADD15C,0.200000*%
%ADD16C,0.100000*%
G04 APERTURE END LIST*
D10*
X124960325Y-47118259D02*
X124388897Y-47118259D01*
X124674611Y-47118259D02*
X124674611Y-46118259D01*
X124674611Y-46118259D02*
X124579373Y-46261116D01*
X124579373Y-46261116D02*
X124484135Y-46356354D01*
X124484135Y-46356354D02*
X124388897Y-46403973D01*
X125579373Y-46118259D02*
X125674611Y-46118259D01*
X125674611Y-46118259D02*
X125769849Y-46165878D01*
X125769849Y-46165878D02*
X125817468Y-46213497D01*
X125817468Y-46213497D02*
X125865087Y-46308735D01*
X125865087Y-46308735D02*
X125912706Y-46499211D01*
X125912706Y-46499211D02*
X125912706Y-46737306D01*
X125912706Y-46737306D02*
X125865087Y-46927782D01*
X125865087Y-46927782D02*
X125817468Y-47023020D01*
X125817468Y-47023020D02*
X125769849Y-47070640D01*
X125769849Y-47070640D02*
X125674611Y-47118259D01*
X125674611Y-47118259D02*
X125579373Y-47118259D01*
X125579373Y-47118259D02*
X125484135Y-47070640D01*
X125484135Y-47070640D02*
X125436516Y-47023020D01*
X125436516Y-47023020D02*
X125388897Y-46927782D01*
X125388897Y-46927782D02*
X125341278Y-46737306D01*
X125341278Y-46737306D02*
X125341278Y-46499211D01*
X125341278Y-46499211D02*
X125388897Y-46308735D01*
X125388897Y-46308735D02*
X125436516Y-46213497D01*
X125436516Y-46213497D02*
X125484135Y-46165878D01*
X125484135Y-46165878D02*
X125579373Y-46118259D01*
X126341278Y-47118259D02*
X126341278Y-46118259D01*
X126912706Y-47118259D02*
X126484135Y-46546830D01*
X126912706Y-46118259D02*
X126341278Y-46689687D01*
D11*
X142671792Y-31225419D02*
X142719411Y-31177800D01*
X142719411Y-31177800D02*
X142862268Y-31130180D01*
X142862268Y-31130180D02*
X142957506Y-31130180D01*
X142957506Y-31130180D02*
X143100363Y-31177800D01*
X143100363Y-31177800D02*
X143195601Y-31273038D01*
X143195601Y-31273038D02*
X143243220Y-31368276D01*
X143243220Y-31368276D02*
X143290839Y-31558752D01*
X143290839Y-31558752D02*
X143290839Y-31701609D01*
X143290839Y-31701609D02*
X143243220Y-31892085D01*
X143243220Y-31892085D02*
X143195601Y-31987323D01*
X143195601Y-31987323D02*
X143100363Y-32082561D01*
X143100363Y-32082561D02*
X142957506Y-32130180D01*
X142957506Y-32130180D02*
X142862268Y-32130180D01*
X142862268Y-32130180D02*
X142719411Y-32082561D01*
X142719411Y-32082561D02*
X142671792Y-32034942D01*
X141814649Y-31130180D02*
X141814649Y-31653990D01*
X141814649Y-31653990D02*
X141862268Y-31749228D01*
X141862268Y-31749228D02*
X141957506Y-31796847D01*
X141957506Y-31796847D02*
X142147982Y-31796847D01*
X142147982Y-31796847D02*
X142243220Y-31749228D01*
X141814649Y-31177800D02*
X141909887Y-31130180D01*
X141909887Y-31130180D02*
X142147982Y-31130180D01*
X142147982Y-31130180D02*
X142243220Y-31177800D01*
X142243220Y-31177800D02*
X142290839Y-31273038D01*
X142290839Y-31273038D02*
X142290839Y-31368276D01*
X142290839Y-31368276D02*
X142243220Y-31463514D01*
X142243220Y-31463514D02*
X142147982Y-31511133D01*
X142147982Y-31511133D02*
X141909887Y-31511133D01*
X141909887Y-31511133D02*
X141814649Y-31558752D01*
X141195601Y-31130180D02*
X141290839Y-31177800D01*
X141290839Y-31177800D02*
X141338458Y-31273038D01*
X141338458Y-31273038D02*
X141338458Y-32130180D01*
X140814648Y-31130180D02*
X140814648Y-31796847D01*
X140814648Y-32130180D02*
X140862267Y-32082561D01*
X140862267Y-32082561D02*
X140814648Y-32034942D01*
X140814648Y-32034942D02*
X140767029Y-32082561D01*
X140767029Y-32082561D02*
X140814648Y-32130180D01*
X140814648Y-32130180D02*
X140814648Y-32034942D01*
X140338458Y-31130180D02*
X140338458Y-32130180D01*
X140338458Y-31749228D02*
X140243220Y-31796847D01*
X140243220Y-31796847D02*
X140052744Y-31796847D01*
X140052744Y-31796847D02*
X139957506Y-31749228D01*
X139957506Y-31749228D02*
X139909887Y-31701609D01*
X139909887Y-31701609D02*
X139862268Y-31606371D01*
X139862268Y-31606371D02*
X139862268Y-31320657D01*
X139862268Y-31320657D02*
X139909887Y-31225419D01*
X139909887Y-31225419D02*
X139957506Y-31177800D01*
X139957506Y-31177800D02*
X140052744Y-31130180D01*
X140052744Y-31130180D02*
X140243220Y-31130180D01*
X140243220Y-31130180D02*
X140338458Y-31177800D01*
D12*
X137111450Y-53867869D02*
X137111450Y-52867869D01*
X137587640Y-53867869D02*
X137587640Y-52867869D01*
X137587640Y-52867869D02*
X138159068Y-53867869D01*
X138159068Y-53867869D02*
X138159068Y-52867869D01*
X138635259Y-53486916D02*
X139397164Y-53486916D01*
X139016211Y-53867869D02*
X139016211Y-53105964D01*
D11*
X159126779Y-31676366D02*
X159888684Y-31676366D01*
X159507731Y-32057319D02*
X159507731Y-31295414D01*
D10*
X135328259Y-112393483D02*
X134328259Y-112393483D01*
X135328259Y-111345865D02*
X134852068Y-111679198D01*
X135328259Y-111917293D02*
X134328259Y-111917293D01*
X134328259Y-111917293D02*
X134328259Y-111536341D01*
X134328259Y-111536341D02*
X134375878Y-111441103D01*
X134375878Y-111441103D02*
X134423497Y-111393484D01*
X134423497Y-111393484D02*
X134518735Y-111345865D01*
X134518735Y-111345865D02*
X134661592Y-111345865D01*
X134661592Y-111345865D02*
X134756830Y-111393484D01*
X134756830Y-111393484D02*
X134804449Y-111441103D01*
X134804449Y-111441103D02*
X134852068Y-111536341D01*
X134852068Y-111536341D02*
X134852068Y-111917293D01*
X135328259Y-110393484D02*
X135328259Y-110964912D01*
X135328259Y-110679198D02*
X134328259Y-110679198D01*
X134328259Y-110679198D02*
X134471116Y-110774436D01*
X134471116Y-110774436D02*
X134566354Y-110869674D01*
X134566354Y-110869674D02*
X134613973Y-110964912D01*
X154828259Y-112488721D02*
X154828259Y-111869674D01*
X154828259Y-111869674D02*
X155209211Y-112203007D01*
X155209211Y-112203007D02*
X155209211Y-112060150D01*
X155209211Y-112060150D02*
X155256830Y-111964912D01*
X155256830Y-111964912D02*
X155304449Y-111917293D01*
X155304449Y-111917293D02*
X155399687Y-111869674D01*
X155399687Y-111869674D02*
X155637782Y-111869674D01*
X155637782Y-111869674D02*
X155733020Y-111917293D01*
X155733020Y-111917293D02*
X155780640Y-111964912D01*
X155780640Y-111964912D02*
X155828259Y-112060150D01*
X155828259Y-112060150D02*
X155828259Y-112345864D01*
X155828259Y-112345864D02*
X155780640Y-112441102D01*
X155780640Y-112441102D02*
X155733020Y-112488721D01*
X155733020Y-111441102D02*
X155780640Y-111393483D01*
X155780640Y-111393483D02*
X155828259Y-111441102D01*
X155828259Y-111441102D02*
X155780640Y-111488721D01*
X155780640Y-111488721D02*
X155733020Y-111441102D01*
X155733020Y-111441102D02*
X155828259Y-111441102D01*
X154828259Y-111060150D02*
X154828259Y-110441103D01*
X154828259Y-110441103D02*
X155209211Y-110774436D01*
X155209211Y-110774436D02*
X155209211Y-110631579D01*
X155209211Y-110631579D02*
X155256830Y-110536341D01*
X155256830Y-110536341D02*
X155304449Y-110488722D01*
X155304449Y-110488722D02*
X155399687Y-110441103D01*
X155399687Y-110441103D02*
X155637782Y-110441103D01*
X155637782Y-110441103D02*
X155733020Y-110488722D01*
X155733020Y-110488722D02*
X155780640Y-110536341D01*
X155780640Y-110536341D02*
X155828259Y-110631579D01*
X155828259Y-110631579D02*
X155828259Y-110917293D01*
X155828259Y-110917293D02*
X155780640Y-111012531D01*
X155780640Y-111012531D02*
X155733020Y-111060150D01*
X154828259Y-110155388D02*
X155828259Y-109822055D01*
X155828259Y-109822055D02*
X154828259Y-109488722D01*
X139710325Y-47368259D02*
X139138897Y-47368259D01*
X139424611Y-47368259D02*
X139424611Y-46368259D01*
X139424611Y-46368259D02*
X139329373Y-46511116D01*
X139329373Y-46511116D02*
X139234135Y-46606354D01*
X139234135Y-46606354D02*
X139138897Y-46653973D01*
X140329373Y-46368259D02*
X140424611Y-46368259D01*
X140424611Y-46368259D02*
X140519849Y-46415878D01*
X140519849Y-46415878D02*
X140567468Y-46463497D01*
X140567468Y-46463497D02*
X140615087Y-46558735D01*
X140615087Y-46558735D02*
X140662706Y-46749211D01*
X140662706Y-46749211D02*
X140662706Y-46987306D01*
X140662706Y-46987306D02*
X140615087Y-47177782D01*
X140615087Y-47177782D02*
X140567468Y-47273020D01*
X140567468Y-47273020D02*
X140519849Y-47320640D01*
X140519849Y-47320640D02*
X140424611Y-47368259D01*
X140424611Y-47368259D02*
X140329373Y-47368259D01*
X140329373Y-47368259D02*
X140234135Y-47320640D01*
X140234135Y-47320640D02*
X140186516Y-47273020D01*
X140186516Y-47273020D02*
X140138897Y-47177782D01*
X140138897Y-47177782D02*
X140091278Y-46987306D01*
X140091278Y-46987306D02*
X140091278Y-46749211D01*
X140091278Y-46749211D02*
X140138897Y-46558735D01*
X140138897Y-46558735D02*
X140186516Y-46463497D01*
X140186516Y-46463497D02*
X140234135Y-46415878D01*
X140234135Y-46415878D02*
X140329373Y-46368259D01*
X141091278Y-47368259D02*
X141091278Y-46368259D01*
X141662706Y-47368259D02*
X141234135Y-46796830D01*
X141662706Y-46368259D02*
X141091278Y-46939687D01*
D12*
X137361450Y-66617869D02*
X137361450Y-65617869D01*
X137837640Y-66617869D02*
X137837640Y-65617869D01*
X137837640Y-65617869D02*
X138409068Y-66617869D01*
X138409068Y-66617869D02*
X138409068Y-65617869D01*
X138885259Y-66236916D02*
X139647164Y-66236916D01*
D10*
X138078259Y-112393483D02*
X137078259Y-112393483D01*
X138078259Y-111345865D02*
X137602068Y-111679198D01*
X138078259Y-111917293D02*
X137078259Y-111917293D01*
X137078259Y-111917293D02*
X137078259Y-111536341D01*
X137078259Y-111536341D02*
X137125878Y-111441103D01*
X137125878Y-111441103D02*
X137173497Y-111393484D01*
X137173497Y-111393484D02*
X137268735Y-111345865D01*
X137268735Y-111345865D02*
X137411592Y-111345865D01*
X137411592Y-111345865D02*
X137506830Y-111393484D01*
X137506830Y-111393484D02*
X137554449Y-111441103D01*
X137554449Y-111441103D02*
X137602068Y-111536341D01*
X137602068Y-111536341D02*
X137602068Y-111917293D01*
X137173497Y-110964912D02*
X137125878Y-110917293D01*
X137125878Y-110917293D02*
X137078259Y-110822055D01*
X137078259Y-110822055D02*
X137078259Y-110583960D01*
X137078259Y-110583960D02*
X137125878Y-110488722D01*
X137125878Y-110488722D02*
X137173497Y-110441103D01*
X137173497Y-110441103D02*
X137268735Y-110393484D01*
X137268735Y-110393484D02*
X137363973Y-110393484D01*
X137363973Y-110393484D02*
X137506830Y-110441103D01*
X137506830Y-110441103D02*
X138078259Y-111012531D01*
X138078259Y-111012531D02*
X138078259Y-110393484D01*
D12*
X174361450Y-81486916D02*
X175123355Y-81486916D01*
X174742402Y-81867869D02*
X174742402Y-81105964D01*
X176075735Y-81867869D02*
X175599545Y-81867869D01*
X175599545Y-81867869D02*
X175599545Y-80867869D01*
X176409069Y-81344059D02*
X176742402Y-81344059D01*
X176885259Y-81867869D02*
X176409069Y-81867869D01*
X176409069Y-81867869D02*
X176409069Y-80867869D01*
X176409069Y-80867869D02*
X176885259Y-80867869D01*
X177313831Y-81867869D02*
X177313831Y-80867869D01*
X177313831Y-80867869D02*
X177551926Y-80867869D01*
X177551926Y-80867869D02*
X177694783Y-80915488D01*
X177694783Y-80915488D02*
X177790021Y-81010726D01*
X177790021Y-81010726D02*
X177837640Y-81105964D01*
X177837640Y-81105964D02*
X177885259Y-81296440D01*
X177885259Y-81296440D02*
X177885259Y-81439297D01*
X177885259Y-81439297D02*
X177837640Y-81629773D01*
X177837640Y-81629773D02*
X177790021Y-81725011D01*
X177790021Y-81725011D02*
X177694783Y-81820250D01*
X177694783Y-81820250D02*
X177551926Y-81867869D01*
X177551926Y-81867869D02*
X177313831Y-81867869D01*
X178313831Y-81486916D02*
X179075736Y-81486916D01*
D10*
X157375878Y-111869674D02*
X157328259Y-111964912D01*
X157328259Y-111964912D02*
X157328259Y-112107769D01*
X157328259Y-112107769D02*
X157375878Y-112250626D01*
X157375878Y-112250626D02*
X157471116Y-112345864D01*
X157471116Y-112345864D02*
X157566354Y-112393483D01*
X157566354Y-112393483D02*
X157756830Y-112441102D01*
X157756830Y-112441102D02*
X157899687Y-112441102D01*
X157899687Y-112441102D02*
X158090163Y-112393483D01*
X158090163Y-112393483D02*
X158185401Y-112345864D01*
X158185401Y-112345864D02*
X158280640Y-112250626D01*
X158280640Y-112250626D02*
X158328259Y-112107769D01*
X158328259Y-112107769D02*
X158328259Y-112012531D01*
X158328259Y-112012531D02*
X158280640Y-111869674D01*
X158280640Y-111869674D02*
X158233020Y-111822055D01*
X158233020Y-111822055D02*
X157899687Y-111822055D01*
X157899687Y-111822055D02*
X157899687Y-112012531D01*
X158328259Y-111393483D02*
X157328259Y-111393483D01*
X157328259Y-111393483D02*
X158328259Y-110822055D01*
X158328259Y-110822055D02*
X157328259Y-110822055D01*
X158328259Y-110345864D02*
X157328259Y-110345864D01*
X157328259Y-110345864D02*
X157328259Y-110107769D01*
X157328259Y-110107769D02*
X157375878Y-109964912D01*
X157375878Y-109964912D02*
X157471116Y-109869674D01*
X157471116Y-109869674D02*
X157566354Y-109822055D01*
X157566354Y-109822055D02*
X157756830Y-109774436D01*
X157756830Y-109774436D02*
X157899687Y-109774436D01*
X157899687Y-109774436D02*
X158090163Y-109822055D01*
X158090163Y-109822055D02*
X158185401Y-109869674D01*
X158185401Y-109869674D02*
X158280640Y-109964912D01*
X158280640Y-109964912D02*
X158328259Y-110107769D01*
X158328259Y-110107769D02*
X158328259Y-110345864D01*
X143078259Y-112393483D02*
X142078259Y-112393483D01*
X143078259Y-111345865D02*
X142602068Y-111679198D01*
X143078259Y-111917293D02*
X142078259Y-111917293D01*
X142078259Y-111917293D02*
X142078259Y-111536341D01*
X142078259Y-111536341D02*
X142125878Y-111441103D01*
X142125878Y-111441103D02*
X142173497Y-111393484D01*
X142173497Y-111393484D02*
X142268735Y-111345865D01*
X142268735Y-111345865D02*
X142411592Y-111345865D01*
X142411592Y-111345865D02*
X142506830Y-111393484D01*
X142506830Y-111393484D02*
X142554449Y-111441103D01*
X142554449Y-111441103D02*
X142602068Y-111536341D01*
X142602068Y-111536341D02*
X142602068Y-111917293D01*
X142411592Y-110488722D02*
X143078259Y-110488722D01*
X142030640Y-110726817D02*
X142744925Y-110964912D01*
X142744925Y-110964912D02*
X142744925Y-110345865D01*
X153328259Y-112393483D02*
X152328259Y-112393483D01*
X153328259Y-111345865D02*
X152852068Y-111679198D01*
X153328259Y-111917293D02*
X152328259Y-111917293D01*
X152328259Y-111917293D02*
X152328259Y-111536341D01*
X152328259Y-111536341D02*
X152375878Y-111441103D01*
X152375878Y-111441103D02*
X152423497Y-111393484D01*
X152423497Y-111393484D02*
X152518735Y-111345865D01*
X152518735Y-111345865D02*
X152661592Y-111345865D01*
X152661592Y-111345865D02*
X152756830Y-111393484D01*
X152756830Y-111393484D02*
X152804449Y-111441103D01*
X152804449Y-111441103D02*
X152852068Y-111536341D01*
X152852068Y-111536341D02*
X152852068Y-111917293D01*
X152756830Y-110774436D02*
X152709211Y-110869674D01*
X152709211Y-110869674D02*
X152661592Y-110917293D01*
X152661592Y-110917293D02*
X152566354Y-110964912D01*
X152566354Y-110964912D02*
X152518735Y-110964912D01*
X152518735Y-110964912D02*
X152423497Y-110917293D01*
X152423497Y-110917293D02*
X152375878Y-110869674D01*
X152375878Y-110869674D02*
X152328259Y-110774436D01*
X152328259Y-110774436D02*
X152328259Y-110583960D01*
X152328259Y-110583960D02*
X152375878Y-110488722D01*
X152375878Y-110488722D02*
X152423497Y-110441103D01*
X152423497Y-110441103D02*
X152518735Y-110393484D01*
X152518735Y-110393484D02*
X152566354Y-110393484D01*
X152566354Y-110393484D02*
X152661592Y-110441103D01*
X152661592Y-110441103D02*
X152709211Y-110488722D01*
X152709211Y-110488722D02*
X152756830Y-110583960D01*
X152756830Y-110583960D02*
X152756830Y-110774436D01*
X152756830Y-110774436D02*
X152804449Y-110869674D01*
X152804449Y-110869674D02*
X152852068Y-110917293D01*
X152852068Y-110917293D02*
X152947306Y-110964912D01*
X152947306Y-110964912D02*
X153137782Y-110964912D01*
X153137782Y-110964912D02*
X153233020Y-110917293D01*
X153233020Y-110917293D02*
X153280640Y-110869674D01*
X153280640Y-110869674D02*
X153328259Y-110774436D01*
X153328259Y-110774436D02*
X153328259Y-110583960D01*
X153328259Y-110583960D02*
X153280640Y-110488722D01*
X153280640Y-110488722D02*
X153233020Y-110441103D01*
X153233020Y-110441103D02*
X153137782Y-110393484D01*
X153137782Y-110393484D02*
X152947306Y-110393484D01*
X152947306Y-110393484D02*
X152852068Y-110441103D01*
X152852068Y-110441103D02*
X152804449Y-110488722D01*
X152804449Y-110488722D02*
X152756830Y-110583960D01*
X140578259Y-112393483D02*
X139578259Y-112393483D01*
X140578259Y-111345865D02*
X140102068Y-111679198D01*
X140578259Y-111917293D02*
X139578259Y-111917293D01*
X139578259Y-111917293D02*
X139578259Y-111536341D01*
X139578259Y-111536341D02*
X139625878Y-111441103D01*
X139625878Y-111441103D02*
X139673497Y-111393484D01*
X139673497Y-111393484D02*
X139768735Y-111345865D01*
X139768735Y-111345865D02*
X139911592Y-111345865D01*
X139911592Y-111345865D02*
X140006830Y-111393484D01*
X140006830Y-111393484D02*
X140054449Y-111441103D01*
X140054449Y-111441103D02*
X140102068Y-111536341D01*
X140102068Y-111536341D02*
X140102068Y-111917293D01*
X139578259Y-111012531D02*
X139578259Y-110393484D01*
X139578259Y-110393484D02*
X139959211Y-110726817D01*
X139959211Y-110726817D02*
X139959211Y-110583960D01*
X139959211Y-110583960D02*
X140006830Y-110488722D01*
X140006830Y-110488722D02*
X140054449Y-110441103D01*
X140054449Y-110441103D02*
X140149687Y-110393484D01*
X140149687Y-110393484D02*
X140387782Y-110393484D01*
X140387782Y-110393484D02*
X140483020Y-110441103D01*
X140483020Y-110441103D02*
X140530640Y-110488722D01*
X140530640Y-110488722D02*
X140578259Y-110583960D01*
X140578259Y-110583960D02*
X140578259Y-110869674D01*
X140578259Y-110869674D02*
X140530640Y-110964912D01*
X140530640Y-110964912D02*
X140483020Y-111012531D01*
X150578259Y-112393483D02*
X149578259Y-112393483D01*
X150578259Y-111345865D02*
X150102068Y-111679198D01*
X150578259Y-111917293D02*
X149578259Y-111917293D01*
X149578259Y-111917293D02*
X149578259Y-111536341D01*
X149578259Y-111536341D02*
X149625878Y-111441103D01*
X149625878Y-111441103D02*
X149673497Y-111393484D01*
X149673497Y-111393484D02*
X149768735Y-111345865D01*
X149768735Y-111345865D02*
X149911592Y-111345865D01*
X149911592Y-111345865D02*
X150006830Y-111393484D01*
X150006830Y-111393484D02*
X150054449Y-111441103D01*
X150054449Y-111441103D02*
X150102068Y-111536341D01*
X150102068Y-111536341D02*
X150102068Y-111917293D01*
X149578259Y-111012531D02*
X149578259Y-110345865D01*
X149578259Y-110345865D02*
X150578259Y-110774436D01*
X171856516Y-40118259D02*
X171856516Y-39118259D01*
X171856516Y-39118259D02*
X172237468Y-39118259D01*
X172237468Y-39118259D02*
X172332706Y-39165878D01*
X172332706Y-39165878D02*
X172380325Y-39213497D01*
X172380325Y-39213497D02*
X172427944Y-39308735D01*
X172427944Y-39308735D02*
X172427944Y-39451592D01*
X172427944Y-39451592D02*
X172380325Y-39546830D01*
X172380325Y-39546830D02*
X172332706Y-39594449D01*
X172332706Y-39594449D02*
X172237468Y-39642068D01*
X172237468Y-39642068D02*
X171856516Y-39642068D01*
X172999373Y-40118259D02*
X172904135Y-40070640D01*
X172904135Y-40070640D02*
X172856516Y-40023020D01*
X172856516Y-40023020D02*
X172808897Y-39927782D01*
X172808897Y-39927782D02*
X172808897Y-39642068D01*
X172808897Y-39642068D02*
X172856516Y-39546830D01*
X172856516Y-39546830D02*
X172904135Y-39499211D01*
X172904135Y-39499211D02*
X172999373Y-39451592D01*
X172999373Y-39451592D02*
X173142230Y-39451592D01*
X173142230Y-39451592D02*
X173237468Y-39499211D01*
X173237468Y-39499211D02*
X173285087Y-39546830D01*
X173285087Y-39546830D02*
X173332706Y-39642068D01*
X173332706Y-39642068D02*
X173332706Y-39927782D01*
X173332706Y-39927782D02*
X173285087Y-40023020D01*
X173285087Y-40023020D02*
X173237468Y-40070640D01*
X173237468Y-40070640D02*
X173142230Y-40118259D01*
X173142230Y-40118259D02*
X172999373Y-40118259D01*
X173666040Y-39451592D02*
X173856516Y-40118259D01*
X173856516Y-40118259D02*
X174046992Y-39642068D01*
X174046992Y-39642068D02*
X174237468Y-40118259D01*
X174237468Y-40118259D02*
X174427944Y-39451592D01*
X175189849Y-40070640D02*
X175094611Y-40118259D01*
X175094611Y-40118259D02*
X174904135Y-40118259D01*
X174904135Y-40118259D02*
X174808897Y-40070640D01*
X174808897Y-40070640D02*
X174761278Y-39975401D01*
X174761278Y-39975401D02*
X174761278Y-39594449D01*
X174761278Y-39594449D02*
X174808897Y-39499211D01*
X174808897Y-39499211D02*
X174904135Y-39451592D01*
X174904135Y-39451592D02*
X175094611Y-39451592D01*
X175094611Y-39451592D02*
X175189849Y-39499211D01*
X175189849Y-39499211D02*
X175237468Y-39594449D01*
X175237468Y-39594449D02*
X175237468Y-39689687D01*
X175237468Y-39689687D02*
X174761278Y-39784925D01*
X175666040Y-40118259D02*
X175666040Y-39451592D01*
X175666040Y-39642068D02*
X175713659Y-39546830D01*
X175713659Y-39546830D02*
X175761278Y-39499211D01*
X175761278Y-39499211D02*
X175856516Y-39451592D01*
X175856516Y-39451592D02*
X175951754Y-39451592D01*
X122199674Y-32846621D02*
X122294912Y-32894240D01*
X122294912Y-32894240D02*
X122437769Y-32894240D01*
X122437769Y-32894240D02*
X122580626Y-32846621D01*
X122580626Y-32846621D02*
X122675864Y-32751383D01*
X122675864Y-32751383D02*
X122723483Y-32656145D01*
X122723483Y-32656145D02*
X122771102Y-32465669D01*
X122771102Y-32465669D02*
X122771102Y-32322812D01*
X122771102Y-32322812D02*
X122723483Y-32132336D01*
X122723483Y-32132336D02*
X122675864Y-32037098D01*
X122675864Y-32037098D02*
X122580626Y-31941860D01*
X122580626Y-31941860D02*
X122437769Y-31894240D01*
X122437769Y-31894240D02*
X122342531Y-31894240D01*
X122342531Y-31894240D02*
X122199674Y-31941860D01*
X122199674Y-31941860D02*
X122152055Y-31989479D01*
X122152055Y-31989479D02*
X122152055Y-32322812D01*
X122152055Y-32322812D02*
X122342531Y-32322812D01*
X121723483Y-31894240D02*
X121723483Y-32894240D01*
X121723483Y-32894240D02*
X121152055Y-31894240D01*
X121152055Y-31894240D02*
X121152055Y-32894240D01*
X120675864Y-31894240D02*
X120675864Y-32894240D01*
X120675864Y-32894240D02*
X120437769Y-32894240D01*
X120437769Y-32894240D02*
X120294912Y-32846621D01*
X120294912Y-32846621D02*
X120199674Y-32751383D01*
X120199674Y-32751383D02*
X120152055Y-32656145D01*
X120152055Y-32656145D02*
X120104436Y-32465669D01*
X120104436Y-32465669D02*
X120104436Y-32322812D01*
X120104436Y-32322812D02*
X120152055Y-32132336D01*
X120152055Y-32132336D02*
X120199674Y-32037098D01*
X120199674Y-32037098D02*
X120294912Y-31941860D01*
X120294912Y-31941860D02*
X120437769Y-31894240D01*
X120437769Y-31894240D02*
X120675864Y-31894240D01*
D12*
X174801926Y-65867869D02*
X174992402Y-65867869D01*
X174992402Y-65867869D02*
X175087640Y-65915488D01*
X175087640Y-65915488D02*
X175182878Y-66010726D01*
X175182878Y-66010726D02*
X175230497Y-66201202D01*
X175230497Y-66201202D02*
X175230497Y-66534535D01*
X175230497Y-66534535D02*
X175182878Y-66725011D01*
X175182878Y-66725011D02*
X175087640Y-66820250D01*
X175087640Y-66820250D02*
X174992402Y-66867869D01*
X174992402Y-66867869D02*
X174801926Y-66867869D01*
X174801926Y-66867869D02*
X174706688Y-66820250D01*
X174706688Y-66820250D02*
X174611450Y-66725011D01*
X174611450Y-66725011D02*
X174563831Y-66534535D01*
X174563831Y-66534535D02*
X174563831Y-66201202D01*
X174563831Y-66201202D02*
X174611450Y-66010726D01*
X174611450Y-66010726D02*
X174706688Y-65915488D01*
X174706688Y-65915488D02*
X174801926Y-65867869D01*
X175659069Y-65867869D02*
X175659069Y-66677392D01*
X175659069Y-66677392D02*
X175706688Y-66772630D01*
X175706688Y-66772630D02*
X175754307Y-66820250D01*
X175754307Y-66820250D02*
X175849545Y-66867869D01*
X175849545Y-66867869D02*
X176040021Y-66867869D01*
X176040021Y-66867869D02*
X176135259Y-66820250D01*
X176135259Y-66820250D02*
X176182878Y-66772630D01*
X176182878Y-66772630D02*
X176230497Y-66677392D01*
X176230497Y-66677392D02*
X176230497Y-65867869D01*
X176563831Y-65867869D02*
X177135259Y-65867869D01*
X176849545Y-66867869D02*
X176849545Y-65867869D01*
X177468593Y-66486916D02*
X178230498Y-66486916D01*
D10*
X193118259Y-46893483D02*
X192118259Y-46893483D01*
X192118259Y-46893483D02*
X192832544Y-46560150D01*
X192832544Y-46560150D02*
X192118259Y-46226817D01*
X192118259Y-46226817D02*
X193118259Y-46226817D01*
X192594449Y-45417293D02*
X192642068Y-45274436D01*
X192642068Y-45274436D02*
X192689687Y-45226817D01*
X192689687Y-45226817D02*
X192784925Y-45179198D01*
X192784925Y-45179198D02*
X192927782Y-45179198D01*
X192927782Y-45179198D02*
X193023020Y-45226817D01*
X193023020Y-45226817D02*
X193070640Y-45274436D01*
X193070640Y-45274436D02*
X193118259Y-45369674D01*
X193118259Y-45369674D02*
X193118259Y-45750626D01*
X193118259Y-45750626D02*
X192118259Y-45750626D01*
X192118259Y-45750626D02*
X192118259Y-45417293D01*
X192118259Y-45417293D02*
X192165878Y-45322055D01*
X192165878Y-45322055D02*
X192213497Y-45274436D01*
X192213497Y-45274436D02*
X192308735Y-45226817D01*
X192308735Y-45226817D02*
X192403973Y-45226817D01*
X192403973Y-45226817D02*
X192499211Y-45274436D01*
X192499211Y-45274436D02*
X192546830Y-45322055D01*
X192546830Y-45322055D02*
X192594449Y-45417293D01*
X192594449Y-45417293D02*
X192594449Y-45750626D01*
X99381740Y-46106516D02*
X100381740Y-46106516D01*
X100381740Y-46106516D02*
X99667455Y-46439849D01*
X99667455Y-46439849D02*
X100381740Y-46773182D01*
X100381740Y-46773182D02*
X99381740Y-46773182D01*
X99667455Y-47201754D02*
X99667455Y-47677944D01*
X99381740Y-47106516D02*
X100381740Y-47439849D01*
X100381740Y-47439849D02*
X99381740Y-47773182D01*
X145578259Y-112393483D02*
X144578259Y-112393483D01*
X145578259Y-111345865D02*
X145102068Y-111679198D01*
X145578259Y-111917293D02*
X144578259Y-111917293D01*
X144578259Y-111917293D02*
X144578259Y-111536341D01*
X144578259Y-111536341D02*
X144625878Y-111441103D01*
X144625878Y-111441103D02*
X144673497Y-111393484D01*
X144673497Y-111393484D02*
X144768735Y-111345865D01*
X144768735Y-111345865D02*
X144911592Y-111345865D01*
X144911592Y-111345865D02*
X145006830Y-111393484D01*
X145006830Y-111393484D02*
X145054449Y-111441103D01*
X145054449Y-111441103D02*
X145102068Y-111536341D01*
X145102068Y-111536341D02*
X145102068Y-111917293D01*
X144578259Y-110441103D02*
X144578259Y-110917293D01*
X144578259Y-110917293D02*
X145054449Y-110964912D01*
X145054449Y-110964912D02*
X145006830Y-110917293D01*
X145006830Y-110917293D02*
X144959211Y-110822055D01*
X144959211Y-110822055D02*
X144959211Y-110583960D01*
X144959211Y-110583960D02*
X145006830Y-110488722D01*
X145006830Y-110488722D02*
X145054449Y-110441103D01*
X145054449Y-110441103D02*
X145149687Y-110393484D01*
X145149687Y-110393484D02*
X145387782Y-110393484D01*
X145387782Y-110393484D02*
X145483020Y-110441103D01*
X145483020Y-110441103D02*
X145530640Y-110488722D01*
X145530640Y-110488722D02*
X145578259Y-110583960D01*
X145578259Y-110583960D02*
X145578259Y-110822055D01*
X145578259Y-110822055D02*
X145530640Y-110917293D01*
X145530640Y-110917293D02*
X145483020Y-110964912D01*
D12*
X175051926Y-47117869D02*
X175242402Y-47117869D01*
X175242402Y-47117869D02*
X175337640Y-47165488D01*
X175337640Y-47165488D02*
X175432878Y-47260726D01*
X175432878Y-47260726D02*
X175480497Y-47451202D01*
X175480497Y-47451202D02*
X175480497Y-47784535D01*
X175480497Y-47784535D02*
X175432878Y-47975011D01*
X175432878Y-47975011D02*
X175337640Y-48070250D01*
X175337640Y-48070250D02*
X175242402Y-48117869D01*
X175242402Y-48117869D02*
X175051926Y-48117869D01*
X175051926Y-48117869D02*
X174956688Y-48070250D01*
X174956688Y-48070250D02*
X174861450Y-47975011D01*
X174861450Y-47975011D02*
X174813831Y-47784535D01*
X174813831Y-47784535D02*
X174813831Y-47451202D01*
X174813831Y-47451202D02*
X174861450Y-47260726D01*
X174861450Y-47260726D02*
X174956688Y-47165488D01*
X174956688Y-47165488D02*
X175051926Y-47117869D01*
X175909069Y-47117869D02*
X175909069Y-47927392D01*
X175909069Y-47927392D02*
X175956688Y-48022630D01*
X175956688Y-48022630D02*
X176004307Y-48070250D01*
X176004307Y-48070250D02*
X176099545Y-48117869D01*
X176099545Y-48117869D02*
X176290021Y-48117869D01*
X176290021Y-48117869D02*
X176385259Y-48070250D01*
X176385259Y-48070250D02*
X176432878Y-48022630D01*
X176432878Y-48022630D02*
X176480497Y-47927392D01*
X176480497Y-47927392D02*
X176480497Y-47117869D01*
X176813831Y-47117869D02*
X177385259Y-47117869D01*
X177099545Y-48117869D02*
X177099545Y-47117869D01*
X177718593Y-47736916D02*
X178480498Y-47736916D01*
X178099545Y-48117869D02*
X178099545Y-47355964D01*
D10*
X158558897Y-51213497D02*
X158606516Y-51165878D01*
X158606516Y-51165878D02*
X158701754Y-51118259D01*
X158701754Y-51118259D02*
X158939849Y-51118259D01*
X158939849Y-51118259D02*
X159035087Y-51165878D01*
X159035087Y-51165878D02*
X159082706Y-51213497D01*
X159082706Y-51213497D02*
X159130325Y-51308735D01*
X159130325Y-51308735D02*
X159130325Y-51403973D01*
X159130325Y-51403973D02*
X159082706Y-51546830D01*
X159082706Y-51546830D02*
X158511278Y-52118259D01*
X158511278Y-52118259D02*
X159130325Y-52118259D01*
X159511278Y-51213497D02*
X159558897Y-51165878D01*
X159558897Y-51165878D02*
X159654135Y-51118259D01*
X159654135Y-51118259D02*
X159892230Y-51118259D01*
X159892230Y-51118259D02*
X159987468Y-51165878D01*
X159987468Y-51165878D02*
X160035087Y-51213497D01*
X160035087Y-51213497D02*
X160082706Y-51308735D01*
X160082706Y-51308735D02*
X160082706Y-51403973D01*
X160082706Y-51403973D02*
X160035087Y-51546830D01*
X160035087Y-51546830D02*
X159463659Y-52118259D01*
X159463659Y-52118259D02*
X160082706Y-52118259D01*
X160701754Y-51118259D02*
X160796992Y-51118259D01*
X160796992Y-51118259D02*
X160892230Y-51165878D01*
X160892230Y-51165878D02*
X160939849Y-51213497D01*
X160939849Y-51213497D02*
X160987468Y-51308735D01*
X160987468Y-51308735D02*
X161035087Y-51499211D01*
X161035087Y-51499211D02*
X161035087Y-51737306D01*
X161035087Y-51737306D02*
X160987468Y-51927782D01*
X160987468Y-51927782D02*
X160939849Y-52023020D01*
X160939849Y-52023020D02*
X160892230Y-52070640D01*
X160892230Y-52070640D02*
X160796992Y-52118259D01*
X160796992Y-52118259D02*
X160701754Y-52118259D01*
X160701754Y-52118259D02*
X160606516Y-52070640D01*
X160606516Y-52070640D02*
X160558897Y-52023020D01*
X160558897Y-52023020D02*
X160511278Y-51927782D01*
X160511278Y-51927782D02*
X160463659Y-51737306D01*
X160463659Y-51737306D02*
X160463659Y-51499211D01*
X160463659Y-51499211D02*
X160511278Y-51308735D01*
X160511278Y-51308735D02*
X160558897Y-51213497D01*
X160558897Y-51213497D02*
X160606516Y-51165878D01*
X160606516Y-51165878D02*
X160701754Y-51118259D01*
D11*
X153336779Y-31738866D02*
X154098684Y-31738866D01*
D10*
X131933483Y-31144240D02*
X131933483Y-32144240D01*
X131933483Y-32144240D02*
X131600150Y-31429955D01*
X131600150Y-31429955D02*
X131266817Y-32144240D01*
X131266817Y-32144240D02*
X131266817Y-31144240D01*
X130647769Y-31144240D02*
X130743007Y-31191860D01*
X130743007Y-31191860D02*
X130790626Y-31239479D01*
X130790626Y-31239479D02*
X130838245Y-31334717D01*
X130838245Y-31334717D02*
X130838245Y-31620431D01*
X130838245Y-31620431D02*
X130790626Y-31715669D01*
X130790626Y-31715669D02*
X130743007Y-31763288D01*
X130743007Y-31763288D02*
X130647769Y-31810907D01*
X130647769Y-31810907D02*
X130504912Y-31810907D01*
X130504912Y-31810907D02*
X130409674Y-31763288D01*
X130409674Y-31763288D02*
X130362055Y-31715669D01*
X130362055Y-31715669D02*
X130314436Y-31620431D01*
X130314436Y-31620431D02*
X130314436Y-31334717D01*
X130314436Y-31334717D02*
X130362055Y-31239479D01*
X130362055Y-31239479D02*
X130409674Y-31191860D01*
X130409674Y-31191860D02*
X130504912Y-31144240D01*
X130504912Y-31144240D02*
X130647769Y-31144240D01*
X129457293Y-31144240D02*
X129457293Y-32144240D01*
X129457293Y-31191860D02*
X129552531Y-31144240D01*
X129552531Y-31144240D02*
X129743007Y-31144240D01*
X129743007Y-31144240D02*
X129838245Y-31191860D01*
X129838245Y-31191860D02*
X129885864Y-31239479D01*
X129885864Y-31239479D02*
X129933483Y-31334717D01*
X129933483Y-31334717D02*
X129933483Y-31620431D01*
X129933483Y-31620431D02*
X129885864Y-31715669D01*
X129885864Y-31715669D02*
X129838245Y-31763288D01*
X129838245Y-31763288D02*
X129743007Y-31810907D01*
X129743007Y-31810907D02*
X129552531Y-31810907D01*
X129552531Y-31810907D02*
X129457293Y-31763288D01*
X128600150Y-31191860D02*
X128695388Y-31144240D01*
X128695388Y-31144240D02*
X128885864Y-31144240D01*
X128885864Y-31144240D02*
X128981102Y-31191860D01*
X128981102Y-31191860D02*
X129028721Y-31287098D01*
X129028721Y-31287098D02*
X129028721Y-31668050D01*
X129028721Y-31668050D02*
X128981102Y-31763288D01*
X128981102Y-31763288D02*
X128885864Y-31810907D01*
X128885864Y-31810907D02*
X128695388Y-31810907D01*
X128695388Y-31810907D02*
X128600150Y-31763288D01*
X128600150Y-31763288D02*
X128552531Y-31668050D01*
X128552531Y-31668050D02*
X128552531Y-31572812D01*
X128552531Y-31572812D02*
X129028721Y-31477574D01*
X148078259Y-112393483D02*
X147078259Y-112393483D01*
X148078259Y-111345865D02*
X147602068Y-111679198D01*
X148078259Y-111917293D02*
X147078259Y-111917293D01*
X147078259Y-111917293D02*
X147078259Y-111536341D01*
X147078259Y-111536341D02*
X147125878Y-111441103D01*
X147125878Y-111441103D02*
X147173497Y-111393484D01*
X147173497Y-111393484D02*
X147268735Y-111345865D01*
X147268735Y-111345865D02*
X147411592Y-111345865D01*
X147411592Y-111345865D02*
X147506830Y-111393484D01*
X147506830Y-111393484D02*
X147554449Y-111441103D01*
X147554449Y-111441103D02*
X147602068Y-111536341D01*
X147602068Y-111536341D02*
X147602068Y-111917293D01*
X147078259Y-110488722D02*
X147078259Y-110679198D01*
X147078259Y-110679198D02*
X147125878Y-110774436D01*
X147125878Y-110774436D02*
X147173497Y-110822055D01*
X147173497Y-110822055D02*
X147316354Y-110917293D01*
X147316354Y-110917293D02*
X147506830Y-110964912D01*
X147506830Y-110964912D02*
X147887782Y-110964912D01*
X147887782Y-110964912D02*
X147983020Y-110917293D01*
X147983020Y-110917293D02*
X148030640Y-110869674D01*
X148030640Y-110869674D02*
X148078259Y-110774436D01*
X148078259Y-110774436D02*
X148078259Y-110583960D01*
X148078259Y-110583960D02*
X148030640Y-110488722D01*
X148030640Y-110488722D02*
X147983020Y-110441103D01*
X147983020Y-110441103D02*
X147887782Y-110393484D01*
X147887782Y-110393484D02*
X147649687Y-110393484D01*
X147649687Y-110393484D02*
X147554449Y-110441103D01*
X147554449Y-110441103D02*
X147506830Y-110488722D01*
X147506830Y-110488722D02*
X147459211Y-110583960D01*
X147459211Y-110583960D02*
X147459211Y-110774436D01*
X147459211Y-110774436D02*
X147506830Y-110869674D01*
X147506830Y-110869674D02*
X147554449Y-110917293D01*
X147554449Y-110917293D02*
X147649687Y-110964912D01*
X117826340Y-32894240D02*
X117493007Y-31894240D01*
X117493007Y-31894240D02*
X117159674Y-32894240D01*
X117064436Y-31799002D02*
X116302531Y-31799002D01*
X115731102Y-32418050D02*
X115588245Y-32370431D01*
X115588245Y-32370431D02*
X115540626Y-32322812D01*
X115540626Y-32322812D02*
X115493007Y-32227574D01*
X115493007Y-32227574D02*
X115493007Y-32084717D01*
X115493007Y-32084717D02*
X115540626Y-31989479D01*
X115540626Y-31989479D02*
X115588245Y-31941860D01*
X115588245Y-31941860D02*
X115683483Y-31894240D01*
X115683483Y-31894240D02*
X116064435Y-31894240D01*
X116064435Y-31894240D02*
X116064435Y-32894240D01*
X116064435Y-32894240D02*
X115731102Y-32894240D01*
X115731102Y-32894240D02*
X115635864Y-32846621D01*
X115635864Y-32846621D02*
X115588245Y-32799002D01*
X115588245Y-32799002D02*
X115540626Y-32703764D01*
X115540626Y-32703764D02*
X115540626Y-32608526D01*
X115540626Y-32608526D02*
X115588245Y-32513288D01*
X115588245Y-32513288D02*
X115635864Y-32465669D01*
X115635864Y-32465669D02*
X115731102Y-32418050D01*
X115731102Y-32418050D02*
X116064435Y-32418050D01*
X115112054Y-32179955D02*
X114635864Y-32179955D01*
X115207292Y-31894240D02*
X114873959Y-32894240D01*
X114873959Y-32894240D02*
X114540626Y-31894240D01*
X114350149Y-32894240D02*
X113778721Y-32894240D01*
X114064435Y-31894240D02*
X114064435Y-32894240D01*
D11*
X106988095Y-31954819D02*
X106988095Y-30954819D01*
X106988095Y-31431009D02*
X107559523Y-31431009D01*
X107559523Y-31954819D02*
X107559523Y-30954819D01*
X108559523Y-31954819D02*
X107988095Y-31954819D01*
X108273809Y-31954819D02*
X108273809Y-30954819D01*
X108273809Y-30954819D02*
X108178571Y-31097676D01*
X108178571Y-31097676D02*
X108083333Y-31192914D01*
X108083333Y-31192914D02*
X107988095Y-31240533D01*
X184238095Y-31954819D02*
X184238095Y-30954819D01*
X184238095Y-31431009D02*
X184809523Y-31431009D01*
X184809523Y-31954819D02*
X184809523Y-30954819D01*
X185238095Y-31050057D02*
X185285714Y-31002438D01*
X185285714Y-31002438D02*
X185380952Y-30954819D01*
X185380952Y-30954819D02*
X185619047Y-30954819D01*
X185619047Y-30954819D02*
X185714285Y-31002438D01*
X185714285Y-31002438D02*
X185761904Y-31050057D01*
X185761904Y-31050057D02*
X185809523Y-31145295D01*
X185809523Y-31145295D02*
X185809523Y-31240533D01*
X185809523Y-31240533D02*
X185761904Y-31383390D01*
X185761904Y-31383390D02*
X185190476Y-31954819D01*
X185190476Y-31954819D02*
X185809523Y-31954819D01*
X114488095Y-104954819D02*
X114488095Y-103954819D01*
X114488095Y-104431009D02*
X115059523Y-104431009D01*
X115059523Y-104954819D02*
X115059523Y-103954819D01*
X115440476Y-103954819D02*
X116059523Y-103954819D01*
X116059523Y-103954819D02*
X115726190Y-104335771D01*
X115726190Y-104335771D02*
X115869047Y-104335771D01*
X115869047Y-104335771D02*
X115964285Y-104383390D01*
X115964285Y-104383390D02*
X116011904Y-104431009D01*
X116011904Y-104431009D02*
X116059523Y-104526247D01*
X116059523Y-104526247D02*
X116059523Y-104764342D01*
X116059523Y-104764342D02*
X116011904Y-104859580D01*
X116011904Y-104859580D02*
X115964285Y-104907200D01*
X115964285Y-104907200D02*
X115869047Y-104954819D01*
X115869047Y-104954819D02*
X115583333Y-104954819D01*
X115583333Y-104954819D02*
X115488095Y-104907200D01*
X115488095Y-104907200D02*
X115440476Y-104859580D01*
X176738095Y-104704819D02*
X176738095Y-103704819D01*
X176738095Y-104181009D02*
X177309523Y-104181009D01*
X177309523Y-104704819D02*
X177309523Y-103704819D01*
X178214285Y-104038152D02*
X178214285Y-104704819D01*
X177976190Y-103657200D02*
X177738095Y-104371485D01*
X177738095Y-104371485D02*
X178357142Y-104371485D01*
X121687142Y-47204819D02*
X121353809Y-46728628D01*
X121115714Y-47204819D02*
X121115714Y-46204819D01*
X121115714Y-46204819D02*
X121496666Y-46204819D01*
X121496666Y-46204819D02*
X121591904Y-46252438D01*
X121591904Y-46252438D02*
X121639523Y-46300057D01*
X121639523Y-46300057D02*
X121687142Y-46395295D01*
X121687142Y-46395295D02*
X121687142Y-46538152D01*
X121687142Y-46538152D02*
X121639523Y-46633390D01*
X121639523Y-46633390D02*
X121591904Y-46681009D01*
X121591904Y-46681009D02*
X121496666Y-46728628D01*
X121496666Y-46728628D02*
X121115714Y-46728628D01*
X122639523Y-47204819D02*
X122068095Y-47204819D01*
X122353809Y-47204819D02*
X122353809Y-46204819D01*
X122353809Y-46204819D02*
X122258571Y-46347676D01*
X122258571Y-46347676D02*
X122163333Y-46442914D01*
X122163333Y-46442914D02*
X122068095Y-46490533D01*
X123496666Y-46538152D02*
X123496666Y-47204819D01*
X123258571Y-46157200D02*
X123020476Y-46871485D01*
X123020476Y-46871485D02*
X123639523Y-46871485D01*
X172336667Y-36907200D02*
X172479524Y-36954819D01*
X172479524Y-36954819D02*
X172717619Y-36954819D01*
X172717619Y-36954819D02*
X172812857Y-36907200D01*
X172812857Y-36907200D02*
X172860476Y-36859580D01*
X172860476Y-36859580D02*
X172908095Y-36764342D01*
X172908095Y-36764342D02*
X172908095Y-36669104D01*
X172908095Y-36669104D02*
X172860476Y-36573866D01*
X172860476Y-36573866D02*
X172812857Y-36526247D01*
X172812857Y-36526247D02*
X172717619Y-36478628D01*
X172717619Y-36478628D02*
X172527143Y-36431009D01*
X172527143Y-36431009D02*
X172431905Y-36383390D01*
X172431905Y-36383390D02*
X172384286Y-36335771D01*
X172384286Y-36335771D02*
X172336667Y-36240533D01*
X172336667Y-36240533D02*
X172336667Y-36145295D01*
X172336667Y-36145295D02*
X172384286Y-36050057D01*
X172384286Y-36050057D02*
X172431905Y-36002438D01*
X172431905Y-36002438D02*
X172527143Y-35954819D01*
X172527143Y-35954819D02*
X172765238Y-35954819D01*
X172765238Y-35954819D02*
X172908095Y-36002438D01*
X173241429Y-35954819D02*
X173479524Y-36954819D01*
X173479524Y-36954819D02*
X173670000Y-36240533D01*
X173670000Y-36240533D02*
X173860476Y-36954819D01*
X173860476Y-36954819D02*
X174098572Y-35954819D01*
X175003333Y-36954819D02*
X174431905Y-36954819D01*
X174717619Y-36954819D02*
X174717619Y-35954819D01*
X174717619Y-35954819D02*
X174622381Y-36097676D01*
X174622381Y-36097676D02*
X174527143Y-36192914D01*
X174527143Y-36192914D02*
X174431905Y-36240533D01*
X181690476Y-38494819D02*
X181690476Y-39209104D01*
X181690476Y-39209104D02*
X181642857Y-39351961D01*
X181642857Y-39351961D02*
X181547619Y-39447200D01*
X181547619Y-39447200D02*
X181404762Y-39494819D01*
X181404762Y-39494819D02*
X181309524Y-39494819D01*
X182690476Y-39494819D02*
X182119048Y-39494819D01*
X182404762Y-39494819D02*
X182404762Y-38494819D01*
X182404762Y-38494819D02*
X182309524Y-38637676D01*
X182309524Y-38637676D02*
X182214286Y-38732914D01*
X182214286Y-38732914D02*
X182119048Y-38780533D01*
X183309524Y-38494819D02*
X183404762Y-38494819D01*
X183404762Y-38494819D02*
X183500000Y-38542438D01*
X183500000Y-38542438D02*
X183547619Y-38590057D01*
X183547619Y-38590057D02*
X183595238Y-38685295D01*
X183595238Y-38685295D02*
X183642857Y-38875771D01*
X183642857Y-38875771D02*
X183642857Y-39113866D01*
X183642857Y-39113866D02*
X183595238Y-39304342D01*
X183595238Y-39304342D02*
X183547619Y-39399580D01*
X183547619Y-39399580D02*
X183500000Y-39447200D01*
X183500000Y-39447200D02*
X183404762Y-39494819D01*
X183404762Y-39494819D02*
X183309524Y-39494819D01*
X183309524Y-39494819D02*
X183214286Y-39447200D01*
X183214286Y-39447200D02*
X183166667Y-39399580D01*
X183166667Y-39399580D02*
X183119048Y-39304342D01*
X183119048Y-39304342D02*
X183071429Y-39113866D01*
X183071429Y-39113866D02*
X183071429Y-38875771D01*
X183071429Y-38875771D02*
X183119048Y-38685295D01*
X183119048Y-38685295D02*
X183166667Y-38590057D01*
X183166667Y-38590057D02*
X183214286Y-38542438D01*
X183214286Y-38542438D02*
X183309524Y-38494819D01*
X176181905Y-73454819D02*
X176181905Y-72454819D01*
X176181905Y-72454819D02*
X176420000Y-72454819D01*
X176420000Y-72454819D02*
X176562857Y-72502438D01*
X176562857Y-72502438D02*
X176658095Y-72597676D01*
X176658095Y-72597676D02*
X176705714Y-72692914D01*
X176705714Y-72692914D02*
X176753333Y-72883390D01*
X176753333Y-72883390D02*
X176753333Y-73026247D01*
X176753333Y-73026247D02*
X176705714Y-73216723D01*
X176705714Y-73216723D02*
X176658095Y-73311961D01*
X176658095Y-73311961D02*
X176562857Y-73407200D01*
X176562857Y-73407200D02*
X176420000Y-73454819D01*
X176420000Y-73454819D02*
X176181905Y-73454819D01*
X177134286Y-72550057D02*
X177181905Y-72502438D01*
X177181905Y-72502438D02*
X177277143Y-72454819D01*
X177277143Y-72454819D02*
X177515238Y-72454819D01*
X177515238Y-72454819D02*
X177610476Y-72502438D01*
X177610476Y-72502438D02*
X177658095Y-72550057D01*
X177658095Y-72550057D02*
X177705714Y-72645295D01*
X177705714Y-72645295D02*
X177705714Y-72740533D01*
X177705714Y-72740533D02*
X177658095Y-72883390D01*
X177658095Y-72883390D02*
X177086667Y-73454819D01*
X177086667Y-73454819D02*
X177705714Y-73454819D01*
X108666666Y-38954819D02*
X108666666Y-39669104D01*
X108666666Y-39669104D02*
X108619047Y-39811961D01*
X108619047Y-39811961D02*
X108523809Y-39907200D01*
X108523809Y-39907200D02*
X108380952Y-39954819D01*
X108380952Y-39954819D02*
X108285714Y-39954819D01*
X109190476Y-39954819D02*
X109380952Y-39954819D01*
X109380952Y-39954819D02*
X109476190Y-39907200D01*
X109476190Y-39907200D02*
X109523809Y-39859580D01*
X109523809Y-39859580D02*
X109619047Y-39716723D01*
X109619047Y-39716723D02*
X109666666Y-39526247D01*
X109666666Y-39526247D02*
X109666666Y-39145295D01*
X109666666Y-39145295D02*
X109619047Y-39050057D01*
X109619047Y-39050057D02*
X109571428Y-39002438D01*
X109571428Y-39002438D02*
X109476190Y-38954819D01*
X109476190Y-38954819D02*
X109285714Y-38954819D01*
X109285714Y-38954819D02*
X109190476Y-39002438D01*
X109190476Y-39002438D02*
X109142857Y-39050057D01*
X109142857Y-39050057D02*
X109095238Y-39145295D01*
X109095238Y-39145295D02*
X109095238Y-39383390D01*
X109095238Y-39383390D02*
X109142857Y-39478628D01*
X109142857Y-39478628D02*
X109190476Y-39526247D01*
X109190476Y-39526247D02*
X109285714Y-39573866D01*
X109285714Y-39573866D02*
X109476190Y-39573866D01*
X109476190Y-39573866D02*
X109571428Y-39526247D01*
X109571428Y-39526247D02*
X109619047Y-39478628D01*
X109619047Y-39478628D02*
X109666666Y-39383390D01*
X112954819Y-99756904D02*
X113764342Y-99756904D01*
X113764342Y-99756904D02*
X113859580Y-99709285D01*
X113859580Y-99709285D02*
X113907200Y-99661666D01*
X113907200Y-99661666D02*
X113954819Y-99566428D01*
X113954819Y-99566428D02*
X113954819Y-99375952D01*
X113954819Y-99375952D02*
X113907200Y-99280714D01*
X113907200Y-99280714D02*
X113859580Y-99233095D01*
X113859580Y-99233095D02*
X113764342Y-99185476D01*
X113764342Y-99185476D02*
X112954819Y-99185476D01*
X113954819Y-98185476D02*
X113954819Y-98756904D01*
X113954819Y-98471190D02*
X112954819Y-98471190D01*
X112954819Y-98471190D02*
X113097676Y-98566428D01*
X113097676Y-98566428D02*
X113192914Y-98661666D01*
X113192914Y-98661666D02*
X113240533Y-98756904D01*
X136687142Y-47454819D02*
X136353809Y-46978628D01*
X136115714Y-47454819D02*
X136115714Y-46454819D01*
X136115714Y-46454819D02*
X136496666Y-46454819D01*
X136496666Y-46454819D02*
X136591904Y-46502438D01*
X136591904Y-46502438D02*
X136639523Y-46550057D01*
X136639523Y-46550057D02*
X136687142Y-46645295D01*
X136687142Y-46645295D02*
X136687142Y-46788152D01*
X136687142Y-46788152D02*
X136639523Y-46883390D01*
X136639523Y-46883390D02*
X136591904Y-46931009D01*
X136591904Y-46931009D02*
X136496666Y-46978628D01*
X136496666Y-46978628D02*
X136115714Y-46978628D01*
X137639523Y-47454819D02*
X137068095Y-47454819D01*
X137353809Y-47454819D02*
X137353809Y-46454819D01*
X137353809Y-46454819D02*
X137258571Y-46597676D01*
X137258571Y-46597676D02*
X137163333Y-46692914D01*
X137163333Y-46692914D02*
X137068095Y-46740533D01*
X137972857Y-46454819D02*
X138591904Y-46454819D01*
X138591904Y-46454819D02*
X138258571Y-46835771D01*
X138258571Y-46835771D02*
X138401428Y-46835771D01*
X138401428Y-46835771D02*
X138496666Y-46883390D01*
X138496666Y-46883390D02*
X138544285Y-46931009D01*
X138544285Y-46931009D02*
X138591904Y-47026247D01*
X138591904Y-47026247D02*
X138591904Y-47264342D01*
X138591904Y-47264342D02*
X138544285Y-47359580D01*
X138544285Y-47359580D02*
X138496666Y-47407200D01*
X138496666Y-47407200D02*
X138401428Y-47454819D01*
X138401428Y-47454819D02*
X138115714Y-47454819D01*
X138115714Y-47454819D02*
X138020476Y-47407200D01*
X138020476Y-47407200D02*
X137972857Y-47359580D01*
X120318095Y-37217319D02*
X120889523Y-37217319D01*
X120603809Y-38217319D02*
X120603809Y-37217319D01*
X121222857Y-38217319D02*
X121222857Y-37217319D01*
X121222857Y-37217319D02*
X121603809Y-37217319D01*
X121603809Y-37217319D02*
X121699047Y-37264938D01*
X121699047Y-37264938D02*
X121746666Y-37312557D01*
X121746666Y-37312557D02*
X121794285Y-37407795D01*
X121794285Y-37407795D02*
X121794285Y-37550652D01*
X121794285Y-37550652D02*
X121746666Y-37645890D01*
X121746666Y-37645890D02*
X121699047Y-37693509D01*
X121699047Y-37693509D02*
X121603809Y-37741128D01*
X121603809Y-37741128D02*
X121222857Y-37741128D01*
X122175238Y-37312557D02*
X122222857Y-37264938D01*
X122222857Y-37264938D02*
X122318095Y-37217319D01*
X122318095Y-37217319D02*
X122556190Y-37217319D01*
X122556190Y-37217319D02*
X122651428Y-37264938D01*
X122651428Y-37264938D02*
X122699047Y-37312557D01*
X122699047Y-37312557D02*
X122746666Y-37407795D01*
X122746666Y-37407795D02*
X122746666Y-37503033D01*
X122746666Y-37503033D02*
X122699047Y-37645890D01*
X122699047Y-37645890D02*
X122127619Y-38217319D01*
X122127619Y-38217319D02*
X122746666Y-38217319D01*
X112109580Y-67166666D02*
X112157200Y-67214285D01*
X112157200Y-67214285D02*
X112204819Y-67357142D01*
X112204819Y-67357142D02*
X112204819Y-67452380D01*
X112204819Y-67452380D02*
X112157200Y-67595237D01*
X112157200Y-67595237D02*
X112061961Y-67690475D01*
X112061961Y-67690475D02*
X111966723Y-67738094D01*
X111966723Y-67738094D02*
X111776247Y-67785713D01*
X111776247Y-67785713D02*
X111633390Y-67785713D01*
X111633390Y-67785713D02*
X111442914Y-67738094D01*
X111442914Y-67738094D02*
X111347676Y-67690475D01*
X111347676Y-67690475D02*
X111252438Y-67595237D01*
X111252438Y-67595237D02*
X111204819Y-67452380D01*
X111204819Y-67452380D02*
X111204819Y-67357142D01*
X111204819Y-67357142D02*
X111252438Y-67214285D01*
X111252438Y-67214285D02*
X111300057Y-67166666D01*
X111633390Y-66595237D02*
X111585771Y-66690475D01*
X111585771Y-66690475D02*
X111538152Y-66738094D01*
X111538152Y-66738094D02*
X111442914Y-66785713D01*
X111442914Y-66785713D02*
X111395295Y-66785713D01*
X111395295Y-66785713D02*
X111300057Y-66738094D01*
X111300057Y-66738094D02*
X111252438Y-66690475D01*
X111252438Y-66690475D02*
X111204819Y-66595237D01*
X111204819Y-66595237D02*
X111204819Y-66404761D01*
X111204819Y-66404761D02*
X111252438Y-66309523D01*
X111252438Y-66309523D02*
X111300057Y-66261904D01*
X111300057Y-66261904D02*
X111395295Y-66214285D01*
X111395295Y-66214285D02*
X111442914Y-66214285D01*
X111442914Y-66214285D02*
X111538152Y-66261904D01*
X111538152Y-66261904D02*
X111585771Y-66309523D01*
X111585771Y-66309523D02*
X111633390Y-66404761D01*
X111633390Y-66404761D02*
X111633390Y-66595237D01*
X111633390Y-66595237D02*
X111681009Y-66690475D01*
X111681009Y-66690475D02*
X111728628Y-66738094D01*
X111728628Y-66738094D02*
X111823866Y-66785713D01*
X111823866Y-66785713D02*
X112014342Y-66785713D01*
X112014342Y-66785713D02*
X112109580Y-66738094D01*
X112109580Y-66738094D02*
X112157200Y-66690475D01*
X112157200Y-66690475D02*
X112204819Y-66595237D01*
X112204819Y-66595237D02*
X112204819Y-66404761D01*
X112204819Y-66404761D02*
X112157200Y-66309523D01*
X112157200Y-66309523D02*
X112109580Y-66261904D01*
X112109580Y-66261904D02*
X112014342Y-66214285D01*
X112014342Y-66214285D02*
X111823866Y-66214285D01*
X111823866Y-66214285D02*
X111728628Y-66261904D01*
X111728628Y-66261904D02*
X111681009Y-66309523D01*
X111681009Y-66309523D02*
X111633390Y-66404761D01*
X114778095Y-37465319D02*
X115349523Y-37465319D01*
X115063809Y-38465319D02*
X115063809Y-37465319D01*
X115682857Y-38465319D02*
X115682857Y-37465319D01*
X115682857Y-37465319D02*
X116063809Y-37465319D01*
X116063809Y-37465319D02*
X116159047Y-37512938D01*
X116159047Y-37512938D02*
X116206666Y-37560557D01*
X116206666Y-37560557D02*
X116254285Y-37655795D01*
X116254285Y-37655795D02*
X116254285Y-37798652D01*
X116254285Y-37798652D02*
X116206666Y-37893890D01*
X116206666Y-37893890D02*
X116159047Y-37941509D01*
X116159047Y-37941509D02*
X116063809Y-37989128D01*
X116063809Y-37989128D02*
X115682857Y-37989128D01*
X117206666Y-38465319D02*
X116635238Y-38465319D01*
X116920952Y-38465319D02*
X116920952Y-37465319D01*
X116920952Y-37465319D02*
X116825714Y-37608176D01*
X116825714Y-37608176D02*
X116730476Y-37703414D01*
X116730476Y-37703414D02*
X116635238Y-37751033D01*
X121988095Y-70204819D02*
X121988095Y-71014342D01*
X121988095Y-71014342D02*
X122035714Y-71109580D01*
X122035714Y-71109580D02*
X122083333Y-71157200D01*
X122083333Y-71157200D02*
X122178571Y-71204819D01*
X122178571Y-71204819D02*
X122369047Y-71204819D01*
X122369047Y-71204819D02*
X122464285Y-71157200D01*
X122464285Y-71157200D02*
X122511904Y-71109580D01*
X122511904Y-71109580D02*
X122559523Y-71014342D01*
X122559523Y-71014342D02*
X122559523Y-70204819D01*
X122940476Y-70204819D02*
X123559523Y-70204819D01*
X123559523Y-70204819D02*
X123226190Y-70585771D01*
X123226190Y-70585771D02*
X123369047Y-70585771D01*
X123369047Y-70585771D02*
X123464285Y-70633390D01*
X123464285Y-70633390D02*
X123511904Y-70681009D01*
X123511904Y-70681009D02*
X123559523Y-70776247D01*
X123559523Y-70776247D02*
X123559523Y-71014342D01*
X123559523Y-71014342D02*
X123511904Y-71109580D01*
X123511904Y-71109580D02*
X123464285Y-71157200D01*
X123464285Y-71157200D02*
X123369047Y-71204819D01*
X123369047Y-71204819D02*
X123083333Y-71204819D01*
X123083333Y-71204819D02*
X122988095Y-71157200D01*
X122988095Y-71157200D02*
X122940476Y-71109580D01*
X179704819Y-93996666D02*
X179228628Y-94329999D01*
X179704819Y-94568094D02*
X178704819Y-94568094D01*
X178704819Y-94568094D02*
X178704819Y-94187142D01*
X178704819Y-94187142D02*
X178752438Y-94091904D01*
X178752438Y-94091904D02*
X178800057Y-94044285D01*
X178800057Y-94044285D02*
X178895295Y-93996666D01*
X178895295Y-93996666D02*
X179038152Y-93996666D01*
X179038152Y-93996666D02*
X179133390Y-94044285D01*
X179133390Y-94044285D02*
X179181009Y-94091904D01*
X179181009Y-94091904D02*
X179228628Y-94187142D01*
X179228628Y-94187142D02*
X179228628Y-94568094D01*
X178800057Y-93615713D02*
X178752438Y-93568094D01*
X178752438Y-93568094D02*
X178704819Y-93472856D01*
X178704819Y-93472856D02*
X178704819Y-93234761D01*
X178704819Y-93234761D02*
X178752438Y-93139523D01*
X178752438Y-93139523D02*
X178800057Y-93091904D01*
X178800057Y-93091904D02*
X178895295Y-93044285D01*
X178895295Y-93044285D02*
X178990533Y-93044285D01*
X178990533Y-93044285D02*
X179133390Y-93091904D01*
X179133390Y-93091904D02*
X179704819Y-93663332D01*
X179704819Y-93663332D02*
X179704819Y-93044285D01*
X157418333Y-44466366D02*
X157418333Y-45466366D01*
X157418333Y-45466366D02*
X157351666Y-45666366D01*
X157351666Y-45666366D02*
X157218333Y-45799700D01*
X157218333Y-45799700D02*
X157018333Y-45866366D01*
X157018333Y-45866366D02*
X156885000Y-45866366D01*
X158818333Y-45866366D02*
X158018333Y-45866366D01*
X158418333Y-45866366D02*
X158418333Y-44466366D01*
X158418333Y-44466366D02*
X158285000Y-44666366D01*
X158285000Y-44666366D02*
X158151667Y-44799700D01*
X158151667Y-44799700D02*
X158018333Y-44866366D01*
D10*
X144916667Y-41905640D02*
X145059524Y-41953259D01*
X145059524Y-41953259D02*
X145297619Y-41953259D01*
X145297619Y-41953259D02*
X145392857Y-41905640D01*
X145392857Y-41905640D02*
X145440476Y-41858020D01*
X145440476Y-41858020D02*
X145488095Y-41762782D01*
X145488095Y-41762782D02*
X145488095Y-41667544D01*
X145488095Y-41667544D02*
X145440476Y-41572306D01*
X145440476Y-41572306D02*
X145392857Y-41524687D01*
X145392857Y-41524687D02*
X145297619Y-41477068D01*
X145297619Y-41477068D02*
X145107143Y-41429449D01*
X145107143Y-41429449D02*
X145011905Y-41381830D01*
X145011905Y-41381830D02*
X144964286Y-41334211D01*
X144964286Y-41334211D02*
X144916667Y-41238973D01*
X144916667Y-41238973D02*
X144916667Y-41143735D01*
X144916667Y-41143735D02*
X144964286Y-41048497D01*
X144964286Y-41048497D02*
X145011905Y-41000878D01*
X145011905Y-41000878D02*
X145107143Y-40953259D01*
X145107143Y-40953259D02*
X145345238Y-40953259D01*
X145345238Y-40953259D02*
X145488095Y-41000878D01*
X145821429Y-40953259D02*
X146059524Y-41953259D01*
X146059524Y-41953259D02*
X146250000Y-41238973D01*
X146250000Y-41238973D02*
X146440476Y-41953259D01*
X146440476Y-41953259D02*
X146678572Y-40953259D01*
X147488095Y-40953259D02*
X147297619Y-40953259D01*
X147297619Y-40953259D02*
X147202381Y-41000878D01*
X147202381Y-41000878D02*
X147154762Y-41048497D01*
X147154762Y-41048497D02*
X147059524Y-41191354D01*
X147059524Y-41191354D02*
X147011905Y-41381830D01*
X147011905Y-41381830D02*
X147011905Y-41762782D01*
X147011905Y-41762782D02*
X147059524Y-41858020D01*
X147059524Y-41858020D02*
X147107143Y-41905640D01*
X147107143Y-41905640D02*
X147202381Y-41953259D01*
X147202381Y-41953259D02*
X147392857Y-41953259D01*
X147392857Y-41953259D02*
X147488095Y-41905640D01*
X147488095Y-41905640D02*
X147535714Y-41858020D01*
X147535714Y-41858020D02*
X147583333Y-41762782D01*
X147583333Y-41762782D02*
X147583333Y-41524687D01*
X147583333Y-41524687D02*
X147535714Y-41429449D01*
X147535714Y-41429449D02*
X147488095Y-41381830D01*
X147488095Y-41381830D02*
X147392857Y-41334211D01*
X147392857Y-41334211D02*
X147202381Y-41334211D01*
X147202381Y-41334211D02*
X147107143Y-41381830D01*
X147107143Y-41381830D02*
X147059524Y-41429449D01*
X147059524Y-41429449D02*
X147011905Y-41524687D01*
D11*
X108859580Y-57666666D02*
X108907200Y-57714285D01*
X108907200Y-57714285D02*
X108954819Y-57857142D01*
X108954819Y-57857142D02*
X108954819Y-57952380D01*
X108954819Y-57952380D02*
X108907200Y-58095237D01*
X108907200Y-58095237D02*
X108811961Y-58190475D01*
X108811961Y-58190475D02*
X108716723Y-58238094D01*
X108716723Y-58238094D02*
X108526247Y-58285713D01*
X108526247Y-58285713D02*
X108383390Y-58285713D01*
X108383390Y-58285713D02*
X108192914Y-58238094D01*
X108192914Y-58238094D02*
X108097676Y-58190475D01*
X108097676Y-58190475D02*
X108002438Y-58095237D01*
X108002438Y-58095237D02*
X107954819Y-57952380D01*
X107954819Y-57952380D02*
X107954819Y-57857142D01*
X107954819Y-57857142D02*
X108002438Y-57714285D01*
X108002438Y-57714285D02*
X108050057Y-57666666D01*
X107954819Y-56761904D02*
X107954819Y-57238094D01*
X107954819Y-57238094D02*
X108431009Y-57285713D01*
X108431009Y-57285713D02*
X108383390Y-57238094D01*
X108383390Y-57238094D02*
X108335771Y-57142856D01*
X108335771Y-57142856D02*
X108335771Y-56904761D01*
X108335771Y-56904761D02*
X108383390Y-56809523D01*
X108383390Y-56809523D02*
X108431009Y-56761904D01*
X108431009Y-56761904D02*
X108526247Y-56714285D01*
X108526247Y-56714285D02*
X108764342Y-56714285D01*
X108764342Y-56714285D02*
X108859580Y-56761904D01*
X108859580Y-56761904D02*
X108907200Y-56809523D01*
X108907200Y-56809523D02*
X108954819Y-56904761D01*
X108954819Y-56904761D02*
X108954819Y-57142856D01*
X108954819Y-57142856D02*
X108907200Y-57238094D01*
X108907200Y-57238094D02*
X108859580Y-57285713D01*
D13*
%TO.C,R14*%
X119960000Y-44250000D02*
X120730000Y-44250000D01*
X128040000Y-44250000D02*
X127270000Y-44250000D01*
X120730000Y-42880000D02*
X127270000Y-42880000D01*
X127270000Y-45620000D01*
X120730000Y-45620000D01*
X120730000Y-42880000D01*
%TO.C,SW1*%
X168600000Y-32640000D02*
X178820000Y-32640000D01*
X178820000Y-35360000D01*
X168600000Y-35360000D01*
X168600000Y-32640000D01*
D14*
%TO.C,J10*%
X181412500Y-40710000D02*
X191662500Y-40710000D01*
X181412500Y-50870000D02*
X181412500Y-40710000D01*
X191662500Y-40710000D02*
X191662500Y-50870000D01*
X191662500Y-50870000D02*
X181412500Y-50870000D01*
D15*
X192762500Y-48330000D02*
G75*
G02*
X192562500Y-48330000I-100000J0D01*
G01*
X192562500Y-48330000D02*
G75*
G02*
X192762500Y-48330000I100000J0D01*
G01*
D13*
%TO.C,D2*%
X179290000Y-78795000D02*
X179290000Y-75705000D01*
X173740000Y-77250000D02*
G75*
G02*
X179290000Y-75705170I2990000J0D01*
G01*
X179290000Y-78794830D02*
G75*
G02*
X173740000Y-77250000I-2560000J1544830D01*
G01*
X179230000Y-77250000D02*
G75*
G02*
X174230000Y-77250000I-2500000J0D01*
G01*
X174230000Y-77250000D02*
G75*
G02*
X179230000Y-77250000I2500000J0D01*
G01*
D14*
%TO.C,J9*%
X100850000Y-40710000D02*
X111100000Y-40710000D01*
X100850000Y-50870000D02*
X100850000Y-40710000D01*
X111100000Y-40710000D02*
X111100000Y-50870000D01*
X111100000Y-50870000D02*
X100850000Y-50870000D01*
D15*
X99950000Y-43250000D02*
G75*
G02*
X99750000Y-43250000I-100000J0D01*
G01*
X99750000Y-43250000D02*
G75*
G02*
X99950000Y-43250000I100000J0D01*
G01*
%TO.C,U2*%
D16*
X136011600Y-49240200D02*
X179011600Y-49240200D01*
X179011600Y-70240200D01*
X136011600Y-70240200D01*
X136011600Y-49240200D01*
D14*
%TO.C,U1*%
X114950000Y-79200000D02*
X121150000Y-79200000D01*
X114950000Y-97200000D02*
X114950000Y-79200000D01*
X121150000Y-74250000D02*
X121150000Y-79200000D01*
X121150000Y-97200000D02*
X114950000Y-97200000D01*
X121150000Y-97200000D02*
X121150000Y-102150000D01*
X121150000Y-102150000D02*
X169350000Y-102150000D01*
X169350000Y-74250000D02*
X121150000Y-74250000D01*
X169350000Y-84140000D02*
X169350000Y-74250000D01*
X169350000Y-92270000D02*
X170250000Y-92270000D01*
X169350000Y-102150000D02*
X169350000Y-92270000D01*
X170250000Y-84140000D02*
X169350000Y-84140000D01*
X170250000Y-92270000D02*
X170250000Y-84140000D01*
D15*
X122380000Y-102770000D02*
G75*
G02*
X122180000Y-102770000I-100000J0D01*
G01*
X122180000Y-102770000D02*
G75*
G02*
X122380000Y-102770000I100000J0D01*
G01*
D13*
%TO.C,R13*%
X134710000Y-44250000D02*
X135480000Y-44250000D01*
X142790000Y-44250000D02*
X142020000Y-44250000D01*
X135480000Y-42880000D02*
X142020000Y-42880000D01*
X142020000Y-45620000D01*
X135480000Y-45620000D01*
X135480000Y-42880000D01*
%TO.C,TP2*%
X120340000Y-34062500D02*
X122740000Y-34062500D01*
X120340000Y-36462500D02*
X120340000Y-34062500D01*
X122740000Y-34062500D02*
X122740000Y-36462500D01*
X122740000Y-36462500D02*
X120340000Y-36462500D01*
D15*
%TO.C,C8*%
X107410000Y-63980000D02*
X110590000Y-63980000D01*
X107410000Y-69060000D02*
X107410000Y-63980000D01*
X110590000Y-63980000D02*
X110590000Y-69060000D01*
X110590000Y-69060000D02*
X107410000Y-69060000D01*
D13*
%TO.C,TP1*%
X114840000Y-34312500D02*
X117240000Y-34312500D01*
X114840000Y-36712500D02*
X114840000Y-34312500D01*
X117240000Y-34312500D02*
X117240000Y-36712500D01*
X117240000Y-36712500D02*
X114840000Y-36712500D01*
%TO.C,J11*%
X133380000Y-108630000D02*
X133380000Y-107250000D01*
X134760000Y-108630000D02*
X133380000Y-108630000D01*
X136030000Y-105870000D02*
X159000000Y-105870000D01*
X136030000Y-108630000D02*
X136030000Y-105870000D01*
X136030000Y-108630000D02*
X159000000Y-108630000D01*
X159000000Y-108630000D02*
X159000000Y-105870000D01*
%TO.C,SW3*%
X128000000Y-35762500D02*
X128000000Y-37262500D01*
X129250000Y-39762500D02*
X133750000Y-39762500D01*
X133750000Y-33262500D02*
X129250000Y-33262500D01*
X135000000Y-37262500D02*
X135000000Y-35762500D01*
D14*
%TO.C,U3*%
X113340000Y-48940000D02*
X113340000Y-69260000D01*
X114610000Y-48940000D02*
X113340000Y-48940000D01*
X114610000Y-69260000D02*
X113340000Y-69260000D01*
X117000000Y-48940000D02*
X130000000Y-48940000D01*
X117000000Y-69260000D02*
X130000000Y-69260000D01*
X132390000Y-48940000D02*
X133660000Y-48940000D01*
X132390000Y-69260000D02*
X133660000Y-69260000D01*
X133660000Y-69260000D02*
X133660000Y-48940000D01*
D15*
X115980000Y-48371800D02*
G75*
G02*
X115780000Y-48371800I-100000J0D01*
G01*
X115780000Y-48371800D02*
G75*
G02*
X115980000Y-48371800I100000J0D01*
G01*
D13*
%TO.C,R2*%
X176750000Y-86710000D02*
X176750000Y-87480000D01*
X176750000Y-94790000D02*
X176750000Y-94020000D01*
X175380000Y-94020000D02*
X178120000Y-94020000D01*
X178120000Y-87480000D01*
X175380000Y-87480000D01*
X175380000Y-94020000D01*
D14*
%TO.C,J1*%
X151170000Y-33087500D02*
X161330000Y-33087500D01*
X151170000Y-43337500D02*
X151170000Y-33087500D01*
X161330000Y-33087500D02*
X161330000Y-43337500D01*
X161330000Y-43337500D02*
X151170000Y-43337500D01*
D15*
X158890000Y-32087500D02*
G75*
G02*
X158690000Y-32087500I-100000J0D01*
G01*
X158690000Y-32087500D02*
G75*
G02*
X158890000Y-32087500I100000J0D01*
G01*
D13*
%TO.C,SW6*%
X139290000Y-35750000D02*
X139290000Y-37250000D01*
X140540000Y-39750000D02*
X145040000Y-39750000D01*
X145040000Y-33250000D02*
X140540000Y-33250000D01*
X146290000Y-37250000D02*
X146290000Y-35750000D01*
D15*
%TO.C,C5*%
X104410000Y-55440000D02*
X107590000Y-55440000D01*
X104410000Y-60520000D02*
X104410000Y-55440000D01*
X107590000Y-55440000D02*
X107590000Y-60520000D01*
X107590000Y-60520000D02*
X104410000Y-60520000D01*
%TD*%
M02*
