  0
SECTION
  2
HEADER
  9
$ANGBASE
  50
0.0
  9
$ANGDIR
  70
1
  9
$MEASUREMENT
  70
0
  0
ENDSEC
  0
SECTION
  2
TABLES
  0
TABLE
  2
LTYPE
  70
4
  0
LTYPE
  5
40F
  2
CONTINUOUS
  70
0
  3
Solid line
  72
65
  73
0
  40
0.0
  0
LTYPE
  5
410
  2
DASHDOT
 70
0
  3
Dash Dot ____ _ ____ _
 72
65
 73
4
 40
2.0
 49
1.25
 49
-0.25
 49
0.25
 49
-0.25
  0
LTYPE
  5
411
  2
DASHED
 70
0
  3
Dashed __ __ __ __ __
 72
65
 73
2
 40
0.75
 49
0.5
 49
-0.25
  0
LTYPE
  5
43B
  2
DOTTED
 70
0
  3
Dotted .  .  .  .
 72
65
 73
2
 40
0.2
 49
0.0
 49
-0.2
  0
ENDTAB
  0
TABLE
  2
STYLE
  70
4
  0
STYLE
  2
KICAD
  70
0
  40
0
  41
1
  42
1
  50
0
  71
0
  3
isocp.shx
  0
STYLE
  2
KICADB
  70
0
  40
0
  41
1
  42
1
  50
0
  71
0
  3
isocp.shx
  0
STYLE
  2
KICADI
  70
0
  40
0
  41
1
  42
1
  50
15
  71
0
  3
isocp.shx
  0
STYLE
  2
KICADBI
  70
0
  40
0
  41
1
  42
1
  50
15
  71
0
  3
isocp.shx
  0
ENDTAB
  0
TABLE
  2
LAYER
  70
1
  0
LAYER
  2
BLACK
  70
0
  62
7
  6
CONTINUOUS
  0
ENDTAB
  0
ENDSEC
  0
SECTION
  2
ENTITIES
0
LINE
8
BLACK
6
CONTINUOUS
10
7.4860739370078742
20
-1.1808749606299211
11
7.5015422834645671
21
-1.1830327165354331
0
LINE
8
BLACK
6
CONTINUOUS
10
7.5015422834645671
20
-1.1830327165354331
11
7.5167455905511806
21
-1.1866085433070865
0
LINE
8
BLACK
6
CONTINUOUS
10
7.5167455905511806
20
-1.1866085433070865
11
7.5315540551181099
21
-1.1915718897637795
0
LINE
8
BLACK
6
CONTINUOUS
10
7.5315540551181099
20
-1.1915718897637795
11
7.5458414173228343
21
-1.1978804724409449
0
LINE
8
BLACK
6
CONTINUOUS
10
7.5458414173228343
20
-1.1978804724409449
11
7.5594857480314959
21
-1.2054803937007874
0
LINE
8
BLACK
6
CONTINUOUS
10
7.5594857480314959
20
-1.2054803937007874
11
7.5723706299212594
21
-1.2143068110236219
0
LINE
8
BLACK
6
CONTINUOUS
10
7.5723706299212594
20
-1.2143068110236219
11
7.5843861417322831
21
-1.2242844881889763
0
LINE
8
BLACK
6
CONTINUOUS
10
7.5843861417322831
20
-1.2242844881889763
11
7.5954297637795269
21
-1.2353282677165354
0
LINE
8
BLACK
6
CONTINUOUS
10
7.5954297637795269
20
-1.2353282677165354
11
7.6054072440944882
21
-1.247343937007874
0
LINE
8
BLACK
6
CONTINUOUS
10
7.6054072440944882
20
-1.247343937007874
11
7.6142335039370073
21
-1.2602289370078741
0
LINE
8
BLACK
6
CONTINUOUS
10
7.6142335039370073
20
-1.2602289370078741
11
7.6218332283464569
21
-1.2738733858267717
0
LINE
8
BLACK
6
CONTINUOUS
10
7.6218332283464569
20
-1.2738733858267717
11
7.6281415748031494
21
-1.2881608267716536
0
LINE
8
BLACK
6
CONTINUOUS
10
7.6281415748031494
20
-1.2881608267716536
11
7.6331047244094483
21
-1.3029693700787401
0
LINE
8
BLACK
6
CONTINUOUS
10
7.6331047244094483
20
-1.3029693700787401
11
7.6366803149606302
21
-1.3181727165354331
0
LINE
8
BLACK
6
CONTINUOUS
10
7.6366803149606302
20
-1.3181727165354331
11
7.6388378740157474
21
-1.3336411417322835
0
LINE
8
BLACK
6
CONTINUOUS
10
7.6388378740157474
20
-1.3336411417322835
11
7.6395582677165352
21
-1.3492287401574803
0
LINE
8
BLACK
6
CONTINUOUS
10
7.6395582677165352
20
-1.3492287401574803
11
7.639561023622047
21
-1.3492425984251968
0
LINE
8
BLACK
6
CONTINUOUS
10
7.639561023622047
20
-1.3492425984251968
11
7.6395613779527558
21
-1.3492425984251968
0
LINE
8
BLACK
6
CONTINUOUS
10
7.6395613779527558
20
-1.3492425984251968
11
7.6395611417322833
21
-1.3492432283464566
0
LINE
8
BLACK
6
CONTINUOUS
10
7.6395611417322833
20
-1.3492432283464566
11
7.6395612598425195
21
-1.3492437401574804
0
LINE
8
BLACK
6
CONTINUOUS
10
7.6395612598425195
20
-1.3492437401574804
11
7.6387795275590546
21
-2.0275601968503936
0
LINE
8
BLACK
6
CONTINUOUS
10
7.6387795275590546
20
-2.0275601968503936
11
7.6387474803149606
21
-2.027720157480315
0
LINE
8
BLACK
6
CONTINUOUS
10
7.6387474803149606
20
-2.027720157480315
11
7.6387252755905513
21
-2.0278812598425198
0
LINE
8
BLACK
6
CONTINUOUS
10
7.6387252755905513
20
-2.0278812598425198
11
7.2057064173228342
21
-3.2777310629921259
0
LINE
8
BLACK
6
CONTINUOUS
10
7.2057064173228342
20
-3.2777310629921259
11
7.2060971653543309
21
-4.3477113779527556
0
LINE
8
BLACK
6
CONTINUOUS
10
7.2060971653543309
20
-4.3477113779527556
11
7.2060972440944884
21
-4.3477115354330707
0
LINE
8
BLACK
6
CONTINUOUS
10
7.2060972440944884
20
-4.3477115354330707
11
7.2060972047244096
21
-4.3477115354330707
0
LINE
8
BLACK
6
CONTINUOUS
10
7.2060972047244096
20
-4.3477115354330707
11
7.2060972047244096
21
-4.3477150393700787
0
LINE
8
BLACK
6
CONTINUOUS
10
7.2060972047244096
20
-4.3477150393700787
11
7.2060970078740159
21
-4.3477159842519688
0
LINE
8
BLACK
6
CONTINUOUS
10
7.2060970078740159
20
-4.3477159842519688
11
7.2054286614173231
21
-4.3634690551181103
0
LINE
8
BLACK
6
CONTINUOUS
10
7.2054286614173231
20
-4.3634690551181103
11
7.2033054330708657
21
-4.3790971653543309
0
LINE
8
BLACK
6
CONTINUOUS
10
7.2033054330708657
20
-4.3790971653543309
11
7.1997457480314955
21
-4.3944618897637797
0
LINE
8
BLACK
6
CONTINUOUS
10
7.1997457480314955
20
-4.3944618897637797
11
7.1947801574803147
21
-4.4094314960629921
0
LINE
8
BLACK
6
CONTINUOUS
10
7.1947801574803147
20
-4.4094314960629921
11
7.1884511811023621
21
-4.4238775984251966
0
LINE
8
BLACK
6
CONTINUOUS
10
7.1884511811023621
20
-4.4238775984251966
11
7.1808131102362207
21
-4.4376763779527559
0
LINE
8
BLACK
6
CONTINUOUS
10
7.1808131102362207
20
-4.4376763779527559
11
7.1719314566929135
21
-4.4507094881889762
0
LINE
8
BLACK
6
CONTINUOUS
10
7.1719314566929135
20
-4.4507094881889762
11
7.1618823622047243
21
-4.4628651968503936
0
LINE
8
BLACK
6
CONTINUOUS
10
7.1618823622047243
20
-4.4628651968503936
11
7.1507519685039371
21
-4.4740392519685042
0
LINE
8
BLACK
6
CONTINUOUS
10
7.1507519685039371
20
-4.4740392519685042
11
7.1386357086614174
21
-4.4841359055118106
0
LINE
8
BLACK
6
CONTINUOUS
10
7.1386357086614174
20
-4.4841359055118106
11
7.1256374803149605
21
-4.4930685433070865
0
LINE
8
BLACK
6
CONTINUOUS
10
7.1256374803149605
20
-4.4930685433070865
11
7.1118687007874017
21
-4.5007605905511809
0
LINE
8
BLACK
6
CONTINUOUS
10
7.1118687007874017
20
-4.5007605905511809
11
7.0974475196850388
21
-4.5071461023622046
0
LINE
8
BLACK
6
CONTINUOUS
10
7.0974475196850388
20
-4.5071461023622046
11
7.0824974803149603
21
-4.5121703149606303
0
LINE
8
BLACK
6
CONTINUOUS
10
7.0824974803149603
20
-4.5121703149606303
11
7.0671468110236217
21
-4.5157901181102362
0
LINE
8
BLACK
6
CONTINUOUS
10
7.0671468110236217
20
-4.5157901181102362
11
7.0515271259842516
21
-4.5179745275590548
0
LINE
8
BLACK
6
CONTINUOUS
10
7.0515271259842516
20
-4.5179745275590548
11
7.0357723622047246
21
-4.518704803149606
0
LINE
8
BLACK
6
CONTINUOUS
10
7.0357723622047246
20
-4.518704803149606
11
7.0357723622047246
21
-4.518705590551181
0
LINE
8
BLACK
6
CONTINUOUS
10
7.0357723622047246
20
-4.518705590551181
11
7.0357575984251968
21
-4.518700787401575
0
LINE
8
BLACK
6
CONTINUOUS
10
7.0357575984251968
20
-4.518700787401575
11
4.4799756692913384
21
-4.518700787401575
0
LINE
8
BLACK
6
CONTINUOUS
10
4.4799756692913384
20
-4.518700787401575
11
4.464260393700787
21
-4.517974173228346
0
LINE
8
BLACK
6
CONTINUOUS
10
4.464260393700787
20
-4.517974173228346
11
4.4486791732283466
21
-4.5158006299212596
0
LINE
8
BLACK
6
CONTINUOUS
10
4.4486791732283466
20
-4.5158006299212596
11
4.4333650000000002
21
-4.5121987401574799
0
LINE
8
BLACK
6
CONTINUOUS
10
4.4333650000000002
20
-4.5121987401574799
11
4.4184485039370074
21
-4.507199212598425
0
LINE
8
BLACK
6
CONTINUOUS
10
4.4184485039370074
20
-4.507199212598425
11
4.4040568897637797
21
-4.50084468503937
0
LINE
8
BLACK
6
CONTINUOUS
10
4.4040568897637797
20
-4.50084468503937
11
4.3903129921259838
21
-4.4931893700787402
0
LINE
8
BLACK
6
CONTINUOUS
10
4.3903129921259838
20
-4.4931893700787402
11
4.3773340944881891
21
-4.4842986220472438
0
LINE
8
BLACK
6
CONTINUOUS
10
4.3773340944881891
20
-4.4842986220472438
11
4.3652308661417321
21
-4.4742482677165354
0
LINE
8
BLACK
6
CONTINUOUS
10
4.3652308661417321
20
-4.4742482677165354
11
4.3541065748031498
21
-4.463124015748031
0
LINE
8
BLACK
6
CONTINUOUS
10
4.3541065748031498
20
-4.463124015748031
11
4.3440561811023617
21
-4.4510208267716536
0
LINE
8
BLACK
6
CONTINUOUS
10
4.3440561811023617
20
-4.4510208267716536
11
4.3351653543307087
21
-4.4380419685039367
0
LINE
8
BLACK
6
CONTINUOUS
10
4.3351653543307087
20
-4.4380419685039367
11
4.3275100000000002
21
-4.4242981102362204
0
LINE
8
BLACK
6
CONTINUOUS
10
4.3275100000000002
20
-4.4242981102362204
11
4.3211553937007876
21
-4.4099065354330707
0
LINE
8
BLACK
6
CONTINUOUS
10
4.3211553937007876
20
-4.4099065354330707
11
4.3161557874015744
21
-4.3949900393700787
0
LINE
8
BLACK
6
CONTINUOUS
10
4.3161557874015744
20
-4.3949900393700787
11
4.312553818897638
21
-4.3796758661417323
0
LINE
8
BLACK
6
CONTINUOUS
10
4.312553818897638
20
-4.3796758661417323
11
4.310380236220472
21
-4.3640946850393698
0
LINE
8
BLACK
6
CONTINUOUS
10
4.310380236220472
20
-4.3640946850393698
11
4.3096535433070864
21
-4.3483794094488184
0
LINE
8
BLACK
6
CONTINUOUS
10
4.3096535433070864
20
-4.3483794094488184
11
4.3096542913385827
21
-4.3483794094488184
0
LINE
8
BLACK
6
CONTINUOUS
10
4.3096542913385827
20
-4.3483794094488184
11
4.3096544488188977
21
-4.3483788976377955
0
LINE
8
BLACK
6
CONTINUOUS
10
4.3096544488188977
20
-4.3483788976377955
11
4.3100392913385823
21
-3.2580420472440945
0
LINE
8
BLACK
6
CONTINUOUS
10
4.3100392913385823
20
-3.2580420472440945
11
3.8770243307086614
21
-2.0278858661417321
0
LINE
8
BLACK
6
CONTINUOUS
10
3.8770243307086614
20
-2.0278858661417321
11
3.8770009055118111
21
-2.0277222834645667
0
LINE
8
BLACK
6
CONTINUOUS
10
3.8770009055118111
20
-2.0277222834645667
11
3.8769685039370079
21
-2.0275603149606298
0
LINE
8
BLACK
6
CONTINUOUS
10
3.8769685039370079
20
-2.0275603149606298
11
3.8761022834645669
21
-1.3500563779527559
0
LINE
8
BLACK
6
CONTINUOUS
10
3.8761022834645669
20
-1.3500563779527559
11
3.8761025196850394
21
-1.3500551181102363
0
LINE
8
BLACK
6
CONTINUOUS
10
3.8761025196850394
20
-1.3500551181102363
11
3.8761022834645669
21
-1.3500544094488189
0
LINE
8
BLACK
6
CONTINUOUS
10
3.8761022834645669
20
-1.3500544094488189
11
3.8768240157480314
21
-1.3344451181102361
0
LINE
8
BLACK
6
CONTINUOUS
10
3.8768240157480314
20
-1.3344451181102361
11
3.8789829133858267
21
-1.3189689763779526
0
LINE
8
BLACK
6
CONTINUOUS
10
3.8789829133858267
20
-1.3189689763779526
11
3.8825605118110236
21
-1.3037580708661416
0
LINE
8
BLACK
6
CONTINUOUS
10
3.8825605118110236
20
-1.3037580708661416
11
3.887526377952756
21
-1.2889421653543307
0
LINE
8
BLACK
6
CONTINUOUS
10
3.887526377952756
20
-1.2889421653543307
11
3.8938380708661415
21
-1.2746476377952756
0
LINE
8
BLACK
6
CONTINUOUS
10
3.8938380708661415
20
-1.2746476377952756
11
3.901441771653543
21
-1.2609964566929133
0
LINE
8
BLACK
6
CONTINUOUS
10
3.901441771653543
20
-1.2609964566929133
11
3.9102726377952757
21
-1.2481050787401575
0
LINE
8
BLACK
6
CONTINUOUS
10
3.9102726377952757
20
-1.2481050787401575
11
3.9202552755905513
21
-1.2360835039370079
0
LINE
8
BLACK
6
CONTINUOUS
10
3.9202552755905513
20
-1.2360835039370079
11
3.931304527559055
21
-1.2250342913385825
0
LINE
8
BLACK
6
CONTINUOUS
10
3.931304527559055
20
-1.2250342913385825
11
3.9433261417322836
21
-1.2150517322834646
0
LINE
8
BLACK
6
CONTINUOUS
10
3.9433261417322836
20
-1.2150517322834646
11
3.9562175196850391
21
-1.2062209448818897
0
LINE
8
BLACK
6
CONTINUOUS
10
3.9562175196850391
20
-1.2062209448818897
11
3.9698687401574801
21
-1.198617283464567
0
LINE
8
BLACK
6
CONTINUOUS
10
3.9698687401574801
20
-1.198617283464567
11
3.984163307086614
21
-1.1923056299212598
0
LINE
8
BLACK
6
CONTINUOUS
10
3.984163307086614
20
-1.1923056299212598
11
3.9989792519685037
21
-1.1873398425196851
0
LINE
8
BLACK
6
CONTINUOUS
10
3.9989792519685037
20
-1.1873398425196851
11
4.0141901574803152
21
-1.1837622834645669
0
LINE
8
BLACK
6
CONTINUOUS
10
4.0141901574803152
20
-1.1837622834645669
11
4.0296662992125984
21
-1.1816034645669291
0
LINE
8
BLACK
6
CONTINUOUS
10
4.0296662992125984
20
-1.1816034645669291
11
4.0452753149606302
21
-1.1808818110236221
0
LINE
8
BLACK
6
CONTINUOUS
10
4.0452753149606302
20
-1.1808818110236221
11
4.0452753937007877
21
-1.1808818110236221
0
LINE
8
BLACK
6
CONTINUOUS
10
4.0452753937007877
20
-1.1808818110236221
11
4.0452755905511806
21
-1.1808817716535434
0
LINE
8
BLACK
6
CONTINUOUS
10
4.0452755905511806
20
-1.1808817716535434
11
4.0452755905511806
21
-1.1808811023622048
0
LINE
8
BLACK
6
CONTINUOUS
10
4.0452755905511806
20
-1.1808811023622048
11
4.045277755905512
21
-1.1808817716535434
0
LINE
8
BLACK
6
CONTINUOUS
10
4.045277755905512
20
-1.1808817716535434
11
7.4704722440944877
21
-1.1801536614173227
0
LINE
8
BLACK
6
CONTINUOUS
10
7.4704722440944877
20
-1.1801536614173227
11
7.470472362204724
21
-1.1801536614173227
0
LINE
8
BLACK
6
CONTINUOUS
10
7.470472362204724
20
-1.1801536614173227
11
7.4704724409448815
21
-1.1801536614173227
0
LINE
8
BLACK
6
CONTINUOUS
10
7.4704724409448815
20
-1.1801536614173227
11
7.4860739370078742
21
-1.1808749606299211
0
LINE
8
BLACK
6
CONTINUOUS
10
4.0452757874015743
20
-1.18285031496063
11
4.0452755905511806
21
-1.1828502755905512
0
LINE
8
BLACK
6
CONTINUOUS
10
4.0452755905511806
20
-1.1828502755905512
11
4.0452755905511806
21
-1.18285031496063
0
LINE
8
BLACK
6
CONTINUOUS
10
4.0452755905511806
20
-1.18285031496063
11
4.037545275590551
21
-1.18285031496063
0
LINE
8
BLACK
6
CONTINUOUS
10
4.037545275590551
20
-1.18285031496063
11
4.0221505905511812
21
-1.1842768503937007
0
LINE
8
BLACK
6
CONTINUOUS
10
4.0221505905511812
20
-1.1842768503937007
11
4.0069531889763779
21
-1.1871177559055117
0
LINE
8
BLACK
6
CONTINUOUS
10
4.0069531889763779
20
-1.1871177559055117
11
3.9920827165354331
21
-1.1913487401574803
0
LINE
8
BLACK
6
CONTINUOUS
10
3.9920827165354331
20
-1.1913487401574803
11
3.9776661023622046
21
-1.1969337401574802
0
LINE
8
BLACK
6
CONTINUOUS
10
3.9776661023622046
20
-1.1969337401574802
11
3.9638262992125983
21
-1.2038251181102362
0
LINE
8
BLACK
6
CONTINUOUS
10
3.9638262992125983
20
-1.2038251181102362
11
3.9506813779527556
21
-1.2119640944881889
0
LINE
8
BLACK
6
CONTINUOUS
10
3.9506813779527556
20
-1.2119640944881889
11
3.9383435039370078
21
-1.2212811811023623
0
LINE
8
BLACK
6
CONTINUOUS
10
3.9383435039370078
20
-1.2212811811023623
11
3.9269179133858265
21
-1.2316969291338582
0
LINE
8
BLACK
6
CONTINUOUS
10
3.9269179133858265
20
-1.2316969291338582
11
3.9165021259842518
21
-1.2431224803149605
0
LINE
8
BLACK
6
CONTINUOUS
10
3.9165021259842518
20
-1.2431224803149605
11
3.9071849606299214
21
-1.2554603149606298
0
LINE
8
BLACK
6
CONTINUOUS
10
3.9071849606299214
20
-1.2554603149606298
11
3.8990459448818897
21
-1.2686051968503937
0
LINE
8
BLACK
6
CONTINUOUS
10
3.8990459448818897
20
-1.2686051968503937
11
3.8921544881889765
21
-1.2824449606299213
0
LINE
8
BLACK
6
CONTINUOUS
10
3.8921544881889765
20
-1.2824449606299213
11
3.886569409448819
21
-1.2968615748031496
0
LINE
8
BLACK
6
CONTINUOUS
10
3.886569409448819
20
-1.2968615748031496
11
3.8823383858267717
21
-1.3117320078740158
0
LINE
8
BLACK
6
CONTINUOUS
10
3.8823383858267717
20
-1.3117320078740158
11
3.8794974409448817
21
-1.3269294094488189
0
LINE
8
BLACK
6
CONTINUOUS
10
3.8794974409448817
20
-1.3269294094488189
11
3.8780708267716535
21
-1.3423240944881889
0
LINE
8
BLACK
6
CONTINUOUS
10
3.8780708267716535
20
-1.3423240944881889
11
3.8780707874015747
21
-1.3500538582677164
0
LINE
8
BLACK
6
CONTINUOUS
10
3.8780707874015747
20
-1.3500538582677164
11
3.8789367716535432
21
-2.0273901968503938
0
LINE
8
BLACK
6
CONTINUOUS
10
3.8789367716535432
20
-2.0273901968503938
11
4.3119520472440946
21
-3.2575472047244092
0
LINE
8
BLACK
6
CONTINUOUS
10
4.3119520472440946
20
-3.2575472047244092
11
4.311975551181102
21
-3.2577116929133858
0
LINE
8
BLACK
6
CONTINUOUS
10
4.311975551181102
20
-3.2577116929133858
11
4.3120078740157481
21
-3.2578743700787403
0
LINE
8
BLACK
6
CONTINUOUS
10
4.3120078740157481
20
-3.2578743700787403
11
4.3116229527559051
21
-4.3483797637795272
0
LINE
8
BLACK
6
CONTINUOUS
10
4.3116229527559051
20
-4.3483797637795272
11
4.3116220472440947
21
-4.3483842913385828
0
LINE
8
BLACK
6
CONTINUOUS
10
4.3116220472440947
20
-4.3483842913385828
11
4.3116220866141735
21
-4.3561628346456693
0
LINE
8
BLACK
6
CONTINUOUS
10
4.3116220866141735
20
-4.3561628346456693
11
4.3130585433070863
21
-4.371663267716535
0
LINE
8
BLACK
6
CONTINUOUS
10
4.3130585433070863
20
-4.371663267716535
11
4.3159190551181101
21
-4.3869650393700788
0
LINE
8
BLACK
6
CONTINUOUS
10
4.3159190551181101
20
-4.3869650393700788
11
4.3201792125984255
21
-4.4019376377952755
0
LINE
8
BLACK
6
CONTINUOUS
10
4.3201792125984255
20
-4.4019376377952755
11
4.3258027165354331
21
-4.4164532677165349
0
LINE
8
BLACK
6
CONTINUOUS
10
4.3258027165354331
20
-4.4164532677165349
11
4.3327415354330707
21
-4.4303881102362208
0
LINE
8
BLACK
6
CONTINUOUS
10
4.3327415354330707
20
-4.4303881102362208
11
4.3409364566929129
21
-4.4436232677165357
0
LINE
8
BLACK
6
CONTINUOUS
10
4.3409364566929129
20
-4.4436232677165357
11
4.3503176377952757
21
-4.4560458661417321
0
LINE
8
BLACK
6
CONTINUOUS
10
4.3503176377952757
20
-4.4560458661417321
11
4.360805
21
-4.4675498818897639
0
LINE
8
BLACK
6
CONTINUOUS
10
4.360805
20
-4.4675498818897639
11
4.3723090551181105
21
-4.4780371653543307
0
LINE
8
BLACK
6
CONTINUOUS
10
4.3723090551181105
20
-4.4780371653543307
11
4.3847316929133857
21
-4.4874182677165351
0
LINE
8
BLACK
6
CONTINUOUS
10
4.3847316929133857
20
-4.4874182677165351
11
4.3979668897637794
21
-4.4956131889763782
0
LINE
8
BLACK
6
CONTINUOUS
10
4.3979668897637794
20
-4.4956131889763782
11
4.4119017716535431
21
-4.5025519291338583
0
LINE
8
BLACK
6
CONTINUOUS
10
4.4119017716535431
20
-4.5025519291338583
11
4.4264174015748035
21
-4.5081753543307084
0
LINE
8
BLACK
6
CONTINUOUS
10
4.4264174015748035
20
-4.5081753543307084
11
4.4413900000000002
21
-4.5124354330708663
0
LINE
8
BLACK
6
CONTINUOUS
10
4.4413900000000002
20
-4.5124354330708663
11
4.4566918110236218
21
-4.5152958661417326
0
LINE
8
BLACK
6
CONTINUOUS
10
4.4566918110236218
20
-4.5152958661417326
11
4.4721922440944883
21
-4.5167322834645667
0
LINE
8
BLACK
6
CONTINUOUS
10
4.4721922440944883
20
-4.5167322834645667
11
4.4799756692913384
21
-4.5167322834645667
0
LINE
8
BLACK
6
CONTINUOUS
10
4.4799756692913384
20
-4.5167322834645667
11
7.0357723622047246
21
-4.5167322834645667
0
LINE
8
BLACK
6
CONTINUOUS
10
7.0357723622047246
20
-4.5167322834645667
11
7.0357925196850388
21
-4.5167362598425198
0
LINE
8
BLACK
6
CONTINUOUS
10
7.0357925196850388
20
-4.5167362598425198
11
7.0435753937007872
21
-4.5167353937007872
0
LINE
8
BLACK
6
CONTINUOUS
10
7.0435753937007872
20
-4.5167353937007872
11
7.0591145275590552
21
-4.515291811023622
0
LINE
8
BLACK
6
CONTINUOUS
10
7.0591145275590552
20
-4.515291811023622
11
7.0744535433070865
21
-4.5124170866141728
0
LINE
8
BLACK
6
CONTINUOUS
10
7.0744535433070865
20
-4.5124170866141728
11
7.0894608661417324
21
-4.5081358661417319
0
LINE
8
BLACK
6
CONTINUOUS
10
7.0894608661417324
20
-4.5081358661417319
11
7.104007874015748
21
-4.5024848425196851
0
LINE
8
BLACK
6
CONTINUOUS
10
7.104007874015748
20
-4.5024848425196851
11
7.1179698031496059
21
-4.4955125196850396
0
LINE
8
BLACK
6
CONTINUOUS
10
7.1179698031496059
20
-4.4955125196850396
11
7.1312269685039364
21
-4.4872786614173226
0
LINE
8
BLACK
6
CONTINUOUS
10
7.1312269685039364
20
-4.4872786614173226
11
7.143665708661417
21
-4.4778538188976373
0
LINE
8
BLACK
6
CONTINUOUS
10
7.143665708661417
20
-4.4778538188976373
11
7.1551792913385821
21
-4.4673188188976374
0
LINE
8
BLACK
6
CONTINUOUS
10
7.1551792913385821
20
-4.4673188188976374
11
7.1656690944881891
21
-4.4557640551181104
0
LINE
8
BLACK
6
CONTINUOUS
10
7.1656690944881891
20
-4.4557640551181104
11
7.1750451574803149
21
-4.4432885039370076
0
LINE
8
BLACK
6
CONTINUOUS
10
7.1750451574803149
20
-4.4432885039370076
11
7.1832270472440944
21
-4.4299992125984247
0
LINE
8
BLACK
6
CONTINUOUS
10
7.1832270472440944
20
-4.4299992125984247
11
7.1901446456692915
21
-4.4160100787401575
0
LINE
8
BLACK
6
CONTINUOUS
10
7.1901446456692915
20
-4.4160100787401575
11
7.1957386220472443
21
-4.4014410236220467
0
LINE
8
BLACK
6
CONTINUOUS
10
7.1957386220472443
20
-4.4014410236220467
11
7.1999610236220475
21
-4.3864170472440946
0
LINE
8
BLACK
6
CONTINUOUS
10
7.1999610236220475
20
-4.3864170472440946
11
7.20277562992126
21
-4.371066889763779
0
LINE
8
BLACK
6
CONTINUOUS
10
7.20277562992126
20
-4.371066889763779
11
7.2041583464566932
21
-4.3555222047244095
0
LINE
8
BLACK
6
CONTINUOUS
10
7.2041583464566932
20
-4.3555222047244095
11
7.2041287007874013
21
-4.3477192519685035
0
LINE
8
BLACK
6
CONTINUOUS
10
7.2041287007874013
20
-4.3477192519685035
11
7.2041287401574801
21
-4.3477192519685035
0
LINE
8
BLACK
6
CONTINUOUS
10
7.2041287401574801
20
-4.3477192519685035
11
7.2041291338582676
21
-4.3477179527559056
0
LINE
8
BLACK
6
CONTINUOUS
10
7.2041291338582676
20
-4.3477179527559056
11
7.2041287007874013
21
-4.3477157480314963
0
LINE
8
BLACK
6
CONTINUOUS
10
7.2041287007874013
20
-4.3477157480314963
11
7.2037378740157481
21
-3.2775659842519684
0
LINE
8
BLACK
6
CONTINUOUS
10
7.2037378740157481
20
-3.2775659842519684
11
7.203774251968504
21
-3.2773825984251967
0
LINE
8
BLACK
6
CONTINUOUS
10
7.203774251968504
20
-3.2773825984251967
11
7.2037944094488191
21
-3.2772368503937006
0
LINE
8
BLACK
6
CONTINUOUS
10
7.2037944094488191
20
-3.2772368503937006
11
7.6368111811023622
21
-2.0273927559055118
0
LINE
8
BLACK
6
CONTINUOUS
10
7.6368111811023622
20
-2.0273927559055118
11
7.6375927559055112
21
-1.3492425984251968
0
LINE
8
BLACK
6
CONTINUOUS
10
7.6375927559055112
20
-1.3492425984251968
11
7.6375904330708657
21
-1.3492425984251968
0
LINE
8
BLACK
6
CONTINUOUS
10
7.6375904330708657
20
-1.3492425984251968
11
7.637590551181102
21
-1.3415161811023621
0
LINE
8
BLACK
6
CONTINUOUS
10
7.637590551181102
20
-1.3415161811023621
11
7.6361649606299213
21
-1.3261292913385827
0
LINE
8
BLACK
6
CONTINUOUS
10
7.6361649606299213
20
-1.3261292913385827
11
7.6333257086614168
21
-1.3109395669291339
0
LINE
8
BLACK
6
CONTINUOUS
10
7.6333257086614168
20
-1.3109395669291339
11
7.6290970078740159
21
-1.2960766141732283
0
LINE
8
BLACK
6
CONTINUOUS
10
7.6290970078740159
20
-1.2960766141732283
11
7.6235149606299215
21
-1.2816672047244093
0
LINE
8
BLACK
6
CONTINUOUS
10
7.6235149606299215
20
-1.2816672047244093
11
7.6166272047244092
21
-1.2678343700787402
0
LINE
8
BLACK
6
CONTINUOUS
10
7.6166272047244092
20
-1.2678343700787402
11
7.6084924803149603
21
-1.254696062992126
0
LINE
8
BLACK
6
CONTINUOUS
10
7.6084924803149603
20
-1.254696062992126
11
7.5991801968503934
21
-1.2423643700787401
0
LINE
8
BLACK
6
CONTINUOUS
10
7.5991801968503934
20
-1.2423643700787401
11
7.5887698031496065
21
-1.2309445275590551
0
LINE
8
BLACK
6
CONTINUOUS
10
7.5887698031496065
20
-1.2309445275590551
11
7.5773500787401575
21
-1.2205339763779528
0
LINE
8
BLACK
6
CONTINUOUS
10
7.5773500787401575
20
-1.2205339763779528
11
7.5650185433070867
21
-1.2112214960629921
0
LINE
8
BLACK
6
CONTINUOUS
10
7.5650185433070867
20
-1.2112214960629921
11
7.5518803543307085
21
-1.2030865748031496
0
LINE
8
BLACK
6
CONTINUOUS
10
7.5518803543307085
20
-1.2030865748031496
11
7.5380475984251971
21
-1.196198622047244
0
LINE
8
BLACK
6
CONTINUOUS
10
7.5380475984251971
20
-1.196198622047244
11
7.523638307086614
21
-1.1906163779527559
0
LINE
8
BLACK
6
CONTINUOUS
10
7.523638307086614
20
-1.1906163779527559
11
7.5087754330708663
21
-1.1863874803149606
0
LINE
8
BLACK
6
CONTINUOUS
10
7.5087754330708663
20
-1.1863874803149606
11
7.493585708661417
21
-1.1835479921259842
0
LINE
8
BLACK
6
CONTINUOUS
10
7.493585708661417
20
-1.1835479921259842
11
7.4781988582677164
21
-1.1821221653543308
0
LINE
8
BLACK
6
CONTINUOUS
10
7.4781988582677164
20
-1.1821221653543308
11
7.4704726377952753
21
-1.1821221653543308
0
LINE
8
BLACK
6
CONTINUOUS
10
7.4704726377952753
20
-1.1821221653543308
11
4.0452757874015743
21
-1.18285031496063
  0
ENDSEC
  0
EOF
